  0
SECTION
  2
HEADER
  9
$ACADVER
  1
AC1014
  9
$ACADMAINTVER
 70
     9
  9
$DWGCODEPAGE
  3
ANSI_1252
  9
$INSBASE
 10
0.0
 20
0.0
 30
0.0
  9
$EXTMIN
 10
0.0
 20
0.0
 30
0.0
  9
$EXTMAX
 10
96.062992126
 20
48.031496063
 30
0.0
  9
$LIMMIN
 10
0.0
 20
0.0
  9
$LIMMAX
 10
96.062992126
 20
48.031496063
  9
$ORTHOMODE
 70
     0
  9
$REGENMODE
 70
     1
  9
$FILLMODE
 70
     1
  9
$QTEXTMODE
 70
     0
  9
$MIRRTEXT
 70
     1
  9
$DRAGMODE
 70
     2
  9
$LTSCALE
 40
1.0
  9
$OSMODE
 70
    37
  9
$ATTMODE
 70
     1
  9
$TEXTSIZE
 40
0.1377952756
  9
$TRACEWID
 40
0.05
  9
$TEXTSTYLE
  7
STANDARD
  9
$CLAYER
  8
0
  9
$CELTYPE
  6
BYLAYER
  9
$CECOLOR
 62
   256
  9
$CELTSCALE
 40
1.0
  9
$DELOBJ
 70
     1
  9
$DISPSILH
 70
     0
  9
$DIMSCALE
 40
1.0
  9
$DIMASZ
 40
0.13
  9
$DIMEXO
 40
0.0393700787
  9
$DIMDLI
 40
0.38
  9
$DIMRND
 40
0.0
  9
$DIMDLE
 40
0.0
  9
$DIMEXE
 40
0.0393700787
  9
$DIMTP
 40
0.0
  9
$DIMTM
 40
0.0
  9
$DIMTXT
 40
0.1805555556
  9
$DIMCEN
 40
0.09
  9
$DIMTSZ
 40
0.0
  9
$DIMTOL
 70
     0
  9
$DIMLIM
 70
     0
  9
$DIMTIH
 70
     1
  9
$DIMTOH
 70
     1
  9
$DIMSE1
 70
     0
  9
$DIMSE2
 70
     0
  9
$DIMTAD
 70
     1
  9
$DIMZIN
 70
     0
  9
$DIMBLK
  1

  9
$DIMASO
 70
     1
  9
$DIMSHO
 70
     1
  9
$DIMPOST
  1

  9
$DIMAPOST
  1

  9
$DIMALT
 70
     0
  9
$DIMALTD
 70
     2
  9
$DIMALTF
 40
25.4
  9
$DIMLFAC
 40
1.0
  9
$DIMTOFL
 70
     0
  9
$DIMTVP
 40
0.0
  9
$DIMTIX
 70
     0
  9
$DIMSOXD
 70
     0
  9
$DIMSAH
 70
     0
  9
$DIMBLK1
  1

  9
$DIMBLK2
  1

  9
$DIMSTYLE
  2
STANDARD
  9
$DIMCLRD
 70
     0
  9
$DIMCLRE
 70
     0
  9
$DIMCLRT
 70
     0
  9
$DIMTFAC
 40
1.0
  9
$DIMGAP
 40
0.06
  9
$DIMJUST
 70
     0
  9
$DIMSD1
 70
     0
  9
$DIMSD2
 70
     0
  9
$DIMTOLJ
 70
     1
  9
$DIMTZIN
 70
     0
  9
$DIMALTZ
 70
     0
  9
$DIMALTTZ
 70
     0
  9
$DIMFIT
 70
     3
  9
$DIMUPT
 70
     0
  9
$DIMUNIT
 70
     2
  9
$DIMDEC
 70
     2
  9
$DIMTDEC
 70
     2
  9
$DIMALTU
 70
     2
  9
$DIMALTTD
 70
     2
  9
$DIMTXSTY
  7
STANDARD
  9
$DIMAUNIT
 70
     0
  9
$LUNITS
 70
     2
  9
$LUPREC
 70
     2
  9
$SKETCHINC
 40
0.1
  9
$FILLETRAD
 40
0.5
  9
$AUNITS
 70
     0
  9
$AUPREC
 70
     2
  9
$MENU
  1
.
  9
$ELEVATION
 40
0.0
  9
$PELEVATION
 40
0.0
  9
$THICKNESS
 40
0.0
  9
$LIMCHECK
 70
     0
  9
$CHAMFERA
 40
0.0
  9
$CHAMFERB
 40
0.0
  9
$CHAMFERC
 40
0.0
  9
$CHAMFERD
 40
0.0
  9
$SKPOLY
 70
     0
  9
$TDCREATE
 40
2457697.539957951
  9
$TDUPDATE
 40
2457697.539958299
  9
$TDINDWG
 40
0.0000000116
  9
$TDUSRTIMER
 40
0.0000000116
  9
$USRTIMER
 70
     1
  9
$ANGBASE
 50
0.0
  9
$ANGDIR
 70
     0
  9
$PDMODE
 70
     0
  9
$PDSIZE
 40
-1.0
  9
$PLINEWID
 40
0.0
  9
$COORDS
 70
     1
  9
$SPLFRAME
 70
     0
  9
$SPLINETYPE
 70
     6
  9
$SPLINESEGS
 70
     8
  9
$ATTDIA
 70
     0
  9
$ATTREQ
 70
     1
  9
$HANDLING
 70
     1
  9
$HANDSEED
  5
3B0
  9
$SURFTAB1
 70
     6
  9
$SURFTAB2
 70
     6
  9
$SURFTYPE
 70
     6
  9
$SURFU
 70
     6
  9
$SURFV
 70
     6
  9
$UCSNAME
  2

  9
$UCSORG
 10
0.0
 20
0.0
 30
0.0
  9
$UCSXDIR
 10
1.0
 20
0.0
 30
0.0
  9
$UCSYDIR
 10
0.0
 20
1.0
 30
0.0
  9
$PUCSNAME
  2

  9
$PUCSORG
 10
0.0
 20
0.0
 30
0.0
  9
$PUCSXDIR
 10
1.0
 20
0.0
 30
0.0
  9
$PUCSYDIR
 10
0.0
 20
1.0
 30
0.0
  9
$USERI1
 70
     0
  9
$USERI2
 70
     0
  9
$USERI3
 70
     0
  9
$USERI4
 70
     0
  9
$USERI5
 70
     0
  9
$USERR1
 40
0.0
  9
$USERR2
 40
0.0
  9
$USERR3
 40
0.0
  9
$USERR4
 40
0.0
  9
$USERR5
 40
0.0
  9
$WORLDVIEW
 70
     1
  9
$SHADEDGE
 70
     3
  9
$SHADEDIF
 70
    70
  9
$TILEMODE
 70
     1
  9
$MAXACTVP
 70
    64
  9
$PINSBASE
 10
0.0
 20
0.0
 30
0.0
  9
$PLIMCHECK
 70
     0
  9
$PEXTMIN
 10
1.0000000000E+20
 20
1.0000000000E+20
 30
1.0000000000E+20
  9
$PEXTMAX
 10
-1.0000000000E+20
 20
-1.0000000000E+20
 30
-1.0000000000E+20
  9
$PLIMMIN
 10
0.0
 20
0.0
  9
$PLIMMAX
 10
12.0
 20
9.0
  9
$UNITMODE
 70
     0
  9
$VISRETAIN
 70
     1
  9
$PLINEGEN
 70
     0
  9
$PSLTSCALE
 70
     1
  9
$TREEDEPTH
 70
  3020
  9
$PICKSTYLE
 70
     1
  9
$CMLSTYLE
  2
STANDARD
  9
$CMLJUST
 70
     0
  9
$CMLSCALE
 40
1.0
  9
$PROXYGRAPHICS
 70
     1
  9
$MEASUREMENT
 70
     0
  0
ENDSEC
  0
SECTION
  2
CLASSES
  0
CLASS
  1
ACDBDICTIONARYWDFLT
  2
AcDbDictionaryWithDefault
  3
ObjectDBX Classes
 90
        0
280
     0
281
     0
  0
CLASS
  1
VISUALSTYLE
  2
AcDbVisualStyle
  3
ObjectDBX Classes
 90
     4095
280
     0
281
     0
  0
CLASS
  1
MATERIAL
  2
AcDbMaterial
  3
ObjectDBX Classes
 90
     1153
280
     0
281
     0
  0
CLASS
  1
SCALE
  2
AcDbScale
  3
ObjectDBX Classes
 90
     1153
280
     0
281
     0
  0
CLASS
  1
TABLESTYLE
  2
AcDbTableStyle
  3
ObjectDBX Classes
 90
     4095
280
     0
281
     0
  0
CLASS
  1
MLEADERSTYLE
  2
AcDbMLeaderStyle
  3
ACDB_MLEADERSTYLE_CLASS
 90
     4095
280
     0
281
     0
  0
CLASS
  1
SUN
  2
AcDbSun
  3
SCENEOE
 90
     1153
280
     0
281
     0
  0
CLASS
  1
XRECORD
  2
AcDbXrecord
  3
ObjectDBX Classes
 90
        0
280
     0
281
     0
  0
CLASS
  1
LWPOLYLINE
  2
AcDbPolyline
  3
ObjectDBX Classes
 90
        0
280
     0
281
     1
  0
CLASS
  1
HATCH
  2
AcDbHatch
  3
ObjectDBX Classes
 90
        0
280
     0
281
     1
  0
ENDSEC
  0
SECTION
  2
TABLES
  0
TABLE
  2
VPORT
  5
8
330
0
100
AcDbSymbolTable
 70
     1
  0
VPORT
  5
29
330
8
100
AcDbSymbolTableRecord
100
AcDbViewportTableRecord
  2
*ACTIVE
 70
     0
 10
0.0
 20
0.0
 11
1.0
 21
1.0
 12
48.031496063
 22
24.0157480315
 13
0.0
 23
0.0
 14
0.5
 24
0.5
 15
0.5
 25
0.5
 16
0.0
 26
0.0
 36
1.0
 17
0.0
 27
0.0
 37
0.0
 40
48.031496063
 41
2.0
 42
50.0
 43
0.0
 44
0.0
 50
0.0
 51
0.0
 71
     0
 72
  2000
 73
     1
 74
     3
 75
     0
 76
     0
 77
     0
 78
     0
  0
ENDTAB
  0
TABLE
  2
LTYPE
  5
5
330
0
100
AcDbSymbolTable
 70
     6
  0
LTYPE
  5
14
330
5
100
AcDbSymbolTableRecord
100
AcDbLinetypeTableRecord
  2
BYBLOCK
 70
     0
  3

 72
    65
 73
     0
 40
0.0
  0
LTYPE
  5
15
330
5
100
AcDbSymbolTableRecord
100
AcDbLinetypeTableRecord
  2
BYLAYER
 70
     0
  3

 72
    65
 73
     0
 40
0.0
  0
LTYPE
  5
16
330
5
100
AcDbSymbolTableRecord
100
AcDbLinetypeTableRecord
  2
CONTINUOUS
 70
     0
  3
Solid line
 72
    65
 73
     0
 40
0.0
  0
LTYPE
  5
6E
330
5
100
AcDbSymbolTableRecord
100
AcDbLinetypeTableRecord
  2
HIDDEN
 70
     0
  3
Hidden __ __ __ __ __ __ __ __ __ __ __ __ __ __
 72
    65
 73
     2
 40
0.075
 49
0.05
 74
     0
 49
-0.025
 74
     0
  0
LTYPE
  5
6F
330
5
100
AcDbSymbolTableRecord
100
AcDbLinetypeTableRecord
  2
PHANTOM
 70
     0
  3
Phantom ______  __  __  ______  __  __  ______
 72
    65
 73
     6
 40
0.5
 49
0.25
 74
     0
 49
-0.05
 74
     0
 49
0.05
 74
     0
 49
-0.05
 74
     0
 49
0.05
 74
     0
 49
-0.05
 74
     0
  0
LTYPE
  5
70
330
5
100
AcDbSymbolTableRecord
100
AcDbLinetypeTableRecord
  2
CENTER
 70
     0
  3
Center ____ _ ____ _ ____ _ ____ _ ____ _ ____
 72
    65
 73
     4
 40
0.4
 49
0.25
 74
     0
 49
-0.05
 74
     0
 49
0.05
 74
     0
 49
-0.05
 74
     0
  0
LTYPE
  5
71
330
5
100
AcDbSymbolTableRecord
100
AcDbLinetypeTableRecord
  2
CENTERX2
 70
     0
  3
Center (2x) ________  __  ________  __  _____
 72
    65
 73
     4
 40
0.8
 49
0.5
 74
     0
 49
-0.1
 74
     0
 49
0.1
 74
     0
 49
-0.1
 74
     0
  0
LTYPE
  5
72
330
5
100
AcDbSymbolTableRecord
100
AcDbLinetypeTableRecord
  2
DOT2
 70
     0
  3
Dot (.5x) ........................................
 72
    65
 73
     2
 40
0.025
 49
0.0
 74
     0
 49
-0.025
 74
     0
  0
ENDTAB
  0
TABLE
  2
LAYER
  5
2
330
0
100
AcDbSymbolTable
 70
     6
  0
LAYER
  5
10
330
2
100
AcDbSymbolTableRecord
100
AcDbLayerTableRecord
  2
0
 70
     0
 62
     7
  6
CONTINUOUS
  0
LAYER
  5
73
330
2
100
AcDbSymbolTableRecord
100
AcDbLayerTableRecord
  2
BOX_STOCK
 70
     0
 62
     1
  6
CONTINUOUS
  0
LAYER
  5
74
330
2
100
AcDbSymbolTableRecord
100
AcDbLayerTableRecord
  2
HOLES
 70
     0
 62
    30
  6
CONTINUOUS
  0
LAYER
  5
75
330
2
100
AcDbSymbolTableRecord
100
AcDbLayerTableRecord
  2
POCKETS
 70
     0
 62
   171
  6
CONTINUOUS
  0
LAYER
  5
76
330
2
100
AcDbSymbolTableRecord
100
AcDbLayerTableRecord
  2
PROFILES_OUTSIDE
 70
     0
 62
     6
  6
CONTINUOUS
  0
LAYER
  5
77
330
2
100
AcDbSymbolTableRecord
100
AcDbLayerTableRecord
  2
PROFILES_INSIDE
 70
     0
 62
     4
  6
CONTINUOUS
  0
ENDTAB
  0
TABLE
  2
STYLE
  5
3
330
0
100
AcDbSymbolTable
 70
     1
  0
STYLE
  5
11
330
3
100
AcDbSymbolTableRecord
100
AcDbTextStyleTableRecord
  2
STANDARD
 70
     0
 40
0.0
 41
1.0
 50
0.0
 71
     0
 42
0.1377952756
  3
txt
  4

  0
ENDTAB
  0
TABLE
  2
VIEW
  5
6
330
0
100
AcDbSymbolTable
 70
     0
  0
ENDTAB
  0
TABLE
  2
UCS
  5
7
330
0
100
AcDbSymbolTable
 70
     0
  0
ENDTAB
  0
TABLE
  2
APPID
  5
9
330
0
100
AcDbSymbolTable
 70
     1
  0
APPID
  5
12
330
9
100
AcDbSymbolTableRecord
100
AcDbRegAppTableRecord
  2
ACAD
 70
     0
  0
ENDTAB
  0
TABLE
  2
DIMSTYLE
  5
A
330
0
100
AcDbSymbolTable
 70
     1
  0
DIMSTYLE
105
27
330
A
100
AcDbSymbolTableRecord
100
AcDbDimStyleTableRecord
  2
STANDARD
 70
     0
  3

  4

  5

  6

  7

 40
1.0
 41
0.18
 42
0.0625
 43
0.38
 44
0.18
 45
0.0
 46
0.0
 47
0.0
 48
0.0
140
0.18
141
0.09
142
0.0
143
25.4
144
1.0
145
0.0
146
1.0
147
0.09
 71
     0
 72
     0
 73
     1
 74
     1
 75
     0
 76
     0
 77
     0
 78
     0
170
     0
171
     2
172
     0
173
     0
174
     0
175
     0
176
     0
177
     0
178
     0
270
     2
271
     4
272
     4
273
     2
274
     2
340
11
275
     0
280
     0
281
     0
282
     0
283
     1
284
     0
285
     0
286
     0
287
     3
288
     0
  0
ENDTAB
  0
TABLE
  2
BLOCK_RECORD
  5
1
330
0
100
AcDbSymbolTable
 70
     1
  0
BLOCK_RECORD
  5
1F
330
1
100
AcDbSymbolTableRecord
100
AcDbBlockTableRecord
  2
*MODEL_SPACE
  0
BLOCK_RECORD
  5
1B
330
1
100
AcDbSymbolTableRecord
100
AcDbBlockTableRecord
  2
*PAPER_SPACE
  0
BLOCK_RECORD
  5
23
330
1
100
AcDbSymbolTableRecord
100
AcDbBlockTableRecord
  2
*PAPER_SPACE0
  0
ENDTAB
  0
ENDSEC
  0
SECTION
  2
BLOCKS
  0
BLOCK
  5
20
330
1F
100
AcDbEntity
  8
0
100
AcDbBlockBegin
  2
*MODEL_SPACE
 70
     0
 10
0.0
 20
0.0
 30
0.0
  3
*MODEL_SPACE
  1

  0
ENDBLK
  5
21
330
1F
100
AcDbEntity
  8
0
100
AcDbBlockEnd
  0
BLOCK
  5
1C
330
1B
100
AcDbEntity
 67
     1
  8
0
100
AcDbBlockBegin
  2
*PAPER_SPACE
 70
     0
 10
0.0
 20
0.0
 30
0.0
  3
*PAPER_SPACE
  1

  0
ENDBLK
  5
1D
330
1B
100
AcDbEntity
 67
     1
  8
0
100
AcDbBlockEnd
  0
BLOCK
  5
24
330
23
100
AcDbEntity
  8
0
100
AcDbBlockBegin
  2
*PAPER_SPACE0
 70
     0
 10
0.0
 20
0.0
 30
0.0
  3
*PAPER_SPACE0
  1

  0
ENDBLK
  5
25
330
23
100
AcDbEntity
  8
0
100
AcDbBlockEnd
  0
ENDSEC
  0
SECTION
  2
ENTITIES
  0
LINE
  5
78
330
1F
100
AcDbEntity
  8
0
  6
CONTINUOUS
 62
     7
100
AcDbLine
 10
37.0404417406
 20
6.8466108871
 30
0.0
 11
37.0561900387
 21
6.6005481296
 31
0.0
  0
LINE
  5
79
330
1F
100
AcDbEntity
  8
0
  6
CONTINUOUS
 62
     7
100
AcDbLine
 10
37.0561900387
 20
6.6005481296
 30
0.0
 11
37.6498828069
 21
6.6005481296
 31
0.0
  0
ARC
  5
7A
330
1F
100
AcDbEntity
  8
0
  6
CONTINUOUS
 62
     7
100
AcDbCircle
 10
37.6498833945
 20
6.561177907
 30
0.0
 40
0.0393700787401574
100
AcDbArc
 50
64.7125991044
 51
90.0
  0
ARC
  5
7B
330
1F
100
AcDbEntity
  8
0
  6
CONTINUOUS
 62
     7
100
AcDbCircle
 10
37.7482224709
 20
6.7693342887
 30
0.0
 40
0.190846456692914
100
AcDbArc
 50
244.7125991044
 51
72.4587608814
  0
ARC
  5
7C
330
1F
100
AcDbEntity
  8
0
  6
CONTINUOUS
 62
     7
100
AcDbCircle
 10
37.8176079315
 20
6.988845817
 30
0.0
 40
0.0393700787401556
100
AcDbArc
 50
180.0
 51
252.4587608814
  0
LINE
  5
7D
330
1F
100
AcDbEntity
  8
0
  6
CONTINUOUS
 62
     7
100
AcDbLine
 10
37.7782369509
 20
7.0927528436
 30
0.0
 11
37.7782369509
 21
6.9888459906
 31
0.0
  0
LINE
  5
7E
330
1F
100
AcDbEntity
  8
0
  6
CONTINUOUS
 62
     7
100
AcDbLine
 10
39.6621942806
 20
7.0927528436
 30
0.0
 11
37.7782369509
 21
7.0927528436
 31
0.0
  0
ARC
  5
7F
330
1F
100
AcDbEntity
  8
0
  6
CONTINUOUS
 62
     7
100
AcDbCircle
 10
39.6621945456
 20
6.9019062534
 30
0.0
 40
0.190846456692924
100
AcDbArc
 50
0.0
 51
90.0
  0
LINE
  5
80
330
1F
100
AcDbEntity
  8
0
  6
CONTINUOUS
 62
     7
100
AcDbLine
 10
39.8530417825
 20
5.2849163946
 30
0.0
 11
39.8530417825
 21
6.901906515
 31
0.0
  0
ARC
  5
81
330
1F
100
AcDbEntity
  8
0
  6
CONTINUOUS
 62
     7
100
AcDbCircle
 10
40.043887459
 20
5.2849161049
 30
0.0
 40
0.1908464566929142
100
AcDbArc
 50
180.0
 51
270.0
  0
LINE
  5
82
330
1F
100
AcDbEntity
  8
0
  6
CONTINUOUS
 62
     7
100
AcDbLine
 10
40.433849153
 20
5.0940694792
 30
0.0
 11
40.0438892845
 21
5.0940694792
 31
0.0
  0
ARC
  5
83
330
1F
100
AcDbEntity
  8
0
  6
CONTINUOUS
 62
     7
100
AcDbCircle
 10
40.4338480889
 20
5.2849161049
 30
0.0
 40
0.190846456692924
100
AcDbArc
 50
270.0
 51
0.0
  0
LINE
  5
84
330
1F
100
AcDbEntity
  8
0
  6
CONTINUOUS
 62
     7
100
AcDbLine
 10
40.624696655
 20
6.901906515
 30
0.0
 11
40.624696655
 21
5.2849163946
 31
0.0
  0
ARC
  5
85
330
1F
100
AcDbEntity
  8
0
  6
CONTINUOUS
 62
     7
100
AcDbCircle
 10
40.8155410023
 20
6.9019062534
 30
0.0
 40
0.1908464566929133
100
AcDbArc
 50
90.0
 51
180.0
  0
LINE
  5
86
330
1F
100
AcDbEntity
  8
0
  6
CONTINUOUS
 62
     7
100
AcDbLine
 10
42.6994967934
 20
7.0927528436
 30
0.0
 11
40.8155394637
 21
7.0927528436
 31
0.0
  0
LINE
  5
87
330
1F
100
AcDbEntity
  8
0
  6
CONTINUOUS
 62
     7
100
AcDbLine
 10
42.6994967934
 20
6.9888459906
 30
0.0
 11
42.6994967934
 21
7.0927528436
 31
0.0
  0
ARC
  5
88
330
1F
100
AcDbEntity
  8
0
  6
CONTINUOUS
 62
     7
100
AcDbCircle
 10
42.6601276165
 20
6.988845817
 30
0.0
 40
0.0393700787401627
100
AcDbArc
 50
287.5412391186
 51
0.0
  0
ARC
  5
89
330
1F
100
AcDbEntity
  8
0
  6
CONTINUOUS
 62
     7
100
AcDbCircle
 10
42.7295130771
 20
6.7693342887
 30
0.0
 40
0.1908464566929158
100
AcDbArc
 50
107.5412391186
 51
295.2874008956
  0
ARC
  5
8A
330
1F
100
AcDbEntity
  8
0
  6
CONTINUOUS
 62
     7
100
AcDbCircle
 10
42.8278521534
 20
6.561177907
 30
0.0
 40
0.0393700787401574
100
AcDbArc
 50
90.0
 51
115.2874008956
  0
LINE
  5
8B
330
1F
100
AcDbEntity
  8
0
  6
CONTINUOUS
 62
     7
100
AcDbLine
 10
42.8278532839
 20
6.6005481296
 30
0.0
 11
43.4215437056
 21
6.6005481296
 31
0.0
  0
LINE
  5
8C
330
1F
100
AcDbEntity
  8
0
  6
CONTINUOUS
 62
     7
100
AcDbLine
 10
43.4215437056
 20
6.6005481296
 30
0.0
 11
43.4372943503
 21
6.8466108871
 31
0.0
  0
LINE
  5
8D
330
1F
100
AcDbEntity
  8
0
  6
CONTINUOUS
 62
     7
100
AcDbLine
 10
43.4372943503
 20
6.8466108871
 30
0.0
 11
43.644380598
 21
6.8466108871
 31
0.0
  0
ARC
  5
8E
330
1F
100
AcDbEntity
  8
0
  6
CONTINUOUS
 62
     7
100
AcDbCircle
 10
43.644379585
 20
6.8072408991
 30
0.0
 40
0.0393700787401574
100
AcDbArc
 50
0.0
 51
90.0
  0
LINE
  5
8F
330
1F
100
AcDbEntity
  8
0
  6
CONTINUOUS
 62
     7
100
AcDbLine
 10
43.6837478232
 20
6.3446423925
 30
0.0
 11
43.6837478232
 21
6.8072407285
 31
0.0
  0
ARC
  5
90
330
1F
100
AcDbEntity
  8
0
  6
CONTINUOUS
 62
     7
100
AcDbCircle
 10
43.4475291913
 20
6.3446424739
 30
0.0
 40
0.236220472440948
100
AcDbArc
 50
270.0
 51
0.0
  0
LINE
  5
91
330
1F
100
AcDbEntity
  8
0
  6
CONTINUOUS
 62
     7
100
AcDbLine
 10
41.3609172701
 20
6.108422028
 30
0.0
 11
43.447530392
 21
6.108422028
 31
0.0
  0
ARC
  5
92
330
1F
100
AcDbEntity
  8
0
  6
CONTINUOUS
 62
     7
100
AcDbCircle
 10
41.3609150181
 20
5.872201529
 30
0.0
 40
0.236220472440948
100
AcDbArc
 50
90.0
 51
180.0
  0
LINE
  5
93
330
1F
100
AcDbEntity
  8
0
  6
CONTINUOUS
 62
     7
100
AcDbLine
 10
41.1246951456
 20
5.0940694792
 30
0.0
 11
41.1246951456
 21
5.8722016635
 31
0.0
  0
ARC
  5
94
330
1F
100
AcDbEntity
  8
0
  6
CONTINUOUS
 62
     7
100
AcDbCircle
 10
40.6246945456
 20
5.0940696482
 30
0.0
 40
0.4999999999999952
100
AcDbArc
 50
300.0
 51
0.0
  0
ARC
  5
95
330
1F
100
AcDbEntity
  8
0
  6
CONTINUOUS
 62
     7
100
AcDbCircle
 10
41.1246945456
 20
4.2280442444
 30
0.0
 40
0.5000000000000002
100
AcDbArc
 50
120.0
 51
180.0
  0
LINE
  5
96
330
1F
100
AcDbEntity
  8
0
  6
CONTINUOUS
 62
     7
100
AcDbLine
 10
40.624696655
 20
4.1522583058
 30
0.0
 11
40.624696655
 21
4.2280442036
 31
0.0
  0
ARC
  5
97
330
1F
100
AcDbEntity
  8
0
  6
CONTINUOUS
 62
     7
100
AcDbCircle
 10
41.1246945456
 20
4.1522584468
 30
0.0
 40
0.5000000000000002
100
AcDbArc
 50
180.0
 51
240.0
  0
ARC
  5
98
330
1F
100
AcDbEntity
  8
0
  6
CONTINUOUS
 62
     7
100
AcDbCircle
 10
40.6246945456
 20
3.286233043
 30
0.0
 40
0.4999999999999956
100
AcDbArc
 50
0.0
 51
60.0
  0
LINE
  5
99
330
1F
100
AcDbEntity
  8
0
  6
CONTINUOUS
 62
     7
100
AcDbLine
 10
41.1246951456
 20
2.5081011392
 30
0.0
 11
41.1246951456
 21
3.2862330302
 31
0.0
  0
ARC
  5
9A
330
1F
100
AcDbEntity
  8
0
  6
CONTINUOUS
 62
     7
100
AcDbCircle
 10
41.3609150181
 20
2.5081011622
 30
0.0
 40
0.236220472440948
100
AcDbArc
 50
180.0
 51
270.0
  0
LINE
  5
9B
330
1F
100
AcDbEntity
  8
0
  6
CONTINUOUS
 62
     7
100
AcDbLine
 10
43.447530392
 20
2.2718806281
 30
0.0
 11
41.3609172701
 21
2.2718806281
 31
0.0
  0
ARC
  5
9C
330
1F
100
AcDbEntity
  8
0
  6
CONTINUOUS
 62
     7
100
AcDbCircle
 10
43.4475291913
 20
2.0356602173
 30
0.0
 40
0.236220472440948
100
AcDbArc
 50
0.0
 51
90.0
  0
LINE
  5
9D
330
1F
100
AcDbEntity
  8
0
  6
CONTINUOUS
 62
     7
100
AcDbLine
 10
43.6837478232
 20
1.5730617809
 30
0.0
 11
43.6837478232
 21
2.0356602636
 31
0.0
  0
ARC
  5
9E
330
1F
100
AcDbEntity
  8
0
  6
CONTINUOUS
 62
     7
100
AcDbCircle
 10
43.644379585
 20
1.5730617922
 30
0.0
 40
0.0393700787401619
100
AcDbArc
 50
270.0
 51
0.0
  0
LINE
  5
9F
330
1F
100
AcDbEntity
  8
0
  6
CONTINUOUS
 62
     7
100
AcDbLine
 10
43.644380598
 20
1.533691769
 30
0.0
 11
43.4372943503
 21
1.533691769
 31
0.0
  0
LINE
  5
A0
330
1F
100
AcDbEntity
  8
0
  6
CONTINUOUS
 62
     7
100
AcDbLine
 10
43.4372943503
 20
1.533691769
 30
0.0
 11
43.4215437056
 21
1.7797546732
 31
0.0
  0
LINE
  5
A1
330
1F
100
AcDbEntity
  8
0
  6
CONTINUOUS
 62
     7
100
AcDbLine
 10
43.4215437056
 20
1.7797546732
 30
0.0
 11
42.8278532839
 21
1.7797546732
 31
0.0
  0
ARC
  5
A2
330
1F
100
AcDbEntity
  8
0
  6
CONTINUOUS
 62
     7
100
AcDbCircle
 10
42.8278521534
 20
1.8191247843
 30
0.0
 40
0.0393700787401574
100
AcDbArc
 50
244.7125991044
 51
270.0
  0
ARC
  5
A3
330
1F
100
AcDbEntity
  8
0
  6
CONTINUOUS
 62
     7
100
AcDbCircle
 10
42.7295130771
 20
1.6109684026
 30
0.0
 40
0.1908464566929156
100
AcDbArc
 50
64.7125991044
 51
252.4587608814
  0
ARC
  5
A4
330
1F
100
AcDbEntity
  8
0
  6
CONTINUOUS
 62
     7
100
AcDbCircle
 10
42.6601276165
 20
1.3914568743
 30
0.0
 40
0.0393700787401594
100
AcDbArc
 50
0.0
 51
72.4587608814
  0
LINE
  5
A5
330
1F
100
AcDbEntity
  8
0
  6
CONTINUOUS
 62
     7
100
AcDbLine
 10
40.624696655
 20
3.0953867015
 30
0.0
 11
40.624696655
 21
1.4783964345
 31
0.0
  0
ARC
  5
A6
330
1F
100
AcDbEntity
  8
0
  6
CONTINUOUS
 62
     7
100
AcDbCircle
 10
40.4338480889
 20
3.0953865863
 30
0.0
 40
0.190846456692924
100
AcDbArc
 50
0.0
 51
90.0
  0
LINE
  5
A7
330
1F
100
AcDbEntity
  8
0
  6
CONTINUOUS
 62
     7
100
AcDbLine
 10
40.0438892845
 20
3.2862330302
 30
0.0
 11
40.433849153
 21
3.2862330302
 31
0.0
  0
ARC
  5
A8
330
1F
100
AcDbEntity
  8
0
  6
CONTINUOUS
 62
     7
100
AcDbCircle
 10
40.043887459
 20
3.0953865863
 30
0.0
 40
0.1908464566929133
100
AcDbArc
 50
90.0
 51
180.0
  0
LINE
  5
A9
330
1F
100
AcDbEntity
  8
0
  6
CONTINUOUS
 62
     7
100
AcDbLine
 10
39.8530417825
 20
1.4783964345
 30
0.0
 11
39.8530417825
 21
3.0953867015
 31
0.0
  0
ARC
  5
AA
330
1F
100
AcDbEntity
  8
0
  6
CONTINUOUS
 62
     7
100
AcDbCircle
 10
37.8176079315
 20
1.3914568743
 30
0.0
 40
0.0393700787401594
100
AcDbArc
 50
107.5412391186
 51
180.0
  0
ARC
  5
AB
330
1F
100
AcDbEntity
  8
0
  6
CONTINUOUS
 62
     7
100
AcDbCircle
 10
37.7482224709
 20
1.6109684026
 30
0.0
 40
0.1908464566929158
100
AcDbArc
 50
287.5412391186
 51
115.2874008956
  0
ARC
  5
AC
330
1F
100
AcDbEntity
  8
0
  6
CONTINUOUS
 62
     7
100
AcDbCircle
 10
37.6498833945
 20
1.8191247843
 30
0.0
 40
0.0393700787401574
100
AcDbArc
 50
270.0
 51
295.2874008956
  0
LINE
  5
AD
330
1F
100
AcDbEntity
  8
0
  6
CONTINUOUS
 62
     7
100
AcDbLine
 10
37.6498828069
 20
1.7797546732
 30
0.0
 11
37.0561900387
 21
1.7797546732
 31
0.0
  0
LINE
  5
AE
330
1F
100
AcDbEntity
  8
0
  6
CONTINUOUS
 62
     7
100
AcDbLine
 10
37.0561900387
 20
1.7797546732
 30
0.0
 11
37.0404417406
 21
1.533691769
 31
0.0
  0
LINE
  5
AF
330
1F
100
AcDbEntity
  8
0
  6
CONTINUOUS
 62
     7
100
AcDbLine
 10
37.0404417406
 20
1.533691769
 30
0.0
 11
36.8333554929
 21
1.533691769
 31
0.0
  0
ARC
  5
B0
330
1F
100
AcDbEntity
  8
0
  6
CONTINUOUS
 62
     7
100
AcDbCircle
 10
36.833355963
 20
1.5730617922
 30
0.0
 40
0.0393700787401627
100
AcDbArc
 50
180.0
 51
270.0
  0
LINE
  5
B1
330
1F
100
AcDbEntity
  8
0
  6
CONTINUOUS
 62
     7
100
AcDbLine
 10
36.793985921
 20
2.0356602636
 30
0.0
 11
36.793985921
 21
1.5730617809
 31
0.0
  0
ARC
  5
B2
330
1F
100
AcDbEntity
  8
0
  6
CONTINUOUS
 62
     7
100
AcDbCircle
 10
37.0302063567
 20
2.0356602173
 30
0.0
 40
0.236220472440948
100
AcDbArc
 50
90.0
 51
180.0
  0
LINE
  5
B3
330
1F
100
AcDbEntity
  8
0
  6
CONTINUOUS
 62
     7
100
AcDbLine
 10
39.1168211674
 20
2.2718806281
 30
0.0
 11
37.0302056988
 21
2.2718806281
 31
0.0
  0
ARC
  5
B4
330
1F
100
AcDbEntity
  8
0
  6
CONTINUOUS
 62
     7
100
AcDbCircle
 10
39.1168205299
 20
2.5081011622
 30
0.0
 40
0.236220472440948
100
AcDbArc
 50
270.0
 51
0.0
  0
LINE
  5
B5
330
1F
100
AcDbEntity
  8
0
  6
CONTINUOUS
 62
     7
100
AcDbLine
 10
39.3530409453
 20
3.2862330302
 30
0.0
 11
39.3530409453
 21
2.5081011392
 31
0.0
  0
ARC
  5
B6
330
1F
100
AcDbEntity
  8
0
  6
CONTINUOUS
 62
     7
100
AcDbCircle
 10
39.8530410023
 20
3.286233043
 30
0.0
 40
0.5000000000000071
100
AcDbArc
 50
120.0
 51
180.0
  0
ARC
  5
B7
330
1F
100
AcDbEntity
  8
0
  6
CONTINUOUS
 62
     7
100
AcDbCircle
 10
39.3530410023
 20
4.1522584468
 30
0.0
 40
0.5
100
AcDbArc
 50
300.0
 51
0.0
  0
LINE
  5
B8
330
1F
100
AcDbEntity
  8
0
  6
CONTINUOUS
 62
     7
100
AcDbLine
 10
39.8530417825
 20
4.2280442036
 30
0.0
 11
39.8530417825
 21
4.1522583058
 31
0.0
  0
ARC
  5
B9
330
1F
100
AcDbEntity
  8
0
  6
CONTINUOUS
 62
     7
100
AcDbCircle
 10
39.3530410023
 20
4.2280442444
 30
0.0
 40
0.5
100
AcDbArc
 50
0.0
 51
60.0
  0
ARC
  5
BA
330
1F
100
AcDbEntity
  8
0
  6
CONTINUOUS
 62
     7
100
AcDbCircle
 10
39.8530410023
 20
5.0940696482
 30
0.0
 40
0.5000000000000071
100
AcDbArc
 50
180.0
 51
240.0
  0
LINE
  5
BB
330
1F
100
AcDbEntity
  8
0
  6
CONTINUOUS
 62
     7
100
AcDbLine
 10
39.3530409453
 20
5.8722016635
 30
0.0
 11
39.3530409453
 21
5.0940694792
 31
0.0
  0
ARC
  5
BC
330
1F
100
AcDbEntity
  8
0
  6
CONTINUOUS
 62
     7
100
AcDbCircle
 10
39.1168205299
 20
5.872201529
 30
0.0
 40
0.2362204724409454
100
AcDbArc
 50
0.0
 51
90.0
  0
LINE
  5
BD
330
1F
100
AcDbEntity
  8
0
  6
CONTINUOUS
 62
     7
100
AcDbLine
 10
37.0302056988
 20
6.108422028
 30
0.0
 11
39.1168211674
 21
6.108422028
 31
0.0
  0
ARC
  5
BE
330
1F
100
AcDbEntity
  8
0
  6
CONTINUOUS
 62
     7
100
AcDbCircle
 10
37.0302063567
 20
6.3446424739
 30
0.0
 40
0.236220472440948
100
AcDbArc
 50
180.0
 51
270.0
  0
LINE
  5
BF
330
1F
100
AcDbEntity
  8
0
  6
CONTINUOUS
 62
     7
100
AcDbLine
 10
36.793985921
 20
6.8072407285
 30
0.0
 11
36.793985921
 21
6.3446423925
 31
0.0
  0
ARC
  5
C0
330
1F
100
AcDbEntity
  8
0
  6
CONTINUOUS
 62
     7
100
AcDbCircle
 10
36.833355963
 20
6.8072408991
 30
0.0
 40
0.0393700787401627
100
AcDbArc
 50
90.0
 51
180.0
  0
LINE
  5
C1
330
1F
100
AcDbEntity
  8
0
  6
CONTINUOUS
 62
     7
100
AcDbLine
 10
36.8333554929
 20
6.8466108871
 30
0.0
 11
37.0404417406
 21
6.8466108871
 31
0.0
  0
LINE
  5
C2
330
1F
100
AcDbEntity
  8
0
  6
CONTINUOUS
 62
     7
100
AcDbLine
 10
37.7782369509
 20
1.2875499591
 30
0.0
 11
39.6621942806
 21
1.2875499591
 31
0.0
  0
LINE
  5
C3
330
1F
100
AcDbEntity
  8
0
  6
CONTINUOUS
 62
     7
100
AcDbLine
 10
42.6994967934
 20
1.2875499591
 30
0.0
 11
42.6994967934
 21
1.3914568121
 31
0.0
  0
ARC
  5
C4
330
1F
100
AcDbEntity
  8
0
  6
CONTINUOUS
 62
     7
100
AcDbCircle
 10
39.6621945456
 20
1.4783964378
 30
0.0
 40
0.1908464566929098
100
AcDbArc
 50
270.0
 51
0.0
  0
LINE
  5
C5
330
1F
100
AcDbEntity
  8
0
  6
CONTINUOUS
 62
     7
100
AcDbLine
 10
37.7782369509
 20
1.3914568121
 30
0.0
 11
37.7782369509
 21
1.2875499591
 31
0.0
  0
LINE
  5
C6
330
1F
100
AcDbEntity
  8
0
  6
CONTINUOUS
 62
     7
100
AcDbLine
 10
40.8155394637
 20
1.2875499591
 30
0.0
 11
42.6994967934
 21
1.2875499591
 31
0.0
  0
ARC
  5
C7
330
1F
100
AcDbEntity
  8
0
  6
CONTINUOUS
 62
     7
100
AcDbCircle
 10
40.8155410023
 20
1.4783964378
 30
0.0
 40
0.1908464566929136
100
AcDbArc
 50
180.0
 51
270.0
  0
LINE
  5
C8
330
1F
100
AcDbEntity
  8
0
  6
CONTINUOUS
 62
     7
100
AcDbLine
 10
43.4372943503
 20
8.9076344913
 30
0.0
 11
43.4215437056
 21
9.1536978354
 31
0.0
  0
LINE
  5
C9
330
1F
100
AcDbEntity
  8
0
  6
CONTINUOUS
 62
     7
100
AcDbLine
 10
43.4215437056
 20
9.1536978354
 30
0.0
 11
42.8278532839
 21
9.1536978354
 31
0.0
  0
ARC
  5
CA
330
1F
100
AcDbEntity
  8
0
  6
CONTINUOUS
 62
     7
100
AcDbCircle
 10
42.8278521534
 20
9.1930676708
 30
0.0
 40
0.0393700787401594
100
AcDbArc
 50
244.7125991044
 51
270.0
  0
ARC
  5
CB
330
1F
100
AcDbEntity
  8
0
  6
CONTINUOUS
 62
     7
100
AcDbCircle
 10
42.7295130771
 20
8.984911289
 30
0.0
 40
0.1908464566929158
100
AcDbArc
 50
64.7125991044
 51
252.4587608814
  0
ARC
  5
CC
330
1F
100
AcDbEntity
  8
0
  6
CONTINUOUS
 62
     7
100
AcDbCircle
 10
42.6601276165
 20
8.7653997608
 30
0.0
 40
0.0393700787401562
100
AcDbArc
 50
0.0
 51
72.4587608814
  0
LINE
  5
CD
330
1F
100
AcDbEntity
  8
0
  6
CONTINUOUS
 62
     7
100
AcDbLine
 10
42.6994967934
 20
8.6614931214
 30
0.0
 11
42.6994967934
 21
8.7653999744
 31
0.0
  0
LINE
  5
CE
330
1F
100
AcDbEntity
  8
0
  6
CONTINUOUS
 62
     7
100
AcDbLine
 10
40.8155394637
 20
8.6614931214
 30
0.0
 11
42.6994967934
 21
8.6614931214
 31
0.0
  0
ARC
  5
CF
330
1F
100
AcDbEntity
  8
0
  6
CONTINUOUS
 62
     7
100
AcDbCircle
 10
40.8155410023
 20
8.8523393243
 30
0.0
 40
0.1908464566929133
100
AcDbArc
 50
180.0
 51
270.0
  0
LINE
  5
D0
330
1F
100
AcDbEntity
  8
0
  6
CONTINUOUS
 62
     7
100
AcDbLine
 10
40.624696655
 20
10.4693295704
 30
0.0
 11
40.624696655
 21
8.8523394501
 31
0.0
  0
ARC
  5
D1
330
1F
100
AcDbEntity
  8
0
  6
CONTINUOUS
 62
     7
100
AcDbCircle
 10
40.4338480889
 20
10.4693294728
 30
0.0
 40
0.190846456692924
100
AcDbArc
 50
0.0
 51
90.0
  0
LINE
  5
D2
330
1F
100
AcDbEntity
  8
0
  6
CONTINUOUS
 62
     7
100
AcDbLine
 10
40.0438892845
 20
10.6601758991
 30
0.0
 11
40.433849153
 21
10.6601758991
 31
0.0
  0
ARC
  5
D3
330
1F
100
AcDbEntity
  8
0
  6
CONTINUOUS
 62
     7
100
AcDbCircle
 10
40.043887459
 20
10.4693294728
 30
0.0
 40
0.1908464566929133
100
AcDbArc
 50
90.0
 51
180.0
  0
LINE
  5
D4
330
1F
100
AcDbEntity
  8
0
  6
CONTINUOUS
 62
     7
100
AcDbLine
 10
39.8530417825
 20
8.8523394501
 30
0.0
 11
39.8530417825
 21
10.4693295704
 31
0.0
  0
ARC
  5
D5
330
1F
100
AcDbEntity
  8
0
  6
CONTINUOUS
 62
     7
100
AcDbCircle
 10
39.6621945456
 20
8.8523393243
 30
0.0
 40
0.1908464566929133
100
AcDbArc
 50
270.0
 51
0.0
  0
LINE
  5
D6
330
1F
100
AcDbEntity
  8
0
  6
CONTINUOUS
 62
     7
100
AcDbLine
 10
37.7782369509
 20
8.6614931214
 30
0.0
 11
39.6621942806
 21
8.6614931214
 31
0.0
  0
LINE
  5
D7
330
1F
100
AcDbEntity
  8
0
  6
CONTINUOUS
 62
     7
100
AcDbLine
 10
37.7782369509
 20
8.7653999744
 30
0.0
 11
37.7782369509
 21
8.6614931214
 31
0.0
  0
ARC
  5
D8
330
1F
100
AcDbEntity
  8
0
  6
CONTINUOUS
 62
     7
100
AcDbCircle
 10
37.8176079315
 20
8.7653997608
 30
0.0
 40
0.0393700787401579
100
AcDbArc
 50
107.5412391186
 51
180.0
  0
ARC
  5
D9
330
1F
100
AcDbEntity
  8
0
  6
CONTINUOUS
 62
     7
100
AcDbCircle
 10
37.7482224709
 20
8.984911289
 30
0.0
 40
0.1908464566929128
100
AcDbArc
 50
287.5412391186
 51
115.2874008956
  0
ARC
  5
DA
330
1F
100
AcDbEntity
  8
0
  6
CONTINUOUS
 62
     7
100
AcDbCircle
 10
37.6498833945
 20
9.1930676708
 30
0.0
 40
0.0393700787401574
100
AcDbArc
 50
270.0
 51
295.2874008956
  0
LINE
  5
DB
330
1F
100
AcDbEntity
  8
0
  6
CONTINUOUS
 62
     7
100
AcDbLine
 10
37.6498828069
 20
9.1536978354
 30
0.0
 11
37.0561900387
 21
9.1536978354
 31
0.0
  0
LINE
  5
DC
330
1F
100
AcDbEntity
  8
0
  6
CONTINUOUS
 62
     7
100
AcDbLine
 10
37.0561900387
 20
9.1536978354
 30
0.0
 11
37.0404417406
 21
8.9076344913
 31
0.0
  0
LINE
  5
DD
330
1F
100
AcDbEntity
  8
0
  6
CONTINUOUS
 62
     7
100
AcDbLine
 10
37.0404417406
 20
8.9076344913
 30
0.0
 11
36.8333554929
 21
8.9076344913
 31
0.0
  0
ARC
  5
DE
330
1F
100
AcDbEntity
  8
0
  6
CONTINUOUS
 62
     7
100
AcDbCircle
 10
36.833355963
 20
8.9470046786
 30
0.0
 40
0.0393700787401627
100
AcDbArc
 50
180.0
 51
270.0
  0
LINE
  5
DF
330
1F
100
AcDbEntity
  8
0
  6
CONTINUOUS
 62
     7
100
AcDbLine
 10
36.793985921
 20
9.4096029858
 30
0.0
 11
36.793985921
 21
8.9470046498
 31
0.0
  0
ARC
  5
E0
330
1F
100
AcDbEntity
  8
0
  6
CONTINUOUS
 62
     7
100
AcDbCircle
 10
37.0302063567
 20
9.4096031038
 30
0.0
 40
0.236220472440948
100
AcDbArc
 50
90.0
 51
180.0
  0
LINE
  5
E1
330
1F
100
AcDbEntity
  8
0
  6
CONTINUOUS
 62
     7
100
AcDbLine
 10
39.1168211674
 20
9.6458233503
 30
0.0
 11
37.0302056988
 21
9.6458233503
 31
0.0
  0
ARC
  5
E2
330
1F
100
AcDbEntity
  8
0
  6
CONTINUOUS
 62
     7
100
AcDbCircle
 10
39.1168205299
 20
9.8820440487
 30
0.0
 40
0.236220472440948
100
AcDbArc
 50
270.0
 51
0.0
  0
LINE
  5
E3
330
1F
100
AcDbEntity
  8
0
  6
CONTINUOUS
 62
     7
100
AcDbLine
 10
39.3530409453
 20
10.6601758991
 30
0.0
 11
39.3530409453
 21
9.8820443015
 31
0.0
  0
ARC
  5
E4
330
1F
100
AcDbEntity
  8
0
  6
CONTINUOUS
 62
     7
100
AcDbCircle
 10
39.8530410023
 20
10.6601759295
 30
0.0
 40
0.5000000000000071
100
AcDbArc
 50
120.0
 51
180.0
  0
ARC
  5
E5
330
1F
100
AcDbEntity
  8
0
  6
CONTINUOUS
 62
     7
100
AcDbCircle
 10
39.3530410023
 20
11.5262013333
 30
0.0
 40
0.5000000000000071
100
AcDbArc
 50
300.0
 51
0.0
  0
LINE
  5
E6
330
1F
100
AcDbEntity
  8
0
  6
CONTINUOUS
 62
     7
100
AcDbLine
 10
39.8530417825
 20
11.6019867792
 30
0.0
 11
39.8530417825
 21
11.5262008814
 31
0.0
  0
ARC
  5
E7
330
1F
100
AcDbEntity
  8
0
  6
CONTINUOUS
 62
     7
100
AcDbCircle
 10
39.3530410023
 20
11.6019871309
 30
0.0
 40
0.5000000000000071
100
AcDbArc
 50
0.0
 51
60.0
  0
ARC
  5
E8
330
1F
100
AcDbEntity
  8
0
  6
CONTINUOUS
 62
     7
100
AcDbCircle
 10
39.8530410023
 20
12.4680125347
 30
0.0
 40
0.5000000000000071
100
AcDbArc
 50
180.0
 51
240.0
  0
LINE
  5
E9
330
1F
100
AcDbEntity
  8
0
  6
CONTINUOUS
 62
     7
100
AcDbLine
 10
39.3530409453
 20
13.2461445324
 30
0.0
 11
39.3530409453
 21
12.4680129348
 31
0.0
  0
ARC
  5
EA
330
1F
100
AcDbEntity
  8
0
  6
CONTINUOUS
 62
     7
100
AcDbCircle
 10
39.1168205299
 20
13.2461444155
 30
0.0
 40
0.236220472440948
100
AcDbArc
 50
0.0
 51
90.0
  0
LINE
  5
EB
330
1F
100
AcDbEntity
  8
0
  6
CONTINUOUS
 62
     7
100
AcDbLine
 10
37.0302056988
 20
13.4823643103
 30
0.0
 11
39.1168211674
 21
13.4823643103
 31
0.0
  0
ARC
  5
EC
330
1F
100
AcDbEntity
  8
0
  6
CONTINUOUS
 62
     7
100
AcDbCircle
 10
37.0302063567
 20
13.7185853604
 30
0.0
 40
0.236220472440948
100
AcDbArc
 50
180.0
 51
270.0
  0
LINE
  5
ED
330
1F
100
AcDbEntity
  8
0
  6
CONTINUOUS
 62
     7
100
AcDbLine
 10
36.793985921
 20
14.1811841841
 30
0.0
 11
36.793985921
 21
13.7185852614
 31
0.0
  0
ARC
  5
EE
330
1F
100
AcDbEntity
  8
0
  6
CONTINUOUS
 62
     7
100
AcDbCircle
 10
36.833355963
 20
14.1811837856
 30
0.0
 40
0.0393700787401627
100
AcDbArc
 50
90.0
 51
180.0
  0
LINE
  5
EF
330
1F
100
AcDbEntity
  8
0
  6
CONTINUOUS
 62
     7
100
AcDbLine
 10
36.8333554929
 20
14.220553756
 30
0.0
 11
37.0404417406
 21
14.220553756
 31
0.0
  0
LINE
  5
F0
330
1F
100
AcDbEntity
  8
0
  6
CONTINUOUS
 62
     7
100
AcDbLine
 10
37.0404417406
 20
14.220553756
 30
0.0
 11
37.0561900387
 21
13.9744909985
 31
0.0
  0
LINE
  5
F1
330
1F
100
AcDbEntity
  8
0
  6
CONTINUOUS
 62
     7
100
AcDbLine
 10
37.0561900387
 20
13.9744909985
 30
0.0
 11
37.6498828069
 21
13.9744909985
 31
0.0
  0
ARC
  5
F2
330
1F
100
AcDbEntity
  8
0
  6
CONTINUOUS
 62
     7
100
AcDbCircle
 10
37.6498833945
 20
13.9351207935
 30
0.0
 40
0.039370078740161
100
AcDbArc
 50
64.7125991044
 51
90.0
  0
ARC
  5
F3
330
1F
100
AcDbEntity
  8
0
  6
CONTINUOUS
 62
     7
100
AcDbCircle
 10
37.7482224709
 20
14.1432771752
 30
0.0
 40
0.1908464566929158
100
AcDbArc
 50
244.7125991044
 51
72.4587608814
  0
ARC
  5
F4
330
1F
100
AcDbEntity
  8
0
  6
CONTINUOUS
 62
     7
100
AcDbCircle
 10
37.8176079315
 20
14.3627887035
 30
0.0
 40
0.0393700787401562
100
AcDbArc
 50
180.0
 51
252.4587608814
  0
LINE
  5
F5
330
1F
100
AcDbEntity
  8
0
  6
CONTINUOUS
 62
     7
100
AcDbLine
 10
37.7782369509
 20
14.4666951259
 30
0.0
 11
37.7782369509
 21
14.3627882729
 31
0.0
  0
LINE
  5
F6
330
1F
100
AcDbEntity
  8
0
  6
CONTINUOUS
 62
     7
100
AcDbLine
 10
39.6621942806
 20
14.4666951259
 30
0.0
 11
37.7782369509
 21
14.4666951259
 31
0.0
  0
ARC
  5
F7
330
1F
100
AcDbEntity
  8
0
  6
CONTINUOUS
 62
     7
100
AcDbCircle
 10
39.6621945456
 20
14.2758491399
 30
0.0
 40
0.190846456692924
100
AcDbArc
 50
0.0
 51
90.0
  0
LINE
  5
F8
330
1F
100
AcDbEntity
  8
0
  6
CONTINUOUS
 62
     7
100
AcDbLine
 10
39.8530417825
 20
12.6588592635
 30
0.0
 11
39.8530417825
 21
14.2758487972
 31
0.0
  0
ARC
  5
F9
330
1F
100
AcDbEntity
  8
0
  6
CONTINUOUS
 62
     7
100
AcDbCircle
 10
40.043887459
 20
12.6588589914
 30
0.0
 40
0.1908464566929133
100
AcDbArc
 50
180.0
 51
270.0
  0
LINE
  5
FA
330
1F
100
AcDbEntity
  8
0
  6
CONTINUOUS
 62
     7
100
AcDbLine
 10
40.433849153
 20
12.4680129348
 30
0.0
 11
40.0438892845
 21
12.4680129348
 31
0.0
  0
ARC
  5
FB
330
1F
100
AcDbEntity
  8
0
  6
CONTINUOUS
 62
     7
100
AcDbCircle
 10
40.4338480889
 20
12.6588589914
 30
0.0
 40
0.190846456692924
100
AcDbArc
 50
270.0
 51
0.0
  0
LINE
  5
FC
330
1F
100
AcDbEntity
  8
0
  6
CONTINUOUS
 62
     7
100
AcDbLine
 10
40.624696655
 20
14.2758487972
 30
0.0
 11
40.624696655
 21
12.6588592635
 31
0.0
  0
ARC
  5
FD
330
1F
100
AcDbEntity
  8
0
  6
CONTINUOUS
 62
     7
100
AcDbCircle
 10
40.8155410023
 20
14.2758491399
 30
0.0
 40
0.1908464566929133
100
AcDbArc
 50
90.0
 51
180.0
  0
LINE
  5
FE
330
1F
100
AcDbEntity
  8
0
  6
CONTINUOUS
 62
     7
100
AcDbLine
 10
42.6994967934
 20
14.4666951259
 30
0.0
 11
40.8155394637
 21
14.4666951259
 31
0.0
  0
LINE
  5
FF
330
1F
100
AcDbEntity
  8
0
  6
CONTINUOUS
 62
     7
100
AcDbLine
 10
42.6994967934
 20
14.3627882729
 30
0.0
 11
42.6994967934
 21
14.4666951259
 31
0.0
  0
ARC
  5
100
330
1F
100
AcDbEntity
  8
0
  6
CONTINUOUS
 62
     7
100
AcDbCircle
 10
42.6601276165
 20
14.3627887035
 30
0.0
 40
0.0393700787401627
100
AcDbArc
 50
287.5412391186
 51
0.0
  0
ARC
  5
101
330
1F
100
AcDbEntity
  8
0
  6
CONTINUOUS
 62
     7
100
AcDbCircle
 10
42.7295130771
 20
14.1432771752
 30
0.0
 40
0.1908464566929158
100
AcDbArc
 50
107.5412391186
 51
295.2874008956
  0
ARC
  5
102
330
1F
100
AcDbEntity
  8
0
  6
CONTINUOUS
 62
     7
100
AcDbCircle
 10
42.8278521534
 20
13.9351207935
 30
0.0
 40
0.0393700787401611
100
AcDbArc
 50
90.0
 51
115.2874008956
  0
LINE
  5
103
330
1F
100
AcDbEntity
  8
0
  6
CONTINUOUS
 62
     7
100
AcDbLine
 10
42.8278532839
 20
13.9744909985
 30
0.0
 11
43.4215437056
 21
13.9744909985
 31
0.0
  0
LINE
  5
104
330
1F
100
AcDbEntity
  8
0
  6
CONTINUOUS
 62
     7
100
AcDbLine
 10
43.4215437056
 20
13.9744909985
 30
0.0
 11
43.4372943503
 21
14.220553756
 31
0.0
  0
LINE
  5
105
330
1F
100
AcDbEntity
  8
0
  6
CONTINUOUS
 62
     7
100
AcDbLine
 10
43.4372943503
 20
14.220553756
 30
0.0
 11
43.644380598
 21
14.220553756
 31
0.0
  0
ARC
  5
106
330
1F
100
AcDbEntity
  8
0
  6
CONTINUOUS
 62
     7
100
AcDbCircle
 10
43.644379585
 20
14.1811837856
 30
0.0
 40
0.0393700787401574
100
AcDbArc
 50
0.0
 51
90.0
  0
LINE
  5
107
330
1F
100
AcDbEntity
  8
0
  6
CONTINUOUS
 62
     7
100
AcDbLine
 10
43.6837478232
 20
13.7185852614
 30
0.0
 11
43.6837478232
 21
14.1811841841
 31
0.0
  0
ARC
  5
108
330
1F
100
AcDbEntity
  8
0
  6
CONTINUOUS
 62
     7
100
AcDbCircle
 10
43.4475291913
 20
13.7185853604
 30
0.0
 40
0.236220472440948
100
AcDbArc
 50
270.0
 51
0.0
  0
LINE
  5
109
330
1F
100
AcDbEntity
  8
0
  6
CONTINUOUS
 62
     7
100
AcDbLine
 10
41.3609172701
 20
13.4823643103
 30
0.0
 11
43.447530392
 21
13.4823643103
 31
0.0
  0
ARC
  5
10A
330
1F
100
AcDbEntity
  8
0
  6
CONTINUOUS
 62
     7
100
AcDbCircle
 10
41.3609150181
 20
13.2461444155
 30
0.0
 40
0.236220472440948
100
AcDbArc
 50
90.0
 51
180.0
  0
LINE
  5
10B
330
1F
100
AcDbEntity
  8
0
  6
CONTINUOUS
 62
     7
100
AcDbLine
 10
41.1246951456
 20
12.4680129348
 30
0.0
 11
41.1246951456
 21
13.2461445324
 31
0.0
  0
ARC
  5
10C
330
1F
100
AcDbEntity
  8
0
  6
CONTINUOUS
 62
     7
100
AcDbCircle
 10
40.6246945456
 20
12.4680125347
 30
0.0
 40
0.4999999999999959
100
AcDbArc
 50
300.0
 51
0.0
  0
ARC
  5
10D
330
1F
100
AcDbEntity
  8
0
  6
CONTINUOUS
 62
     7
100
AcDbCircle
 10
41.1246945456
 20
11.6019871309
 30
0.0
 40
0.5000000000000071
100
AcDbArc
 50
120.0
 51
180.0
  0
LINE
  5
10E
330
1F
100
AcDbEntity
  8
0
  6
CONTINUOUS
 62
     7
100
AcDbLine
 10
40.624696655
 20
11.5262008814
 30
0.0
 11
40.624696655
 21
11.6019867792
 31
0.0
  0
ARC
  5
10F
330
1F
100
AcDbEntity
  8
0
  6
CONTINUOUS
 62
     7
100
AcDbCircle
 10
41.1246945456
 20
11.5262013333
 30
0.0
 40
0.500000000000001
100
AcDbArc
 50
180.0
 51
240.0
  0
ARC
  5
110
330
1F
100
AcDbEntity
  8
0
  6
CONTINUOUS
 62
     7
100
AcDbCircle
 10
40.6246945456
 20
10.6601759295
 30
0.0
 40
0.4999999999999959
100
AcDbArc
 50
0.0
 51
60.0
  0
LINE
  5
111
330
1F
100
AcDbEntity
  8
0
  6
CONTINUOUS
 62
     7
100
AcDbLine
 10
41.1246951456
 20
9.8820443015
 30
0.0
 11
41.1246951456
 21
10.6601758991
 31
0.0
  0
ARC
  5
112
330
1F
100
AcDbEntity
  8
0
  6
CONTINUOUS
 62
     7
100
AcDbCircle
 10
41.3609150181
 20
9.8820440487
 30
0.0
 40
0.236220472440948
100
AcDbArc
 50
180.0
 51
270.0
  0
LINE
  5
113
330
1F
100
AcDbEntity
  8
0
  6
CONTINUOUS
 62
     7
100
AcDbLine
 10
43.447530392
 20
9.6458233503
 30
0.0
 11
41.3609172701
 21
9.6458233503
 31
0.0
  0
ARC
  5
114
330
1F
100
AcDbEntity
  8
0
  6
CONTINUOUS
 62
     7
100
AcDbCircle
 10
43.4475291913
 20
9.4096031038
 30
0.0
 40
0.236220472440948
100
AcDbArc
 50
0.0
 51
90.0
  0
LINE
  5
115
330
1F
100
AcDbEntity
  8
0
  6
CONTINUOUS
 62
     7
100
AcDbLine
 10
43.6837478232
 20
8.9470046498
 30
0.0
 11
43.6837478232
 21
9.4096029858
 31
0.0
  0
ARC
  5
116
330
1F
100
AcDbEntity
  8
0
  6
CONTINUOUS
 62
     7
100
AcDbCircle
 10
43.644379585
 20
8.9470046786
 30
0.0
 40
0.0393700787401574
100
AcDbArc
 50
270.0
 51
0.0
  0
LINE
  5
117
330
1F
100
AcDbEntity
  8
0
  6
CONTINUOUS
 62
     7
100
AcDbLine
 10
43.644380598
 20
8.9076344913
 30
0.0
 11
43.4372943503
 21
8.9076344913
 31
0.0
  0
LINE
  5
118
330
1F
100
AcDbEntity
  8
0
  6
CONTINUOUS
 62
     7
100
AcDbLine
 10
29.5951668957
 20
10.0646058192
 30
0.0
 11
29.5951668957
 21
9.3371897957
 31
0.0
  0
LINE
  5
119
330
1F
100
AcDbEntity
  8
0
  6
CONTINUOUS
 62
     7
100
AcDbLine
 10
29.5951668957
 20
10.0646058192
 30
0.0
 11
35.2250884184
 21
10.0646058192
 31
0.0
  0
LINE
  5
11A
330
1F
100
AcDbEntity
  8
0
  6
CONTINUOUS
 62
     7
100
AcDbLine
 10
29.5951668957
 20
9.3371897957
 30
0.0
 11
35.2250884184
 21
9.3371897957
 31
0.0
  0
LINE
  5
11B
330
1F
100
AcDbEntity
  8
0
  6
CONTINUOUS
 62
     7
100
AcDbLine
 10
35.2250884184
 20
9.3371897957
 30
0.0
 11
35.2250884184
 21
10.0646058192
 31
0.0
  0
LINE
  5
11C
330
1F
100
AcDbEntity
  8
0
  6
CONTINUOUS
 62
     7
100
AcDbLine
 10
35.2250884184
 20
10.8895904222
 30
0.0
 11
29.5951668957
 21
10.8895904222
 31
0.0
  0
LINE
  5
11D
330
1F
100
AcDbEntity
  8
0
  6
CONTINUOUS
 62
     7
100
AcDbLine
 10
29.5951668957
 20
15.6210024312
 30
0.0
 11
35.2250884184
 21
15.6210024312
 31
0.0
  0
LINE
  5
11E
330
1F
100
AcDbEntity
  8
0
  6
CONTINUOUS
 62
     7
100
AcDbLine
 10
29.5951668957
 20
15.6210024312
 30
0.0
 11
29.5951668957
 21
10.8895904222
 31
0.0
  0
LINE
  5
11F
330
1F
100
AcDbEntity
  8
0
  6
CONTINUOUS
 62
     7
100
AcDbLine
 10
35.2250884184
 20
10.8895904222
 30
0.0
 11
35.2250884184
 21
15.6210024312
 31
0.0
  0
LINE
  5
120
330
1F
100
AcDbEntity
  8
0
  6
CONTINUOUS
 62
     7
100
AcDbLine
 10
35.2250884184
 20
15.8178526372
 30
0.0
 11
29.5951668957
 21
15.8178526372
 31
0.0
  0
LINE
  5
121
330
1F
100
AcDbEntity
  8
0
  6
CONTINUOUS
 62
     7
100
AcDbLine
 10
29.5951668957
 20
15.8178526372
 30
0.0
 11
29.5951668957
 21
15.6210024312
 31
0.0
  0
LINE
  5
122
330
1F
100
AcDbEntity
  8
0
  6
CONTINUOUS
 62
     7
100
AcDbLine
 10
35.2250884184
 20
15.6210024312
 30
0.0
 11
35.2250884184
 21
15.8178526372
 31
0.0
  0
LINE
  5
123
330
1F
100
AcDbEntity
  8
0
  6
CONTINUOUS
 62
     7
100
AcDbLine
 10
29.5951668957
 20
10.0646058192
 30
0.0
 11
29.5951668957
 21
10.8895904222
 31
0.0
  0
LINE
  5
124
330
1F
100
AcDbEntity
  8
0
  6
CONTINUOUS
 62
     7
100
AcDbLine
 10
35.2250884184
 20
10.8895904222
 30
0.0
 11
35.2250884184
 21
10.0646058192
 31
0.0
  0
LINE
  5
125
330
1F
100
AcDbEntity
  8
0
  6
CONTINUOUS
 62
     7
100
AcDbLine
 10
29.5951668957
 20
1.2876287182
 30
0.0
 11
35.2250884184
 21
1.2876287182
 31
0.0
  0
LINE
  5
126
330
1F
100
AcDbEntity
  8
0
  6
CONTINUOUS
 62
     7
100
AcDbLine
 10
29.5951668957
 20
2.0150445951
 30
0.0
 11
29.5951668957
 21
1.2876287182
 31
0.0
  0
LINE
  5
127
330
1F
100
AcDbEntity
  8
0
  6
CONTINUOUS
 62
     7
100
AcDbLine
 10
35.2250884184
 20
2.0150445951
 30
0.0
 11
29.5951668957
 21
2.0150445951
 31
0.0
  0
LINE
  5
128
330
1F
100
AcDbEntity
  8
0
  6
CONTINUOUS
 62
     7
100
AcDbLine
 10
35.2250884184
 20
1.2876287182
 30
0.0
 11
35.2250884184
 21
2.0150445951
 31
0.0
  0
LINE
  5
129
330
1F
100
AcDbEntity
  8
0
  6
CONTINUOUS
 62
     7
100
AcDbLine
 10
29.5951668957
 20
7.5714415004
 30
0.0
 11
35.2250884184
 21
7.5714415004
 31
0.0
  0
LINE
  5
12A
330
1F
100
AcDbEntity
  8
0
  6
CONTINUOUS
 62
     7
100
AcDbLine
 10
29.5951668957
 20
2.8400291981
 30
0.0
 11
35.2250884184
 21
2.8400291981
 31
0.0
  0
LINE
  5
12B
330
1F
100
AcDbEntity
  8
0
  6
CONTINUOUS
 62
     7
100
AcDbLine
 10
29.5951668957
 20
7.5714415004
 30
0.0
 11
29.5951668957
 21
2.8400291981
 31
0.0
  0
LINE
  5
12C
330
1F
100
AcDbEntity
  8
0
  6
CONTINUOUS
 62
     7
100
AcDbLine
 10
35.2250884184
 20
2.8400291981
 30
0.0
 11
35.2250884184
 21
7.5714415004
 31
0.0
  0
LINE
  5
12D
330
1F
100
AcDbEntity
  8
0
  6
CONTINUOUS
 62
     7
100
AcDbLine
 10
35.2250884184
 20
7.7682922931
 30
0.0
 11
29.5951668957
 21
7.7682922931
 31
0.0
  0
LINE
  5
12E
330
1F
100
AcDbEntity
  8
0
  6
CONTINUOUS
 62
     7
100
AcDbLine
 10
29.5951668957
 20
7.7682922931
 30
0.0
 11
29.5951668957
 21
7.5714415004
 31
0.0
  0
LINE
  5
12F
330
1F
100
AcDbEntity
  8
0
  6
CONTINUOUS
 62
     7
100
AcDbLine
 10
35.2250884184
 20
7.5714415004
 30
0.0
 11
35.2250884184
 21
7.7682922931
 31
0.0
  0
LINE
  5
130
330
1F
100
AcDbEntity
  8
0
  6
CONTINUOUS
 62
     7
100
AcDbLine
 10
29.5951668957
 20
2.0150445951
 30
0.0
 11
29.5951668957
 21
2.8400291981
 31
0.0
  0
LINE
  5
131
330
1F
100
AcDbEntity
  8
0
  6
CONTINUOUS
 62
     7
100
AcDbLine
 10
35.2250884184
 20
2.8400291981
 30
0.0
 11
35.2250884184
 21
2.0150445951
 31
0.0
  0
ARC
  5
132
330
1F
100
AcDbEntity
  8
0
  6
CONTINUOUS
 62
     7
100
AcDbCircle
 10
19.8176443825
 20
10.2774087097
 30
0.0
 40
0.1908464566929158
100
AcDbArc
 50
327.0154678033
 51
355.2874049039
  0
ARC
  5
133
330
1F
100
AcDbEntity
  8
0
  6
CONTINUOUS
 62
     7
100
AcDbCircle
 10
20.0470826365
 20
10.2584946732
 30
0.0
 40
0.0393700787401571
100
AcDbArc
 50
150.0
 51
175.2874049039
  0
LINE
  5
134
330
1F
100
AcDbEntity
  8
0
  6
CONTINUOUS
 62
     7
100
AcDbLine
 10
20.2456574087
 20
10.6811748032
 30
0.0
 11
20.0129880965
 21
10.278179352
 31
0.0
  0
ARC
  5
135
330
1F
100
AcDbEntity
  8
0
  6
CONTINUOUS
 62
     7
100
AcDbCircle
 10
20.2797521582
 20
10.6614891567
 30
0.0
 40
0.0393705534798369
100
AcDbArc
 50
124.7126296175
 51
150.0
  0
ARC
  5
136
330
1F
100
AcDbEntity
  8
0
  6
CONTINUOUS
 62
     7
100
AcDbCircle
 10
20.1486526108
 20
10.8507318063
 30
0.0
 40
0.1908464566929116
100
AcDbArc
 50
304.7126296175
 51
132.4587638057
  0
ARC
  5
137
330
1F
100
AcDbEntity
  8
0
  6
CONTINUOUS
 62
     7
100
AcDbCircle
 10
19.9932427725
 20
11.020577134
 30
0.0
 40
0.0393700787401603
100
AcDbArc
 50
240.0000151658
 51
312.4587638057
  0
LINE
  5
138
330
1F
100
AcDbEntity
  8
0
  6
CONTINUOUS
 62
     7
100
AcDbLine
 10
19.7937216162
 20
11.0903102368
 30
0.0
 11
19.973557512
 21
10.9864819963
 31
0.0
  0
ARC
  5
139
330
1F
100
AcDbEntity
  8
0
  6
CONTINUOUS
 62
     7
100
AcDbCircle
 10
19.8134071087
 20
11.1244052394
 30
0.0
 40
0.0393700920578453
100
AcDbArc
 50
167.541242043
 51
240.0000151658
  0
ARC
  5
13A
330
1F
100
AcDbEntity
  8
0
  6
CONTINUOUS
 62
     7
100
AcDbCircle
 10
19.588611816
 20
11.1740714206
 30
0.0
 40
0.1908464433752246
100
AcDbArc
 50
347.541242043
 51
175.2873809389
  0
ARC
  5
13B
330
1F
100
AcDbEntity
  8
0
  6
CONTINUOUS
 62
     7
100
AcDbCircle
 10
19.3591736152
 20
11.1929855493
 30
0.0
 40
0.039370059884368
100
AcDbArc
 50
330.0
 51
355.2873809389
  0
LINE
  5
13C
330
1F
100
AcDbEntity
  8
0
  6
CONTINUOUS
 62
     7
100
AcDbLine
 10
19.1605994367
 20
10.7703060402
 30
0.0
 11
19.3932687489
 21
11.1733003181
 31
0.0
  0
ARC
  5
13D
330
1F
100
AcDbEntity
  8
0
  6
CONTINUOUS
 62
     7
100
AcDbCircle
 10
19.1265043981
 20
10.7899906439
 30
0.0
 40
0.0393700787401562
100
AcDbArc
 50
304.7126031127
 51
330.0
  0
ARC
  5
13E
330
1F
100
AcDbEntity
  8
0
  6
CONTINUOUS
 62
     7
100
AcDbCircle
 10
19.2576035877
 20
10.6007483239
 30
0.0
 40
0.190846456692915
100
AcDbArc
 50
124.7126031127
 51
152.9845089364
  0
LINE
  5
13F
330
1F
100
AcDbEntity
  8
0
  6
CONTINUOUS
 62
     7
100
AcDbLine
 10
19.0875814002
 20
10.6874368108
 30
0.0
 11
16.6601177092
 21
12.0889332606
 31
0.0
  0
ARC
  5
140
330
1F
100
AcDbEntity
  8
0
  6
CONTINUOUS
 62
     7
100
AcDbCircle
 10
16.5000323515
 20
12.1928329088
 30
0.0
 40
0.1908464566929142
100
AcDbArc
 50
327.0154678033
 51
355.2874049039
  0
ARC
  5
141
330
1F
100
AcDbEntity
  8
0
  6
CONTINUOUS
 62
     7
100
AcDbCircle
 10
16.7294706055
 20
12.1739188723
 30
0.0
 40
0.0393700787401575
100
AcDbArc
 50
150.0
 51
175.2874049039
  0
LINE
  5
142
330
1F
100
AcDbEntity
  8
0
  6
CONTINUOUS
 62
     7
100
AcDbLine
 10
16.9280441074
 20
12.5965982227
 30
0.0
 11
16.6953747952
 21
12.1936039448
 31
0.0
  0
ARC
  5
143
330
1F
100
AcDbEntity
  8
0
  6
CONTINUOUS
 62
     7
100
AcDbCircle
 10
16.9621401273
 20
12.5769133559
 30
0.0
 40
0.0393705534798368
100
AcDbArc
 50
124.7126296175
 51
150.0
  0
ARC
  5
144
330
1F
100
AcDbEntity
  8
0
  6
CONTINUOUS
 62
     7
100
AcDbCircle
 10
16.8310405798
 20
12.7661560055
 30
0.0
 40
0.1908464566929166
100
AcDbArc
 50
304.7126296175
 51
132.4587638057
  0
ARC
  5
145
330
1F
100
AcDbEntity
  8
0
  6
CONTINUOUS
 62
     7
100
AcDbCircle
 10
16.6756307415
 20
12.9360013332
 30
0.0
 40
0.039370078740157
100
AcDbArc
 50
240.0000151658
 51
312.4587638057
  0
LINE
  5
146
330
1F
100
AcDbEntity
  8
0
  6
CONTINUOUS
 62
     7
100
AcDbLine
 10
16.4761094882
 20
13.0057336564
 30
0.0
 11
16.655945384
 21
12.9019054158
 31
0.0
  0
ARC
  5
147
330
1F
100
AcDbEntity
  8
0
  6
CONTINUOUS
 62
     7
100
AcDbCircle
 10
16.4957950778
 20
13.0398294386
 30
0.0
 40
0.0393700920578453
100
AcDbArc
 50
167.541242043
 51
240.0000151658
  0
ARC
  5
148
330
1F
100
AcDbEntity
  8
0
  6
CONTINUOUS
 62
     7
100
AcDbCircle
 10
16.270999785
 20
13.0894956197
 30
0.0
 40
0.1908464433752246
100
AcDbArc
 50
347.541242043
 51
175.2873809389
  0
ARC
  5
149
330
1F
100
AcDbEntity
  8
0
  6
CONTINUOUS
 62
     7
100
AcDbCircle
 10
16.0415615843
 20
13.1084097485
 30
0.0
 40
0.0393700598843689
100
AcDbArc
 50
330.0
 51
355.2873809389
  0
LINE
  5
14A
330
1F
100
AcDbEntity
  8
0
  6
CONTINUOUS
 62
     7
100
AcDbLine
 10
15.7699692722
 20
12.6028614037
 30
0.0
 11
15.5464471611
 21
12.7319113262
 31
0.0
  0
ARC
  5
14B
330
1F
100
AcDbEntity
  8
0
  6
CONTINUOUS
 62
     7
100
AcDbCircle
 10
15.5661319735
 20
12.7660073044
 30
0.0
 40
0.0393700787401586
100
AcDbArc
 50
167.5412391186
 51
240.0
  0
ARC
  5
14C
330
1F
100
AcDbEntity
  8
0
  6
CONTINUOUS
 62
     7
100
AcDbCircle
 10
15.3413366833
 20
12.815673497
 30
0.0
 40
0.1908464566929159
100
AcDbArc
 50
347.5412391186
 51
175.2874008956
  0
ARC
  5
14D
330
1F
100
AcDbEntity
  8
0
  6
CONTINUOUS
 62
     7
100
AcDbCircle
 10
15.1118984306
 20
12.8345875496
 30
0.0
 40
0.039370078740159
100
AcDbArc
 50
330.0
 51
355.2874008956
  0
LINE
  5
14E
330
1F
100
AcDbEntity
  8
0
  6
CONTINUOUS
 62
     7
100
AcDbLine
 10
15.1459942938
 20
12.8149025808
 30
0.0
 11
14.9066323656
 21
12.4003147302
 31
0.0
  0
ARC
  5
14F
330
1F
100
AcDbEntity
  8
0
  6
CONTINUOUS
 62
     7
100
AcDbCircle
 10
14.8725363533
 20
12.4200002704
 30
0.0
 40
0.0393700787401573
100
AcDbArc
 50
304.7125991044
 51
330.0
  0
ARC
  5
150
330
1F
100
AcDbEntity
  8
0
  6
CONTINUOUS
 62
     7
100
AcDbCircle
 10
15.0036355297
 20
12.2307579412
 30
0.0
 40
0.1908464566929124
100
AcDbArc
 50
124.7125991044
 51
312.4587608814
  0
ARC
  5
151
330
1F
100
AcDbEntity
  8
0
  6
CONTINUOUS
 62
     7
100
AcDbCircle
 10
15.1590453593
 20
12.0609126056
 30
0.0
 40
0.0393700787401603
100
AcDbArc
 50
60.0
 51
132.4587608814
  0
LINE
  5
152
330
1F
100
AcDbEntity
  8
0
  6
CONTINUOUS
 62
     7
100
AcDbLine
 10
15.1787299156
 20
12.0950075371
 30
0.0
 11
19.1211512524
 21
9.8188504715
 31
0.0
  0
LINE
  5
153
330
1F
100
AcDbEntity
  8
0
  6
CONTINUOUS
 62
     7
100
AcDbLine
 10
19.1211512524
 20
9.8188504715
 30
0.0
 11
19.1211512524
 21
6.5359345827
 31
0.0
  0
LINE
  5
154
330
1F
100
AcDbEntity
  8
0
  6
CONTINUOUS
 62
     7
100
AcDbLine
 10
19.1211512524
 20
6.5359345827
 30
0.0
 11
15.1787299156
 21
4.2597769304
 31
0.0
  0
ARC
  5
155
330
1F
100
AcDbEntity
  8
0
  6
CONTINUOUS
 62
     7
100
AcDbCircle
 10
15.1590453593
 20
4.2938723961
 30
0.0
 40
0.0393700787401594
100
AcDbArc
 50
227.5412391186
 51
300.0
  0
ARC
  5
156
330
1F
100
AcDbEntity
  8
0
  6
CONTINUOUS
 62
     7
100
AcDbCircle
 10
15.0036355297
 20
4.1240270604
 30
0.0
 40
0.1908464566929143
100
AcDbArc
 50
47.5412391186
 51
235.2874008956
  0
ARC
  5
157
330
1F
100
AcDbEntity
  8
0
  6
CONTINUOUS
 62
     7
100
AcDbCircle
 10
14.8725363533
 20
3.9347847312
 30
0.0
 40
0.0393700787401593
100
AcDbArc
 50
30.0
 51
55.2874008956
  0
LINE
  5
158
330
1F
100
AcDbEntity
  8
0
  6
CONTINUOUS
 62
     7
100
AcDbLine
 10
14.9066323656
 20
3.9544697373
 30
0.0
 11
15.1459942938
 21
3.5398824733
 31
0.0
  0
ARC
  5
159
330
1F
100
AcDbEntity
  8
0
  6
CONTINUOUS
 62
     7
100
AcDbCircle
 10
15.1118984306
 20
3.520197452
 30
0.0
 40
0.039370078740161
100
AcDbArc
 50
4.7125991044
 51
30.0
  0
ARC
  5
15A
330
1F
100
AcDbEntity
  8
0
  6
CONTINUOUS
 62
     7
100
AcDbCircle
 10
15.3413366833
 20
3.5391115046
 30
0.0
 40
0.1908464566929143
100
AcDbArc
 50
184.7125991044
 51
12.4587608814
  0
ARC
  5
15B
330
1F
100
AcDbEntity
  8
0
  6
CONTINUOUS
 62
     7
100
AcDbCircle
 10
15.5661319735
 20
3.5887776972
 30
0.0
 40
0.0393700787401567
100
AcDbArc
 50
120.0
 51
192.4587608814
  0
LINE
  5
15C
330
1F
100
AcDbEntity
  8
0
  6
CONTINUOUS
 62
     7
100
AcDbLine
 10
15.5464471611
 20
3.6228731413
 30
0.0
 11
15.7699692722
 21
3.7519239438
 31
0.0
  0
ARC
  5
15D
330
1F
100
AcDbEntity
  8
0
  6
CONTINUOUS
 62
     7
100
AcDbCircle
 10
15.9399915835
 20
3.8386124047
 30
0.0
 40
0.190846443375221
100
AcDbArc
 50
207.0154675949
 51
235.2873809389
  0
ARC
  5
15E
330
1F
100
AcDbEntity
  8
0
  6
CONTINUOUS
 62
     7
100
AcDbCircle
 10
15.8088923671
 20
3.6493701586
 30
0.0
 40
0.0393700598843677
100
AcDbArc
 50
30.0
 51
55.2873809389
  0
LINE
  5
15F
330
1F
100
AcDbEntity
  8
0
  6
CONTINUOUS
 62
     7
100
AcDbLine
 10
16.0756566209
 20
3.2660604366
 30
0.0
 11
15.8429873087
 21
3.6690553011
 31
0.0
  0
ARC
  5
160
330
1F
100
AcDbEntity
  8
0
  6
CONTINUOUS
 62
     7
100
AcDbCircle
 10
16.0415615843
 20
3.2463752532
 30
0.0
 40
0.0393700787401591
100
AcDbArc
 50
4.7126031127
 51
30.0
  0
ARC
  5
161
330
1F
100
AcDbEntity
  8
0
  6
CONTINUOUS
 62
     7
100
AcDbCircle
 10
16.2709998356
 20
3.2652893218
 30
0.0
 40
0.1908464566929145
100
AcDbArc
 50
184.7126031127
 51
12.4587638057
  0
ARC
  5
162
330
1F
100
AcDbEntity
  8
0
  6
CONTINUOUS
 62
     7
100
AcDbCircle
 10
16.4957951233
 20
3.3149555259
 30
0.0
 40
0.0393700787401586
100
AcDbArc
 50
120.0000151658
 51
192.4587638057
  0
LINE
  5
163
330
1F
100
AcDbEntity
  8
0
  6
CONTINUOUS
 62
     7
100
AcDbLine
 10
16.655945384
 20
3.4528793451
 30
0.0
 11
16.4761106615
 21
3.3490511045
 31
0.0
  0
ARC
  5
164
330
1F
100
AcDbEntity
  8
0
  6
CONTINUOUS
 62
     7
100
AcDbCircle
 10
16.6756307321
 20
3.4187837265
 30
0.0
 40
0.0393700787401562
100
AcDbArc
 50
47.541242043
 51
120.0000151658
  0
ARC
  5
165
330
1F
100
AcDbEntity
  8
0
  6
CONTINUOUS
 62
     7
100
AcDbCircle
 10
16.831040553
 20
3.58862907
 30
0.0
 40
0.1908464566929154
100
AcDbArc
 50
227.541242043
 51
55.2874049039
  0
ARC
  5
166
330
1F
100
AcDbEntity
  8
0
  6
CONTINUOUS
 62
     7
100
AcDbCircle
 10
16.9621397161
 20
3.7778714084
 30
0.0
 40
0.0393700787401602
100
AcDbArc
 50
210.0
 51
235.2874049039
  0
LINE
  5
167
330
1F
100
AcDbEntity
  8
0
  6
CONTINUOUS
 62
     7
100
AcDbLine
 10
16.6953747952
 20
4.1611811094
 30
0.0
 11
16.9280441074
 21
3.7581862448
 31
0.0
  0
ARC
  5
168
330
1F
100
AcDbEntity
  8
0
  6
CONTINUOUS
 62
     7
100
AcDbCircle
 10
16.7294710167
 20
4.1808663667
 30
0.0
 40
0.0393705534798333
100
AcDbArc
 50
184.7126296175
 51
210.0
  0
ARC
  5
169
330
1F
100
AcDbEntity
  8
0
  6
CONTINUOUS
 62
     7
100
AcDbCircle
 10
16.5000323009
 20
4.1619521529
 30
0.0
 40
0.1908464566929154
100
AcDbArc
 50
4.7126296175
 51
32.9845089364
  0
LINE
  5
16A
330
1F
100
AcDbEntity
  8
0
  6
CONTINUOUS
 62
     7
100
AcDbLine
 10
16.6601177092
 20
4.2658512069
 30
0.0
 11
19.0875814002
 21
5.6673482433
 31
0.0
  0
ARC
  5
16B
330
1F
100
AcDbEntity
  8
0
  6
CONTINUOUS
 62
     7
100
AcDbCircle
 10
19.2576036145
 20
5.7540366038
 30
0.0
 40
0.1908464433752216
100
AcDbArc
 50
207.0154675949
 51
235.2873809389
  0
ARC
  5
16C
330
1F
100
AcDbEntity
  8
0
  6
CONTINUOUS
 62
     7
100
AcDbCircle
 10
19.1265043981
 20
5.5647943577
 30
0.0
 40
0.0393700598843693
100
AcDbArc
 50
30.0
 51
55.2873809389
  0
LINE
  5
16D
330
1F
100
AcDbEntity
  8
0
  6
CONTINUOUS
 62
     7
100
AcDbLine
 10
19.3932687489
 20
5.1814847361
 30
0.0
 11
19.1605994367
 21
5.5844796006
 31
0.0
  0
ARC
  5
16E
330
1F
100
AcDbEntity
  8
0
  6
CONTINUOUS
 62
     7
100
AcDbCircle
 10
19.3591736152
 20
5.1617994523
 30
0.0
 40
0.0393700787401588
100
AcDbArc
 50
4.7126031127
 51
30.0
  0
ARC
  5
16F
330
1F
100
AcDbEntity
  8
0
  6
CONTINUOUS
 62
     7
100
AcDbCircle
 10
19.5886118666
 20
5.1807135209
 30
0.0
 40
0.1908464566929143
100
AcDbArc
 50
184.7126031127
 51
12.4587638057
  0
ARC
  5
170
330
1F
100
AcDbEntity
  8
0
  6
CONTINUOUS
 62
     7
100
AcDbCircle
 10
19.8134071543
 20
5.230379725
 30
0.0
 40
0.0393700787401564
100
AcDbArc
 50
120.0000151658
 51
192.4587638057
  0
LINE
  5
171
330
1F
100
AcDbEntity
  8
0
  6
CONTINUOUS
 62
     7
100
AcDbLine
 10
19.973557512
 20
5.3683036446
 30
0.0
 11
19.7937216162
 21
5.264475404
 31
0.0
  0
ARC
  5
172
330
1F
100
AcDbEntity
  8
0
  6
CONTINUOUS
 62
     7
100
AcDbCircle
 10
19.993242763
 20
5.3342079256
 30
0.0
 40
0.0393700787401564
100
AcDbArc
 50
47.541242043
 51
120.0000151658
  0
ARC
  5
173
330
1F
100
AcDbEntity
  8
0
  6
CONTINUOUS
 62
     7
100
AcDbCircle
 10
20.148652584
 20
5.5040532692
 30
0.0
 40
0.1908464566929143
100
AcDbArc
 50
227.541242043
 51
55.2874049039
  0
ARC
  5
174
330
1F
100
AcDbEntity
  8
0
  6
CONTINUOUS
 62
     7
100
AcDbCircle
 10
20.2797517471
 20
5.6932956075
 30
0.0
 40
0.0393700787401598
100
AcDbArc
 50
210.0
 51
235.2874049039
  0
LINE
  5
175
330
1F
100
AcDbEntity
  8
0
  6
CONTINUOUS
 62
     7
100
AcDbLine
 10
20.0129880965
 20
6.0766051156
 30
0.0
 11
20.2456574087
 21
5.6736108377
 31
0.0
  0
ARC
  5
176
330
1F
100
AcDbEntity
  8
0
  6
CONTINUOUS
 62
     7
100
AcDbCircle
 10
20.0470830476
 20
6.0962905658
 30
0.0
 40
0.0393705534798403
100
AcDbArc
 50
184.7126296175
 51
210.0
  0
ARC
  5
177
330
1F
100
AcDbEntity
  8
0
  6
CONTINUOUS
 62
     7
100
AcDbCircle
 10
19.8176443319
 20
6.0773763521
 30
0.0
 40
0.1908464566929114
100
AcDbArc
 50
4.7126296175
 51
32.9845089364
  0
LINE
  5
178
330
1F
100
AcDbEntity
  8
0
  6
CONTINUOUS
 62
     7
100
AcDbLine
 10
19.9777298372
 20
6.1812752131
 30
0.0
 11
20.6306001618
 21
6.5582106454
 31
0.0
  0
LINE
  5
179
330
1F
100
AcDbEntity
  8
0
  6
CONTINUOUS
 62
     7
100
AcDbLine
 10
20.6306001618
 20
6.5582106454
 30
0.0
 11
20.6306001618
 21
5.641723526
 31
0.0
  0
ARC
  5
17A
330
1F
100
AcDbEntity
  8
0
  6
CONTINUOUS
 62
     7
100
AcDbCircle
 10
19.2526473015
 20
5.6417236334
 30
0.0
 40
1.377952755905514
100
AcDbArc
 50
300.0
 51
0.0
  0
LINE
  5
17B
330
1F
100
AcDbEntity
  8
0
  6
CONTINUOUS
 62
     7
100
AcDbLine
 10
19.9416244409
 20
4.4483816316
 30
0.0
 11
15.54971603
 21
1.9127126305
 31
0.0
  0
ARC
  5
17C
330
1F
100
AcDbEntity
  8
0
  6
CONTINUOUS
 62
     7
100
AcDbCircle
 10
14.860739992
 20
3.106054766
 30
0.0
 40
1.377952755905515
100
AcDbArc
 50
240.0
 51
300.0
  0
LINE
  5
17D
330
1F
100
AcDbEntity
  8
0
  6
CONTINUOUS
 62
     7
100
AcDbLine
 10
14.1717634149
 20
1.9127126305
 30
0.0
 11
9.7798561772
 21
4.4483816316
 31
0.0
  0
ARC
  5
17E
330
1F
100
AcDbEntity
  8
0
  6
CONTINUOUS
 62
     7
100
AcDbCircle
 10
10.4688326825
 20
5.6417236334
 30
0.0
 40
1.377952755905513
100
AcDbArc
 50
180.0
 51
240.0
  0
LINE
  5
17F
330
1F
100
AcDbEntity
  8
0
  6
CONTINUOUS
 62
     7
100
AcDbLine
 10
9.0908798697
 20
5.641723526
 30
0.0
 11
9.0908798697
 21
10.7130609415
 31
0.0
  0
ARC
  5
180
330
1F
100
AcDbEntity
  8
0
  6
CONTINUOUS
 62
     7
100
AcDbCircle
 10
10.4688326825
 20
10.7130613682
 30
0.0
 40
1.377952755905516
100
AcDbArc
 50
120.0
 51
180.0
  0
LINE
  5
181
330
1F
100
AcDbEntity
  8
0
  6
CONTINUOUS
 62
     7
100
AcDbLine
 10
9.7798561772
 20
11.9064034226
 30
0.0
 11
14.1717634149
 21
14.442071837
 31
0.0
  0
ARC
  5
182
330
1F
100
AcDbEntity
  8
0
  6
CONTINUOUS
 62
     7
100
AcDbCircle
 10
14.860739992
 20
13.2487302356
 30
0.0
 40
1.377952755905512
100
AcDbArc
 50
60.0
 51
120.0
  0
LINE
  5
183
330
1F
100
AcDbEntity
  8
0
  6
CONTINUOUS
 62
     7
100
AcDbLine
 10
15.54971603
 20
14.442071837
 30
0.0
 11
19.9416244409
 21
11.9064034226
 31
0.0
  0
ARC
  5
184
330
1F
100
AcDbEntity
  8
0
  6
CONTINUOUS
 62
     7
100
AcDbCircle
 10
19.2526473015
 20
10.7130613682
 30
0.0
 40
1.377952755905515
100
AcDbArc
 50
0.0
 51
60.0
  0
LINE
  5
185
330
1F
100
AcDbEntity
  8
0
  6
CONTINUOUS
 62
     7
100
AcDbLine
 10
20.6306001618
 20
10.7130609415
 30
0.0
 11
20.6306001618
 21
9.7965744088
 31
0.0
  0
LINE
  5
186
330
1F
100
AcDbEntity
  8
0
  6
CONTINUOUS
 62
     7
100
AcDbLine
 10
20.6306001618
 20
9.7965744088
 30
0.0
 11
19.9777298372
 21
10.1735098411
 31
0.0
  0
ARC
  5
187
330
1F
100
AcDbEntity
  8
0
  6
CONTINUOUS
 62
     7
100
AcDbCircle
 10
12.892236055
 20
4.6971775551
 30
0.0
 40
0.984251968503937
100
AcDbArc
 50
240.0
 51
0.0
  0
LINE
  5
188
330
1F
100
AcDbEntity
  8
0
  6
CONTINUOUS
 62
     7
100
AcDbLine
 10
13.8764881059
 20
4.6971776375
 30
0.0
 11
13.8764881059
 21
11.6576080033
 31
0.0
  0
ARC
  5
189
330
1F
100
AcDbEntity
  8
0
  6
CONTINUOUS
 62
     7
100
AcDbCircle
 10
12.892236055
 20
11.6576074465
 30
0.0
 40
0.9842519685039391
100
AcDbArc
 50
0.0
 51
120.0
  0
LINE
  5
18A
330
1F
100
AcDbEntity
  8
0
  6
CONTINUOUS
 62
     7
100
AcDbLine
 10
12.4001103878
 20
12.5099943165
 30
0.0
 11
10.7641083804
 21
11.565448428
 31
0.0
  0
ARC
  5
18B
330
1F
100
AcDbEntity
  8
0
  6
CONTINUOUS
 62
     7
100
AcDbCircle
 10
11.6499350447
 20
10.0311516015
 30
0.0
 40
1.771653543307085
100
AcDbArc
 50
120.0
 51
180.0
  0
LINE
  5
18C
330
1F
100
AcDbEntity
  8
0
  6
CONTINUOUS
 62
     7
100
AcDbLine
 10
9.8782812802
 20
10.0311521256
 30
0.0
 11
9.8782812802
 21
6.3236335152
 31
0.0
  0
ARC
  5
18D
330
1F
100
AcDbEntity
  8
0
  6
CONTINUOUS
 62
     7
100
AcDbCircle
 10
11.6499350447
 20
6.3236334002
 30
0.0
 40
1.771653543307088
100
AcDbArc
 50
180.0
 51
240.0
  0
LINE
  5
18E
330
1F
100
AcDbEntity
  8
0
  6
CONTINUOUS
 62
     7
100
AcDbLine
 10
10.7641083804
 20
4.7893363329
 30
0.0
 11
12.4001103878
 21
3.8447904444
 31
0.0
  0
ARC
  5
18F
330
1F
100
AcDbEntity
  8
0
  6
CONTINUOUS
 62
     7
100
AcDbCircle
 10
15.9399915567
 20
12.5161725231
 30
0.0
 40
0.1908464566929165
100
AcDbArc
 50
124.7126031127
 51
152.9845089364
  0
LINE
  5
190
330
1F
100
AcDbEntity
  8
0
  6
CONTINUOUS
 62
     7
100
AcDbLine
 10
15.8429873087
 20
12.6857294597
 30
0.0
 11
16.0756566209
 21
13.088724911
 31
0.0
  0
ARC
  5
191
330
1F
100
AcDbEntity
  8
0
  6
CONTINUOUS
 62
     7
100
AcDbCircle
 10
15.8088923671
 20
12.7054148431
 30
0.0
 40
0.0393700787401547
100
AcDbArc
 50
304.7126031127
 51
330.0
  0
LINE
  5
192
330
1F
100
AcDbEntity
  8
0
  6
CONTINUOUS
 62
     7
100
AcDbLine
 10
20.8274503678
 20
7.5210667757
 30
0.0
 11
19.8431981646
 21
6.9528086469
 31
0.0
  0
LINE
  5
193
330
1F
100
AcDbEntity
  8
0
  6
CONTINUOUS
 62
     7
100
AcDbLine
 10
19.8431981646
 20
9.4019764073
 30
0.0
 11
20.8274503678
 21
8.8337182785
 31
0.0
  0
LINE
  5
194
330
1F
100
AcDbEntity
  8
0
  6
CONTINUOUS
 62
     7
100
AcDbLine
 10
20.8274503678
 20
7.5210667757
 30
0.0
 11
20.8274503678
 21
8.8337182785
 31
0.0
  0
LINE
  5
195
330
1F
100
AcDbEntity
  8
0
  6
CONTINUOUS
 62
     7
100
AcDbLine
 10
19.8431981646
 20
6.9528086469
 30
0.0
 11
19.8431981646
 21
9.4019764073
 31
0.0
  0
ARC
  5
196
330
1F
100
AcDbEntity
  8
0
  6
CONTINUOUS
 62
     7
100
AcDbCircle
 10
11.6499350447
 20
6.3236334002
 30
0.0
 40
1.574803149606301
100
AcDbArc
 50
180.0
 51
240.0
  0
LINE
  5
197
330
1F
100
AcDbEntity
  8
0
  6
CONTINUOUS
 62
     7
100
AcDbLine
 10
10.8625334834
 20
4.9598138302
 30
0.0
 11
12.4985354908
 21
4.0152676483
 31
0.0
  0
ARC
  5
198
330
1F
100
AcDbEntity
  8
0
  6
CONTINUOUS
 62
     7
100
AcDbCircle
 10
12.892236055
 20
4.6971775551
 30
0.0
 40
0.78740157480315
100
AcDbArc
 50
240.0
 51
0.0
  0
LINE
  5
199
330
1F
100
AcDbEntity
  8
0
  6
CONTINUOUS
 62
     7
100
AcDbLine
 10
13.6796378999
 20
4.6971776375
 30
0.0
 11
13.6796378999
 21
11.6576080033
 31
0.0
  0
ARC
  5
19A
330
1F
100
AcDbEntity
  8
0
  6
CONTINUOUS
 62
     7
100
AcDbCircle
 10
12.892236055
 20
11.6576074465
 30
0.0
 40
0.78740157480315
100
AcDbArc
 50
0.0
 51
120.0
  0
LINE
  5
19B
330
1F
100
AcDbEntity
  8
0
  6
CONTINUOUS
 62
     7
100
AcDbLine
 10
12.4985354908
 20
12.3395168192
 30
0.0
 11
10.8625334834
 21
11.3949709307
 31
0.0
  0
ARC
  5
19C
330
1F
100
AcDbEntity
  8
0
  6
CONTINUOUS
 62
     7
100
AcDbCircle
 10
11.6499350447
 20
10.0311516015
 30
0.0
 40
1.574803149606299
100
AcDbArc
 50
120.0
 51
180.0
  0
LINE
  5
19D
330
1F
100
AcDbEntity
  8
0
  6
CONTINUOUS
 62
     7
100
AcDbLine
 10
10.0751314862
 20
10.0311521256
 30
0.0
 11
10.0751314862
 21
6.3236335152
 31
0.0
  0
ARC
  5
19E
330
1F
100
AcDbEntity
  8
0
  6
CONTINUOUS
 62
     7
100
AcDbCircle
 10
19.2526473015
 20
5.6417236334
 30
0.0
 40
1.574803149606302
100
AcDbArc
 50
300.0
 51
0.0
  0
LINE
  5
19F
330
1F
100
AcDbEntity
  8
0
  6
CONTINUOUS
 62
     7
100
AcDbLine
 10
15.6481411329
 20
1.7422352799
 30
0.0
 11
20.0400495439
 21
4.2779041343
 31
0.0
  0
ARC
  5
1A0
330
1F
100
AcDbEntity
  8
0
  6
CONTINUOUS
 62
     7
100
AcDbCircle
 10
14.860739992
 20
3.106054766
 30
0.0
 40
1.574803149606298
100
AcDbArc
 50
240.0
 51
300.0
  0
LINE
  5
1A1
330
1F
100
AcDbEntity
  8
0
  6
CONTINUOUS
 62
     7
100
AcDbLine
 10
9.6814310742
 20
4.2779041343
 30
0.0
 11
14.0733383119
 21
1.7422352799
 31
0.0
  0
LINE
  5
1A2
330
1F
100
AcDbEntity
  8
0
  6
CONTINUOUS
 62
     7
100
AcDbLine
 10
8.8940296637
 20
10.7130609415
 30
0.0
 11
8.8940296637
 21
5.641723526
 31
0.0
  0
ARC
  5
1A3
330
1F
100
AcDbEntity
  8
0
  6
CONTINUOUS
 62
     7
100
AcDbCircle
 10
10.4688326825
 20
10.7130613682
 30
0.0
 40
1.5748031496063
100
AcDbArc
 50
120.0
 51
180.0
  0
LINE
  5
1A4
330
1F
100
AcDbEntity
  8
0
  6
CONTINUOUS
 62
     7
100
AcDbLine
 10
14.0733383119
 20
14.6125493343
 30
0.0
 11
9.6814310742
 21
12.0768809199
 31
0.0
  0
ARC
  5
1A5
330
1F
100
AcDbEntity
  8
0
  6
CONTINUOUS
 62
     7
100
AcDbCircle
 10
14.860739992
 20
13.2487302356
 30
0.0
 40
1.574803149606299
100
AcDbArc
 50
60.0
 51
120.0
  0
LINE
  5
1A6
330
1F
100
AcDbEntity
  8
0
  6
CONTINUOUS
 62
     7
100
AcDbLine
 10
20.0400495439
 20
12.0768809199
 30
0.0
 11
15.6481411329
 21
14.6125493343
 31
0.0
  0
ARC
  5
1A7
330
1F
100
AcDbEntity
  8
0
  6
CONTINUOUS
 62
     7
100
AcDbCircle
 10
19.2526473015
 20
10.7130613682
 30
0.0
 40
1.5748031496063
100
AcDbArc
 50
0.0
 51
60.0
  0
ARC
  5
1A8
330
1F
100
AcDbEntity
  8
0
  6
CONTINUOUS
 62
     7
100
AcDbCircle
 10
10.4688326825
 20
5.6417236334
 30
0.0
 40
1.5748031496063
100
AcDbArc
 50
180.0
 51
240.0
  0
LINE
  5
1A9
330
1F
100
AcDbEntity
  8
0
  6
CONTINUOUS
 62
     7
100
AcDbLine
 10
20.8274503678
 20
6.6718619191
 30
0.0
 11
20.6306001618
 21
6.5582106454
 31
0.0
  0
LINE
  5
1AA
330
1F
100
AcDbEntity
  8
0
  6
CONTINUOUS
 62
     7
100
AcDbLine
 10
20.8274503678
 20
5.641723526
 30
0.0
 11
20.8274503678
 21
6.6718619191
 31
0.0
  0
LINE
  5
1AB
330
1F
100
AcDbEntity
  8
0
  6
CONTINUOUS
 62
     7
100
AcDbLine
 10
20.8274503678
 20
9.6829231351
 30
0.0
 11
20.8274503678
 21
10.7130609415
 31
0.0
  0
LINE
  5
1AC
330
1F
100
AcDbEntity
  8
0
  6
CONTINUOUS
 62
     7
100
AcDbLine
 10
20.6306001618
 20
9.7965744088
 30
0.0
 11
20.8274503678
 21
9.6829231351
 31
0.0
  0
ARC
  5
1AD
330
1F
100
AcDbEntity
  8
0
  6
CONTINUOUS
 62
     7
100
AcDbCircle
 10
19.5928490442
 20
6.027710148
 30
0.0
 40
0.0393700787401564
100
AcDbArc
 50
300.0000151658
 51
12.4587638057
  0
LINE
  5
1AE
330
1F
100
AcDbEntity
  8
0
  6
CONTINUOUS
 62
     7
100
AcDbLine
 10
19.6125340559
 20
5.9936144476
 30
0.0
 11
19.4326981601
 21
5.8897862071
 31
0.0
  0
ARC
  5
1AF
330
1F
100
AcDbEntity
  8
0
  6
CONTINUOUS
 62
     7
100
AcDbCircle
 10
19.4130134354
 20
5.9238819474
 30
0.0
 40
0.0393700787401603
100
AcDbArc
 50
227.541242043
 51
300.0000151658
  0
ARC
  5
1B0
330
1F
100
AcDbEntity
  8
0
  6
CONTINUOUS
 62
     7
100
AcDbCircle
 10
16.2752370132
 20
4.1122859488
 30
0.0
 40
0.0393700787401586
100
AcDbArc
 50
300.0000151658
 51
12.4587638057
  0
LINE
  5
1B1
330
1F
100
AcDbEntity
  8
0
  6
CONTINUOUS
 62
     7
100
AcDbLine
 10
16.2949219279
 20
4.0781904414
 30
0.0
 11
16.1150860321
 21
3.9743622009
 31
0.0
  0
ARC
  5
1B2
330
1F
100
AcDbEntity
  8
0
  6
CONTINUOUS
 62
     7
100
AcDbCircle
 10
16.0954014045
 20
4.0084577482
 30
0.0
 40
0.0393700787401576
100
AcDbArc
 50
227.541242043
 51
300.0000151658
  0
ARC
  5
1B3
330
1F
100
AcDbEntity
  8
0
  6
CONTINUOUS
 62
     7
100
AcDbCircle
 10
19.413013426
 20
10.4309029962
 30
0.0
 40
0.0393700787401592
100
AcDbArc
 50
60.0000151658
 51
132.4587638057
  0
ARC
  5
1B4
330
1F
100
AcDbEntity
  8
0
  6
CONTINUOUS
 62
     7
100
AcDbCircle
 10
16.095401395
 20
12.3463271954
 30
0.0
 40
0.0393700787401579
100
AcDbArc
 50
60.0000151658
 51
132.4587638057
  0
ARC
  5
1B5
330
1F
100
AcDbEntity
  8
0
  6
CONTINUOUS
 62
     7
100
AcDbCircle
 10
16.2752370588
 20
12.24249909
 30
0.0
 40
0.0393700787401587
100
AcDbArc
 50
347.541242043
 51
60.0000151658
  0
LINE
  5
1B6
330
1F
100
AcDbEntity
  8
0
  6
CONTINUOUS
 62
     7
100
AcDbLine
 10
16.1150860321
 20
12.3804222667
 30
0.0
 11
16.2949219279
 21
12.2765940261
 31
0.0
  0
ARC
  5
1B7
330
1F
100
AcDbEntity
  8
0
  6
CONTINUOUS
 62
     7
100
AcDbCircle
 10
19.5928490897
 20
10.3270748908
 30
0.0
 40
0.0393700787401567
100
AcDbArc
 50
347.541242043
 51
60.0000151658
  0
LINE
  5
1B8
330
1F
100
AcDbEntity
  8
0
  6
CONTINUOUS
 62
     7
100
AcDbLine
 10
19.4326981601
 20
10.4649988471
 30
0.0
 11
19.6125340559
 21
10.3611706066
 31
0.0
  0
ARC
  5
1B9
330
1F
100
AcDbEntity
  8
0
  6
CONTINUOUS
 62
     7
100
AcDbCircle
 10
19.8176443319
 20
6.0773763521
 30
0.0
 40
0.1908464566929174
100
AcDbArc
 50
32.9845089364
 51
192.4587638057
  0
ARC
  5
1BA
330
1F
100
AcDbEntity
  8
0
  6
CONTINUOUS
 62
     7
100
AcDbCircle
 10
19.2576036145
 20
5.7540366038
 30
0.0
 40
0.1908464566929117
100
AcDbArc
 50
47.541242043
 51
207.0154675949
  0
ARC
  5
1BB
330
1F
100
AcDbEntity
  8
0
  6
CONTINUOUS
 62
     7
100
AcDbCircle
 10
19.2576035877
 20
10.6007483239
 30
0.0
 40
0.1908464566929141
100
AcDbArc
 50
152.9845089364
 51
312.4587638057
  0
ARC
  5
1BC
330
1F
100
AcDbEntity
  8
0
  6
CONTINUOUS
 62
     7
100
AcDbCircle
 10
19.8176443825
 20
10.2774087097
 30
0.0
 40
0.1908464566929149
100
AcDbArc
 50
167.541242043
 51
327.0154678033
  0
LINE
  5
1BD
330
1F
100
AcDbEntity
  8
0
  6
CONTINUOUS
 62
     7
100
AcDbLine
 10
20.8274503678
 20
7.5210667757
 30
0.0
 11
20.8274503678
 21
6.6718619191
 31
0.0
  0
LINE
  5
1BE
330
1F
100
AcDbEntity
  8
0
  6
CONTINUOUS
 62
     7
100
AcDbLine
 10
20.8274503678
 20
9.6829231351
 30
0.0
 11
20.8274503678
 21
8.8337182785
 31
0.0
  0
ARC
  5
1BF
330
1F
100
AcDbEntity
  8
0
  6
CONTINUOUS
 62
     7
100
AcDbCircle
 10
16.5000323009
 20
4.1619521529
 30
0.0
 40
0.1908464566929144
100
AcDbArc
 50
32.9845089364
 51
192.4587638057
  0
ARC
  5
1C0
330
1F
100
AcDbEntity
  8
0
  6
CONTINUOUS
 62
     7
100
AcDbCircle
 10
16.5000323515
 20
12.1928329088
 30
0.0
 40
0.1908464566929149
100
AcDbArc
 50
167.541242043
 51
327.0154678033
  0
ARC
  5
1C1
330
1F
100
AcDbEntity
  8
0
  6
CONTINUOUS
 62
     7
100
AcDbCircle
 10
15.9399915835
 20
3.8386124047
 30
0.0
 40
0.1908464566929142
100
AcDbArc
 50
47.541242043
 51
207.0154675949
  0
ARC
  5
1C2
330
1F
100
AcDbEntity
  8
0
  6
CONTINUOUS
 62
     7
100
AcDbCircle
 10
15.9399915567
 20
12.5161725231
 30
0.0
 40
0.190846456692913
100
AcDbArc
 50
152.9845089364
 51
312.4587638057
  0
ARC
  5
1C3
330
1F
100
AcDbEntity
  8
0
  6
CONTINUOUS
 62
     7
100
AcDbCircle
 10
2.1457836406
 20
13.7033367468
 30
0.0
 40
0.7874015748031509
100
AcDbArc
 50
60.0
 51
180.0
  0
LINE
  5
1C4
330
1F
100
AcDbEntity
  8
0
  6
CONTINUOUS
 62
     7
100
AcDbLine
 10
2.5394844719
 20
14.3852467868
 30
0.0
 11
6.5377301639
 21
12.0768586268
 31
0.0
  0
ARC
  5
1C5
330
1F
100
AcDbEntity
  8
0
  6
CONTINUOUS
 62
     7
100
AcDbCircle
 10
5.7503287455
 20
10.7130386379
 30
0.0
 40
1.574803149606301
100
AcDbArc
 50
0.0
 51
60.0
  0
LINE
  5
1C6
330
1F
100
AcDbEntity
  8
0
  6
CONTINUOUS
 62
     7
100
AcDbLine
 10
7.3251321611
 20
10.7130386484
 30
0.0
 11
7.3251321611
 21
9.6829002553
 31
0.0
  0
LINE
  5
1C7
330
1F
100
AcDbEntity
  8
0
  6
CONTINUOUS
 62
     7
100
AcDbLine
 10
6.4753717376
 20
10.1735098411
 30
0.0
 11
7.3251321611
 21
9.6829002553
 31
0.0
  0
ARC
  5
1C8
330
1F
100
AcDbEntity
  8
0
  6
CONTINUOUS
 62
     7
100
AcDbCircle
 10
6.3152864563
 20
10.2774087097
 30
0.0
 40
0.1908464566929145
100
AcDbArc
 50
327.0154678033
 51
355.2874049039
  0
ARC
  5
1C9
330
1F
100
AcDbEntity
  8
0
  6
CONTINUOUS
 62
     7
100
AcDbCircle
 10
6.5447247103
 20
10.2584946732
 30
0.0
 40
0.0393700787401616
100
AcDbArc
 50
150.0
 51
175.2874049039
  0
LINE
  5
1CA
330
1F
100
AcDbEntity
  8
0
  6
CONTINUOUS
 62
     7
100
AcDbLine
 10
6.7432981358
 20
10.6811748032
 30
0.0
 11
6.5106294103
 21
10.278179352
 31
0.0
  0
ARC
  5
1CB
330
1F
100
AcDbEntity
  8
0
  6
CONTINUOUS
 62
     7
100
AcDbCircle
 10
6.7773942321
 20
10.6614891567
 30
0.0
 40
0.0393705534798376
100
AcDbArc
 50
124.7126296175
 51
150.0
  0
ARC
  5
1CC
330
1F
100
AcDbEntity
  8
0
  6
CONTINUOUS
 62
     7
100
AcDbCircle
 10
6.6462946846
 20
10.8507318063
 30
0.0
 40
0.1908464566929139
100
AcDbArc
 50
304.7126296175
 51
132.4587638057
  0
ARC
  5
1CD
330
1F
100
AcDbEntity
  8
0
  6
CONTINUOUS
 62
     7
100
AcDbCircle
 10
6.4908848463
 20
11.020577134
 30
0.0
 40
0.0393700787401576
100
AcDbArc
 50
240.0000151658
 51
312.4587638057
  0
LINE
  5
1CE
330
1F
100
AcDbEntity
  8
0
  6
CONTINUOUS
 62
     7
100
AcDbLine
 10
6.2913641032
 20
11.0903102368
 30
0.0
 11
6.4711999991
 21
10.9864819963
 31
0.0
  0
ARC
  5
1CF
330
1F
100
AcDbEntity
  8
0
  6
CONTINUOUS
 62
     7
100
AcDbCircle
 10
6.3110491826
 20
11.1244052394
 30
0.0
 40
0.0393700920578505
100
AcDbArc
 50
167.541242043
 51
240.0000151658
  0
ARC
  5
1D0
330
1F
100
AcDbEntity
  8
0
  6
CONTINUOUS
 62
     7
100
AcDbCircle
 10
6.0862538898
 20
11.1740714206
 30
0.0
 40
0.1908464433752211
100
AcDbArc
 50
347.541242043
 51
175.2873809389
  0
ARC
  5
1D1
330
1F
100
AcDbEntity
  8
0
  6
CONTINUOUS
 62
     7
100
AcDbCircle
 10
5.8568156891
 20
11.1929855493
 30
0.0
 40
0.039370059884366
100
AcDbArc
 50
330.0
 51
355.2873809389
  0
LINE
  5
1D2
330
1F
100
AcDbEntity
  8
0
  6
CONTINUOUS
 62
     7
100
AcDbLine
 10
5.6582419238
 20
10.7703060402
 30
0.0
 11
5.890911236
 21
11.1733003181
 31
0.0
  0
ARC
  5
1D3
330
1F
100
AcDbEntity
  8
0
  6
CONTINUOUS
 62
     7
100
AcDbCircle
 10
5.624146472
 20
10.7899906439
 30
0.0
 40
0.0393700787401592
100
AcDbArc
 50
304.7126031127
 51
330.0
  0
ARC
  5
1D4
330
1F
100
AcDbEntity
  8
0
  6
CONTINUOUS
 62
     7
100
AcDbCircle
 10
5.7552456615
 20
10.6007483239
 30
0.0
 40
0.1908464566929135
100
AcDbArc
 50
124.7126031127
 51
152.9845089364
  0
LINE
  5
1D5
330
1F
100
AcDbEntity
  8
0
  6
CONTINUOUS
 62
     7
100
AcDbLine
 10
3.1528296132
 20
12.0917797344
 30
0.0
 11
5.5852238873
 21
10.6874368108
 31
0.0
  0
ARC
  5
1D6
330
1F
100
AcDbEntity
  8
0
  6
CONTINUOUS
 62
     7
100
AcDbCircle
 10
2.9927442177
 20
12.1956793655
 30
0.0
 40
0.1908464566929145
100
AcDbArc
 50
327.0154678033
 51
355.2874049039
  0
ARC
  5
1D7
330
1F
100
AcDbEntity
  8
0
  6
CONTINUOUS
 62
     7
100
AcDbCircle
 10
3.2221824717
 20
12.176765329
 30
0.0
 40
0.0393700787401606
100
AcDbArc
 50
150.0
 51
175.2874049039
  0
LINE
  5
1D8
330
1F
100
AcDbEntity
  8
0
  6
CONTINUOUS
 62
     7
100
AcDbLine
 10
3.4207560114
 20
12.5994446965
 30
0.0
 11
3.1880869926
 21
12.1964504186
 31
0.0
  0
ARC
  5
1D9
330
1F
100
AcDbEntity
  8
0
  6
CONTINUOUS
 62
     7
100
AcDbCircle
 10
3.4548519935
 20
12.5797598126
 30
0.0
 40
0.0393705534798363
100
AcDbArc
 50
124.7126296175
 51
150.0
  0
ARC
  5
1DA
330
1F
100
AcDbEntity
  8
0
  6
CONTINUOUS
 62
     7
100
AcDbCircle
 10
3.323752446
 20
12.7690024622
 30
0.0
 40
0.1908464566929148
100
AcDbArc
 50
304.7126296175
 51
132.4587638057
  0
ARC
  5
1DB
330
1F
100
AcDbEntity
  8
0
  6
CONTINUOUS
 62
     7
100
AcDbCircle
 10
3.1683426077
 20
12.9388477899
 30
0.0
 40
0.0393700787401581
100
AcDbArc
 50
240.0000151658
 51
312.4587638057
  0
LINE
  5
1DC
330
1F
100
AcDbEntity
  8
0
  6
CONTINUOUS
 62
     7
100
AcDbLine
 10
2.9688219789
 20
13.0085801301
 30
0.0
 11
3.1486575814
 21
12.9047518896
 31
0.0
  0
ARC
  5
1DD
330
1F
100
AcDbEntity
  8
0
  6
CONTINUOUS
 62
     7
100
AcDbCircle
 10
2.988506944
 20
13.0426758953
 30
0.0
 40
0.03937009205785
100
AcDbArc
 50
167.541242043
 51
240.0000151658
  0
ARC
  5
1DE
330
1F
100
AcDbEntity
  8
0
  6
CONTINUOUS
 62
     7
100
AcDbCircle
 10
2.7637116513
 20
13.0923420764
 30
0.0
 40
0.1908464433752208
100
AcDbArc
 50
347.541242043
 51
175.2873809389
  0
ARC
  5
1DF
330
1F
100
AcDbEntity
  8
0
  6
CONTINUOUS
 62
     7
100
AcDbCircle
 10
2.5342734505
 20
13.1112562052
 30
0.0
 40
0.0393700598843657
100
AcDbArc
 50
330.0
 51
355.2873809389
  0
LINE
  5
1E0
330
1F
100
AcDbEntity
  8
0
  6
CONTINUOUS
 62
     7
100
AcDbLine
 10
2.3356996527
 20
12.6885759335
 30
0.0
 11
2.5683689649
 21
13.0915713847
 31
0.0
  0
ARC
  5
1E1
330
1F
100
AcDbEntity
  8
0
  6
CONTINUOUS
 62
     7
100
AcDbCircle
 10
2.3016042334
 20
12.7082612998
 30
0.0
 40
0.0393700787401572
100
AcDbArc
 50
304.7126031127
 51
330.0
  0
ARC
  5
1E2
330
1F
100
AcDbEntity
  8
0
  6
CONTINUOUS
 62
     7
100
AcDbCircle
 10
2.432703423
 20
12.5190189798
 30
0.0
 40
0.1908464566929131
100
AcDbArc
 50
124.7126031127
 51
152.9845089364
  0
LINE
  5
1E3
330
1F
100
AcDbEntity
  8
0
  6
CONTINUOUS
 62
     7
100
AcDbLine
 10
1.3583820628
 20
13.1278046728
 30
0.0
 11
2.2626814696
 21
12.6057078775
 31
0.0
  0
LINE
  5
1E4
330
1F
100
AcDbEntity
  8
0
  6
CONTINUOUS
 62
     7
100
AcDbLine
 10
1.3583820628
 20
13.1278046728
 30
0.0
 11
1.3583820628
 21
13.7033367976
 31
0.0
  0
LINE
  5
1E5
330
1F
100
AcDbEntity
  8
0
  6
CONTINUOUS
 62
     7
100
AcDbLine
 10
1.3583820628
 20
4.0761849446
 30
0.0
 11
5.6187931528
 21
6.5359345827
 31
0.0
  0
LINE
  5
1E6
330
1F
100
AcDbEntity
  8
0
  6
CONTINUOUS
 62
     7
100
AcDbLine
 10
1.3583820628
 20
4.0761849446
 30
0.0
 11
1.3583820628
 21
12.2786004029
 31
0.0
  0
LINE
  5
1E7
330
1F
100
AcDbEntity
  8
0
  6
CONTINUOUS
 62
     7
100
AcDbLine
 10
5.6187931528
 20
9.8188504715
 30
0.0
 11
1.3583820628
 21
12.2786004029
 31
0.0
  0
LINE
  5
1E8
330
1F
100
AcDbEntity
  8
0
  6
CONTINUOUS
 62
     7
100
AcDbLine
 10
5.6187931528
 20
6.5359345827
 30
0.0
 11
5.6187931528
 21
9.8188504715
 31
0.0
  0
ARC
  5
1E9
330
1F
100
AcDbEntity
  8
0
  6
CONTINUOUS
 62
     7
100
AcDbCircle
 10
5.7503287455
 20
5.6417463637
 30
0.0
 40
1.574803149606298
100
AcDbArc
 50
300.0
 51
0.0
  0
LINE
  5
1EA
330
1F
100
AcDbEntity
  8
0
  6
CONTINUOUS
 62
     7
100
AcDbLine
 10
6.5377301639
 20
4.2779267207
 30
0.0
 11
2.5394844719
 21
1.9695385608
 31
0.0
  0
LINE
  5
1EB
330
1F
100
AcDbEntity
  8
0
  6
CONTINUOUS
 62
     7
100
AcDbLine
 10
2.2626814696
 20
3.74907747
 30
0.0
 11
1.3583820628
 21
3.226980088
 31
0.0
  0
ARC
  5
1EC
330
1F
100
AcDbEntity
  8
0
  6
CONTINUOUS
 62
     7
100
AcDbCircle
 10
2.4327034497
 20
3.835765948
 30
0.0
 40
0.1908464433752228
100
AcDbArc
 50
207.0154675949
 51
235.2873809389
  0
ARC
  5
1ED
330
1F
100
AcDbEntity
  8
0
  6
CONTINUOUS
 62
     7
100
AcDbCircle
 10
2.3016042334
 20
3.6465237019
 30
0.0
 40
0.0393700598843688
100
AcDbArc
 50
30.0
 51
55.2873809389
  0
LINE
  5
1EE
330
1F
100
AcDbEntity
  8
0
  6
CONTINUOUS
 62
     7
100
AcDbLine
 10
2.5683689649
 20
3.2632139628
 30
0.0
 11
2.3356996527
 21
3.6662088273
 31
0.0
  0
ARC
  5
1EF
330
1F
100
AcDbEntity
  8
0
  6
CONTINUOUS
 62
     7
100
AcDbCircle
 10
2.5342734505
 20
3.2435287965
 30
0.0
 40
0.0393700787401585
100
AcDbArc
 50
4.7126031127
 51
30.0
  0
ARC
  5
1F0
330
1F
100
AcDbEntity
  8
0
  6
CONTINUOUS
 62
     7
100
AcDbCircle
 10
2.7637117019
 20
3.2624428651
 30
0.0
 40
0.1908464566929148
100
AcDbArc
 50
184.7126031127
 51
12.4587638057
  0
ARC
  5
1F1
330
1F
100
AcDbEntity
  8
0
  6
CONTINUOUS
 62
     7
100
AcDbCircle
 10
2.9885069895
 20
3.3121090692
 30
0.0
 40
0.0393700787401577
100
AcDbArc
 50
120.0000151658
 51
192.4587638057
  0
LINE
  5
1F2
330
1F
100
AcDbEntity
  8
0
  6
CONTINUOUS
 62
     7
100
AcDbLine
 10
3.1486575814
 20
3.4500328713
 30
0.0
 11
2.9688219789
 21
3.3462046307
 31
0.0
  0
ARC
  5
1F3
330
1F
100
AcDbEntity
  8
0
  6
CONTINUOUS
 62
     7
100
AcDbCircle
 10
3.1683425983
 20
3.4159372698
 30
0.0
 40
0.0393700787401558
100
AcDbArc
 50
47.541242043
 51
120.0000151658
  0
ARC
  5
1F4
330
1F
100
AcDbEntity
  8
0
  6
CONTINUOUS
 62
     7
100
AcDbCircle
 10
3.3237524192
 20
3.5857826134
 30
0.0
 40
0.1908464566929148
100
AcDbArc
 50
227.541242043
 51
55.2874049039
  0
ARC
  5
1F5
330
1F
100
AcDbEntity
  8
0
  6
CONTINUOUS
 62
     7
100
AcDbCircle
 10
3.4548515824
 20
3.7750249517
 30
0.0
 40
0.0393700787401588
100
AcDbArc
 50
210.0
 51
235.2874049039
  0
LINE
  5
1F6
330
1F
100
AcDbEntity
  8
0
  6
CONTINUOUS
 62
     7
100
AcDbLine
 10
3.1880869926
 20
4.1583346356
 30
0.0
 11
3.4207560114
 21
3.755339771
 31
0.0
  0
ARC
  5
1F7
330
1F
100
AcDbEntity
  8
0
  6
CONTINUOUS
 62
     7
100
AcDbCircle
 10
3.2221828829
 20
4.17801991
 30
0.0
 40
0.0393705534798381
100
AcDbArc
 50
184.7126296175
 51
210.0
  0
ARC
  5
1F8
330
1F
100
AcDbEntity
  8
0
  6
CONTINUOUS
 62
     7
100
AcDbCircle
 10
2.9927441671
 20
4.1591056963
 30
0.0
 40
0.1908464566929134
100
AcDbArc
 50
4.7126296175
 51
32.9845089364
  0
LINE
  5
1F9
330
1F
100
AcDbEntity
  8
0
  6
CONTINUOUS
 62
     7
100
AcDbLine
 10
5.5852238873
 20
5.6673482433
 30
0.0
 11
3.1528296132
 21
4.2630047331
 31
0.0
  0
ARC
  5
1FA
330
1F
100
AcDbEntity
  8
0
  6
CONTINUOUS
 62
     7
100
AcDbCircle
 10
5.7552456883
 20
5.7540366038
 30
0.0
 40
0.1908464433752228
100
AcDbArc
 50
207.0154675949
 51
235.2873809389
  0
ARC
  5
1FB
330
1F
100
AcDbEntity
  8
0
  6
CONTINUOUS
 62
     7
100
AcDbCircle
 10
5.624146472
 20
5.5647943577
 30
0.0
 40
0.039370059884365
100
AcDbArc
 50
30.0
 51
55.2873809389
  0
LINE
  5
1FC
330
1F
100
AcDbEntity
  8
0
  6
CONTINUOUS
 62
     7
100
AcDbLine
 10
5.890911236
 20
5.1814847361
 30
0.0
 11
5.6582419238
 21
5.5844796006
 31
0.0
  0
ARC
  5
1FD
330
1F
100
AcDbEntity
  8
0
  6
CONTINUOUS
 62
     7
100
AcDbCircle
 10
5.8568156891
 20
5.1617994523
 30
0.0
 40
0.0393700787401585
100
AcDbArc
 50
4.7126031127
 51
30.0
  0
ARC
  5
1FE
330
1F
100
AcDbEntity
  8
0
  6
CONTINUOUS
 62
     7
100
AcDbCircle
 10
6.0862539404
 20
5.1807135209
 30
0.0
 40
0.1908464566929158
100
AcDbArc
 50
184.7126031127
 51
12.4587638057
  0
ARC
  5
1FF
330
1F
100
AcDbEntity
  8
0
  6
CONTINUOUS
 62
     7
100
AcDbCircle
 10
6.3110492281
 20
5.230379725
 30
0.0
 40
0.0393700787401557
100
AcDbArc
 50
120.0000151658
 51
192.4587638057
  0
LINE
  5
200
330
1F
100
AcDbEntity
  8
0
  6
CONTINUOUS
 62
     7
100
AcDbLine
 10
6.4711999991
 20
5.3683036446
 30
0.0
 11
6.2913641032
 21
5.264475404
 31
0.0
  0
ARC
  5
201
330
1F
100
AcDbEntity
  8
0
  6
CONTINUOUS
 62
     7
100
AcDbCircle
 10
6.4908848369
 20
5.3342079256
 30
0.0
 40
0.0393700787401582
100
AcDbArc
 50
47.541242043
 51
120.0000151658
  0
ARC
  5
202
330
1F
100
AcDbEntity
  8
0
  6
CONTINUOUS
 62
     7
100
AcDbCircle
 10
6.6462946578
 20
5.5040532692
 30
0.0
 40
0.1908464566929159
100
AcDbArc
 50
227.541242043
 51
55.2874049039
  0
ARC
  5
203
330
1F
100
AcDbEntity
  8
0
  6
CONTINUOUS
 62
     7
100
AcDbCircle
 10
6.7773938209
 20
5.6932956075
 30
0.0
 40
0.0393700787401581
100
AcDbArc
 50
210.0
 51
235.2874049039
  0
LINE
  5
204
330
1F
100
AcDbEntity
  8
0
  6
CONTINUOUS
 62
     7
100
AcDbLine
 10
6.5106294103
 20
6.0766051156
 30
0.0
 11
6.7432981358
 21
5.6736108377
 31
0.0
  0
ARC
  5
205
330
1F
100
AcDbEntity
  8
0
  6
CONTINUOUS
 62
     7
100
AcDbCircle
 10
6.5447251215
 20
6.0962905658
 30
0.0
 40
0.0393705534798342
100
AcDbArc
 50
184.7126296175
 51
210.0
  0
ARC
  5
206
330
1F
100
AcDbEntity
  8
0
  6
CONTINUOUS
 62
     7
100
AcDbCircle
 10
6.3152864057
 20
6.0773763521
 30
0.0
 40
0.1908464566929128
100
AcDbArc
 50
4.7126296175
 51
32.9845089364
  0
LINE
  5
207
330
1F
100
AcDbEntity
  8
0
  6
CONTINUOUS
 62
     7
100
AcDbLine
 10
7.3251321611
 20
6.6718847988
 30
0.0
 11
6.4753717376
 21
6.1812752131
 31
0.0
  0
LINE
  5
208
330
1F
100
AcDbEntity
  8
0
  6
CONTINUOUS
 62
     7
100
AcDbLine
 10
7.3251321611
 20
6.6718847988
 30
0.0
 11
7.3251321611
 21
5.6417464058
 31
0.0
  0
ARC
  5
209
330
1F
100
AcDbEntity
  8
0
  6
CONTINUOUS
 62
     7
100
AcDbCircle
 10
2.1457836406
 20
2.6514482548
 30
0.0
 40
0.7874015748031525
100
AcDbArc
 50
180.0
 51
300.0
  0
LINE
  5
20A
330
1F
100
AcDbEntity
  8
0
  6
CONTINUOUS
 62
     7
100
AcDbLine
 10
1.3583820628
 20
2.6514482566
 30
0.0
 11
1.3583820628
 21
3.226980088
 31
0.0
  0
LINE
  5
20B
330
1F
100
AcDbEntity
  8
0
  6
CONTINUOUS
 62
     7
100
AcDbLine
 10
6.3408406517
 20
9.4019764073
 30
0.0
 11
6.3408406517
 21
6.9528086469
 31
0.0
  0
LINE
  5
20C
330
1F
100
AcDbEntity
  8
0
  6
CONTINUOUS
 62
     7
100
AcDbLine
 10
7.3251321611
 20
8.8336953988
 30
0.0
 11
6.3408406517
 21
9.4019764073
 31
0.0
  0
LINE
  5
20D
330
1F
100
AcDbEntity
  8
0
  6
CONTINUOUS
 62
     7
100
AcDbLine
 10
6.3408406517
 20
6.9528086469
 30
0.0
 11
7.3251321611
 21
7.5210896554
 31
0.0
  0
LINE
  5
20E
330
1F
100
AcDbEntity
  8
0
  6
CONTINUOUS
 62
     7
100
AcDbLine
 10
7.3251321611
 20
8.8336953988
 30
0.0
 11
7.3251321611
 21
7.5210896554
 31
0.0
  0
ARC
  5
20F
330
1F
100
AcDbEntity
  8
0
  6
CONTINUOUS
 62
     7
100
AcDbCircle
 10
6.090491118
 20
6.027710148
 30
0.0
 40
0.0393700787401586
100
AcDbArc
 50
300.0000151658
 51
12.4587638057
  0
LINE
  5
210
330
1F
100
AcDbEntity
  8
0
  6
CONTINUOUS
 62
     7
100
AcDbLine
 10
6.1101759563
 20
5.9936144476
 30
0.0
 11
5.9303406471
 21
5.8897862071
 31
0.0
  0
ARC
  5
211
330
1F
100
AcDbEntity
  8
0
  6
CONTINUOUS
 62
     7
100
AcDbCircle
 10
5.9106555093
 20
5.9238819474
 30
0.0
 40
0.0393700787401603
100
AcDbArc
 50
227.541242043
 51
300.0000151658
  0
ARC
  5
212
330
1F
100
AcDbEntity
  8
0
  6
CONTINUOUS
 62
     7
100
AcDbCircle
 10
2.7679488794
 20
4.1094394921
 30
0.0
 40
0.0393700787401554
100
AcDbArc
 50
300.0000151658
 51
12.4587638057
  0
LINE
  5
213
330
1F
100
AcDbEntity
  8
0
  6
CONTINUOUS
 62
     7
100
AcDbLine
 10
2.787633832
 20
4.0753439676
 30
0.0
 11
2.6077983761
 21
3.9715157271
 31
0.0
  0
ARC
  5
214
330
1F
100
AcDbEntity
  8
0
  6
CONTINUOUS
 62
     7
100
AcDbCircle
 10
2.5881132707
 20
4.0056112915
 30
0.0
 40
0.0393700787401573
100
AcDbArc
 50
227.541242043
 51
300.0000151658
  0
ARC
  5
215
330
1F
100
AcDbEntity
  8
0
  6
CONTINUOUS
 62
     7
100
AcDbCircle
 10
2.5881132613
 20
12.3491736521
 30
0.0
 40
0.0393700787401583
100
AcDbArc
 50
60.0000151658
 51
132.4587638057
  0
LINE
  5
216
330
1F
100
AcDbEntity
  8
0
  6
CONTINUOUS
 62
     7
100
AcDbLine
 10
2.6077982294
 20
12.3832687405
 30
0.0
 11
2.787633832
 21
12.2794404999
 31
0.0
  0
ARC
  5
217
330
1F
100
AcDbEntity
  8
0
  6
CONTINUOUS
 62
     7
100
AcDbCircle
 10
2.767948925
 20
12.2453455467
 30
0.0
 40
0.0393700787401583
100
AcDbArc
 50
347.541242043
 51
60.0000151658
  0
ARC
  5
218
330
1F
100
AcDbEntity
  8
0
  6
CONTINUOUS
 62
     7
100
AcDbCircle
 10
5.9106554998
 20
10.4309029962
 30
0.0
 40
0.0393700787401583
100
AcDbArc
 50
60.0000151658
 51
132.4587638057
  0
LINE
  5
219
330
1F
100
AcDbEntity
  8
0
  6
CONTINUOUS
 62
     7
100
AcDbLine
 10
5.9303406471
 20
10.4649988471
 30
0.0
 11
6.1101759563
 21
10.3611706066
 31
0.0
  0
ARC
  5
21A
330
1F
100
AcDbEntity
  8
0
  6
CONTINUOUS
 62
     7
100
AcDbCircle
 10
6.0904911636
 20
10.3270748908
 30
0.0
 40
0.0393700787401609
100
AcDbArc
 50
347.541242043
 51
60.0000151658
  0
ARC
  5
21B
330
1F
100
AcDbEntity
  8
0
  6
CONTINUOUS
 62
     7
100
AcDbCircle
 10
6.3152864057
 20
6.0773763521
 30
0.0
 40
0.1908464566929156
100
AcDbArc
 50
32.9845089364
 51
192.4587638057
  0
LINE
  5
21C
330
1F
100
AcDbEntity
  8
0
  6
CONTINUOUS
 62
     7
100
AcDbLine
 10
7.3251321611
 20
6.6718847988
 30
0.0
 11
7.3251321611
 21
7.5210896554
 31
0.0
  0
LINE
  5
21D
330
1F
100
AcDbEntity
  8
0
  6
CONTINUOUS
 62
     7
100
AcDbLine
 10
7.3251321611
 20
8.8336953988
 30
0.0
 11
7.3251321611
 21
9.6829002553
 31
0.0
  0
ARC
  5
21E
330
1F
100
AcDbEntity
  8
0
  6
CONTINUOUS
 62
     7
100
AcDbCircle
 10
5.7552456883
 20
5.7540366038
 30
0.0
 40
0.1908464566929124
100
AcDbArc
 50
47.541242043
 51
207.0154675949
  0
ARC
  5
21F
330
1F
100
AcDbEntity
  8
0
  6
CONTINUOUS
 62
     7
100
AcDbCircle
 10
5.7552456615
 20
10.6007483239
 30
0.0
 40
0.1908464566929134
100
AcDbArc
 50
152.9845089364
 51
312.4587638057
  0
ARC
  5
220
330
1F
100
AcDbEntity
  8
0
  6
CONTINUOUS
 62
     7
100
AcDbCircle
 10
6.3152864563
 20
10.2774087097
 30
0.0
 40
0.1908464566929154
100
AcDbArc
 50
167.541242043
 51
327.0154678033
  0
ARC
  5
221
330
1F
100
AcDbEntity
  8
0
  6
CONTINUOUS
 62
     7
100
AcDbCircle
 10
2.4327034497
 20
3.835765948
 30
0.0
 40
0.1908464566929138
100
AcDbArc
 50
47.541242043
 51
207.0154675949
  0
ARC
  5
222
330
1F
100
AcDbEntity
  8
0
  6
CONTINUOUS
 62
     7
100
AcDbCircle
 10
2.9927441671
 20
4.1591056963
 30
0.0
 40
0.1908464566929149
100
AcDbArc
 50
32.9845089364
 51
192.4587638057
  0
ARC
  5
223
330
1F
100
AcDbEntity
  8
0
  6
CONTINUOUS
 62
     7
100
AcDbCircle
 10
2.432703423
 20
12.5190189798
 30
0.0
 40
0.1908464566929147
100
AcDbArc
 50
152.9845089364
 51
312.4587638057
  0
ARC
  5
224
330
1F
100
AcDbEntity
  8
0
  6
CONTINUOUS
 62
     7
100
AcDbCircle
 10
2.9927442177
 20
12.1956793655
 30
0.0
 40
0.1908464566929145
100
AcDbArc
 50
167.541242043
 51
327.0154678033
  0
LINE
  5
225
330
1F
100
AcDbEntity
  8
0
  6
CONTINUOUS
 62
     7
100
AcDbLine
 10
1.3583820628
 20
13.1278046728
 30
0.0
 11
1.3583820628
 21
12.2786004029
 31
0.0
  0
LINE
  5
226
330
1F
100
AcDbEntity
  8
0
  6
CONTINUOUS
 62
     7
100
AcDbLine
 10
1.3583820628
 20
4.0761849446
 30
0.0
 11
1.3583820628
 21
3.226980088
 31
0.0
  0
LINE
  5
227
330
1F
100
AcDbEntity
  8
0
  6
CONTINUOUS
 62
     7
100
AcDbLine
 10
28.0262693931
 20
5.2946625753
 30
0.0
 11
22.3963478704
 21
5.2946625753
 31
0.0
  0
LINE
  5
228
330
1F
100
AcDbEntity
  8
0
  6
CONTINUOUS
 62
     7
100
AcDbLine
 10
28.0262693931
 20
1.2876287182
 30
0.0
 11
28.0262693931
 21
5.2946625753
 31
0.0
  0
LINE
  5
229
330
1F
100
AcDbEntity
  8
0
  6
CONTINUOUS
 62
     7
100
AcDbLine
 10
22.3963478704
 20
5.2946625753
 30
0.0
 11
22.3963478704
 21
1.2876287182
 31
0.0
  0
LINE
  5
22A
330
1F
100
AcDbEntity
  8
0
  6
CONTINUOUS
 62
     7
100
AcDbLine
 10
22.3963478704
 20
1.2876287182
 30
0.0
 11
28.0262693931
 21
1.2876287182
 31
0.0
  0
LINE
  5
22B
330
1F
100
AcDbEntity
  8
PROFILES_INSIDE
100
AcDbLine
 10
6.510629222
 20
10.2781797125
 30
0.0
 11
6.7432983326
 21
10.6811744335
 31
0.0
  0
LINE
  5
22C
330
1F
100
AcDbEntity
  8
PROFILES_INSIDE
100
AcDbLine
 10
5.9303405302
 20
10.4649984898
 30
0.0
 11
6.1101761939
 21
10.3611703844
 31
0.0
  0
LINE
  5
22D
330
1F
100
AcDbEntity
  8
PROFILES_INSIDE
100
AcDbLine
 10
5.8909111611
 20
11.1733005194
 30
0.0
 11
5.6582419603
 21
10.7703056046
 31
0.0
  0
LINE
  5
22E
330
1F
100
AcDbEntity
  8
PROFILES_INSIDE
100
AcDbLine
 10
6.471199816
 20
10.9864816405
 30
0.0
 11
6.2913641431
 21
11.09030973
 31
0.0
  0
LINE
  5
22F
330
1F
100
AcDbEntity
  8
PROFILES_INSIDE
100
AcDbLine
 10
3.1880869834
 20
12.1964503684
 30
0.0
 11
3.420756094
 21
12.5994450893
 31
0.0
  0
LINE
  5
230
330
1F
100
AcDbEntity
  8
PROFILES_INSIDE
100
AcDbLine
 10
3.1486575774
 20
12.9047522963
 30
0.0
 11
2.9688219103
 21
13.008580396
 31
0.0
  0
LINE
  5
231
330
1F
100
AcDbEntity
  8
PROFILES_INSIDE
100
AcDbLine
 10
2.568368921
 20
13.091571176
 30
0.0
 11
2.3356997217
 21
12.6885762604
 31
0.0
  0
LINE
  5
232
330
1F
100
AcDbEntity
  8
PROFILES_INSIDE
100
AcDbLine
 10
2.6077982916
 20
12.3832691456
 30
0.0
 11
2.7876339553
 21
12.2794410402
 31
0.0
  0
LINE
  5
233
330
1F
100
AcDbEntity
  8
PROFILES_OUTSIDE
100
AcDbLine
 10
6.5377303203
 20
12.0768581714
 30
0.0
 11
2.539484428
 21
14.3852465136
 31
0.0
  0
LINE
  5
234
330
1F
100
AcDbEntity
  8
PROFILES_OUTSIDE
100
AcDbLine
 10
1.3583820658
 20
13.7033367468
 30
0.0
 11
1.3583820658
 21
2.6514482548
 31
0.0
  0
LINE
  5
235
330
1F
100
AcDbEntity
  8
PROFILES_OUTSIDE
100
AcDbLine
 10
2.539484428
 20
1.969538488
 30
0.0
 11
6.5377303203
 21
4.2779268302
 31
0.0
  0
LINE
  5
236
330
1F
100
AcDbEntity
  8
POCKETS
100
AcDbLine
 10
35.6000882464
 20
2.8400292333
 30
0.0
 11
29.2201669866
 21
2.8400292333
 31
0.0
  0
LINE
  5
237
330
1F
100
AcDbEntity
  8
POCKETS
100
AcDbLine
 10
29.2201669866
 20
2.8400292333
 30
0.0
 11
29.2201669866
 21
2.0150445998
 31
0.0
  0
LINE
  5
238
330
1F
100
AcDbEntity
  8
POCKETS
100
AcDbLine
 10
29.2201669866
 20
2.0150445998
 30
0.0
 11
35.6000882464
 21
2.0150445998
 31
0.0
  0
LINE
  5
239
330
1F
100
AcDbEntity
  8
POCKETS
100
AcDbLine
 10
35.6000882464
 20
2.0150445998
 30
0.0
 11
35.6000882464
 21
2.8400292333
 31
0.0
  0
LINE
  5
23A
330
1F
100
AcDbEntity
  8
PROFILES_INSIDE
100
AcDbLine
 10
6.7432983326
 20
5.6736105682
 30
0.0
 11
6.510629222
 21
6.0766052891
 31
0.0
  0
LINE
  5
23B
330
1F
100
AcDbEntity
  8
PROFILES_INSIDE
100
AcDbLine
 10
6.1101761664
 20
5.9936146649
 30
0.0
 11
5.9303405585
 21
5.8897864628
 31
0.0
  0
LINE
  5
23C
330
1F
100
AcDbEntity
  8
PROFILES_INSIDE
100
AcDbLine
 10
5.6582419411
 20
5.584479386
 30
0.0
 11
5.8909111774
 21
5.1814844917
 31
0.0
  0
LINE
  5
23D
330
1F
100
AcDbEntity
  8
PROFILES_INSIDE
100
AcDbLine
 10
6.2913641797
 20
5.2644752081
 30
0.0
 11
6.4711997885
 21
5.3683034087
 31
0.0
  0
LINE
  5
23E
330
1F
100
AcDbEntity
  8
PROFILES_OUTSIDE
100
AcDbLine
 10
7.3251318951
 20
5.6417463637
 30
0.0
 11
7.3251318951
 21
10.7130386379
 31
0.0
  0
LINE
  5
23F
330
1F
100
AcDbEntity
  8
PROFILES_OUTSIDE
100
AcDbLine
 10
8.8940295329
 20
10.7130613682
 30
0.0
 11
8.8940295329
 21
5.6417236334
 31
0.0
  0
LINE
  5
240
330
1F
100
AcDbEntity
  8
PROFILES_OUTSIDE
100
AcDbLine
 10
14.0733384172
 20
14.6125497692
 30
0.0
 11
9.6814311077
 21
12.0768809017
 31
0.0
  0
LINE
  5
241
330
1F
100
AcDbEntity
  8
PROFILES_OUTSIDE
100
AcDbLine
 10
20.0400488763
 20
12.0768809017
 30
0.0
 11
15.6481415668
 21
14.6125497692
 31
0.0
  0
LINE
  5
242
330
1F
100
AcDbEntity
  8
PROFILES_INSIDE
100
AcDbLine
 10
2.3356997054
 20
3.6662087318
 30
0.0
 11
2.5683689388
 21
3.2632138358
 31
0.0
  0
LINE
  5
243
330
1F
100
AcDbEntity
  8
PROFILES_INSIDE
100
AcDbLine
 10
2.9688219411
 20
3.3462045523
 30
0.0
 11
3.1486575499
 21
3.4500327529
 31
0.0
  0
LINE
  5
244
330
1F
100
AcDbEntity
  8
PROFILES_INSIDE
100
AcDbLine
 10
3.420756094
 20
3.7553399123
 30
0.0
 11
3.1880869834
 21
4.1583346333
 31
0.0
  0
LINE
  5
245
330
1F
100
AcDbEntity
  8
PROFILES_INSIDE
100
AcDbLine
 10
2.7876339278
 20
4.075344009
 30
0.0
 11
2.6077983191
 21
3.9715158084
 31
0.0
  0
LINE
  5
246
330
1F
100
AcDbEntity
  8
PROFILES_OUTSIDE
100
AcDbLine
 10
20.8274504512
 20
5.6417236334
 30
0.0
 11
20.8274504512
 21
10.7130613682
 31
0.0
  0
LINE
  5
247
330
1F
100
AcDbEntity
  8
PROFILES_OUTSIDE
100
AcDbLine
 10
15.6481415668
 20
1.7422352325
 30
0.0
 11
20.0400488763
 21
4.2779040999
 31
0.0
  0
LINE
  5
248
330
1F
100
AcDbEntity
  8
PROFILES_OUTSIDE
100
AcDbLine
 10
9.6814311077
 20
4.2779040999
 30
0.0
 11
14.0733384172
 21
1.7422352325
 31
0.0
  0
LINE
  5
249
330
1F
100
AcDbEntity
  8
PROFILES_INSIDE
100
AcDbLine
 10
20.0129871482
 20
10.2781797125
 30
0.0
 11
20.2456562588
 21
10.6811744335
 31
0.0
  0
LINE
  5
24A
330
1F
100
AcDbEntity
  8
PROFILES_INSIDE
100
AcDbLine
 10
19.4326984563
 20
10.4649984898
 30
0.0
 11
19.6125341201
 21
10.3611703844
 31
0.0
  0
LINE
  5
24B
330
1F
100
AcDbEntity
  8
PROFILES_INSIDE
100
AcDbLine
 10
19.3932690872
 20
11.1733005194
 30
0.0
 11
19.1605998865
 21
10.7703056046
 31
0.0
  0
LINE
  5
24C
330
1F
100
AcDbEntity
  8
PROFILES_INSIDE
100
AcDbLine
 10
19.9735577421
 20
10.9864816405
 30
0.0
 11
19.7937220692
 21
11.09030973
 31
0.0
  0
LINE
  5
24D
330
1F
100
AcDbEntity
  8
PROFILES_INSIDE
100
AcDbLine
 10
16.6953751172
 20
12.1936039117
 30
0.0
 11
16.9280442278
 21
12.5965986326
 31
0.0
  0
LINE
  5
24E
330
1F
100
AcDbEntity
  8
PROFILES_INSIDE
100
AcDbLine
 10
16.6559457112
 20
12.9019058396
 30
0.0
 11
16.4761100441
 21
13.0057339393
 31
0.0
  0
LINE
  5
24F
330
1F
100
AcDbEntity
  8
PROFILES_INSIDE
100
AcDbLine
 10
16.0756570548
 20
13.0887247194
 30
0.0
 11
15.8429878555
 21
12.6857298037
 31
0.0
  0
LINE
  5
250
330
1F
100
AcDbEntity
  8
PROFILES_INSIDE
100
AcDbLine
 10
16.1150864254
 20
12.3804226889
 30
0.0
 11
16.2949220891
 21
12.2765945835
 31
0.0
  0
LINE
  5
251
330
1F
100
AcDbEntity
  8
PROFILES_INSIDE
100
AcDbLine
 10
20.2456562588
 20
5.6736105682
 30
0.0
 11
20.0129871482
 21
6.0766052891
 31
0.0
  0
LINE
  5
252
330
1F
100
AcDbEntity
  8
BOX_STOCK
100
AcDbLine
 10
0.1802324595
 20
0.109479115
 30
0.0
 11
96.2432245855
 21
0.109479115
 31
0.0
  0
LINE
  5
253
330
1F
100
AcDbEntity
  8
BOX_STOCK
100
AcDbLine
 10
96.2432245855
 20
0.109479115
 30
0.0
 11
96.2432245855
 21
48.140975178
 31
0.0
  0
LINE
  5
254
330
1F
100
AcDbEntity
  8
BOX_STOCK
100
AcDbLine
 10
96.2432245855
 20
48.140975178
 30
0.0
 11
0.1802324595
 21
48.140975178
 31
0.0
  0
LINE
  5
255
330
1F
100
AcDbEntity
  8
BOX_STOCK
100
AcDbLine
 10
0.1802324595
 20
48.140975178
 30
0.0
 11
0.1802324595
 21
0.109479115
 31
0.0
  0
LINE
  5
256
330
1F
100
AcDbEntity
  8
PROFILES_INSIDE
100
AcDbLine
 10
19.6125340926
 20
5.9936146649
 30
0.0
 11
19.4326984847
 21
5.8897864628
 31
0.0
  0
LINE
  5
257
330
1F
100
AcDbEntity
  8
PROFILES_INSIDE
100
AcDbLine
 10
19.1605998672
 20
5.584479386
 30
0.0
 11
19.3932691036
 21
5.1814844917
 31
0.0
  0
LINE
  5
258
330
1F
100
AcDbEntity
  8
PROFILES_INSIDE
100
AcDbLine
 10
19.7937221059
 20
5.2644752081
 30
0.0
 11
19.9735577146
 21
5.3683034087
 31
0.0
  0
LINE
  5
259
330
1F
100
AcDbEntity
  8
PROFILES_INSIDE
100
AcDbLine
 10
15.8429878392
 20
3.6690551885
 30
0.0
 11
16.0756570726
 21
3.2660602925
 31
0.0
  0
LINE
  5
25A
330
1F
100
AcDbEntity
  8
PROFILES_INSIDE
100
AcDbLine
 10
16.4761100749
 20
3.349051009
 30
0.0
 11
16.6559456837
 21
3.4528792096
 31
0.0
  0
LINE
  5
25B
330
1F
100
AcDbEntity
  8
PROFILES_INSIDE
100
AcDbLine
 10
16.9280442278
 20
3.758186369
 30
0.0
 11
16.6953751172
 21
4.1611810899
 31
0.0
  0
LINE
  5
25C
330
1F
100
AcDbEntity
  8
PROFILES_INSIDE
100
AcDbLine
 10
16.2949220616
 20
4.0781904657
 30
0.0
 11
16.1150864529
 21
3.9743622651
 31
0.0
  0
LINE
  5
25D
330
1F
100
AcDbEntity
  8
PROFILES_INSIDE
100
AcDbLine
 10
10.0751318951
 20
10.0311516015
 30
0.0
 11
10.0751318951
 21
6.3236334002
 31
0.0
  0
LINE
  5
25E
330
1F
100
AcDbEntity
  8
POCKETS
100
AcDbLine
 10
35.6000882464
 20
10.8895902512
 30
0.0
 11
29.2201669866
 21
10.8895902512
 31
0.0
  0
LINE
  5
25F
330
1F
100
AcDbEntity
  8
POCKETS
100
AcDbLine
 10
29.2201669866
 20
10.8895902512
 30
0.0
 11
29.2201669866
 21
10.0646056177
 31
0.0
  0
LINE
  5
260
330
1F
100
AcDbEntity
  8
POCKETS
100
AcDbLine
 10
29.2201669866
 20
10.0646056177
 30
0.0
 11
35.6000882464
 21
10.0646056177
 31
0.0
  0
LINE
  5
261
330
1F
100
AcDbEntity
  8
POCKETS
100
AcDbLine
 10
35.6000882464
 20
10.0646056177
 30
0.0
 11
35.6000882464
 21
10.8895902512
 31
0.0
  0
LINE
  5
262
330
1F
100
AcDbEntity
  8
PROFILES_INSIDE
100
AcDbLine
 10
10.8625334699
 20
4.9598138666
 30
0.0
 11
12.4985352676
 21
4.0152677883
 31
0.0
  0
LINE
  5
263
330
1F
100
AcDbEntity
  8
PROFILES_INSIDE
100
AcDbLine
 10
13.6796376298
 20
4.6971775551
 30
0.0
 11
13.6796376298
 21
11.6576074465
 31
0.0
  0
LINE
  5
264
330
1F
100
AcDbEntity
  8
PROFILES_INSIDE
100
AcDbLine
 10
12.4985352676
 20
12.3395172133
 30
0.0
 11
10.8625334699
 21
11.394971135
 31
0.0
  0
LINE
  5
265
330
1F
100
AcDbEntity
  8
PROFILES_OUTSIDE
100
AcDbLine
 10
28.0262693488
 20
1.2876287213
 30
0.0
 11
28.0262693488
 21
5.2946624799
 31
0.0
  0
LINE
  5
266
330
1F
100
AcDbEntity
  8
PROFILES_OUTSIDE
100
AcDbLine
 10
28.0262693488
 20
5.2946624799
 30
0.0
 11
22.3963480889
 21
5.2946624799
 31
0.0
  0
LINE
  5
267
330
1F
100
AcDbEntity
  8
PROFILES_OUTSIDE
100
AcDbLine
 10
22.3963480889
 20
5.2946624799
 30
0.0
 11
22.3963480889
 21
1.2876287213
 31
0.0
  0
LINE
  5
268
330
1F
100
AcDbEntity
  8
PROFILES_OUTSIDE
100
AcDbLine
 10
22.3963480889
 20
1.2876287213
 30
0.0
 11
28.0262693488
 21
1.2876287213
 31
0.0
  0
LINE
  5
269
330
1F
100
AcDbEntity
  8
PROFILES_OUTSIDE
100
AcDbLine
 10
35.2250882464
 20
7.7682921014
 30
0.0
 11
29.5951669866
 21
7.7682921014
 31
0.0
  0
LINE
  5
26A
330
1F
100
AcDbEntity
  8
PROFILES_OUTSIDE
100
AcDbLine
 10
29.5951669866
 20
7.7682921014
 30
0.0
 11
29.5951669866
 21
1.2876287213
 31
0.0
  0
LINE
  5
26B
330
1F
100
AcDbEntity
  8
PROFILES_OUTSIDE
100
AcDbLine
 10
29.5951669866
 20
1.2876287213
 30
0.0
 11
35.2250882464
 21
1.2876287213
 31
0.0
  0
LINE
  5
26C
330
1F
100
AcDbEntity
  8
PROFILES_OUTSIDE
100
AcDbLine
 10
35.2250882464
 20
1.2876287213
 30
0.0
 11
35.2250882464
 21
7.7682921014
 31
0.0
  0
LINE
  5
26D
330
1F
100
AcDbEntity
  8
PROFILES_OUTSIDE
100
AcDbLine
 10
29.5951669866
 20
15.8178531193
 30
0.0
 11
29.5951669866
 21
9.3371897392
 31
0.0
  0
LINE
  5
26E
330
1F
100
AcDbEntity
  8
PROFILES_OUTSIDE
100
AcDbLine
 10
29.5951669866
 20
9.3371897392
 30
0.0
 11
35.2250882464
 21
9.3371897392
 31
0.0
  0
LINE
  5
26F
330
1F
100
AcDbEntity
  8
PROFILES_OUTSIDE
100
AcDbLine
 10
35.2250882464
 20
9.3371897392
 30
0.0
 11
35.2250882464
 21
15.8178531193
 31
0.0
  0
LINE
  5
270
330
1F
100
AcDbEntity
  8
PROFILES_OUTSIDE
100
AcDbLine
 10
35.2250882464
 20
15.8178531193
 30
0.0
 11
29.5951669866
 21
15.8178531193
 31
0.0
  0
LINE
  5
271
330
1F
100
AcDbEntity
  8
POCKETS
100
AcDbLine
 10
7.6547909741
 20
7.7114184389
 30
0.0
 11
7.3300314477
 21
7.5239184389
 31
0.0
  0
LINE
  5
272
330
1F
100
AcDbEntity
  8
POCKETS
100
AcDbLine
 10
8.0225075096
 20
7.0745147168
 30
0.0
 11
7.6547909741
 21
7.7114184389
 31
0.0
  0
LINE
  5
273
330
1F
100
AcDbEntity
  8
POCKETS
100
AcDbLine
 10
7.6977479831
 20
6.8870147168
 30
0.0
 11
8.0225075096
 21
7.0745147168
 31
0.0
  0
LINE
  5
274
330
1F
100
AcDbEntity
  8
POCKETS
100
AcDbLine
 10
1.3534825132
 20
3.2241513399
 30
0.0
 11
7.6977479831
 21
6.8870147168
 31
0.0
  0
LINE
  5
275
330
1F
100
AcDbEntity
  8
POCKETS
100
AcDbLine
 10
1.0287229868
 20
3.0366513399
 30
0.0
 11
1.3534825132
 21
3.2241513399
 31
0.0
  0
LINE
  5
276
330
1F
100
AcDbEntity
  8
POCKETS
100
AcDbLine
 10
0.6610064513
 20
3.6735550621
 30
0.0
 11
1.0287229868
 21
3.0366513399
 31
0.0
  0
LINE
  5
277
330
1F
100
AcDbEntity
  8
POCKETS
100
AcDbLine
 10
0.9857659778
 20
3.8610550621
 30
0.0
 11
0.6610064513
 21
3.6735550621
 31
0.0
  0
LINE
  5
278
330
1F
100
AcDbEntity
  8
POCKETS
100
AcDbLine
 10
5.6187933124
 20
6.5359346409
 30
0.0
 11
0.9857659778
 21
3.8610550621
 31
0.0
  0
LINE
  5
279
330
1F
100
AcDbEntity
  8
POCKETS
100
AcDbLine
 10
5.6187933124
 20
9.8188503608
 30
0.0
 11
5.6187933124
 21
6.5359346409
 31
0.0
  0
LINE
  5
27A
330
1F
100
AcDbEntity
  8
POCKETS
100
AcDbLine
 10
0.9857659778
 20
12.4937299396
 30
0.0
 11
5.6187933124
 21
9.8188503608
 31
0.0
  0
LINE
  5
27B
330
1F
100
AcDbEntity
  8
POCKETS
100
AcDbLine
 10
0.6610064513
 20
12.6812299396
 30
0.0
 11
0.9857659778
 21
12.4937299396
 31
0.0
  0
LINE
  5
27C
330
1F
100
AcDbEntity
  8
POCKETS
100
AcDbLine
 10
1.0287229868
 20
13.3181336617
 30
0.0
 11
0.6610064513
 21
12.6812299396
 31
0.0
  0
LINE
  5
27D
330
1F
100
AcDbEntity
  8
POCKETS
100
AcDbLine
 10
1.3534825132
 20
13.1306336617
 30
0.0
 11
1.0287229868
 21
13.3181336617
 31
0.0
  0
LINE
  5
27E
330
1F
100
AcDbEntity
  8
POCKETS
100
AcDbLine
 10
7.6977479831
 20
9.4677702848
 30
0.0
 11
1.3534825132
 21
13.1306336617
 31
0.0
  0
LINE
  5
27F
330
1F
100
AcDbEntity
  8
POCKETS
100
AcDbLine
 10
8.0225075096
 20
9.2802702848
 30
0.0
 11
7.6977479831
 21
9.4677702848
 31
0.0
  0
LINE
  5
280
330
1F
100
AcDbEntity
  8
POCKETS
100
AcDbLine
 10
7.6547909741
 20
8.6433665627
 30
0.0
 11
8.0225075096
 21
9.2802702848
 31
0.0
  0
LINE
  5
281
330
1F
100
AcDbEntity
  8
POCKETS
100
AcDbLine
 10
7.3300314477
 20
8.8308665627
 30
0.0
 11
7.6547909741
 21
8.6433665627
 31
0.0
  0
LINE
  5
282
330
1F
100
AcDbEntity
  8
POCKETS
100
AcDbLine
 10
6.3408405565
 20
9.40197619
 30
0.0
 11
7.3300314477
 21
8.8308665627
 31
0.0
  0
LINE
  5
283
330
1F
100
AcDbEntity
  8
POCKETS
100
AcDbLine
 10
6.3408405565
 20
6.9528088116
 30
0.0
 11
6.3408405565
 21
9.40197619
 31
0.0
  0
LINE
  5
284
330
1F
100
AcDbEntity
  8
POCKETS
100
AcDbLine
 10
7.3300314477
 20
7.5239184389
 30
0.0
 11
6.3408405565
 21
6.9528088116
 31
0.0
  0
LINE
  5
285
330
1F
100
AcDbEntity
  8
POCKETS
100
AcDbLine
 10
15.1459939189
 20
12.8149025102
 30
0.0
 11
14.9066318417
 21
12.400315231
 31
0.0
  0
LINE
  5
286
330
1F
100
AcDbEntity
  8
POCKETS
100
AcDbLine
 10
15.1787303987
 20
12.0950080939
 30
0.0
 11
19.1211512386
 21
9.8188503608
 31
0.0
  0
LINE
  5
287
330
1F
100
AcDbEntity
  8
POCKETS
100
AcDbLine
 10
19.1211512386
 20
9.8188503608
 30
0.0
 11
19.1211512386
 21
6.5359346409
 31
0.0
  0
LINE
  5
288
330
1F
100
AcDbEntity
  8
POCKETS
100
AcDbLine
 10
19.1211512386
 20
6.5359346409
 30
0.0
 11
15.1787303987
 21
4.2597769077
 31
0.0
  0
LINE
  5
289
330
1F
100
AcDbEntity
  8
POCKETS
100
AcDbLine
 10
14.9066318417
 20
3.9544697706
 30
0.0
 11
15.1459939189
 21
3.5398824914
 31
0.0
  0
LINE
  5
28A
330
1F
100
AcDbEntity
  8
POCKETS
100
AcDbLine
 10
15.5464469341
 20
3.6228731856
 30
0.0
 11
21.2000665392
 21
6.8869919865
 31
0.0
  0
LINE
  5
28B
330
1F
100
AcDbEntity
  8
POCKETS
100
AcDbLine
 10
21.2000665392
 20
6.8869919865
 30
0.0
 11
21.5248260657
 21
7.0744919865
 31
0.0
  0
LINE
  5
28C
330
1F
100
AcDbEntity
  8
POCKETS
100
AcDbLine
 10
21.5248260657
 20
7.0744919865
 30
0.0
 11
21.1571095302
 21
7.7113957086
 31
0.0
  0
LINE
  5
28D
330
1F
100
AcDbEntity
  8
POCKETS
100
AcDbLine
 10
21.1571095302
 20
7.7113957086
 30
0.0
 11
20.8323500038
 21
7.5238957086
 31
0.0
  0
LINE
  5
28E
330
1F
100
AcDbEntity
  8
POCKETS
100
AcDbLine
 10
20.8323500038
 20
7.5238957086
 30
0.0
 11
19.8431984826
 21
6.9528088116
 31
0.0
  0
LINE
  5
28F
330
1F
100
AcDbEntity
  8
POCKETS
100
AcDbLine
 10
19.8431984826
 20
6.9528088116
 30
0.0
 11
19.8431984826
 21
9.40197619
 31
0.0
  0
LINE
  5
290
330
1F
100
AcDbEntity
  8
POCKETS
100
AcDbLine
 10
19.8431984826
 20
9.40197619
 30
0.0
 11
20.8323500038
 21
8.830889293
 31
0.0
  0
LINE
  5
291
330
1F
100
AcDbEntity
  8
POCKETS
100
AcDbLine
 10
20.8323500038
 20
8.830889293
 30
0.0
 11
21.1571095302
 21
8.643389293
 31
0.0
  0
LINE
  5
292
330
1F
100
AcDbEntity
  8
POCKETS
100
AcDbLine
 10
21.1571095302
 20
8.643389293
 30
0.0
 11
21.5248260657
 21
9.2802930152
 31
0.0
  0
LINE
  5
293
330
1F
100
AcDbEntity
  8
POCKETS
100
AcDbLine
 10
21.5248260657
 20
9.2802930152
 30
0.0
 11
21.2000665392
 21
9.4677930152
 31
0.0
  0
LINE
  5
294
330
1F
100
AcDbEntity
  8
POCKETS
100
AcDbLine
 10
21.2000665392
 20
9.4677930152
 30
0.0
 11
15.5464469341
 21
12.7319118161
 31
0.0
  0
LINE
  5
295
330
1F
100
AcDbEntity
  8
PROFILES_OUTSIDE
100
AcDbLine
 10
37.0404425771
 20
6.8466109778
 30
0.0
 11
36.833355963
 21
6.8466109778
 31
0.0
  0
LINE
  5
296
330
1F
100
AcDbEntity
  8
PROFILES_OUTSIDE
100
AcDbLine
 10
37.0561906086
 20
6.6005479857
 30
0.0
 11
37.0404425771
 21
6.8466109778
 31
0.0
  0
LINE
  5
297
330
1F
100
AcDbEntity
  8
PROFILES_OUTSIDE
100
AcDbLine
 10
37.6498833945
 20
6.6005479857
 30
0.0
 11
37.0561906086
 21
6.6005479857
 31
0.0
  0
LINE
  5
298
330
1F
100
AcDbEntity
  8
PROFILES_OUTSIDE
100
AcDbLine
 10
37.7782378527
 20
7.0927527101
 30
0.0
 11
37.7782378527
 21
6.988845817
 31
0.0
  0
LINE
  5
299
330
1F
100
AcDbEntity
  8
PROFILES_OUTSIDE
100
AcDbLine
 10
39.6621945456
 20
7.0927527101
 30
0.0
 11
37.7782378527
 21
7.0927527101
 31
0.0
  0
LINE
  5
29A
330
1F
100
AcDbEntity
  8
PROFILES_OUTSIDE
100
AcDbLine
 10
39.8530410023
 20
5.2849161049
 30
0.0
 11
39.8530410023
 21
6.9019062534
 31
0.0
  0
LINE
  5
29B
330
1F
100
AcDbEntity
  8
PROFILES_OUTSIDE
100
AcDbLine
 10
40.4338480889
 20
5.0940696482
 30
0.0
 11
40.043887459
 21
5.0940696482
 31
0.0
  0
LINE
  5
29C
330
1F
100
AcDbEntity
  8
PROFILES_OUTSIDE
100
AcDbLine
 10
40.6246945456
 20
6.9019062534
 30
0.0
 11
40.6246945456
 21
5.2849161049
 31
0.0
  0
LINE
  5
29D
330
1F
100
AcDbEntity
  8
PROFILES_OUTSIDE
100
AcDbLine
 10
42.6994976952
 20
7.0927527101
 30
0.0
 11
40.8155410023
 21
7.0927527101
 31
0.0
  0
LINE
  5
29E
330
1F
100
AcDbEntity
  8
PROFILES_OUTSIDE
100
AcDbLine
 10
42.6994976952
 20
6.988845817
 30
0.0
 11
42.6994976952
 21
7.0927527101
 31
0.0
  0
LINE
  5
29F
330
1F
100
AcDbEntity
  8
PROFILES_OUTSIDE
100
AcDbLine
 10
43.4215449393
 20
6.6005479857
 30
0.0
 11
42.8278521534
 21
6.6005479857
 31
0.0
  0
LINE
  5
2A0
330
1F
100
AcDbEntity
  8
PROFILES_OUTSIDE
100
AcDbLine
 10
43.4372929708
 20
6.8466109778
 30
0.0
 11
43.4215449393
 21
6.6005479857
 31
0.0
  0
LINE
  5
2A1
330
1F
100
AcDbEntity
  8
PROFILES_OUTSIDE
100
AcDbLine
 10
43.644379585
 20
6.8466109778
 30
0.0
 11
43.4372929708
 21
6.8466109778
 31
0.0
  0
LINE
  5
2A2
330
1F
100
AcDbEntity
  8
PROFILES_OUTSIDE
100
AcDbLine
 10
43.6837496637
 20
6.3446424739
 30
0.0
 11
43.6837496637
 21
6.8072408991
 31
0.0
  0
LINE
  5
2A3
330
1F
100
AcDbEntity
  8
PROFILES_OUTSIDE
100
AcDbLine
 10
41.3609150181
 20
6.1084220015
 30
0.0
 11
43.4475291913
 21
6.1084220015
 31
0.0
  0
LINE
  5
2A4
330
1F
100
AcDbEntity
  8
PROFILES_OUTSIDE
100
AcDbLine
 10
41.1246945456
 20
5.0940696482
 30
0.0
 11
41.1246945456
 21
5.872201529
 31
0.0
  0
LINE
  5
2A5
330
1F
100
AcDbEntity
  8
PROFILES_OUTSIDE
100
AcDbLine
 10
40.6246945456
 20
4.1522584468
 30
0.0
 11
40.6246945456
 21
4.2280442444
 31
0.0
  0
LINE
  5
2A6
330
1F
100
AcDbEntity
  8
PROFILES_OUTSIDE
100
AcDbLine
 10
41.1246945456
 20
2.5081011622
 30
0.0
 11
41.1246945456
 21
3.286233043
 31
0.0
  0
LINE
  5
2A7
330
1F
100
AcDbEntity
  8
PROFILES_OUTSIDE
100
AcDbLine
 10
43.4475291913
 20
2.2718806898
 30
0.0
 11
41.3609150181
 21
2.2718806898
 31
0.0
  0
LINE
  5
2A8
330
1F
100
AcDbEntity
  8
PROFILES_OUTSIDE
100
AcDbLine
 10
43.6837496637
 20
1.5730617922
 30
0.0
 11
43.6837496637
 21
2.0356602173
 31
0.0
  0
LINE
  5
2A9
330
1F
100
AcDbEntity
  8
PROFILES_OUTSIDE
100
AcDbLine
 10
43.4372929708
 20
1.5336917134
 30
0.0
 11
43.644379585
 21
1.5336917134
 31
0.0
  0
LINE
  5
2AA
330
1F
100
AcDbEntity
  8
PROFILES_OUTSIDE
100
AcDbLine
 10
43.4215449393
 20
1.7797547055
 30
0.0
 11
43.4372929708
 21
1.5336917134
 31
0.0
  0
LINE
  5
2AB
330
1F
100
AcDbEntity
  8
PROFILES_OUTSIDE
100
AcDbLine
 10
42.8278521534
 20
1.7797547055
 30
0.0
 11
43.4215449393
 21
1.7797547055
 31
0.0
  0
LINE
  5
2AC
330
1F
100
AcDbEntity
  8
PROFILES_OUTSIDE
100
AcDbLine
 10
42.6994976952
 20
1.2875499811
 30
0.0
 11
42.6994976952
 21
1.3914568743
 31
0.0
  0
LINE
  5
2AD
330
1F
100
AcDbEntity
  8
PROFILES_OUTSIDE
100
AcDbLine
 10
40.8155410023
 20
1.2875499811
 30
0.0
 11
42.6994976952
 21
1.2875499811
 31
0.0
  0
LINE
  5
2AE
330
1F
100
AcDbEntity
  8
PROFILES_OUTSIDE
100
AcDbLine
 10
40.6246945456
 20
3.0953865863
 30
0.0
 11
40.6246945456
 21
1.4783964378
 31
0.0
  0
LINE
  5
2AF
330
1F
100
AcDbEntity
  8
PROFILES_OUTSIDE
100
AcDbLine
 10
40.043887459
 20
3.286233043
 30
0.0
 11
40.4338480889
 21
3.286233043
 31
0.0
  0
LINE
  5
2B0
330
1F
100
AcDbEntity
  8
PROFILES_OUTSIDE
100
AcDbLine
 10
39.8530410023
 20
1.4783964378
 30
0.0
 11
39.8530410023
 21
3.0953865863
 31
0.0
  0
LINE
  5
2B1
330
1F
100
AcDbEntity
  8
PROFILES_OUTSIDE
100
AcDbLine
 10
37.7782378527
 20
1.2875499811
 30
0.0
 11
39.6621945456
 21
1.2875499811
 31
0.0
  0
LINE
  5
2B2
330
1F
100
AcDbEntity
  8
PROFILES_OUTSIDE
100
AcDbLine
 10
37.7782378527
 20
1.3914568743
 30
0.0
 11
37.7782378527
 21
1.2875499811
 31
0.0
  0
LINE
  5
2B3
330
1F
100
AcDbEntity
  8
PROFILES_OUTSIDE
100
AcDbLine
 10
37.0561906086
 20
1.7797547055
 30
0.0
 11
37.6498833945
 21
1.7797547055
 31
0.0
  0
LINE
  5
2B4
330
1F
100
AcDbEntity
  8
PROFILES_OUTSIDE
100
AcDbLine
 10
37.0404425771
 20
1.5336917134
 30
0.0
 11
37.0561906086
 21
1.7797547055
 31
0.0
  0
LINE
  5
2B5
330
1F
100
AcDbEntity
  8
PROFILES_OUTSIDE
100
AcDbLine
 10
36.833355963
 20
1.5336917134
 30
0.0
 11
37.0404425771
 21
1.5336917134
 31
0.0
  0
LINE
  5
2B6
330
1F
100
AcDbEntity
  8
PROFILES_OUTSIDE
100
AcDbLine
 10
36.7939858842
 20
2.0356602173
 30
0.0
 11
36.7939858842
 21
1.5730617922
 31
0.0
  0
LINE
  5
2B7
330
1F
100
AcDbEntity
  8
PROFILES_OUTSIDE
100
AcDbLine
 10
39.1168205299
 20
2.2718806898
 30
0.0
 11
37.0302063567
 21
2.2718806898
 31
0.0
  0
LINE
  5
2B8
330
1F
100
AcDbEntity
  8
PROFILES_OUTSIDE
100
AcDbLine
 10
39.3530410023
 20
3.286233043
 30
0.0
 11
39.3530410023
 21
2.5081011622
 31
0.0
  0
LINE
  5
2B9
330
1F
100
AcDbEntity
  8
PROFILES_OUTSIDE
100
AcDbLine
 10
39.8530410023
 20
4.2280442444
 30
0.0
 11
39.8530410023
 21
4.1522584468
 31
0.0
  0
LINE
  5
2BA
330
1F
100
AcDbEntity
  8
PROFILES_OUTSIDE
100
AcDbLine
 10
39.3530410023
 20
5.872201529
 30
0.0
 11
39.3530410023
 21
5.0940696482
 31
0.0
  0
LINE
  5
2BB
330
1F
100
AcDbEntity
  8
PROFILES_OUTSIDE
100
AcDbLine
 10
37.0302063567
 20
6.1084220015
 30
0.0
 11
39.1168205299
 21
6.1084220015
 31
0.0
  0
LINE
  5
2BC
330
1F
100
AcDbEntity
  8
PROFILES_OUTSIDE
100
AcDbLine
 10
36.7939858842
 20
6.8072408991
 30
0.0
 11
36.7939858842
 21
6.3446424739
 31
0.0
  0
LINE
  5
2BD
330
1F
100
AcDbEntity
  8
PROFILES_OUTSIDE
100
AcDbLine
 10
43.4372929708
 20
8.9076345999
 30
0.0
 11
43.644379585
 21
8.9076345999
 31
0.0
  0
LINE
  5
2BE
330
1F
100
AcDbEntity
  8
PROFILES_OUTSIDE
100
AcDbLine
 10
43.4215449393
 20
9.153697592
 30
0.0
 11
43.4372929708
 21
8.9076345999
 31
0.0
  0
LINE
  5
2BF
330
1F
100
AcDbEntity
  8
PROFILES_OUTSIDE
100
AcDbLine
 10
42.8278521534
 20
9.153697592
 30
0.0
 11
43.4215449393
 21
9.153697592
 31
0.0
  0
LINE
  5
2C0
330
1F
100
AcDbEntity
  8
PROFILES_OUTSIDE
100
AcDbLine
 10
42.6994976952
 20
8.6614928676
 30
0.0
 11
42.6994976952
 21
8.7653997608
 31
0.0
  0
LINE
  5
2C1
330
1F
100
AcDbEntity
  8
PROFILES_OUTSIDE
100
AcDbLine
 10
40.8155410023
 20
8.6614928676
 30
0.0
 11
42.6994976952
 21
8.6614928676
 31
0.0
  0
LINE
  5
2C2
330
1F
100
AcDbEntity
  8
PROFILES_OUTSIDE
100
AcDbLine
 10
40.6246945456
 20
10.4693294728
 30
0.0
 11
40.6246945456
 21
8.8523393243
 31
0.0
  0
LINE
  5
2C3
330
1F
100
AcDbEntity
  8
PROFILES_OUTSIDE
100
AcDbLine
 10
40.043887459
 20
10.6601759295
 30
0.0
 11
40.4338480889
 21
10.6601759295
 31
0.0
  0
LINE
  5
2C4
330
1F
100
AcDbEntity
  8
PROFILES_OUTSIDE
100
AcDbLine
 10
39.8530410023
 20
8.8523393243
 30
0.0
 11
39.8530410023
 21
10.4693294728
 31
0.0
  0
LINE
  5
2C5
330
1F
100
AcDbEntity
  8
PROFILES_OUTSIDE
100
AcDbLine
 10
37.7782378527
 20
8.6614928676
 30
0.0
 11
39.6621945456
 21
8.6614928676
 31
0.0
  0
LINE
  5
2C6
330
1F
100
AcDbEntity
  8
PROFILES_OUTSIDE
100
AcDbLine
 10
37.7782378527
 20
8.7653997608
 30
0.0
 11
37.7782378527
 21
8.6614928676
 31
0.0
  0
LINE
  5
2C7
330
1F
100
AcDbEntity
  8
PROFILES_OUTSIDE
100
AcDbLine
 10
37.0561906086
 20
9.153697592
 30
0.0
 11
37.6498833945
 21
9.153697592
 31
0.0
  0
LINE
  5
2C8
330
1F
100
AcDbEntity
  8
PROFILES_OUTSIDE
100
AcDbLine
 10
37.0404425771
 20
8.9076345999
 30
0.0
 11
37.0561906086
 21
9.153697592
 31
0.0
  0
LINE
  5
2C9
330
1F
100
AcDbEntity
  8
PROFILES_OUTSIDE
100
AcDbLine
 10
36.833355963
 20
8.9076345999
 30
0.0
 11
37.0404425771
 21
8.9076345999
 31
0.0
  0
LINE
  5
2CA
330
1F
100
AcDbEntity
  8
PROFILES_OUTSIDE
100
AcDbLine
 10
36.7939858842
 20
9.4096031038
 30
0.0
 11
36.7939858842
 21
8.9470046786
 31
0.0
  0
LINE
  5
2CB
330
1F
100
AcDbEntity
  8
PROFILES_OUTSIDE
100
AcDbLine
 10
39.1168205299
 20
9.6458235763
 30
0.0
 11
37.0302063567
 21
9.6458235763
 31
0.0
  0
LINE
  5
2CC
330
1F
100
AcDbEntity
  8
PROFILES_OUTSIDE
100
AcDbLine
 10
39.3530410023
 20
10.6601759295
 30
0.0
 11
39.3530410023
 21
9.8820440487
 31
0.0
  0
LINE
  5
2CD
330
1F
100
AcDbEntity
  8
PROFILES_OUTSIDE
100
AcDbLine
 10
39.8530410023
 20
11.6019871309
 30
0.0
 11
39.8530410023
 21
11.5262013333
 31
0.0
  0
LINE
  5
2CE
330
1F
100
AcDbEntity
  8
PROFILES_OUTSIDE
100
AcDbLine
 10
39.3530410023
 20
13.2461444155
 30
0.0
 11
39.3530410023
 21
12.4680125347
 31
0.0
  0
LINE
  5
2CF
330
1F
100
AcDbEntity
  8
PROFILES_OUTSIDE
100
AcDbLine
 10
37.0302063567
 20
13.482364888
 30
0.0
 11
39.1168205299
 21
13.482364888
 31
0.0
  0
LINE
  5
2D0
330
1F
100
AcDbEntity
  8
PROFILES_OUTSIDE
100
AcDbLine
 10
36.7939858842
 20
14.1811837856
 30
0.0
 11
36.7939858842
 21
13.7185853604
 31
0.0
  0
LINE
  5
2D1
330
1F
100
AcDbEntity
  8
PROFILES_OUTSIDE
100
AcDbLine
 10
37.0404425771
 20
14.2205538643
 30
0.0
 11
36.833355963
 21
14.2205538643
 31
0.0
  0
LINE
  5
2D2
330
1F
100
AcDbEntity
  8
PROFILES_OUTSIDE
100
AcDbLine
 10
37.0561906086
 20
13.9744908722
 30
0.0
 11
37.0404425771
 21
14.2205538643
 31
0.0
  0
LINE
  5
2D3
330
1F
100
AcDbEntity
  8
PROFILES_OUTSIDE
100
AcDbLine
 10
37.6498833945
 20
13.9744908722
 30
0.0
 11
37.0561906086
 21
13.9744908722
 31
0.0
  0
LINE
  5
2D4
330
1F
100
AcDbEntity
  8
PROFILES_OUTSIDE
100
AcDbLine
 10
37.7782378527
 20
14.4666955966
 30
0.0
 11
37.7782378527
 21
14.3627887035
 31
0.0
  0
LINE
  5
2D5
330
1F
100
AcDbEntity
  8
PROFILES_OUTSIDE
100
AcDbLine
 10
39.6621945456
 20
14.4666955966
 30
0.0
 11
37.7782378527
 21
14.4666955966
 31
0.0
  0
LINE
  5
2D6
330
1F
100
AcDbEntity
  8
PROFILES_OUTSIDE
100
AcDbLine
 10
39.8530410023
 20
12.6588589914
 30
0.0
 11
39.8530410023
 21
14.2758491399
 31
0.0
  0
LINE
  5
2D7
330
1F
100
AcDbEntity
  8
PROFILES_OUTSIDE
100
AcDbLine
 10
40.4338480889
 20
12.4680125347
 30
0.0
 11
40.043887459
 21
12.4680125347
 31
0.0
  0
LINE
  5
2D8
330
1F
100
AcDbEntity
  8
PROFILES_OUTSIDE
100
AcDbLine
 10
40.6246945456
 20
14.2758491399
 30
0.0
 11
40.6246945456
 21
12.6588589914
 31
0.0
  0
LINE
  5
2D9
330
1F
100
AcDbEntity
  8
PROFILES_OUTSIDE
100
AcDbLine
 10
42.6994976952
 20
14.4666955966
 30
0.0
 11
40.8155410023
 21
14.4666955966
 31
0.0
  0
LINE
  5
2DA
330
1F
100
AcDbEntity
  8
PROFILES_OUTSIDE
100
AcDbLine
 10
42.6994976952
 20
14.3627887035
 30
0.0
 11
42.6994976952
 21
14.4666955966
 31
0.0
  0
LINE
  5
2DB
330
1F
100
AcDbEntity
  8
PROFILES_OUTSIDE
100
AcDbLine
 10
43.4215449393
 20
13.9744908722
 30
0.0
 11
42.8278521534
 21
13.9744908722
 31
0.0
  0
LINE
  5
2DC
330
1F
100
AcDbEntity
  8
PROFILES_OUTSIDE
100
AcDbLine
 10
43.4372929708
 20
14.2205538643
 30
0.0
 11
43.4215449393
 21
13.9744908722
 31
0.0
  0
LINE
  5
2DD
330
1F
100
AcDbEntity
  8
PROFILES_OUTSIDE
100
AcDbLine
 10
43.644379585
 20
14.2205538643
 30
0.0
 11
43.4372929708
 21
14.2205538643
 31
0.0
  0
LINE
  5
2DE
330
1F
100
AcDbEntity
  8
PROFILES_OUTSIDE
100
AcDbLine
 10
43.6837496637
 20
13.7185853604
 30
0.0
 11
43.6837496637
 21
14.1811837856
 31
0.0
  0
LINE
  5
2DF
330
1F
100
AcDbEntity
  8
PROFILES_OUTSIDE
100
AcDbLine
 10
41.3609150181
 20
13.482364888
 30
0.0
 11
43.4475291913
 21
13.482364888
 31
0.0
  0
LINE
  5
2E0
330
1F
100
AcDbEntity
  8
PROFILES_OUTSIDE
100
AcDbLine
 10
41.1246945456
 20
12.4680125347
 30
0.0
 11
41.1246945456
 21
13.2461444155
 31
0.0
  0
LINE
  5
2E1
330
1F
100
AcDbEntity
  8
PROFILES_OUTSIDE
100
AcDbLine
 10
40.6246945456
 20
11.5262013333
 30
0.0
 11
40.6246945456
 21
11.6019871309
 31
0.0
  0
LINE
  5
2E2
330
1F
100
AcDbEntity
  8
PROFILES_OUTSIDE
100
AcDbLine
 10
41.1246945456
 20
9.8820440487
 30
0.0
 11
41.1246945456
 21
10.6601759295
 31
0.0
  0
LINE
  5
2E3
330
1F
100
AcDbEntity
  8
PROFILES_OUTSIDE
100
AcDbLine
 10
43.4475291913
 20
9.6458235763
 30
0.0
 11
41.3609150181
 21
9.6458235763
 31
0.0
  0
LINE
  5
2E4
330
1F
100
AcDbEntity
  8
PROFILES_OUTSIDE
100
AcDbLine
 10
43.6837496637
 20
8.9470046786
 30
0.0
 11
43.6837496637
 21
9.4096031038
 31
0.0
  0
ARC
  5
2E5
330
1F
100
AcDbEntity
  8
PROFILES_OUTSIDE
100
AcDbCircle
 10
2.1457836406
 20
2.6514482548
 30
0.0
 40
0.7874015748031507
100
AcDbArc
 50
180.0
 51
300.0
  0
ARC
  5
2E6
330
1F
100
AcDbEntity
  8
PROFILES_INSIDE
100
AcDbCircle
 10
11.6499350447
 20
6.3236334002
 30
0.0
 40
1.574803149606301
100
AcDbArc
 50
180.0
 51
240.0
  0
ARC
  5
2E7
330
1F
100
AcDbEntity
  8
PROFILES_INSIDE
100
AcDbCircle
 10
12.892236055
 20
4.6971775551
 30
0.0
 40
0.78740157480315
100
AcDbArc
 50
240.0
 51
0.0
  0
ARC
  5
2E8
330
1F
100
AcDbEntity
  8
PROFILES_INSIDE
100
AcDbCircle
 10
12.892236055
 20
11.6576074465
 30
0.0
 40
0.78740157480315
100
AcDbArc
 50
0.0
 51
120.0
  0
ARC
  5
2E9
330
1F
100
AcDbEntity
  8
PROFILES_INSIDE
100
AcDbCircle
 10
11.6499350447
 20
10.0311516015
 30
0.0
 40
1.5748031496063
100
AcDbArc
 50
120.0
 51
180.0
  0
ARC
  5
2EA
330
1F
100
AcDbEntity
  8
PROFILES_INSIDE
100
AcDbCircle
 10
6.4908848463
 20
11.020577134
 30
0.0
 40
0.0393700787401598
100
AcDbArc
 50
240.0000151658
 51
312.4587638057
  0
ARC
  5
2EB
330
1F
100
AcDbEntity
  8
PROFILES_INSIDE
100
AcDbCircle
 10
6.6462946846
 20
10.8507318063
 30
0.0
 40
0.1908464566929139
100
AcDbArc
 50
304.7126296175
 51
132.4587638057
  0
ARC
  5
2EC
330
1F
100
AcDbEntity
  8
PROFILES_INSIDE
100
AcDbCircle
 10
6.7773942321
 20
10.6614891567
 30
0.0
 40
0.0393705534798376
100
AcDbArc
 50
124.7126296175
 51
150.0
  0
ARC
  5
2ED
330
1F
100
AcDbEntity
  8
PROFILES_INSIDE
100
AcDbCircle
 10
6.5447247103
 20
10.2584946732
 30
0.0
 40
0.0393700787401585
100
AcDbArc
 50
150.0
 51
175.2874049039
  0
ARC
  5
2EE
330
1F
100
AcDbEntity
  8
PROFILES_INSIDE
100
AcDbCircle
 10
6.3152864563
 20
10.2774087097
 30
0.0
 40
0.1908464566929159
100
AcDbArc
 50
167.541242043
 51
355.2874049039
  0
ARC
  5
2EF
330
1F
100
AcDbEntity
  8
PROFILES_INSIDE
100
AcDbCircle
 10
6.0904911636
 20
10.3270748908
 30
0.0
 40
0.0393700787401609
100
AcDbArc
 50
347.541242043
 51
60.0000151658
  0
ARC
  5
2F0
330
1F
100
AcDbEntity
  8
PROFILES_INSIDE
100
AcDbCircle
 10
5.9106554998
 20
10.4309029962
 30
0.0
 40
0.0393700787401583
100
AcDbArc
 50
60.0000151658
 51
132.4587638057
  0
ARC
  5
2F1
330
1F
100
AcDbEntity
  8
PROFILES_INSIDE
100
AcDbCircle
 10
5.7552456615
 20
10.6007483239
 30
0.0
 40
0.1908464566929145
100
AcDbArc
 50
124.7126031127
 51
312.4587638057
  0
ARC
  5
2F2
330
1F
100
AcDbEntity
  8
PROFILES_INSIDE
100
AcDbCircle
 10
5.624146472
 20
10.7899906439
 30
0.0
 40
0.0393700787401577
100
AcDbArc
 50
304.7126031127
 51
330.0
  0
ARC
  5
2F3
330
1F
100
AcDbEntity
  8
PROFILES_OUTSIDE
100
AcDbCircle
 10
2.1457836406
 20
13.7033367468
 30
0.0
 40
0.7874015748031509
100
AcDbArc
 50
60.0
 51
180.0
  0
ARC
  5
2F4
330
1F
100
AcDbEntity
  8
PROFILES_OUTSIDE
100
AcDbCircle
 10
2.1457836406
 20
2.6514482548
 30
0.0
 40
0.7874015748031507
100
AcDbArc
 50
180.0
 51
300.0
  0
ARC
  5
2F5
330
1F
100
AcDbEntity
  8
PROFILES_OUTSIDE
100
AcDbCircle
 10
5.7503287455
 20
5.6417463637
 30
0.0
 40
1.574803149606302
100
AcDbArc
 50
300.0
 51
0.0
  0
ARC
  5
2F6
330
1F
100
AcDbEntity
  8
PROFILES_OUTSIDE
100
AcDbCircle
 10
5.7503287455
 20
10.7130386379
 30
0.0
 40
1.574803149606301
100
AcDbArc
 50
0.0
 51
60.0
  0
ARC
  5
2F7
330
1F
100
AcDbEntity
  8
PROFILES_INSIDE
100
AcDbCircle
 10
5.8568156891
 20
11.1929855493
 30
0.0
 40
0.0393700598843689
100
AcDbArc
 50
330.0
 51
355.2873809389
  0
ARC
  5
2F8
330
1F
100
AcDbEntity
  8
PROFILES_INSIDE
100
AcDbCircle
 10
6.0862538898
 20
11.1740714206
 30
0.0
 40
0.1908464383810849
100
AcDbArc
 50
347.541242043
 51
175.2873809389
  0
ARC
  5
2F9
330
1F
100
AcDbEntity
  8
PROFILES_INSIDE
100
AcDbCircle
 10
6.3110491826
 20
11.1244052394
 30
0.0
 40
0.0393700970519868
100
AcDbArc
 50
167.541242043
 51
240.0000151658
  0
ARC
  5
2FA
330
1F
100
AcDbEntity
  8
PROFILES_INSIDE
100
AcDbCircle
 10
3.4548519935
 20
12.5797598126
 30
0.0
 40
0.0393705534798363
100
AcDbArc
 50
124.7126296175
 51
150.0
  0
ARC
  5
2FB
330
1F
100
AcDbEntity
  8
PROFILES_INSIDE
100
AcDbCircle
 10
3.323752446
 20
12.7690024622
 30
0.0
 40
0.1908464566929147
100
AcDbArc
 50
304.7126296175
 51
132.4587638057
  0
ARC
  5
2FC
330
1F
100
AcDbEntity
  8
PROFILES_INSIDE
100
AcDbCircle
 10
3.1683426077
 20
12.9388477899
 30
0.0
 40
0.0393700787401581
100
AcDbArc
 50
240.0000151658
 51
312.4587638057
  0
ARC
  5
2FD
330
1F
100
AcDbEntity
  8
PROFILES_INSIDE
100
AcDbCircle
 10
2.988506944
 20
13.0426758953
 30
0.0
 40
0.0393700887284258
100
AcDbArc
 50
167.541242043
 51
240.0000151658
  0
ARC
  5
2FE
330
1F
100
AcDbEntity
  8
PROFILES_INSIDE
100
AcDbCircle
 10
2.7637116513
 20
13.0923420764
 30
0.0
 40
0.190846446704645
100
AcDbArc
 50
347.541242043
 51
175.2873809389
  0
ARC
  5
2FF
330
1F
100
AcDbEntity
  8
PROFILES_INSIDE
100
AcDbCircle
 10
2.5342734505
 20
13.1112562052
 30
0.0
 40
0.0393700582196537
100
AcDbArc
 50
330.0
 51
355.2873809389
  0
ARC
  5
300
330
1F
100
AcDbEntity
  8
PROFILES_INSIDE
100
AcDbCircle
 10
2.3016042334
 20
12.7082612998
 30
0.0
 40
0.0393700787401572
100
AcDbArc
 50
304.7126031127
 51
330.0
  0
ARC
  5
301
330
1F
100
AcDbEntity
  8
PROFILES_INSIDE
100
AcDbCircle
 10
2.432703423
 20
12.5190189798
 30
0.0
 40
0.1908464566929147
100
AcDbArc
 50
124.7126031127
 51
312.4587638057
  0
ARC
  5
302
330
1F
100
AcDbEntity
  8
PROFILES_INSIDE
100
AcDbCircle
 10
2.5881132613
 20
12.3491736521
 30
0.0
 40
0.0393700787401583
100
AcDbArc
 50
60.0000151658
 51
132.4587638057
  0
ARC
  5
303
330
1F
100
AcDbEntity
  8
PROFILES_INSIDE
100
AcDbCircle
 10
2.767948925
 20
12.2453455467
 30
0.0
 40
0.0393700787401583
100
AcDbArc
 50
347.541242043
 51
60.0000151658
  0
ARC
  5
304
330
1F
100
AcDbEntity
  8
PROFILES_INSIDE
100
AcDbCircle
 10
2.9927442177
 20
12.1956793655
 30
0.0
 40
0.1908464566929141
100
AcDbArc
 50
167.541242043
 51
355.2874049039
  0
ARC
  5
305
330
1F
100
AcDbEntity
  8
PROFILES_INSIDE
100
AcDbCircle
 10
3.2221824717
 20
12.176765329
 30
0.0
 40
0.0393700787401606
100
AcDbArc
 50
150.0
 51
175.2874049039
  0
ARC
  5
306
330
1F
100
AcDbEntity
  8
PROFILES_INSIDE
100
AcDbCircle
 10
6.6462946578
 20
5.5040532692
 30
0.0
 40
0.1908464566929154
100
AcDbArc
 50
227.541242043
 51
55.2874049039
  0
ARC
  5
307
330
1F
100
AcDbEntity
  8
PROFILES_INSIDE
100
AcDbCircle
 10
6.7773938209
 20
5.6932956075
 30
0.0
 40
0.0393700787401543
100
AcDbArc
 50
210.0
 51
235.2874049039
  0
ARC
  5
308
330
1F
100
AcDbEntity
  8
PROFILES_INSIDE
100
AcDbCircle
 10
6.5447251215
 20
6.0962905658
 30
0.0
 40
0.0393705534798342
100
AcDbArc
 50
184.7126296175
 51
210.0
  0
ARC
  5
309
330
1F
100
AcDbEntity
  8
PROFILES_INSIDE
100
AcDbCircle
 10
6.3152864057
 20
6.0773763521
 30
0.0
 40
0.1908464566929156
100
AcDbArc
 50
4.7126296175
 51
192.4587638057
  0
ARC
  5
30A
330
1F
100
AcDbEntity
  8
PROFILES_INSIDE
100
AcDbCircle
 10
6.090491118
 20
6.027710148
 30
0.0
 40
0.0393700787401586
100
AcDbArc
 50
300.0000151658
 51
12.4587638057
  0
ARC
  5
30B
330
1F
100
AcDbEntity
  8
PROFILES_INSIDE
100
AcDbCircle
 10
5.9106555093
 20
5.9238819474
 30
0.0
 40
0.0393700870637152
100
AcDbArc
 50
227.541242043
 51
300.0000151658
  0
ARC
  5
30C
330
1F
100
AcDbEntity
  8
PROFILES_INSIDE
100
AcDbCircle
 10
5.7552456883
 20
5.7540366038
 30
0.0
 40
0.1908464483693574
100
AcDbArc
 50
47.541242043
 51
235.2873809389
  0
ARC
  5
30D
330
1F
100
AcDbEntity
  8
PROFILES_INSIDE
100
AcDbCircle
 10
5.624146472
 20
5.5647943577
 30
0.0
 40
0.0393700565549457
100
AcDbArc
 50
30.0
 51
55.2873809389
  0
ARC
  5
30E
330
1F
100
AcDbEntity
  8
PROFILES_INSIDE
100
AcDbCircle
 10
5.8568156891
 20
5.1617994523
 30
0.0
 40
0.0393700787401585
100
AcDbArc
 50
4.7126031127
 51
30.0
  0
ARC
  5
30F
330
1F
100
AcDbEntity
  8
PROFILES_INSIDE
100
AcDbCircle
 10
6.0862539404
 20
5.1807135209
 30
0.0
 40
0.1908464566929125
100
AcDbArc
 50
184.7126031127
 51
12.4587638057
  0
ARC
  5
310
330
1F
100
AcDbEntity
  8
PROFILES_INSIDE
100
AcDbCircle
 10
6.3110492281
 20
5.230379725
 30
0.0
 40
0.0393700787401594
100
AcDbArc
 50
120.0000151658
 51
192.4587638057
  0
ARC
  5
311
330
1F
100
AcDbEntity
  8
PROFILES_INSIDE
100
AcDbCircle
 10
6.4908848369
 20
5.3342079256
 30
0.0
 40
0.0393700787401582
100
AcDbArc
 50
47.541242043
 51
120.0000151658
  0
ARC
  5
312
330
1F
100
AcDbEntity
  8
PROFILES_INSIDE
100
AcDbCircle
 10
2.5342734505
 20
3.2435287965
 30
0.0
 40
0.0393700787401585
100
AcDbArc
 50
4.7126031127
 51
30.0
  0
ARC
  5
313
330
1F
100
AcDbEntity
  8
PROFILES_INSIDE
100
AcDbCircle
 10
2.7637117019
 20
3.2624428651
 30
0.0
 40
0.1908464566929148
100
AcDbArc
 50
184.7126031127
 51
12.4587638057
  0
ARC
  5
314
330
1F
100
AcDbEntity
  8
PROFILES_INSIDE
100
AcDbCircle
 10
2.9885069895
 20
3.3121090692
 30
0.0
 40
0.0393700787401558
100
AcDbArc
 50
120.0000151658
 51
192.4587638057
  0
ARC
  5
315
330
1F
100
AcDbEntity
  8
PROFILES_INSIDE
100
AcDbCircle
 10
3.1683425983
 20
3.4159372698
 30
0.0
 40
0.0393700787401558
100
AcDbArc
 50
47.541242043
 51
120.0000151658
  0
ARC
  5
316
330
1F
100
AcDbEntity
  8
PROFILES_INSIDE
100
AcDbCircle
 10
3.3237524192
 20
3.5857826134
 30
0.0
 40
0.1908464566929148
100
AcDbArc
 50
227.541242043
 51
55.2874049039
  0
ARC
  5
317
330
1F
100
AcDbEntity
  8
PROFILES_INSIDE
100
AcDbCircle
 10
3.4548515824
 20
3.7750249517
 30
0.0
 40
0.0393700787401588
100
AcDbArc
 50
210.0
 51
235.2874049039
  0
ARC
  5
318
330
1F
100
AcDbEntity
  8
PROFILES_INSIDE
100
AcDbCircle
 10
3.2221828829
 20
4.17801991
 30
0.0
 40
0.0393705534798381
100
AcDbArc
 50
184.7126296175
 51
210.0
  0
ARC
  5
319
330
1F
100
AcDbEntity
  8
PROFILES_INSIDE
100
AcDbCircle
 10
2.9927441671
 20
4.1591056963
 30
0.0
 40
0.1908464566929149
100
AcDbArc
 50
4.7126296175
 51
192.4587638057
  0
ARC
  5
31A
330
1F
100
AcDbEntity
  8
PROFILES_INSIDE
100
AcDbCircle
 10
2.7679488794
 20
4.1094394921
 30
0.0
 40
0.0393700787401554
100
AcDbArc
 50
300.0000151658
 51
12.4587638057
  0
ARC
  5
31B
330
1F
100
AcDbEntity
  8
PROFILES_INSIDE
100
AcDbCircle
 10
2.5881132707
 20
4.0056112915
 30
0.0
 40
0.0393700804048695
100
AcDbArc
 50
227.541242043
 51
300.0000151658
  0
ARC
  5
31C
330
1F
100
AcDbEntity
  8
PROFILES_INSIDE
100
AcDbCircle
 10
2.4327034497
 20
3.835765948
 30
0.0
 40
0.1908464550282009
100
AcDbArc
 50
47.541242043
 51
235.2873809389
  0
ARC
  5
31D
330
1F
100
AcDbEntity
  8
PROFILES_INSIDE
100
AcDbCircle
 10
2.3016042334
 20
3.6465237019
 30
0.0
 40
0.0393700598843649
100
AcDbArc
 50
30.0
 51
55.2873809389
  0
ARC
  5
31E
330
1F
100
AcDbEntity
  8
PROFILES_INSIDE
100
AcDbCircle
 10
19.9932427725
 20
11.020577134
 30
0.0
 40
0.0393700787401603
100
AcDbArc
 50
240.0000151658
 51
312.4587638057
  0
ARC
  5
31F
330
1F
100
AcDbEntity
  8
PROFILES_INSIDE
100
AcDbCircle
 10
20.1486526108
 20
10.8507318063
 30
0.0
 40
0.1908464566929116
100
AcDbArc
 50
304.7126296175
 51
132.4587638057
  0
ARC
  5
320
330
1F
100
AcDbEntity
  8
PROFILES_INSIDE
100
AcDbCircle
 10
20.2797521582
 20
10.6614891567
 30
0.0
 40
0.0393705534798369
100
AcDbArc
 50
124.7126296175
 51
150.0
  0
ARC
  5
321
330
1F
100
AcDbEntity
  8
PROFILES_INSIDE
100
AcDbCircle
 10
20.0470826365
 20
10.2584946732
 30
0.0
 40
0.0393700787401606
100
AcDbArc
 50
150.0
 51
175.2874049039
  0
ARC
  5
322
330
1F
100
AcDbEntity
  8
PROFILES_INSIDE
100
AcDbCircle
 10
19.8176443825
 20
10.2774087097
 30
0.0
 40
0.1908464566929107
100
AcDbArc
 50
167.541242043
 51
355.2874049039
  0
ARC
  5
323
330
1F
100
AcDbEntity
  8
PROFILES_INSIDE
100
AcDbCircle
 10
19.5928490897
 20
10.3270748908
 30
0.0
 40
0.0393700787401584
100
AcDbArc
 50
347.541242043
 51
60.0000151658
  0
ARC
  5
324
330
1F
100
AcDbEntity
  8
PROFILES_INSIDE
100
AcDbCircle
 10
19.413013426
 20
10.4309029962
 30
0.0
 40
0.0393700787401616
100
AcDbArc
 50
60.0000151658
 51
132.4587638057
  0
ARC
  5
325
330
1F
100
AcDbEntity
  8
PROFILES_INSIDE
100
AcDbCircle
 10
19.2576035877
 20
10.6007483239
 30
0.0
 40
0.190846456692913
100
AcDbArc
 50
124.7126031127
 51
312.4587638057
  0
ARC
  5
326
330
1F
100
AcDbEntity
  8
PROFILES_INSIDE
100
AcDbCircle
 10
19.1265043981
 20
10.7899906439
 30
0.0
 40
0.0393700787401562
100
AcDbArc
 50
304.7126031127
 51
330.0
  0
ARC
  5
327
330
1F
100
AcDbEntity
  8
PROFILES_INSIDE
100
AcDbCircle
 10
19.3591736152
 20
11.1929855493
 30
0.0
 40
0.039370059884368
100
AcDbArc
 50
330.0
 51
355.2873809389
  0
ARC
  5
328
330
1F
100
AcDbEntity
  8
PROFILES_INSIDE
100
AcDbCircle
 10
19.588611816
 20
11.1740714206
 30
0.0
 40
0.1908464383810875
100
AcDbArc
 50
347.541242043
 51
175.2873809389
  0
ARC
  5
329
330
1F
100
AcDbEntity
  8
PROFILES_INSIDE
100
AcDbCircle
 10
19.8134071087
 20
11.1244052394
 30
0.0
 40
0.0393700970519824
100
AcDbArc
 50
167.541242043
 51
240.0000151658
  0
ARC
  5
32A
330
1F
100
AcDbEntity
  8
PROFILES_INSIDE
100
AcDbCircle
 10
16.9621401273
 20
12.5769133559
 30
0.0
 40
0.0393705534798337
100
AcDbArc
 50
124.7126296175
 51
150.0
  0
ARC
  5
32B
330
1F
100
AcDbEntity
  8
PROFILES_INSIDE
100
AcDbCircle
 10
16.8310405798
 20
12.7661560055
 30
0.0
 40
0.1908464566929166
100
AcDbArc
 50
304.7126296175
 51
132.4587638057
  0
ARC
  5
32C
330
1F
100
AcDbEntity
  8
PROFILES_INSIDE
100
AcDbCircle
 10
16.6756307415
 20
12.9360013332
 30
0.0
 40
0.039370078740157
100
AcDbArc
 50
240.0000151658
 51
312.4587638057
  0
ARC
  5
32D
330
1F
100
AcDbEntity
  8
PROFILES_INSIDE
100
AcDbCircle
 10
16.4957950778
 20
13.0398294386
 30
0.0
 40
0.0393700887284257
100
AcDbArc
 50
167.541242043
 51
240.0000151658
  0
ARC
  5
32E
330
1F
100
AcDbEntity
  8
PROFILES_INSIDE
100
AcDbCircle
 10
16.270999785
 20
13.0894956197
 30
0.0
 40
0.1908464467046442
100
AcDbArc
 50
347.541242043
 51
175.2873809389
  0
ARC
  5
32F
330
1F
100
AcDbEntity
  8
PROFILES_INSIDE
100
AcDbCircle
 10
16.0415615843
 20
13.1084097485
 30
0.0
 40
0.0393700582196587
100
AcDbArc
 50
330.0
 51
355.2873809389
  0
ARC
  5
330
330
1F
100
AcDbEntity
  8
PROFILES_INSIDE
100
AcDbCircle
 10
15.8088923671
 20
12.7054148431
 30
0.0
 40
0.0393700787401557
100
AcDbArc
 50
304.7126031127
 51
330.0
  0
ARC
  5
331
330
1F
100
AcDbEntity
  8
PROFILES_INSIDE
100
AcDbCircle
 10
15.9399915567
 20
12.5161725231
 30
0.0
 40
0.1908464566929145
100
AcDbArc
 50
124.7126031127
 51
312.4587638057
  0
ARC
  5
332
330
1F
100
AcDbEntity
  8
PROFILES_INSIDE
100
AcDbCircle
 10
16.095401395
 20
12.3463271954
 30
0.0
 40
0.0393700787401587
100
AcDbArc
 50
60.0000151658
 51
132.4587638057
  0
ARC
  5
333
330
1F
100
AcDbEntity
  8
PROFILES_INSIDE
100
AcDbCircle
 10
16.2752370588
 20
12.24249909
 30
0.0
 40
0.0393700787401587
100
AcDbArc
 50
347.541242043
 51
60.0000151658
  0
ARC
  5
334
330
1F
100
AcDbEntity
  8
PROFILES_INSIDE
100
AcDbCircle
 10
16.5000323515
 20
12.1928329088
 30
0.0
 40
0.1908464566929149
100
AcDbArc
 50
167.541242043
 51
355.2874049039
  0
ARC
  5
335
330
1F
100
AcDbEntity
  8
PROFILES_INSIDE
100
AcDbCircle
 10
16.7294706055
 20
12.1739188723
 30
0.0
 40
0.0393700787401575
100
AcDbArc
 50
150.0
 51
175.2874049039
  0
ARC
  5
336
330
1F
100
AcDbEntity
  8
PROFILES_INSIDE
100
AcDbCircle
 10
20.148652584
 20
5.5040532692
 30
0.0
 40
0.1908464566929154
100
AcDbArc
 50
227.541242043
 51
55.2874049039
  0
ARC
  5
337
330
1F
100
AcDbEntity
  8
PROFILES_INSIDE
100
AcDbCircle
 10
20.2797517471
 20
5.6932956075
 30
0.0
 40
0.0393700787401598
100
AcDbArc
 50
210.0
 51
235.2874049039
  0
ARC
  5
338
330
1F
100
AcDbEntity
  8
PROFILES_INSIDE
100
AcDbCircle
 10
20.0470830476
 20
6.0962905658
 30
0.0
 40
0.0393705534798403
100
AcDbArc
 50
184.7126296175
 51
210.0
  0
ARC
  5
339
330
1F
100
AcDbEntity
  8
PROFILES_INSIDE
100
AcDbCircle
 10
19.8176443319
 20
6.0773763521
 30
0.0
 40
0.1908464566929173
100
AcDbArc
 50
4.7126296175
 51
192.4587638057
  0
ARC
  5
33A
330
1F
100
AcDbEntity
  8
PROFILES_INSIDE
100
AcDbCircle
 10
19.5928490442
 20
6.027710148
 30
0.0
 40
0.039370078740158
100
AcDbArc
 50
300.0000151658
 51
12.4587638057
  0
ARC
  5
33B
330
1F
100
AcDbEntity
  8
PROFILES_INSIDE
100
AcDbCircle
 10
19.4130134354
 20
5.9238819474
 30
0.0
 40
0.0393700870637127
100
AcDbArc
 50
227.541242043
 51
300.0000151658
  0
ARC
  5
33C
330
1F
100
AcDbEntity
  8
PROFILES_INSIDE
100
AcDbCircle
 10
19.2576036145
 20
5.7540366038
 30
0.0
 40
0.1908464483693592
100
AcDbArc
 50
47.541242043
 51
235.2873809389
  0
ARC
  5
33D
330
1F
100
AcDbEntity
  8
PROFILES_INSIDE
100
AcDbCircle
 10
19.1265043981
 20
5.5647943577
 30
0.0
 40
0.0393700565549432
100
AcDbArc
 50
30.0
 51
55.2873809389
  0
ARC
  5
33E
330
1F
100
AcDbEntity
  8
PROFILES_INSIDE
100
AcDbCircle
 10
19.3591736152
 20
5.1617994523
 30
0.0
 40
0.0393700787401588
100
AcDbArc
 50
4.7126031127
 51
30.0
  0
ARC
  5
33F
330
1F
100
AcDbEntity
  8
PROFILES_INSIDE
100
AcDbCircle
 10
19.5886118666
 20
5.1807135209
 30
0.0
 40
0.1908464566929145
100
AcDbArc
 50
184.7126031127
 51
12.4587638057
  0
ARC
  5
340
330
1F
100
AcDbEntity
  8
PROFILES_INSIDE
100
AcDbCircle
 10
19.8134071543
 20
5.230379725
 30
0.0
 40
0.039370078740158
100
AcDbArc
 50
120.0000151658
 51
192.4587638057
  0
ARC
  5
341
330
1F
100
AcDbEntity
  8
PROFILES_INSIDE
100
AcDbCircle
 10
19.993242763
 20
5.3342079256
 30
0.0
 40
0.039370078740158
100
AcDbArc
 50
47.541242043
 51
120.0000151658
  0
ARC
  5
342
330
1F
100
AcDbEntity
  8
PROFILES_INSIDE
100
AcDbCircle
 10
16.0415615843
 20
3.2463752532
 30
0.0
 40
0.0393700787401591
100
AcDbArc
 50
4.7126031127
 51
30.0
  0
ARC
  5
343
330
1F
100
AcDbEntity
  8
PROFILES_INSIDE
100
AcDbCircle
 10
16.2709998356
 20
3.2652893218
 30
0.0
 40
0.1908464566929145
100
AcDbArc
 50
184.7126031127
 51
12.4587638057
  0
ARC
  5
344
330
1F
100
AcDbEntity
  8
PROFILES_INSIDE
100
AcDbCircle
 10
16.4957951233
 20
3.3149555259
 30
0.0
 40
0.0393700787401586
100
AcDbArc
 50
120.0000151658
 51
192.4587638057
  0
ARC
  5
345
330
1F
100
AcDbEntity
  8
PROFILES_INSIDE
100
AcDbCircle
 10
16.6756307321
 20
3.4187837265
 30
0.0
 40
0.0393700787401562
100
AcDbArc
 50
47.541242043
 51
120.0000151658
  0
ARC
  5
346
330
1F
100
AcDbEntity
  8
PROFILES_INSIDE
100
AcDbCircle
 10
16.831040553
 20
3.58862907
 30
0.0
 40
0.1908464566929154
100
AcDbArc
 50
227.541242043
 51
55.2874049039
  0
ARC
  5
347
330
1F
100
AcDbEntity
  8
PROFILES_INSIDE
100
AcDbCircle
 10
16.9621397161
 20
3.7778714084
 30
0.0
 40
0.0393700787401602
100
AcDbArc
 50
210.0
 51
235.2874049039
  0
ARC
  5
348
330
1F
100
AcDbEntity
  8
PROFILES_INSIDE
100
AcDbCircle
 10
16.7294710167
 20
4.1808663667
 30
0.0
 40
0.0393705534798364
100
AcDbArc
 50
184.7126296175
 51
210.0
  0
ARC
  5
349
330
1F
100
AcDbEntity
  8
PROFILES_INSIDE
100
AcDbCircle
 10
16.5000323009
 20
4.1619521529
 30
0.0
 40
0.190846456692914
100
AcDbArc
 50
4.7126296175
 51
192.4587638057
  0
ARC
  5
34A
330
1F
100
AcDbEntity
  8
PROFILES_INSIDE
100
AcDbCircle
 10
16.2752370132
 20
4.1122859488
 30
0.0
 40
0.0393700787401557
100
AcDbArc
 50
300.0000151658
 51
12.4587638057
  0
ARC
  5
34B
330
1F
100
AcDbEntity
  8
PROFILES_INSIDE
100
AcDbCircle
 10
16.0954014045
 20
4.0084577482
 30
0.0
 40
0.0393700804048692
100
AcDbArc
 50
227.541242043
 51
300.0000151658
  0
ARC
  5
34C
330
1F
100
AcDbEntity
  8
PROFILES_INSIDE
100
AcDbCircle
 10
15.9399915835
 20
3.8386124047
 30
0.0
 40
0.1908464550282025
100
AcDbArc
 50
47.541242043
 51
235.2873809389
  0
ARC
  5
34D
330
1F
100
AcDbEntity
  8
PROFILES_INSIDE
100
AcDbCircle
 10
15.8088923671
 20
3.6493701586
 30
0.0
 40
0.039370059884368
100
AcDbArc
 50
30.0
 51
55.2873809389
  0
ARC
  5
34E
330
1F
100
AcDbEntity
  8
POCKETS
100
AcDbCircle
 10
15.3413366833
 20
12.815673497
 30
0.0
 40
0.1908464566929125
100
AcDbArc
 50
347.5412391186
 51
175.2874008956
  0
ARC
  5
34F
330
1F
100
AcDbEntity
  8
POCKETS
100
AcDbCircle
 10
15.1118984306
 20
12.8345875496
 30
0.0
 40
0.039370078740159
100
AcDbArc
 50
330.0
 51
355.2874008956
  0
ARC
  5
350
330
1F
100
AcDbEntity
  8
POCKETS
100
AcDbCircle
 10
14.8725363533
 20
12.4200002704
 30
0.0
 40
0.0393700787401573
100
AcDbArc
 50
304.7125991044
 51
330.0
  0
ARC
  5
351
330
1F
100
AcDbEntity
  8
POCKETS
100
AcDbCircle
 10
15.0036355297
 20
12.2307579412
 30
0.0
 40
0.1908464566929137
100
AcDbArc
 50
124.7125991044
 51
312.4587608814
  0
ARC
  5
352
330
1F
100
AcDbEntity
  8
POCKETS
100
AcDbCircle
 10
15.1590453593
 20
12.0609126056
 30
0.0
 40
0.039370078740159
100
AcDbArc
 50
60.0
 51
132.4587608814
  0
ARC
  5
353
330
1F
100
AcDbEntity
  8
POCKETS
100
AcDbCircle
 10
15.1590453593
 20
4.2938723961
 30
0.0
 40
0.0393700787401571
100
AcDbArc
 50
227.5412391186
 51
300.0
  0
ARC
  5
354
330
1F
100
AcDbEntity
  8
POCKETS
100
AcDbCircle
 10
15.0036355297
 20
4.1240270604
 30
0.0
 40
0.1908464566929143
100
AcDbArc
 50
47.5412391186
 51
235.2874008956
  0
ARC
  5
355
330
1F
100
AcDbEntity
  8
POCKETS
100
AcDbCircle
 10
14.8725363533
 20
3.9347847312
 30
0.0
 40
0.0393700787401593
100
AcDbArc
 50
30.0
 51
55.2874008956
  0
ARC
  5
356
330
1F
100
AcDbEntity
  8
PROFILES_OUTSIDE
100
AcDbCircle
 10
10.4688326825
 20
5.6417236334
 30
0.0
 40
1.5748031496063
100
AcDbArc
 50
180.0
 51
240.0
  0
ARC
  5
357
330
1F
100
AcDbEntity
  8
PROFILES_OUTSIDE
100
AcDbCircle
 10
10.4688326825
 20
10.7130613682
 30
0.0
 40
1.574803149606298
100
AcDbArc
 50
120.0
 51
180.0
  0
ARC
  5
358
330
1F
100
AcDbEntity
  8
POCKETS
100
AcDbCircle
 10
15.1118984306
 20
3.520197452
 30
0.0
 40
0.0393700787401599
100
AcDbArc
 50
4.7125991044
 51
30.0
  0
ARC
  5
359
330
1F
100
AcDbEntity
  8
POCKETS
100
AcDbCircle
 10
15.3413366833
 20
3.5391115046
 30
0.0
 40
0.1908464566929159
100
AcDbArc
 50
184.7125991044
 51
12.4587608814
  0
ARC
  5
35A
330
1F
100
AcDbEntity
  8
POCKETS
100
AcDbCircle
 10
15.5661319735
 20
3.5887776972
 30
0.0
 40
0.039370078740159
100
AcDbArc
 50
120.0
 51
192.4587608814
  0
ARC
  5
35B
330
1F
100
AcDbEntity
  8
POCKETS
100
AcDbCircle
 10
15.5661319735
 20
12.7660073044
 30
0.0
 40
0.0393700787401601
100
AcDbArc
 50
167.5412391186
 51
240.0
  0
ARC
  5
35C
330
1F
100
AcDbEntity
  8
PROFILES_OUTSIDE
100
AcDbCircle
 10
14.860739992
 20
13.2487302356
 30
0.0
 40
1.5748031496063
100
AcDbArc
 50
60.0
 51
120.0
  0
ARC
  5
35D
330
1F
100
AcDbEntity
  8
PROFILES_OUTSIDE
100
AcDbCircle
 10
19.2526473015
 20
10.7130613682
 30
0.0
 40
1.574803149606301
100
AcDbArc
 50
0.0
 51
60.0
  0
ARC
  5
35E
330
1F
100
AcDbEntity
  8
PROFILES_OUTSIDE
100
AcDbCircle
 10
19.2526473015
 20
5.6417236334
 30
0.0
 40
1.574803149606297
100
AcDbArc
 50
300.0
 51
0.0
  0
ARC
  5
35F
330
1F
100
AcDbEntity
  8
PROFILES_OUTSIDE
100
AcDbCircle
 10
14.860739992
 20
3.106054766
 30
0.0
 40
1.5748031496063
100
AcDbArc
 50
240.0
 51
300.0
  0
ARC
  5
360
330
1F
100
AcDbEntity
  8
PROFILES_OUTSIDE
100
AcDbCircle
 10
37.6498833945
 20
6.561177907
 30
0.0
 40
0.0393700787401574
100
AcDbArc
 50
64.7125991044
 51
90.0
  0
ARC
  5
361
330
1F
100
AcDbEntity
  8
PROFILES_OUTSIDE
100
AcDbCircle
 10
37.7482224709
 20
6.7693342887
 30
0.0
 40
0.1908464566929158
100
AcDbArc
 50
244.7125991044
 51
72.4587608814
  0
ARC
  5
362
330
1F
100
AcDbEntity
  8
PROFILES_OUTSIDE
100
AcDbCircle
 10
37.8176079315
 20
6.988845817
 30
0.0
 40
0.0393700787401571
100
AcDbArc
 50
180.0
 51
252.4587608814
  0
ARC
  5
363
330
1F
100
AcDbEntity
  8
PROFILES_OUTSIDE
100
AcDbCircle
 10
39.6621945456
 20
6.9019062534
 30
0.0
 40
0.1908464566929133
100
AcDbArc
 50
0.0
 51
90.0
  0
ARC
  5
364
330
1F
100
AcDbEntity
  8
PROFILES_OUTSIDE
100
AcDbCircle
 10
40.043887459
 20
5.2849161049
 30
0.0
 40
0.1908464566929142
100
AcDbArc
 50
180.0
 51
270.0
  0
ARC
  5
365
330
1F
100
AcDbEntity
  8
PROFILES_OUTSIDE
100
AcDbCircle
 10
40.4338480889
 20
5.2849161049
 30
0.0
 40
0.190846456692924
100
AcDbArc
 50
270.0
 51
0.0
  0
ARC
  5
366
330
1F
100
AcDbEntity
  8
PROFILES_OUTSIDE
100
AcDbCircle
 10
40.8155410023
 20
6.9019062534
 30
0.0
 40
0.1908464566929133
100
AcDbArc
 50
90.0
 51
180.0
  0
ARC
  5
367
330
1F
100
AcDbEntity
  8
PROFILES_OUTSIDE
100
AcDbCircle
 10
42.6601276165
 20
6.988845817
 30
0.0
 40
0.0393700787401571
100
AcDbArc
 50
287.5412391186
 51
0.0
  0
ARC
  5
368
330
1F
100
AcDbEntity
  8
PROFILES_OUTSIDE
100
AcDbCircle
 10
42.7295130771
 20
6.7693342887
 30
0.0
 40
0.1908464566929158
100
AcDbArc
 50
107.5412391186
 51
295.2874008956
  0
ARC
  5
369
330
1F
100
AcDbEntity
  8
PROFILES_OUTSIDE
100
AcDbCircle
 10
42.8278521534
 20
6.561177907
 30
0.0
 40
0.0393700787401574
100
AcDbArc
 50
90.0
 51
115.2874008956
  0
ARC
  5
36A
330
1F
100
AcDbEntity
  8
PROFILES_OUTSIDE
100
AcDbCircle
 10
43.644379585
 20
6.8072408991
 30
0.0
 40
0.0393700787401574
100
AcDbArc
 50
0.0
 51
90.0
  0
ARC
  5
36B
330
1F
100
AcDbEntity
  8
PROFILES_OUTSIDE
100
AcDbCircle
 10
43.4475291913
 20
6.3446424739
 30
0.0
 40
0.2362204724409454
100
AcDbArc
 50
270.0
 51
0.0
  0
ARC
  5
36C
330
1F
100
AcDbEntity
  8
PROFILES_OUTSIDE
100
AcDbCircle
 10
41.3609150181
 20
5.872201529
 30
0.0
 40
0.236220472440948
100
AcDbArc
 50
90.0
 51
180.0
  0
ARC
  5
36D
330
1F
100
AcDbEntity
  8
PROFILES_OUTSIDE
100
AcDbCircle
 10
40.6246945456
 20
5.0940696482
 30
0.0
 40
0.4999999999999952
100
AcDbArc
 50
300.0
 51
0.0
  0
ARC
  5
36E
330
1F
100
AcDbEntity
  8
PROFILES_OUTSIDE
100
AcDbCircle
 10
41.1246945456
 20
4.2280442444
 30
0.0
 40
0.4999999999999987
100
AcDbArc
 50
120.0
 51
180.0
  0
ARC
  5
36F
330
1F
100
AcDbEntity
  8
PROFILES_OUTSIDE
100
AcDbCircle
 10
41.1246945456
 20
4.1522584468
 30
0.0
 40
0.4999999999999991
100
AcDbArc
 50
180.0
 51
240.0
  0
ARC
  5
370
330
1F
100
AcDbEntity
  8
PROFILES_OUTSIDE
100
AcDbCircle
 10
40.6246945456
 20
3.286233043
 30
0.0
 40
0.4999999999999971
100
AcDbArc
 50
0.0
 51
60.0
  0
ARC
  5
371
330
1F
100
AcDbEntity
  8
PROFILES_OUTSIDE
100
AcDbCircle
 10
41.3609150181
 20
2.5081011622
 30
0.0
 40
0.236220472440948
100
AcDbArc
 50
180.0
 51
270.0
  0
ARC
  5
372
330
1F
100
AcDbEntity
  8
PROFILES_OUTSIDE
100
AcDbCircle
 10
43.4475291913
 20
2.0356602173
 30
0.0
 40
0.236220472440948
100
AcDbArc
 50
0.0
 51
90.0
  0
ARC
  5
373
330
1F
100
AcDbEntity
  8
PROFILES_OUTSIDE
100
AcDbCircle
 10
43.644379585
 20
1.5730617922
 30
0.0
 40
0.0393700787401574
100
AcDbArc
 50
270.0
 51
0.0
  0
ARC
  5
374
330
1F
100
AcDbEntity
  8
PROFILES_OUTSIDE
100
AcDbCircle
 10
42.8278521534
 20
1.8191247843
 30
0.0
 40
0.0393700787401574
100
AcDbArc
 50
244.7125991044
 51
270.0
  0
ARC
  5
375
330
1F
100
AcDbEntity
  8
PROFILES_OUTSIDE
100
AcDbCircle
 10
42.7295130771
 20
1.6109684026
 30
0.0
 40
0.1908464566929156
100
AcDbArc
 50
64.7125991044
 51
252.4587608814
  0
ARC
  5
376
330
1F
100
AcDbEntity
  8
PROFILES_OUTSIDE
100
AcDbCircle
 10
42.6601276165
 20
1.3914568743
 30
0.0
 40
0.0393700787401556
100
AcDbArc
 50
0.0
 51
72.4587608814
  0
ARC
  5
377
330
1F
100
AcDbEntity
  8
PROFILES_OUTSIDE
100
AcDbCircle
 10
40.8155410023
 20
1.4783964378
 30
0.0
 40
0.1908464566929136
100
AcDbArc
 50
180.0
 51
270.0
  0
ARC
  5
378
330
1F
100
AcDbEntity
  8
PROFILES_OUTSIDE
100
AcDbCircle
 10
40.4338480889
 20
3.0953865863
 30
0.0
 40
0.190846456692924
100
AcDbArc
 50
0.0
 51
90.0
  0
ARC
  5
379
330
1F
100
AcDbEntity
  8
PROFILES_OUTSIDE
100
AcDbCircle
 10
40.043887459
 20
3.0953865863
 30
0.0
 40
0.1908464566929133
100
AcDbArc
 50
90.0
 51
180.0
  0
ARC
  5
37A
330
1F
100
AcDbEntity
  8
PROFILES_OUTSIDE
100
AcDbCircle
 10
39.6621945456
 20
1.4783964378
 30
0.0
 40
0.1908464566929136
100
AcDbArc
 50
270.0
 51
0.0
  0
ARC
  5
37B
330
1F
100
AcDbEntity
  8
PROFILES_OUTSIDE
100
AcDbCircle
 10
37.8176079315
 20
1.3914568743
 30
0.0
 40
0.0393700787401552
100
AcDbArc
 50
107.5412391186
 51
180.0
  0
ARC
  5
37C
330
1F
100
AcDbEntity
  8
PROFILES_OUTSIDE
100
AcDbCircle
 10
37.7482224709
 20
1.6109684026
 30
0.0
 40
0.1908464566929156
100
AcDbArc
 50
287.5412391186
 51
115.2874008956
  0
ARC
  5
37D
330
1F
100
AcDbEntity
  8
PROFILES_OUTSIDE
100
AcDbCircle
 10
37.6498833945
 20
1.8191247843
 30
0.0
 40
0.0393700787401574
100
AcDbArc
 50
270.0
 51
295.2874008956
  0
ARC
  5
37E
330
1F
100
AcDbEntity
  8
PROFILES_OUTSIDE
100
AcDbCircle
 10
36.833355963
 20
1.5730617922
 30
0.0
 40
0.0393700787401627
100
AcDbArc
 50
180.0
 51
270.0
  0
ARC
  5
37F
330
1F
100
AcDbEntity
  8
PROFILES_OUTSIDE
100
AcDbCircle
 10
37.0302063567
 20
2.0356602173
 30
0.0
 40
0.236220472440948
100
AcDbArc
 50
90.0
 51
180.0
  0
ARC
  5
380
330
1F
100
AcDbEntity
  8
PROFILES_OUTSIDE
100
AcDbCircle
 10
39.1168205299
 20
2.5081011622
 30
0.0
 40
0.2362204724409454
100
AcDbArc
 50
270.0
 51
0.0
  0
ARC
  5
381
330
1F
100
AcDbEntity
  8
PROFILES_OUTSIDE
100
AcDbCircle
 10
39.8530410023
 20
3.286233043
 30
0.0
 40
0.5000000000000071
100
AcDbArc
 50
120.0
 51
180.0
  0
ARC
  5
382
330
1F
100
AcDbEntity
  8
PROFILES_OUTSIDE
100
AcDbCircle
 10
39.3530410023
 20
4.1522584468
 30
0.0
 40
0.5
100
AcDbArc
 50
300.0
 51
0.0
  0
ARC
  5
383
330
1F
100
AcDbEntity
  8
PROFILES_OUTSIDE
100
AcDbCircle
 10
39.3530410023
 20
4.2280442444
 30
0.0
 40
0.5
100
AcDbArc
 50
0.0
 51
60.0
  0
ARC
  5
384
330
1F
100
AcDbEntity
  8
PROFILES_OUTSIDE
100
AcDbCircle
 10
39.8530410023
 20
5.0940696482
 30
0.0
 40
0.5000000000000022
100
AcDbArc
 50
180.0
 51
240.0
  0
ARC
  5
385
330
1F
100
AcDbEntity
  8
PROFILES_OUTSIDE
100
AcDbCircle
 10
39.1168205299
 20
5.872201529
 30
0.0
 40
0.2362204724409427
100
AcDbArc
 50
0.0
 51
90.0
  0
ARC
  5
386
330
1F
100
AcDbEntity
  8
PROFILES_OUTSIDE
100
AcDbCircle
 10
37.0302063567
 20
6.3446424739
 30
0.0
 40
0.236220472440948
100
AcDbArc
 50
180.0
 51
270.0
  0
ARC
  5
387
330
1F
100
AcDbEntity
  8
PROFILES_OUTSIDE
100
AcDbCircle
 10
36.833355963
 20
6.8072408991
 30
0.0
 40
0.0393700787401627
100
AcDbArc
 50
90.0
 51
180.0
  0
ARC
  5
388
330
1F
100
AcDbEntity
  8
PROFILES_OUTSIDE
100
AcDbCircle
 10
42.8278521534
 20
9.1930676708
 30
0.0
 40
0.0393700787401578
100
AcDbArc
 50
244.7125991044
 51
270.0
  0
ARC
  5
389
330
1F
100
AcDbEntity
  8
PROFILES_OUTSIDE
100
AcDbCircle
 10
42.7295130771
 20
8.984911289
 30
0.0
 40
0.1908464566929158
100
AcDbArc
 50
64.7125991044
 51
252.4587608814
  0
ARC
  5
38A
330
1F
100
AcDbEntity
  8
PROFILES_OUTSIDE
100
AcDbCircle
 10
42.6601276165
 20
8.7653997608
 30
0.0
 40
0.0393700787401562
100
AcDbArc
 50
0.0
 51
72.4587608814
  0
ARC
  5
38B
330
1F
100
AcDbEntity
  8
PROFILES_OUTSIDE
100
AcDbCircle
 10
40.8155410023
 20
8.8523393243
 30
0.0
 40
0.1908464566929133
100
AcDbArc
 50
180.0
 51
270.0
  0
ARC
  5
38C
330
1F
100
AcDbEntity
  8
PROFILES_OUTSIDE
100
AcDbCircle
 10
40.4338480889
 20
10.4693294728
 30
0.0
 40
0.190846456692924
100
AcDbArc
 50
0.0
 51
90.0
  0
ARC
  5
38D
330
1F
100
AcDbEntity
  8
PROFILES_OUTSIDE
100
AcDbCircle
 10
40.043887459
 20
10.4693294728
 30
0.0
 40
0.1908464566929133
100
AcDbArc
 50
90.0
 51
180.0
  0
ARC
  5
38E
330
1F
100
AcDbEntity
  8
PROFILES_OUTSIDE
100
AcDbCircle
 10
39.6621945456
 20
8.8523393243
 30
0.0
 40
0.1908464566929133
100
AcDbArc
 50
270.0
 51
0.0
  0
ARC
  5
38F
330
1F
100
AcDbEntity
  8
PROFILES_OUTSIDE
100
AcDbCircle
 10
37.8176079315
 20
8.7653997608
 30
0.0
 40
0.0393700787401579
100
AcDbArc
 50
107.5412391186
 51
180.0
  0
ARC
  5
390
330
1F
100
AcDbEntity
  8
PROFILES_OUTSIDE
100
AcDbCircle
 10
37.7482224709
 20
8.984911289
 30
0.0
 40
0.1908464566929128
100
AcDbArc
 50
287.5412391186
 51
115.2874008956
  0
ARC
  5
391
330
1F
100
AcDbEntity
  8
PROFILES_OUTSIDE
100
AcDbCircle
 10
37.6498833945
 20
9.1930676708
 30
0.0
 40
0.0393700787401574
100
AcDbArc
 50
270.0
 51
295.2874008956
  0
ARC
  5
392
330
1F
100
AcDbEntity
  8
PROFILES_OUTSIDE
100
AcDbCircle
 10
36.833355963
 20
8.9470046786
 30
0.0
 40
0.0393700787401627
100
AcDbArc
 50
180.0
 51
270.0
  0
ARC
  5
393
330
1F
100
AcDbEntity
  8
PROFILES_OUTSIDE
100
AcDbCircle
 10
37.0302063567
 20
9.4096031038
 30
0.0
 40
0.236220472440948
100
AcDbArc
 50
90.0
 51
180.0
  0
ARC
  5
394
330
1F
100
AcDbEntity
  8
PROFILES_OUTSIDE
100
AcDbCircle
 10
39.1168205299
 20
9.8820440487
 30
0.0
 40
0.236220472440948
100
AcDbArc
 50
270.0
 51
0.0
  0
ARC
  5
395
330
1F
100
AcDbEntity
  8
PROFILES_OUTSIDE
100
AcDbCircle
 10
39.8530410023
 20
10.6601759295
 30
0.0
 40
0.5000000000000071
100
AcDbArc
 50
120.0
 51
180.0
  0
ARC
  5
396
330
1F
100
AcDbEntity
  8
PROFILES_OUTSIDE
100
AcDbCircle
 10
39.3530410023
 20
11.5262013333
 30
0.0
 40
0.5000000000000071
100
AcDbArc
 50
300.0
 51
0.0
  0
ARC
  5
397
330
1F
100
AcDbEntity
  8
PROFILES_OUTSIDE
100
AcDbCircle
 10
39.3530410023
 20
11.6019871309
 30
0.0
 40
0.5000000000000071
100
AcDbArc
 50
0.0
 51
60.0
  0
ARC
  5
398
330
1F
100
AcDbEntity
  8
PROFILES_OUTSIDE
100
AcDbCircle
 10
39.8530410023
 20
12.4680125347
 30
0.0
 40
0.5000000000000071
100
AcDbArc
 50
180.0
 51
240.0
  0
ARC
  5
399
330
1F
100
AcDbEntity
  8
PROFILES_OUTSIDE
100
AcDbCircle
 10
39.1168205299
 20
13.2461444155
 30
0.0
 40
0.2362204724409445
100
AcDbArc
 50
0.0
 51
90.0
  0
ARC
  5
39A
330
1F
100
AcDbEntity
  8
PROFILES_OUTSIDE
100
AcDbCircle
 10
37.0302063567
 20
13.7185853604
 30
0.0
 40
0.236220472440948
100
AcDbArc
 50
180.0
 51
270.0
  0
ARC
  5
39B
330
1F
100
AcDbEntity
  8
PROFILES_OUTSIDE
100
AcDbCircle
 10
36.833355963
 20
14.1811837856
 30
0.0
 40
0.0393700787401627
100
AcDbArc
 50
90.0
 51
180.0
  0
ARC
  5
39C
330
1F
100
AcDbEntity
  8
PROFILES_OUTSIDE
100
AcDbCircle
 10
37.6498833945
 20
13.9351207935
 30
0.0
 40
0.039370078740158
100
AcDbArc
 50
64.7125991044
 51
90.0
  0
ARC
  5
39D
330
1F
100
AcDbEntity
  8
PROFILES_OUTSIDE
100
AcDbCircle
 10
37.7482224709
 20
14.1432771752
 30
0.0
 40
0.190846456692914
100
AcDbArc
 50
244.7125991044
 51
72.4587608814
  0
ARC
  5
39E
330
1F
100
AcDbEntity
  8
PROFILES_OUTSIDE
100
AcDbCircle
 10
37.8176079315
 20
14.3627887035
 30
0.0
 40
0.0393700787401562
100
AcDbArc
 50
180.0
 51
252.4587608814
  0
ARC
  5
39F
330
1F
100
AcDbEntity
  8
PROFILES_OUTSIDE
100
AcDbCircle
 10
39.6621945456
 20
14.2758491399
 30
0.0
 40
0.190846456692924
100
AcDbArc
 50
0.0
 51
90.0
  0
ARC
  5
3A0
330
1F
100
AcDbEntity
  8
PROFILES_OUTSIDE
100
AcDbCircle
 10
40.043887459
 20
12.6588589914
 30
0.0
 40
0.1908464566929133
100
AcDbArc
 50
180.0
 51
270.0
  0
ARC
  5
3A1
330
1F
100
AcDbEntity
  8
PROFILES_OUTSIDE
100
AcDbCircle
 10
40.4338480889
 20
12.6588589914
 30
0.0
 40
0.190846456692924
100
AcDbArc
 50
270.0
 51
0.0
  0
ARC
  5
3A2
330
1F
100
AcDbEntity
  8
PROFILES_OUTSIDE
100
AcDbCircle
 10
40.8155410023
 20
14.2758491399
 30
0.0
 40
0.1908464566929151
100
AcDbArc
 50
90.0
 51
180.0
  0
ARC
  5
3A3
330
1F
100
AcDbEntity
  8
PROFILES_OUTSIDE
100
AcDbCircle
 10
42.6601276165
 20
14.3627887035
 30
0.0
 40
0.0393700787401627
100
AcDbArc
 50
287.5412391186
 51
0.0
  0
ARC
  5
3A4
330
1F
100
AcDbEntity
  8
PROFILES_OUTSIDE
100
AcDbCircle
 10
42.7295130771
 20
14.1432771752
 30
0.0
 40
0.1908464566929158
100
AcDbArc
 50
107.5412391186
 51
295.2874008956
  0
ARC
  5
3A5
330
1F
100
AcDbEntity
  8
PROFILES_OUTSIDE
100
AcDbCircle
 10
42.8278521534
 20
13.9351207935
 30
0.0
 40
0.0393700787401611
100
AcDbArc
 50
90.0
 51
115.2874008956
  0
ARC
  5
3A6
330
1F
100
AcDbEntity
  8
PROFILES_OUTSIDE
100
AcDbCircle
 10
43.644379585
 20
14.1811837856
 30
0.0
 40
0.0393700787401574
100
AcDbArc
 50
0.0
 51
90.0
  0
ARC
  5
3A7
330
1F
100
AcDbEntity
  8
PROFILES_OUTSIDE
100
AcDbCircle
 10
43.4475291913
 20
13.7185853604
 30
0.0
 40
0.236220472440948
100
AcDbArc
 50
270.0
 51
0.0
  0
ARC
  5
3A8
330
1F
100
AcDbEntity
  8
PROFILES_OUTSIDE
100
AcDbCircle
 10
41.3609150181
 20
13.2461444155
 30
0.0
 40
0.236220472440948
100
AcDbArc
 50
90.0
 51
180.0
  0
ARC
  5
3A9
330
1F
100
AcDbEntity
  8
PROFILES_OUTSIDE
100
AcDbCircle
 10
40.6246945456
 20
12.4680125347
 30
0.0
 40
0.4999999999999959
100
AcDbArc
 50
300.0
 51
0.0
  0
ARC
  5
3AA
330
1F
100
AcDbEntity
  8
PROFILES_OUTSIDE
100
AcDbCircle
 10
41.1246945456
 20
11.6019871309
 30
0.0
 40
0.5000000000000071
100
AcDbArc
 50
120.0
 51
180.0
  0
ARC
  5
3AB
330
1F
100
AcDbEntity
  8
PROFILES_OUTSIDE
100
AcDbCircle
 10
41.1246945456
 20
11.5262013333
 30
0.0
 40
0.4999999999999979
100
AcDbArc
 50
180.0
 51
240.0
  0
ARC
  5
3AC
330
1F
100
AcDbEntity
  8
PROFILES_OUTSIDE
100
AcDbCircle
 10
40.6246945456
 20
10.6601759295
 30
0.0
 40
0.4999999999999959
100
AcDbArc
 50
0.0
 51
60.0
  0
ARC
  5
3AD
330
1F
100
AcDbEntity
  8
PROFILES_OUTSIDE
100
AcDbCircle
 10
41.3609150181
 20
9.8820440487
 30
0.0
 40
0.236220472440948
100
AcDbArc
 50
180.0
 51
270.0
  0
ARC
  5
3AE
330
1F
100
AcDbEntity
  8
PROFILES_OUTSIDE
100
AcDbCircle
 10
43.4475291913
 20
9.4096031038
 30
0.0
 40
0.236220472440948
100
AcDbArc
 50
0.0
 51
90.0
  0
ARC
  5
3AF
330
1F
100
AcDbEntity
  8
PROFILES_OUTSIDE
100
AcDbCircle
 10
43.644379585
 20
8.9470046786
 30
0.0
 40
0.0393700787401574
100
AcDbArc
 50
270.0
 51
0.0
  0
ENDSEC
  0
SECTION
  2
OBJECTS
  0
DICTIONARY
  5
C
330
0
100
AcDbDictionary
  3
ACAD_GROUP
350
D
  3
ACAD_MLINESTYLE
350
17
  3
ACAD_SCALELIST
350
47
  0
DICTIONARY
  5
D
102
{ACAD_REACTORS
330
C
102
}
330
C
100
AcDbDictionary
  0
DICTIONARY
  5
17
102
{ACAD_REACTORS
330
C
102
}
330
C
100
AcDbDictionary
  3
STANDARD
350
18
  0
DICTIONARY
  5
47
102
{ACAD_REACTORS
330
C
102
}
330
C
100
AcDbDictionary
  0
MLINESTYLE
  5
18
102
{ACAD_REACTORS
330
17
102
}
330
17
100
AcDbMlineStyle
  2
Standard
 70
     0
  3

 62
   256
 51
90.0
 52
90.0
 71
     2
 49
0.5
 62
   256
  6
BYLAYER
 49
-0.5
 62
   256
  6
BYLAYER
  0
ENDSEC
  0
EOF
