  0
SECTION
  2
HEADER
  9
$ACADVER
  1
AC1014
  9
$ACADMAINTVER
 70
     9
  9
$DWGCODEPAGE
  3
ANSI_1252
  9
$INSBASE
 10
0.0
 20
0.0
 30
0.0
  9
$EXTMIN
 10
0.0
 20
0.0
 30
0.0
  9
$EXTMAX
 10
96.062992126
 20
48.031496063
 30
0.0
  9
$LIMMIN
 10
0.0
 20
0.0
  9
$LIMMAX
 10
96.062992126
 20
48.031496063
  9
$ORTHOMODE
 70
     0
  9
$REGENMODE
 70
     1
  9
$FILLMODE
 70
     1
  9
$QTEXTMODE
 70
     0
  9
$MIRRTEXT
 70
     1
  9
$DRAGMODE
 70
     2
  9
$LTSCALE
 40
1.0
  9
$OSMODE
 70
    37
  9
$ATTMODE
 70
     1
  9
$TEXTSIZE
 40
0.1377952756
  9
$TRACEWID
 40
0.05
  9
$TEXTSTYLE
  7
STANDARD
  9
$CLAYER
  8
0
  9
$CELTYPE
  6
BYLAYER
  9
$CECOLOR
 62
   256
  9
$CELTSCALE
 40
1.0
  9
$DELOBJ
 70
     1
  9
$DISPSILH
 70
     0
  9
$DIMSCALE
 40
1.0
  9
$DIMASZ
 40
0.13
  9
$DIMEXO
 40
0.0393700787
  9
$DIMDLI
 40
0.38
  9
$DIMRND
 40
0.0
  9
$DIMDLE
 40
0.0
  9
$DIMEXE
 40
0.0393700787
  9
$DIMTP
 40
0.0
  9
$DIMTM
 40
0.0
  9
$DIMTXT
 40
0.1805555556
  9
$DIMCEN
 40
0.09
  9
$DIMTSZ
 40
0.0
  9
$DIMTOL
 70
     0
  9
$DIMLIM
 70
     0
  9
$DIMTIH
 70
     1
  9
$DIMTOH
 70
     1
  9
$DIMSE1
 70
     0
  9
$DIMSE2
 70
     0
  9
$DIMTAD
 70
     1
  9
$DIMZIN
 70
     0
  9
$DIMBLK
  1

  9
$DIMASO
 70
     1
  9
$DIMSHO
 70
     1
  9
$DIMPOST
  1

  9
$DIMAPOST
  1

  9
$DIMALT
 70
     0
  9
$DIMALTD
 70
     2
  9
$DIMALTF
 40
25.4
  9
$DIMLFAC
 40
1.0
  9
$DIMTOFL
 70
     0
  9
$DIMTVP
 40
0.0
  9
$DIMTIX
 70
     0
  9
$DIMSOXD
 70
     0
  9
$DIMSAH
 70
     0
  9
$DIMBLK1
  1

  9
$DIMBLK2
  1

  9
$DIMSTYLE
  2
STANDARD
  9
$DIMCLRD
 70
     0
  9
$DIMCLRE
 70
     0
  9
$DIMCLRT
 70
     0
  9
$DIMTFAC
 40
1.0
  9
$DIMGAP
 40
0.06
  9
$DIMJUST
 70
     0
  9
$DIMSD1
 70
     0
  9
$DIMSD2
 70
     0
  9
$DIMTOLJ
 70
     1
  9
$DIMTZIN
 70
     0
  9
$DIMALTZ
 70
     0
  9
$DIMALTTZ
 70
     0
  9
$DIMFIT
 70
     3
  9
$DIMUPT
 70
     0
  9
$DIMUNIT
 70
     2
  9
$DIMDEC
 70
     2
  9
$DIMTDEC
 70
     2
  9
$DIMALTU
 70
     2
  9
$DIMALTTD
 70
     2
  9
$DIMTXSTY
  7
STANDARD
  9
$DIMAUNIT
 70
     0
  9
$LUNITS
 70
     2
  9
$LUPREC
 70
     2
  9
$SKETCHINC
 40
0.1
  9
$FILLETRAD
 40
0.5
  9
$AUNITS
 70
     0
  9
$AUPREC
 70
     2
  9
$MENU
  1
.
  9
$ELEVATION
 40
0.0
  9
$PELEVATION
 40
0.0
  9
$THICKNESS
 40
0.0
  9
$LIMCHECK
 70
     0
  9
$CHAMFERA
 40
0.0
  9
$CHAMFERB
 40
0.0
  9
$CHAMFERC
 40
0.0
  9
$CHAMFERD
 40
0.0
  9
$SKPOLY
 70
     0
  9
$TDCREATE
 40
2457697.537558264
  9
$TDUPDATE
 40
2457697.537558611
  9
$TDINDWG
 40
0.0000000116
  9
$TDUSRTIMER
 40
0.0000000116
  9
$USRTIMER
 70
     1
  9
$ANGBASE
 50
0.0
  9
$ANGDIR
 70
     0
  9
$PDMODE
 70
     0
  9
$PDSIZE
 40
-1.0
  9
$PLINEWID
 40
0.0
  9
$COORDS
 70
     1
  9
$SPLFRAME
 70
     0
  9
$SPLINETYPE
 70
     6
  9
$SPLINESEGS
 70
     8
  9
$ATTDIA
 70
     0
  9
$ATTREQ
 70
     1
  9
$HANDLING
 70
     1
  9
$HANDSEED
  5
3B0
  9
$SURFTAB1
 70
     6
  9
$SURFTAB2
 70
     6
  9
$SURFTYPE
 70
     6
  9
$SURFU
 70
     6
  9
$SURFV
 70
     6
  9
$UCSNAME
  2

  9
$UCSORG
 10
0.0
 20
0.0
 30
0.0
  9
$UCSXDIR
 10
1.0
 20
0.0
 30
0.0
  9
$UCSYDIR
 10
0.0
 20
1.0
 30
0.0
  9
$PUCSNAME
  2

  9
$PUCSORG
 10
0.0
 20
0.0
 30
0.0
  9
$PUCSXDIR
 10
1.0
 20
0.0
 30
0.0
  9
$PUCSYDIR
 10
0.0
 20
1.0
 30
0.0
  9
$USERI1
 70
     0
  9
$USERI2
 70
     0
  9
$USERI3
 70
     0
  9
$USERI4
 70
     0
  9
$USERI5
 70
     0
  9
$USERR1
 40
0.0
  9
$USERR2
 40
0.0
  9
$USERR3
 40
0.0
  9
$USERR4
 40
0.0
  9
$USERR5
 40
0.0
  9
$WORLDVIEW
 70
     1
  9
$SHADEDGE
 70
     3
  9
$SHADEDIF
 70
    70
  9
$TILEMODE
 70
     1
  9
$MAXACTVP
 70
    64
  9
$PINSBASE
 10
0.0
 20
0.0
 30
0.0
  9
$PLIMCHECK
 70
     0
  9
$PEXTMIN
 10
1.0000000000E+20
 20
1.0000000000E+20
 30
1.0000000000E+20
  9
$PEXTMAX
 10
-1.0000000000E+20
 20
-1.0000000000E+20
 30
-1.0000000000E+20
  9
$PLIMMIN
 10
0.0
 20
0.0
  9
$PLIMMAX
 10
12.0
 20
9.0
  9
$UNITMODE
 70
     0
  9
$VISRETAIN
 70
     1
  9
$PLINEGEN
 70
     0
  9
$PSLTSCALE
 70
     1
  9
$TREEDEPTH
 70
  3020
  9
$PICKSTYLE
 70
     1
  9
$CMLSTYLE
  2
STANDARD
  9
$CMLJUST
 70
     0
  9
$CMLSCALE
 40
1.0
  9
$PROXYGRAPHICS
 70
     1
  9
$MEASUREMENT
 70
     0
  0
ENDSEC
  0
SECTION
  2
CLASSES
  0
CLASS
  1
ACDBDICTIONARYWDFLT
  2
AcDbDictionaryWithDefault
  3
ObjectDBX Classes
 90
        0
280
     0
281
     0
  0
CLASS
  1
VISUALSTYLE
  2
AcDbVisualStyle
  3
ObjectDBX Classes
 90
     4095
280
     0
281
     0
  0
CLASS
  1
MATERIAL
  2
AcDbMaterial
  3
ObjectDBX Classes
 90
     1153
280
     0
281
     0
  0
CLASS
  1
SCALE
  2
AcDbScale
  3
ObjectDBX Classes
 90
     1153
280
     0
281
     0
  0
CLASS
  1
TABLESTYLE
  2
AcDbTableStyle
  3
ObjectDBX Classes
 90
     4095
280
     0
281
     0
  0
CLASS
  1
MLEADERSTYLE
  2
AcDbMLeaderStyle
  3
ACDB_MLEADERSTYLE_CLASS
 90
     4095
280
     0
281
     0
  0
CLASS
  1
SUN
  2
AcDbSun
  3
SCENEOE
 90
     1153
280
     0
281
     0
  0
CLASS
  1
XRECORD
  2
AcDbXrecord
  3
ObjectDBX Classes
 90
        0
280
     0
281
     0
  0
CLASS
  1
LWPOLYLINE
  2
AcDbPolyline
  3
ObjectDBX Classes
 90
        0
280
     0
281
     1
  0
CLASS
  1
HATCH
  2
AcDbHatch
  3
ObjectDBX Classes
 90
        0
280
     0
281
     1
  0
ENDSEC
  0
SECTION
  2
TABLES
  0
TABLE
  2
VPORT
  5
8
330
0
100
AcDbSymbolTable
 70
     1
  0
VPORT
  5
29
330
8
100
AcDbSymbolTableRecord
100
AcDbViewportTableRecord
  2
*ACTIVE
 70
     0
 10
0.0
 20
0.0
 11
1.0
 21
1.0
 12
48.031496063
 22
24.0157480315
 13
0.0
 23
0.0
 14
0.5
 24
0.5
 15
0.5
 25
0.5
 16
0.0
 26
0.0
 36
1.0
 17
0.0
 27
0.0
 37
0.0
 40
48.031496063
 41
2.0
 42
50.0
 43
0.0
 44
0.0
 50
0.0
 51
0.0
 71
     0
 72
  2000
 73
     1
 74
     3
 75
     0
 76
     0
 77
     0
 78
     0
  0
ENDTAB
  0
TABLE
  2
LTYPE
  5
5
330
0
100
AcDbSymbolTable
 70
     6
  0
LTYPE
  5
14
330
5
100
AcDbSymbolTableRecord
100
AcDbLinetypeTableRecord
  2
BYBLOCK
 70
     0
  3

 72
    65
 73
     0
 40
0.0
  0
LTYPE
  5
15
330
5
100
AcDbSymbolTableRecord
100
AcDbLinetypeTableRecord
  2
BYLAYER
 70
     0
  3

 72
    65
 73
     0
 40
0.0
  0
LTYPE
  5
16
330
5
100
AcDbSymbolTableRecord
100
AcDbLinetypeTableRecord
  2
CONTINUOUS
 70
     0
  3
Solid line
 72
    65
 73
     0
 40
0.0
  0
LTYPE
  5
6E
330
5
100
AcDbSymbolTableRecord
100
AcDbLinetypeTableRecord
  2
HIDDEN
 70
     0
  3
Hidden __ __ __ __ __ __ __ __ __ __ __ __ __ __
 72
    65
 73
     2
 40
0.075
 49
0.05
 74
     0
 49
-0.025
 74
     0
  0
LTYPE
  5
6F
330
5
100
AcDbSymbolTableRecord
100
AcDbLinetypeTableRecord
  2
PHANTOM
 70
     0
  3
Phantom ______  __  __  ______  __  __  ______
 72
    65
 73
     6
 40
0.5
 49
0.25
 74
     0
 49
-0.05
 74
     0
 49
0.05
 74
     0
 49
-0.05
 74
     0
 49
0.05
 74
     0
 49
-0.05
 74
     0
  0
LTYPE
  5
70
330
5
100
AcDbSymbolTableRecord
100
AcDbLinetypeTableRecord
  2
CENTER
 70
     0
  3
Center ____ _ ____ _ ____ _ ____ _ ____ _ ____
 72
    65
 73
     4
 40
0.4
 49
0.25
 74
     0
 49
-0.05
 74
     0
 49
0.05
 74
     0
 49
-0.05
 74
     0
  0
LTYPE
  5
71
330
5
100
AcDbSymbolTableRecord
100
AcDbLinetypeTableRecord
  2
CENTERX2
 70
     0
  3
Center (2x) ________  __  ________  __  _____
 72
    65
 73
     4
 40
0.8
 49
0.5
 74
     0
 49
-0.1
 74
     0
 49
0.1
 74
     0
 49
-0.1
 74
     0
  0
LTYPE
  5
72
330
5
100
AcDbSymbolTableRecord
100
AcDbLinetypeTableRecord
  2
DOT2
 70
     0
  3
Dot (.5x) ........................................
 72
    65
 73
     2
 40
0.025
 49
0.0
 74
     0
 49
-0.025
 74
     0
  0
ENDTAB
  0
TABLE
  2
LAYER
  5
2
330
0
100
AcDbSymbolTable
 70
     6
  0
LAYER
  5
10
330
2
100
AcDbSymbolTableRecord
100
AcDbLayerTableRecord
  2
0
 70
     0
 62
     7
  6
CONTINUOUS
  0
LAYER
  5
73
330
2
100
AcDbSymbolTableRecord
100
AcDbLayerTableRecord
  2
BOX_STOCK
 70
     0
 62
     1
  6
CONTINUOUS
  0
LAYER
  5
74
330
2
100
AcDbSymbolTableRecord
100
AcDbLayerTableRecord
  2
HOLES
 70
     0
 62
    30
  6
CONTINUOUS
  0
LAYER
  5
75
330
2
100
AcDbSymbolTableRecord
100
AcDbLayerTableRecord
  2
POCKETS
 70
     0
 62
   171
  6
CONTINUOUS
  0
LAYER
  5
76
330
2
100
AcDbSymbolTableRecord
100
AcDbLayerTableRecord
  2
PROFILES_OUTSIDE
 70
     0
 62
     6
  6
CONTINUOUS
  0
LAYER
  5
77
330
2
100
AcDbSymbolTableRecord
100
AcDbLayerTableRecord
  2
PROFILES_INSIDE
 70
     0
 62
     4
  6
CONTINUOUS
  0
ENDTAB
  0
TABLE
  2
STYLE
  5
3
330
0
100
AcDbSymbolTable
 70
     1
  0
STYLE
  5
11
330
3
100
AcDbSymbolTableRecord
100
AcDbTextStyleTableRecord
  2
STANDARD
 70
     0
 40
0.0
 41
1.0
 50
0.0
 71
     0
 42
0.1377952756
  3
txt
  4

  0
ENDTAB
  0
TABLE
  2
VIEW
  5
6
330
0
100
AcDbSymbolTable
 70
     0
  0
ENDTAB
  0
TABLE
  2
UCS
  5
7
330
0
100
AcDbSymbolTable
 70
     0
  0
ENDTAB
  0
TABLE
  2
APPID
  5
9
330
0
100
AcDbSymbolTable
 70
     1
  0
APPID
  5
12
330
9
100
AcDbSymbolTableRecord
100
AcDbRegAppTableRecord
  2
ACAD
 70
     0
  0
ENDTAB
  0
TABLE
  2
DIMSTYLE
  5
A
330
0
100
AcDbSymbolTable
 70
     1
  0
DIMSTYLE
105
27
330
A
100
AcDbSymbolTableRecord
100
AcDbDimStyleTableRecord
  2
STANDARD
 70
     0
  3

  4

  5

  6

  7

 40
1.0
 41
0.18
 42
0.0625
 43
0.38
 44
0.18
 45
0.0
 46
0.0
 47
0.0
 48
0.0
140
0.18
141
0.09
142
0.0
143
25.4
144
1.0
145
0.0
146
1.0
147
0.09
 71
     0
 72
     0
 73
     1
 74
     1
 75
     0
 76
     0
 77
     0
 78
     0
170
     0
171
     2
172
     0
173
     0
174
     0
175
     0
176
     0
177
     0
178
     0
270
     2
271
     4
272
     4
273
     2
274
     2
340
11
275
     0
280
     0
281
     0
282
     0
283
     1
284
     0
285
     0
286
     0
287
     3
288
     0
  0
ENDTAB
  0
TABLE
  2
BLOCK_RECORD
  5
1
330
0
100
AcDbSymbolTable
 70
     1
  0
BLOCK_RECORD
  5
1F
330
1
100
AcDbSymbolTableRecord
100
AcDbBlockTableRecord
  2
*MODEL_SPACE
  0
BLOCK_RECORD
  5
1B
330
1
100
AcDbSymbolTableRecord
100
AcDbBlockTableRecord
  2
*PAPER_SPACE
  0
BLOCK_RECORD
  5
23
330
1
100
AcDbSymbolTableRecord
100
AcDbBlockTableRecord
  2
*PAPER_SPACE0
  0
ENDTAB
  0
ENDSEC
  0
SECTION
  2
BLOCKS
  0
BLOCK
  5
20
330
1F
100
AcDbEntity
  8
0
100
AcDbBlockBegin
  2
*MODEL_SPACE
 70
     0
 10
0.0
 20
0.0
 30
0.0
  3
*MODEL_SPACE
  1

  0
ENDBLK
  5
21
330
1F
100
AcDbEntity
  8
0
100
AcDbBlockEnd
  0
BLOCK
  5
1C
330
1B
100
AcDbEntity
 67
     1
  8
0
100
AcDbBlockBegin
  2
*PAPER_SPACE
 70
     0
 10
0.0
 20
0.0
 30
0.0
  3
*PAPER_SPACE
  1

  0
ENDBLK
  5
1D
330
1B
100
AcDbEntity
 67
     1
  8
0
100
AcDbBlockEnd
  0
BLOCK
  5
24
330
23
100
AcDbEntity
  8
0
100
AcDbBlockBegin
  2
*PAPER_SPACE0
 70
     0
 10
0.0
 20
0.0
 30
0.0
  3
*PAPER_SPACE0
  1

  0
ENDBLK
  5
25
330
23
100
AcDbEntity
  8
0
100
AcDbBlockEnd
  0
ENDSEC
  0
SECTION
  2
ENTITIES
  0
LINE
  5
78
330
1F
100
AcDbEntity
  8
0
  6
CONTINUOUS
 62
     7
100
AcDbLine
 10
36.8042219628
 20
6.9829928849
 30
0.0
 11
36.8199702608
 21
6.7369301274
 31
0.0
  0
LINE
  5
79
330
1F
100
AcDbEntity
  8
0
  6
CONTINUOUS
 62
     7
100
AcDbLine
 10
36.8199702608
 20
6.7369301274
 30
0.0
 11
37.1774432513
 21
6.7369301274
 31
0.0
  0
ARC
  5
7A
330
1F
100
AcDbEntity
  8
0
  6
CONTINUOUS
 62
     7
100
AcDbCircle
 10
37.1774424497
 20
6.6975598603
 30
0.0
 40
0.0393700787401602
100
AcDbArc
 50
64.7125991044
 51
90.0
  0
ARC
  5
7B
330
1F
100
AcDbEntity
  8
0
  6
CONTINUOUS
 62
     7
100
AcDbCircle
 10
37.275781526
 20
6.9057162421
 30
0.0
 40
0.1908464566929145
100
AcDbArc
 50
244.7125991044
 51
72.4587608814
  0
ARC
  5
7C
330
1F
100
AcDbEntity
  8
0
  6
CONTINUOUS
 62
     7
100
AcDbCircle
 10
37.3451669866
 20
7.1252277703
 30
0.0
 40
0.0393700787401571
100
AcDbArc
 50
180.0
 51
252.4587608814
  0
LINE
  5
7D
330
1F
100
AcDbEntity
  8
0
  6
CONTINUOUS
 62
     7
100
AcDbLine
 10
37.3057973952
 20
7.2291348414
 30
0.0
 11
37.3057973952
 21
7.1252279885
 31
0.0
  0
LINE
  5
7E
330
1F
100
AcDbEntity
  8
0
  6
CONTINUOUS
 62
     7
100
AcDbLine
 10
39.1897547249
 20
7.2291348414
 30
0.0
 11
37.3057973952
 21
7.2291348414
 31
0.0
  0
ARC
  5
7F
330
1F
100
AcDbEntity
  8
0
  6
CONTINUOUS
 62
     7
100
AcDbCircle
 10
39.1897536008
 20
7.0382882068
 30
0.0
 40
0.1908464566929116
100
AcDbArc
 50
0.0
 51
90.0
  0
LINE
  5
80
330
1F
100
AcDbEntity
  8
0
  6
CONTINUOUS
 62
     7
100
AcDbLine
 10
39.3805998802
 20
5.3758375309
 30
0.0
 11
39.3805998802
 21
7.0382879261
 31
0.0
  0
ARC
  5
81
330
1F
100
AcDbEntity
  8
0
  6
CONTINUOUS
 62
     7
100
AcDbCircle
 10
39.5714465141
 20
5.3758374072
 30
0.0
 40
0.1908464566929142
100
AcDbArc
 50
180.0
 51
270.0
  0
LINE
  5
82
330
1F
100
AcDbEntity
  8
0
  6
CONTINUOUS
 62
     7
100
AcDbLine
 10
39.961404904
 20
5.1849912022
 30
0.0
 11
39.5714450356
 21
5.1849912022
 31
0.0
  0
ARC
  5
83
330
1F
100
AcDbEntity
  8
0
  6
CONTINUOUS
 62
     7
100
AcDbCircle
 10
39.9614071441
 20
5.3758374072
 30
0.0
 40
0.1908464566929169
100
AcDbArc
 50
270.0
 51
0.0
  0
LINE
  5
84
330
1F
100
AcDbEntity
  8
0
  6
CONTINUOUS
 62
     7
100
AcDbLine
 10
40.152252406
 20
7.0382879261
 30
0.0
 11
40.152252406
 21
5.3758375309
 31
0.0
  0
ARC
  5
85
330
1F
100
AcDbEntity
  8
0
  6
CONTINUOUS
 62
     7
100
AcDbCircle
 10
40.3431000575
 20
7.0382882068
 30
0.0
 40
0.1908464566929116
100
AcDbArc
 50
90.0
 51
180.0
  0
LINE
  5
86
330
1F
100
AcDbEntity
  8
0
  6
CONTINUOUS
 62
     7
100
AcDbLine
 10
42.2270572377
 20
7.2291348414
 30
0.0
 11
40.343099908
 21
7.2291348414
 31
0.0
  0
LINE
  5
87
330
1F
100
AcDbEntity
  8
0
  6
CONTINUOUS
 62
     7
100
AcDbLine
 10
42.2270572377
 20
7.1252279885
 30
0.0
 11
42.2270572377
 21
7.2291348414
 31
0.0
  0
ARC
  5
88
330
1F
100
AcDbEntity
  8
0
  6
CONTINUOUS
 62
     7
100
AcDbCircle
 10
42.1876866716
 20
7.1252277703
 30
0.0
 40
0.0393700787401575
100
AcDbArc
 50
287.5412391186
 51
0.0
  0
ARC
  5
89
330
1F
100
AcDbEntity
  8
0
  6
CONTINUOUS
 62
     7
100
AcDbCircle
 10
42.2570721322
 20
6.9057162421
 30
0.0
 40
0.1908464566929128
100
AcDbArc
 50
107.5412391186
 51
295.2874008956
  0
ARC
  5
8A
330
1F
100
AcDbEntity
  8
0
  6
CONTINUOUS
 62
     7
100
AcDbCircle
 10
42.3554112085
 20
6.6975598603
 30
0.0
 40
0.0393700787401619
100
AcDbArc
 50
90.0
 51
115.2874008956
  0
LINE
  5
8B
330
1F
100
AcDbEntity
  8
0
  6
CONTINUOUS
 62
     7
100
AcDbLine
 10
42.355409035
 20
6.7369301274
 30
0.0
 11
42.7128820254
 21
6.7369301274
 31
0.0
  0
LINE
  5
8C
330
1F
100
AcDbEntity
  8
0
  6
CONTINUOUS
 62
     7
100
AcDbLine
 10
42.7128820254
 20
6.7369301274
 30
0.0
 11
42.7286326701
 21
6.9829928849
 31
0.0
  0
LINE
  5
8D
330
1F
100
AcDbEntity
  8
0
  6
CONTINUOUS
 62
     7
100
AcDbLine
 10
42.7286326701
 20
6.9829928849
 30
0.0
 11
43.171936349
 21
6.9829928849
 31
0.0
  0
ARC
  5
8E
330
1F
100
AcDbEntity
  8
0
  6
CONTINUOUS
 62
     7
100
AcDbCircle
 10
43.1719386401
 20
6.9436228525
 30
0.0
 40
0.0393700787401574
100
AcDbArc
 50
0.0
 51
90.0
  0
LINE
  5
8F
330
1F
100
AcDbEntity
  8
0
  6
CONTINUOUS
 62
     7
100
AcDbLine
 10
43.2113082676
 20
6.4810243904
 30
0.0
 11
43.2113082676
 21
6.9436227264
 31
0.0
  0
ARC
  5
90
330
1F
100
AcDbEntity
  8
0
  6
CONTINUOUS
 62
     7
100
AcDbCircle
 10
42.9750882464
 20
6.4810244273
 30
0.0
 40
0.236220472440948
100
AcDbArc
 50
270.0
 51
0.0
  0
LINE
  5
91
330
1F
100
AcDbEntity
  8
0
  6
CONTINUOUS
 62
     7
100
AcDbLine
 10
40.8884730211
 20
6.2448040259
 30
0.0
 11
42.9750861431
 21
6.2448040259
 31
0.0
  0
ARC
  5
92
330
1F
100
AcDbEntity
  8
0
  6
CONTINUOUS
 62
     7
100
AcDbCircle
 10
40.8884740732
 20
6.0085834824
 30
0.0
 40
0.236220472440948
100
AcDbArc
 50
90.0
 51
180.0
  0
LINE
  5
93
330
1F
100
AcDbEntity
  8
0
  6
CONTINUOUS
 62
     7
100
AcDbLine
 10
40.6522555899
 20
5.1849912022
 30
0.0
 11
40.6522555899
 21
6.0085836614
 31
0.0
  0
ARC
  5
94
330
1F
100
AcDbEntity
  8
0
  6
CONTINUOUS
 62
     7
100
AcDbCircle
 10
40.1522536008
 20
5.1849909505
 30
0.0
 40
0.5
100
AcDbArc
 50
300.0
 51
0.0
  0
ARC
  5
95
330
1F
100
AcDbEntity
  8
0
  6
CONTINUOUS
 62
     7
100
AcDbCircle
 10
40.6522536008
 20
4.3189655467
 30
0.0
 40
0.5
100
AcDbArc
 50
120.0
 51
180.0
  0
LINE
  5
96
330
1F
100
AcDbEntity
  8
0
  6
CONTINUOUS
 62
     7
100
AcDbLine
 10
40.152252406
 20
4.1977191673
 30
0.0
 11
40.152252406
 21
4.3189656333
 31
0.0
  0
ARC
  5
97
330
1F
100
AcDbEntity
  8
0
  6
CONTINUOUS
 62
     7
100
AcDbCircle
 10
40.6522536008
 20
4.1977190979
 30
0.0
 40
0.5
100
AcDbArc
 50
180.0
 51
240.0
  0
ARC
  5
98
330
1F
100
AcDbEntity
  8
0
  6
CONTINUOUS
 62
     7
100
AcDbCircle
 10
40.1522536008
 20
3.3316936941
 30
0.0
 40
0.5
100
AcDbArc
 50
0.0
 51
60.0
  0
LINE
  5
99
330
1F
100
AcDbEntity
  8
0
  6
CONTINUOUS
 62
     7
100
AcDbLine
 10
40.6522555899
 20
2.5081011392
 30
0.0
 11
40.6522555899
 21
3.3316935984
 31
0.0
  0
ARC
  5
9A
330
1F
100
AcDbEntity
  8
0
  6
CONTINUOUS
 62
     7
100
AcDbCircle
 10
40.8884740732
 20
2.5081011622
 30
0.0
 40
0.236220472440948
100
AcDbArc
 50
180.0
 51
270.0
  0
LINE
  5
9B
330
1F
100
AcDbEntity
  8
0
  6
CONTINUOUS
 62
     7
100
AcDbLine
 10
42.9750861431
 20
2.2718806281
 30
0.0
 11
40.8884730211
 21
2.2718806281
 31
0.0
  0
ARC
  5
9C
330
1F
100
AcDbEntity
  8
0
  6
CONTINUOUS
 62
     7
100
AcDbCircle
 10
42.9750882464
 20
2.0356602173
 30
0.0
 40
0.2362204724409449
100
AcDbArc
 50
0.0
 51
90.0
  0
LINE
  5
9D
330
1F
100
AcDbEntity
  8
0
  6
CONTINUOUS
 62
     7
100
AcDbLine
 10
43.2113082676
 20
1.5730617809
 30
0.0
 11
43.2113082676
 21
2.0356602636
 31
0.0
  0
ARC
  5
9E
330
1F
100
AcDbEntity
  8
0
  6
CONTINUOUS
 62
     7
100
AcDbCircle
 10
43.1719386401
 20
1.5730617922
 30
0.0
 40
0.0393700787401574
100
AcDbArc
 50
270.0
 51
0.0
  0
LINE
  5
9F
330
1F
100
AcDbEntity
  8
0
  6
CONTINUOUS
 62
     7
100
AcDbLine
 10
43.171936349
 20
1.533691769
 30
0.0
 11
42.7286326701
 21
1.533691769
 31
0.0
  0
LINE
  5
A0
330
1F
100
AcDbEntity
  8
0
  6
CONTINUOUS
 62
     7
100
AcDbLine
 10
42.7286326701
 20
1.533691769
 30
0.0
 11
42.7128820254
 21
1.7797546732
 31
0.0
  0
LINE
  5
A1
330
1F
100
AcDbEntity
  8
0
  6
CONTINUOUS
 62
     7
100
AcDbLine
 10
42.7128820254
 20
1.7797546732
 30
0.0
 11
42.355409035
 21
1.7797546732
 31
0.0
  0
ARC
  5
A2
330
1F
100
AcDbEntity
  8
0
  6
CONTINUOUS
 62
     7
100
AcDbCircle
 10
42.3554112085
 20
1.8191247843
 30
0.0
 40
0.0393700787401574
100
AcDbArc
 50
244.7125991044
 51
270.0
  0
ARC
  5
A3
330
1F
100
AcDbEntity
  8
0
  6
CONTINUOUS
 62
     7
100
AcDbCircle
 10
42.2570721322
 20
1.6109684026
 30
0.0
 40
0.1908464566929156
100
AcDbArc
 50
64.7125991044
 51
252.4587608814
  0
ARC
  5
A4
330
1F
100
AcDbEntity
  8
0
  6
CONTINUOUS
 62
     7
100
AcDbCircle
 10
42.1876866716
 20
1.3914568743
 30
0.0
 40
0.0393700787401552
100
AcDbArc
 50
0.0
 51
72.4587608814
  0
LINE
  5
A5
330
1F
100
AcDbEntity
  8
0
  6
CONTINUOUS
 62
     7
100
AcDbLine
 10
42.2270572377
 20
1.2875499591
 30
0.0
 11
42.2270572377
 21
1.3914568121
 31
0.0
  0
LINE
  5
A6
330
1F
100
AcDbEntity
  8
0
  6
CONTINUOUS
 62
     7
100
AcDbLine
 10
40.152252406
 20
3.1408472697
 30
0.0
 11
40.152252406
 21
1.4783964345
 31
0.0
  0
ARC
  5
A7
330
1F
100
AcDbEntity
  8
0
  6
CONTINUOUS
 62
     7
100
AcDbCircle
 10
39.9614071441
 20
3.1408472375
 30
0.0
 40
0.1908464566929169
100
AcDbArc
 50
0.0
 51
90.0
  0
LINE
  5
A8
330
1F
100
AcDbEntity
  8
0
  6
CONTINUOUS
 62
     7
100
AcDbLine
 10
39.5714450356
 20
3.3316935984
 30
0.0
 11
39.961404904
 21
3.3316935984
 31
0.0
  0
ARC
  5
A9
330
1F
100
AcDbEntity
  8
0
  6
CONTINUOUS
 62
     7
100
AcDbCircle
 10
39.5714465141
 20
3.1408472375
 30
0.0
 40
0.1908464566929111
100
AcDbArc
 50
90.0
 51
180.0
  0
LINE
  5
AA
330
1F
100
AcDbEntity
  8
0
  6
CONTINUOUS
 62
     7
100
AcDbLine
 10
39.3805998802
 20
1.4783964345
 30
0.0
 11
39.3805998802
 21
3.1408472697
 31
0.0
  0
LINE
  5
AB
330
1F
100
AcDbEntity
  8
0
  6
CONTINUOUS
 62
     7
100
AcDbLine
 10
37.3057973952
 20
1.3914568121
 30
0.0
 11
37.3057973952
 21
1.2875499591
 31
0.0
  0
ARC
  5
AC
330
1F
100
AcDbEntity
  8
0
  6
CONTINUOUS
 62
     7
100
AcDbCircle
 10
37.3451669866
 20
1.3914568743
 30
0.0
 40
0.0393700787401627
100
AcDbArc
 50
107.5412391186
 51
180.0
  0
ARC
  5
AD
330
1F
100
AcDbEntity
  8
0
  6
CONTINUOUS
 62
     7
100
AcDbCircle
 10
37.275781526
 20
1.6109684026
 30
0.0
 40
0.1908464566929128
100
AcDbArc
 50
287.5412391186
 51
115.2874008956
  0
ARC
  5
AE
330
1F
100
AcDbEntity
  8
0
  6
CONTINUOUS
 62
     7
100
AcDbCircle
 10
37.1774424497
 20
1.8191247843
 30
0.0
 40
0.0393700787401598
100
AcDbArc
 50
270.0
 51
295.2874008956
  0
LINE
  5
AF
330
1F
100
AcDbEntity
  8
0
  6
CONTINUOUS
 62
     7
100
AcDbLine
 10
37.1774432513
 20
1.7797546732
 30
0.0
 11
36.8199702608
 21
1.7797546732
 31
0.0
  0
LINE
  5
B0
330
1F
100
AcDbEntity
  8
0
  6
CONTINUOUS
 62
     7
100
AcDbLine
 10
36.8199702608
 20
1.7797546732
 30
0.0
 11
36.8042219628
 21
1.533691769
 31
0.0
  0
LINE
  5
B1
330
1F
100
AcDbEntity
  8
0
  6
CONTINUOUS
 62
     7
100
AcDbLine
 10
36.8042219628
 20
1.533691769
 30
0.0
 11
36.3609159372
 21
1.533691769
 31
0.0
  0
ARC
  5
B2
330
1F
100
AcDbEntity
  8
0
  6
CONTINUOUS
 62
     7
100
AcDbCircle
 10
36.3609150181
 20
1.5730617922
 30
0.0
 40
0.0393700787401574
100
AcDbArc
 50
180.0
 51
270.0
  0
LINE
  5
B3
330
1F
100
AcDbEntity
  8
0
  6
CONTINUOUS
 62
     7
100
AcDbLine
 10
36.3215440187
 20
2.0356602636
 30
0.0
 11
36.3215440187
 21
1.5730617809
 31
0.0
  0
ARC
  5
B4
330
1F
100
AcDbEntity
  8
0
  6
CONTINUOUS
 62
     7
100
AcDbCircle
 10
36.5577654118
 20
2.0356602173
 30
0.0
 40
0.2362204724409409
100
AcDbArc
 50
90.0
 51
180.0
  0
LINE
  5
B5
330
1F
100
AcDbEntity
  8
0
  6
CONTINUOUS
 62
     7
100
AcDbLine
 10
38.6443792651
 20
2.2718806281
 30
0.0
 11
36.5577661432
 21
2.2718806281
 31
0.0
  0
ARC
  5
B6
330
1F
100
AcDbEntity
  8
0
  6
CONTINUOUS
 62
     7
100
AcDbCircle
 10
38.644379585
 20
2.5081011622
 30
0.0
 40
0.236220472440948
100
AcDbArc
 50
270.0
 51
0.0
  0
LINE
  5
B7
330
1F
100
AcDbEntity
  8
0
  6
CONTINUOUS
 62
     7
100
AcDbLine
 10
38.8805990429
 20
3.3316935984
 30
0.0
 11
38.8805990429
 21
2.5081011392
 31
0.0
  0
ARC
  5
B8
330
1F
100
AcDbEntity
  8
0
  6
CONTINUOUS
 62
     7
100
AcDbCircle
 10
39.3806000575
 20
3.3316936941
 30
0.0
 40
0.5
100
AcDbArc
 50
120.0
 51
180.0
  0
ARC
  5
B9
330
1F
100
AcDbEntity
  8
0
  6
CONTINUOUS
 62
     7
100
AcDbCircle
 10
38.8806000575
 20
4.1977190979
 30
0.0
 40
0.5000000000000026
100
AcDbArc
 50
300.0
 51
0.0
  0
LINE
  5
BA
330
1F
100
AcDbEntity
  8
0
  6
CONTINUOUS
 62
     7
100
AcDbLine
 10
39.3805998802
 20
4.3189656333
 30
0.0
 11
39.3805998802
 21
4.1977191673
 31
0.0
  0
ARC
  5
BB
330
1F
100
AcDbEntity
  8
0
  6
CONTINUOUS
 62
     7
100
AcDbCircle
 10
38.8806000575
 20
4.3189655467
 30
0.0
 40
0.4999999999999987
100
AcDbArc
 50
0.0
 51
60.0
  0
ARC
  5
BC
330
1F
100
AcDbEntity
  8
0
  6
CONTINUOUS
 62
     7
100
AcDbCircle
 10
39.3806000575
 20
5.1849909505
 30
0.0
 40
0.4999999999999952
100
AcDbArc
 50
180.0
 51
240.0
  0
LINE
  5
BD
330
1F
100
AcDbEntity
  8
0
  6
CONTINUOUS
 62
     7
100
AcDbLine
 10
38.8805990429
 20
6.0085836614
 30
0.0
 11
38.8805990429
 21
5.1849912022
 31
0.0
  0
ARC
  5
BE
330
1F
100
AcDbEntity
  8
0
  6
CONTINUOUS
 62
     7
100
AcDbCircle
 10
38.644379585
 20
6.0085834824
 30
0.0
 40
0.236220472440948
100
AcDbArc
 50
0.0
 51
90.0
  0
LINE
  5
BF
330
1F
100
AcDbEntity
  8
0
  6
CONTINUOUS
 62
     7
100
AcDbLine
 10
36.5577661432
 20
6.2448040259
 30
0.0
 11
38.6443792651
 21
6.2448040259
 31
0.0
  0
ARC
  5
C0
330
1F
100
AcDbEntity
  8
0
  6
CONTINUOUS
 62
     7
100
AcDbCircle
 10
36.5577654118
 20
6.4810244273
 30
0.0
 40
0.236220472440948
100
AcDbArc
 50
180.0
 51
270.0
  0
LINE
  5
C1
330
1F
100
AcDbEntity
  8
0
  6
CONTINUOUS
 62
     7
100
AcDbLine
 10
36.3215440187
 20
6.9436227264
 30
0.0
 11
36.3215440187
 21
6.4810243904
 31
0.0
  0
ARC
  5
C2
330
1F
100
AcDbEntity
  8
0
  6
CONTINUOUS
 62
     7
100
AcDbCircle
 10
36.3609150181
 20
6.9436228525
 30
0.0
 40
0.0393700787401627
100
AcDbArc
 50
90.0
 51
180.0
  0
LINE
  5
C3
330
1F
100
AcDbEntity
  8
0
  6
CONTINUOUS
 62
     7
100
AcDbLine
 10
36.3609159372
 20
6.9829928849
 30
0.0
 11
36.8042219628
 21
6.9829928849
 31
0.0
  0
LINE
  5
C4
330
1F
100
AcDbEntity
  8
0
  6
CONTINUOUS
 62
     7
100
AcDbLine
 10
37.3057973952
 20
1.2875499591
 30
0.0
 11
39.1897547249
 21
1.2875499591
 31
0.0
  0
ARC
  5
C5
330
1F
100
AcDbEntity
  8
0
  6
CONTINUOUS
 62
     7
100
AcDbCircle
 10
40.3431000575
 20
1.4783964378
 30
0.0
 40
0.1908464566929136
100
AcDbArc
 50
180.0
 51
270.0
  0
ARC
  5
C6
330
1F
100
AcDbEntity
  8
0
  6
CONTINUOUS
 62
     7
100
AcDbCircle
 10
39.1897536008
 20
1.4783964378
 30
0.0
 40
0.1908464566929136
100
AcDbArc
 50
270.0
 51
0.0
  0
LINE
  5
C7
330
1F
100
AcDbEntity
  8
0
  6
CONTINUOUS
 62
     7
100
AcDbLine
 10
40.343099908
 20
1.2875499591
 30
0.0
 11
42.2270572377
 21
1.2875499591
 31
0.0
  0
LINE
  5
C8
330
1F
100
AcDbEntity
  8
0
  6
CONTINUOUS
 62
     7
100
AcDbLine
 10
42.7286326701
 20
9.0440164891
 30
0.0
 11
42.7128820254
 21
9.2900798332
 31
0.0
  0
LINE
  5
C9
330
1F
100
AcDbEntity
  8
0
  6
CONTINUOUS
 62
     7
100
AcDbLine
 10
42.7128820254
 20
9.2900798332
 30
0.0
 11
42.355409035
 21
9.2900798332
 31
0.0
  0
ARC
  5
CA
330
1F
100
AcDbEntity
  8
0
  6
CONTINUOUS
 62
     7
100
AcDbCircle
 10
42.3554112085
 20
9.3294496241
 30
0.0
 40
0.0393700787401594
100
AcDbArc
 50
244.7125991044
 51
270.0
  0
ARC
  5
CB
330
1F
100
AcDbEntity
  8
0
  6
CONTINUOUS
 62
     7
100
AcDbCircle
 10
42.2570721322
 20
9.1212932424
 30
0.0
 40
0.1908464566929145
100
AcDbArc
 50
64.7125991044
 51
252.4587608814
  0
ARC
  5
CC
330
1F
100
AcDbEntity
  8
0
  6
CONTINUOUS
 62
     7
100
AcDbCircle
 10
42.1876866716
 20
8.9017817141
 30
0.0
 40
0.0393700787401575
100
AcDbArc
 50
0.0
 51
72.4587608814
  0
LINE
  5
CD
330
1F
100
AcDbEntity
  8
0
  6
CONTINUOUS
 62
     7
100
AcDbLine
 10
42.2270572377
 20
8.7978745326
 30
0.0
 11
42.2270572377
 21
8.9017819722
 31
0.0
  0
LINE
  5
CE
330
1F
100
AcDbEntity
  8
0
  6
CONTINUOUS
 62
     7
100
AcDbLine
 10
40.343099908
 20
8.7978745326
 30
0.0
 11
42.2270572377
 21
8.7978745326
 31
0.0
  0
ARC
  5
CF
330
1F
100
AcDbEntity
  8
0
  6
CONTINUOUS
 62
     7
100
AcDbCircle
 10
40.3431000575
 20
8.9887212777
 30
0.0
 40
0.1908464566929169
100
AcDbArc
 50
180.0
 51
270.0
  0
LINE
  5
D0
330
1F
100
AcDbEntity
  8
0
  6
CONTINUOUS
 62
     7
100
AcDbLine
 10
40.152252406
 20
10.6511718431
 30
0.0
 11
40.152252406
 21
8.9887214479
 31
0.0
  0
ARC
  5
D1
330
1F
100
AcDbEntity
  8
0
  6
CONTINUOUS
 62
     7
100
AcDbCircle
 10
39.9614071441
 20
10.6511720773
 30
0.0
 40
0.1908464566929133
100
AcDbArc
 50
0.0
 51
90.0
  0
LINE
  5
D2
330
1F
100
AcDbEntity
  8
0
  6
CONTINUOUS
 62
     7
100
AcDbLine
 10
39.5714450356
 20
10.8420181718
 30
0.0
 11
39.961404904
 21
10.8420181718
 31
0.0
  0
ARC
  5
D3
330
1F
100
AcDbEntity
  8
0
  6
CONTINUOUS
 62
     7
100
AcDbCircle
 10
39.5714465141
 20
10.6511720773
 30
0.0
 40
0.1908464566929133
100
AcDbArc
 50
90.0
 51
180.0
  0
LINE
  5
D4
330
1F
100
AcDbEntity
  8
0
  6
CONTINUOUS
 62
     7
100
AcDbLine
 10
39.3805998802
 20
8.9887214479
 30
0.0
 11
39.3805998802
 21
10.6511718431
 31
0.0
  0
ARC
  5
D5
330
1F
100
AcDbEntity
  8
0
  6
CONTINUOUS
 62
     7
100
AcDbCircle
 10
39.1897536008
 20
8.9887212777
 30
0.0
 40
0.1908464566929169
100
AcDbArc
 50
270.0
 51
0.0
  0
LINE
  5
D6
330
1F
100
AcDbEntity
  8
0
  6
CONTINUOUS
 62
     7
100
AcDbLine
 10
37.3057973952
 20
8.7978745326
 30
0.0
 11
39.1897547249
 21
8.7978745326
 31
0.0
  0
LINE
  5
D7
330
1F
100
AcDbEntity
  8
0
  6
CONTINUOUS
 62
     7
100
AcDbLine
 10
37.3057973952
 20
8.9017819722
 30
0.0
 11
37.3057973952
 21
8.7978745326
 31
0.0
  0
ARC
  5
D8
330
1F
100
AcDbEntity
  8
0
  6
CONTINUOUS
 62
     7
100
AcDbCircle
 10
37.3451669866
 20
8.9017817141
 30
0.0
 40
0.0393700787401596
100
AcDbArc
 50
107.5412391186
 51
180.0
  0
ARC
  5
D9
330
1F
100
AcDbEntity
  8
0
  6
CONTINUOUS
 62
     7
100
AcDbCircle
 10
37.275781526
 20
9.1212932424
 30
0.0
 40
0.1908464566929128
100
AcDbArc
 50
287.5412391186
 51
115.2874008956
  0
ARC
  5
DA
330
1F
100
AcDbEntity
  8
0
  6
CONTINUOUS
 62
     7
100
AcDbCircle
 10
37.1774424497
 20
9.3294496241
 30
0.0
 40
0.0393700787401592
100
AcDbArc
 50
270.0
 51
295.2874008956
  0
LINE
  5
DB
330
1F
100
AcDbEntity
  8
0
  6
CONTINUOUS
 62
     7
100
AcDbLine
 10
37.1774432513
 20
9.2900798332
 30
0.0
 11
36.8199702608
 21
9.2900798332
 31
0.0
  0
LINE
  5
DC
330
1F
100
AcDbEntity
  8
0
  6
CONTINUOUS
 62
     7
100
AcDbLine
 10
36.8199702608
 20
9.2900798332
 30
0.0
 11
36.8042219628
 21
9.0440164891
 31
0.0
  0
LINE
  5
DD
330
1F
100
AcDbEntity
  8
0
  6
CONTINUOUS
 62
     7
100
AcDbLine
 10
36.8042219628
 20
9.0440164891
 30
0.0
 11
36.3609159372
 21
9.0440164891
 31
0.0
  0
ARC
  5
DE
330
1F
100
AcDbEntity
  8
0
  6
CONTINUOUS
 62
     7
100
AcDbCircle
 10
36.3609150181
 20
9.083386632
 30
0.0
 40
0.0393700787401574
100
AcDbArc
 50
180.0
 51
270.0
  0
LINE
  5
DF
330
1F
100
AcDbEntity
  8
0
  6
CONTINUOUS
 62
     7
100
AcDbLine
 10
36.3215440187
 20
9.5459849837
 30
0.0
 11
36.3215440187
 21
9.0833866476
 31
0.0
  0
ARC
  5
E0
330
1F
100
AcDbEntity
  8
0
  6
CONTINUOUS
 62
     7
100
AcDbCircle
 10
36.5577654118
 20
9.5459850572
 30
0.0
 40
0.2362204724409462
100
AcDbArc
 50
90.0
 51
180.0
  0
LINE
  5
E1
330
1F
100
AcDbEntity
  8
0
  6
CONTINUOUS
 62
     7
100
AcDbLine
 10
38.6443792651
 20
9.7822053482
 30
0.0
 11
36.5577661432
 21
9.7822053482
 31
0.0
  0
ARC
  5
E2
330
1F
100
AcDbEntity
  8
0
  6
CONTINUOUS
 62
     7
100
AcDbCircle
 10
38.644379585
 20
10.0184260021
 30
0.0
 40
0.236220472440948
100
AcDbArc
 50
270.0
 51
0.0
  0
LINE
  5
E3
330
1F
100
AcDbEntity
  8
0
  6
CONTINUOUS
 62
     7
100
AcDbLine
 10
38.8805990429
 20
10.8420181718
 30
0.0
 11
38.8805990429
 21
10.0184262993
 31
0.0
  0
ARC
  5
E4
330
1F
100
AcDbEntity
  8
0
  6
CONTINUOUS
 62
     7
100
AcDbCircle
 10
39.3806000575
 20
10.842018534
 30
0.0
 40
0.5
100
AcDbArc
 50
120.0
 51
180.0
  0
ARC
  5
E5
330
1F
100
AcDbEntity
  8
0
  6
CONTINUOUS
 62
     7
100
AcDbCircle
 10
38.8806000575
 20
11.7080439378
 30
0.0
 40
0.5
100
AcDbArc
 50
300.0
 51
0.0
  0
LINE
  5
E6
330
1F
100
AcDbEntity
  8
0
  6
CONTINUOUS
 62
     7
100
AcDbLine
 10
39.3805998802
 20
11.8292905001
 30
0.0
 11
39.3805998802
 21
11.7080443274
 31
0.0
  0
ARC
  5
E7
330
1F
100
AcDbEntity
  8
0
  6
CONTINUOUS
 62
     7
100
AcDbCircle
 10
38.8806000575
 20
11.8292903865
 30
0.0
 40
0.5
100
AcDbArc
 50
0.0
 51
60.0
  0
ARC
  5
E8
330
1F
100
AcDbEntity
  8
0
  6
CONTINUOUS
 62
     7
100
AcDbCircle
 10
39.3806000575
 20
12.6953157903
 30
0.0
 40
0.5000000000000014
100
AcDbArc
 50
180.0
 51
240.0
  0
LINE
  5
E9
330
1F
100
AcDbEntity
  8
0
  6
CONTINUOUS
 62
     7
100
AcDbLine
 10
38.8805990429
 20
13.5189085281
 30
0.0
 11
38.8805990429
 21
12.6953154823
 31
0.0
  0
ARC
  5
EA
330
1F
100
AcDbEntity
  8
0
  6
CONTINUOUS
 62
     7
100
AcDbCircle
 10
38.644379585
 20
13.5189083222
 30
0.0
 40
0.236220472440948
100
AcDbArc
 50
0.0
 51
90.0
  0
LINE
  5
EB
330
1F
100
AcDbEntity
  8
0
  6
CONTINUOUS
 62
     7
100
AcDbLine
 10
36.5577661432
 20
13.7551283059
 30
0.0
 11
38.6443792651
 21
13.7551283059
 31
0.0
  0
ARC
  5
EC
330
1F
100
AcDbEntity
  8
0
  6
CONTINUOUS
 62
     7
100
AcDbCircle
 10
36.5577654118
 20
13.9913492671
 30
0.0
 40
0.2362204724409445
100
AcDbArc
 50
180.0
 51
270.0
  0
LINE
  5
ED
330
1F
100
AcDbEntity
  8
0
  6
CONTINUOUS
 62
     7
100
AcDbLine
 10
36.3215440187
 20
14.4539481798
 30
0.0
 11
36.3215440187
 21
13.9913492571
 31
0.0
  0
ARC
  5
EE
330
1F
100
AcDbEntity
  8
0
  6
CONTINUOUS
 62
     7
100
AcDbCircle
 10
36.3609150181
 20
14.4539476923
 30
0.0
 40
0.0393700787401574
100
AcDbArc
 50
90.0
 51
180.0
  0
LINE
  5
EF
330
1F
100
AcDbEntity
  8
0
  6
CONTINUOUS
 62
     7
100
AcDbLine
 10
36.3609159372
 20
14.4933177517
 30
0.0
 11
36.8042219628
 21
14.4933177517
 31
0.0
  0
LINE
  5
F0
330
1F
100
AcDbEntity
  8
0
  6
CONTINUOUS
 62
     7
100
AcDbLine
 10
36.8042219628
 20
14.4933177517
 30
0.0
 11
36.8199702608
 21
14.2472549942
 31
0.0
  0
LINE
  5
F1
330
1F
100
AcDbEntity
  8
0
  6
CONTINUOUS
 62
     7
100
AcDbLine
 10
36.8199702608
 20
14.2472549942
 30
0.0
 11
37.1774432513
 21
14.2472549942
 31
0.0
  0
ARC
  5
F2
330
1F
100
AcDbEntity
  8
0
  6
CONTINUOUS
 62
     7
100
AcDbCircle
 10
37.1774424497
 20
14.2078847002
 30
0.0
 40
0.0393700787401574
100
AcDbArc
 50
64.7125991044
 51
90.0
  0
ARC
  5
F3
330
1F
100
AcDbEntity
  8
0
  6
CONTINUOUS
 62
     7
100
AcDbCircle
 10
37.275781526
 20
14.4160410819
 30
0.0
 40
0.190846456692914
100
AcDbArc
 50
244.7125991044
 51
72.4587608814
  0
ARC
  5
F4
330
1F
100
AcDbEntity
  8
0
  6
CONTINUOUS
 62
     7
100
AcDbCircle
 10
37.3451669866
 20
14.6355526102
 30
0.0
 40
0.0393700787401579
100
AcDbArc
 50
180.0
 51
252.4587608814
  0
LINE
  5
F5
330
1F
100
AcDbEntity
  8
0
  6
CONTINUOUS
 62
     7
100
AcDbLine
 10
37.3057973952
 20
14.7394591215
 30
0.0
 11
37.3057973952
 21
14.6355522685
 31
0.0
  0
LINE
  5
F6
330
1F
100
AcDbEntity
  8
0
  6
CONTINUOUS
 62
     7
100
AcDbLine
 10
39.1897547249
 20
14.7394591215
 30
0.0
 11
37.3057973952
 21
14.7394591215
 31
0.0
  0
ARC
  5
F7
330
1F
100
AcDbEntity
  8
0
  6
CONTINUOUS
 62
     7
100
AcDbCircle
 10
39.1897536008
 20
14.5486130466
 30
0.0
 40
0.1908464566929133
100
AcDbArc
 50
0.0
 51
90.0
  0
LINE
  5
F8
330
1F
100
AcDbEntity
  8
0
  6
CONTINUOUS
 62
     7
100
AcDbLine
 10
39.3805998802
 20
12.886161811
 30
0.0
 11
39.3805998802
 21
14.5486127929
 31
0.0
  0
ARC
  5
F9
330
1F
100
AcDbEntity
  8
0
  6
CONTINUOUS
 62
     7
100
AcDbCircle
 10
39.5714465141
 20
12.886162247
 30
0.0
 40
0.1908464566929169
100
AcDbArc
 50
180.0
 51
270.0
  0
LINE
  5
FA
330
1F
100
AcDbEntity
  8
0
  6
CONTINUOUS
 62
     7
100
AcDbLine
 10
39.961404904
 20
12.6953154823
 30
0.0
 11
39.5714450356
 21
12.6953154823
 31
0.0
  0
ARC
  5
FB
330
1F
100
AcDbEntity
  8
0
  6
CONTINUOUS
 62
     7
100
AcDbCircle
 10
39.9614071441
 20
12.886162247
 30
0.0
 40
0.1908464566929151
100
AcDbArc
 50
270.0
 51
0.0
  0
LINE
  5
FC
330
1F
100
AcDbEntity
  8
0
  6
CONTINUOUS
 62
     7
100
AcDbLine
 10
40.152252406
 20
14.5486127929
 30
0.0
 11
40.152252406
 21
12.886161811
 31
0.0
  0
ARC
  5
FD
330
1F
100
AcDbEntity
  8
0
  6
CONTINUOUS
 62
     7
100
AcDbCircle
 10
40.3431000575
 20
14.5486130466
 30
0.0
 40
0.1908464566929133
100
AcDbArc
 50
90.0
 51
180.0
  0
LINE
  5
FE
330
1F
100
AcDbEntity
  8
0
  6
CONTINUOUS
 62
     7
100
AcDbLine
 10
42.2270572377
 20
14.7394591215
 30
0.0
 11
40.343099908
 21
14.7394591215
 31
0.0
  0
LINE
  5
FF
330
1F
100
AcDbEntity
  8
0
  6
CONTINUOUS
 62
     7
100
AcDbLine
 10
42.2270572377
 20
14.6355522685
 30
0.0
 11
42.2270572377
 21
14.7394591215
 31
0.0
  0
ARC
  5
100
330
1F
100
AcDbEntity
  8
0
  6
CONTINUOUS
 62
     7
100
AcDbCircle
 10
42.1876866716
 20
14.6355526102
 30
0.0
 40
0.0393700787401558
100
AcDbArc
 50
287.5412391186
 51
0.0
  0
ARC
  5
101
330
1F
100
AcDbEntity
  8
0
  6
CONTINUOUS
 62
     7
100
AcDbCircle
 10
42.2570721322
 20
14.4160410819
 30
0.0
 40
0.1908464566929145
100
AcDbArc
 50
107.5412391186
 51
295.2874008956
  0
ARC
  5
102
330
1F
100
AcDbEntity
  8
0
  6
CONTINUOUS
 62
     7
100
AcDbCircle
 10
42.3554112085
 20
14.2078847002
 30
0.0
 40
0.0393700787401596
100
AcDbArc
 50
90.0
 51
115.2874008956
  0
LINE
  5
103
330
1F
100
AcDbEntity
  8
0
  6
CONTINUOUS
 62
     7
100
AcDbLine
 10
42.355409035
 20
14.2472549942
 30
0.0
 11
42.7128820254
 21
14.2472549942
 31
0.0
  0
LINE
  5
104
330
1F
100
AcDbEntity
  8
0
  6
CONTINUOUS
 62
     7
100
AcDbLine
 10
42.7128820254
 20
14.2472549942
 30
0.0
 11
42.7286326701
 21
14.4933177517
 31
0.0
  0
LINE
  5
105
330
1F
100
AcDbEntity
  8
0
  6
CONTINUOUS
 62
     7
100
AcDbLine
 10
42.7286326701
 20
14.4933177517
 30
0.0
 11
43.171936349
 21
14.4933177517
 31
0.0
  0
ARC
  5
106
330
1F
100
AcDbEntity
  8
0
  6
CONTINUOUS
 62
     7
100
AcDbCircle
 10
43.1719386401
 20
14.4539476923
 30
0.0
 40
0.0393700787401574
100
AcDbArc
 50
0.0
 51
90.0
  0
LINE
  5
107
330
1F
100
AcDbEntity
  8
0
  6
CONTINUOUS
 62
     7
100
AcDbLine
 10
43.2113082676
 20
13.9913492571
 30
0.0
 11
43.2113082676
 21
14.4539481798
 31
0.0
  0
ARC
  5
108
330
1F
100
AcDbEntity
  8
0
  6
CONTINUOUS
 62
     7
100
AcDbCircle
 10
42.9750882464
 20
13.9913492671
 30
0.0
 40
0.2362204724409462
100
AcDbArc
 50
270.0
 51
0.0
  0
LINE
  5
109
330
1F
100
AcDbEntity
  8
0
  6
CONTINUOUS
 62
     7
100
AcDbLine
 10
40.8884730211
 20
13.7551283059
 30
0.0
 11
42.9750861431
 21
13.7551283059
 31
0.0
  0
ARC
  5
10A
330
1F
100
AcDbEntity
  8
0
  6
CONTINUOUS
 62
     7
100
AcDbCircle
 10
40.8884740732
 20
13.5189083222
 30
0.0
 40
0.2362204724409445
100
AcDbArc
 50
90.0
 51
180.0
  0
LINE
  5
10B
330
1F
100
AcDbEntity
  8
0
  6
CONTINUOUS
 62
     7
100
AcDbLine
 10
40.6522555899
 20
12.6953154823
 30
0.0
 11
40.6522555899
 21
13.5189085281
 31
0.0
  0
ARC
  5
10C
330
1F
100
AcDbEntity
  8
0
  6
CONTINUOUS
 62
     7
100
AcDbCircle
 10
40.1522536008
 20
12.6953157903
 30
0.0
 40
0.5000000000000061
100
AcDbArc
 50
300.0
 51
0.0
  0
ARC
  5
10D
330
1F
100
AcDbEntity
  8
0
  6
CONTINUOUS
 62
     7
100
AcDbCircle
 10
40.6522536008
 20
11.8292903865
 30
0.0
 40
0.5
100
AcDbArc
 50
120.0
 51
180.0
  0
LINE
  5
10E
330
1F
100
AcDbEntity
  8
0
  6
CONTINUOUS
 62
     7
100
AcDbLine
 10
40.152252406
 20
11.7080443274
 30
0.0
 11
40.152252406
 21
11.8292905001
 31
0.0
  0
ARC
  5
10F
330
1F
100
AcDbEntity
  8
0
  6
CONTINUOUS
 62
     7
100
AcDbCircle
 10
40.6522536008
 20
11.7080439378
 30
0.0
 40
0.5
100
AcDbArc
 50
180.0
 51
240.0
  0
ARC
  5
110
330
1F
100
AcDbEntity
  8
0
  6
CONTINUOUS
 62
     7
100
AcDbCircle
 10
40.1522536008
 20
10.842018534
 30
0.0
 40
0.5000000000000014
100
AcDbArc
 50
0.0
 51
60.0
  0
LINE
  5
111
330
1F
100
AcDbEntity
  8
0
  6
CONTINUOUS
 62
     7
100
AcDbLine
 10
40.6522555899
 20
10.0184262993
 30
0.0
 11
40.6522555899
 21
10.8420181718
 31
0.0
  0
ARC
  5
112
330
1F
100
AcDbEntity
  8
0
  6
CONTINUOUS
 62
     7
100
AcDbCircle
 10
40.8884740732
 20
10.0184260021
 30
0.0
 40
0.2362204724409462
100
AcDbArc
 50
180.0
 51
270.0
  0
LINE
  5
113
330
1F
100
AcDbEntity
  8
0
  6
CONTINUOUS
 62
     7
100
AcDbLine
 10
42.9750861431
 20
9.7822053482
 30
0.0
 11
40.8884730211
 21
9.7822053482
 31
0.0
  0
ARC
  5
114
330
1F
100
AcDbEntity
  8
0
  6
CONTINUOUS
 62
     7
100
AcDbCircle
 10
42.9750882464
 20
9.5459850572
 30
0.0
 40
0.2362204724409445
100
AcDbArc
 50
0.0
 51
90.0
  0
LINE
  5
115
330
1F
100
AcDbEntity
  8
0
  6
CONTINUOUS
 62
     7
100
AcDbLine
 10
43.2113082676
 20
9.0833866476
 30
0.0
 11
43.2113082676
 21
9.5459849837
 31
0.0
  0
ARC
  5
116
330
1F
100
AcDbEntity
  8
0
  6
CONTINUOUS
 62
     7
100
AcDbCircle
 10
43.1719386401
 20
9.083386632
 30
0.0
 40
0.0393700787401574
100
AcDbArc
 50
270.0
 51
0.0
  0
LINE
  5
117
330
1F
100
AcDbEntity
  8
0
  6
CONTINUOUS
 62
     7
100
AcDbLine
 10
43.171936349
 20
9.0440164891
 30
0.0
 11
42.7286326701
 21
9.0440164891
 31
0.0
  0
LINE
  5
118
330
1F
100
AcDbEntity
  8
0
  6
CONTINUOUS
 62
     7
100
AcDbLine
 10
34.7526465161
 20
9.4735717935
 30
0.0
 11
34.7526465161
 21
10.3373698149
 31
0.0
  0
LINE
  5
119
330
1F
100
AcDbEntity
  8
0
  6
CONTINUOUS
 62
     7
100
AcDbLine
 10
29.3589471179
 20
9.4735717935
 30
0.0
 11
34.7526465161
 21
9.4735717935
 31
0.0
  0
LINE
  5
11A
330
1F
100
AcDbEntity
  8
0
  6
CONTINUOUS
 62
     7
100
AcDbLine
 10
29.3589471179
 20
10.3373698149
 30
0.0
 11
29.3589471179
 21
9.4735717935
 31
0.0
  0
LINE
  5
11B
330
1F
100
AcDbEntity
  8
0
  6
CONTINUOUS
 62
     7
100
AcDbLine
 10
29.3589471179
 20
10.3373698149
 30
0.0
 11
34.7526465161
 21
10.3373698149
 31
0.0
  0
LINE
  5
11C
330
1F
100
AcDbEntity
  8
0
  6
CONTINUOUS
 62
     7
100
AcDbLine
 10
34.7526465161
 20
10.8895904222
 30
0.0
 11
29.3589471179
 21
10.8895904222
 31
0.0
  0
LINE
  5
11D
330
1F
100
AcDbEntity
  8
0
  6
CONTINUOUS
 62
     7
100
AcDbLine
 10
29.3589471179
 20
15.8937664269
 30
0.0
 11
34.7526465161
 21
15.8937664269
 31
0.0
  0
LINE
  5
11E
330
1F
100
AcDbEntity
  8
0
  6
CONTINUOUS
 62
     7
100
AcDbLine
 10
29.3589471179
 20
15.8937664269
 30
0.0
 11
29.3589471179
 21
10.8895904222
 31
0.0
  0
LINE
  5
11F
330
1F
100
AcDbEntity
  8
0
  6
CONTINUOUS
 62
     7
100
AcDbLine
 10
34.7526465161
 20
10.8895904222
 30
0.0
 11
34.7526465161
 21
15.8937664269
 31
0.0
  0
LINE
  5
120
330
1F
100
AcDbEntity
  8
0
  6
CONTINUOUS
 62
     7
100
AcDbLine
 10
34.7526465161
 20
16.0906166329
 30
0.0
 11
29.3589471179
 21
16.0906166329
 31
0.0
  0
LINE
  5
121
330
1F
100
AcDbEntity
  8
0
  6
CONTINUOUS
 62
     7
100
AcDbLine
 10
29.3589471179
 20
16.0906166329
 30
0.0
 11
29.3589471179
 21
15.8937664269
 31
0.0
  0
LINE
  5
122
330
1F
100
AcDbEntity
  8
0
  6
CONTINUOUS
 62
     7
100
AcDbLine
 10
34.7526465161
 20
15.8937664269
 30
0.0
 11
34.7526465161
 21
16.0906166329
 31
0.0
  0
LINE
  5
123
330
1F
100
AcDbEntity
  8
0
  6
CONTINUOUS
 62
     7
100
AcDbLine
 10
29.3589471179
 20
10.3373698149
 30
0.0
 11
29.3589471179
 21
10.8895904222
 31
0.0
  0
LINE
  5
124
330
1F
100
AcDbEntity
  8
0
  6
CONTINUOUS
 62
     7
100
AcDbLine
 10
34.7526465161
 20
10.8895904222
 30
0.0
 11
34.7526465161
 21
10.3373698149
 31
0.0
  0
LINE
  5
125
330
1F
100
AcDbEntity
  8
0
  6
CONTINUOUS
 62
     7
100
AcDbLine
 10
29.3589471179
 20
1.2876287182
 30
0.0
 11
34.7526465161
 21
1.2876287182
 31
0.0
  0
LINE
  5
126
330
1F
100
AcDbEntity
  8
0
  6
CONTINUOUS
 62
     7
100
AcDbLine
 10
34.7526465161
 20
2.1514265929
 30
0.0
 11
29.3589471179
 21
2.1514265929
 31
0.0
  0
LINE
  5
127
330
1F
100
AcDbEntity
  8
0
  6
CONTINUOUS
 62
     7
100
AcDbLine
 10
34.7526465161
 20
1.2876287182
 30
0.0
 11
34.7526465161
 21
2.1514265929
 31
0.0
  0
LINE
  5
128
330
1F
100
AcDbEntity
  8
0
  6
CONTINUOUS
 62
     7
100
AcDbLine
 10
29.3589471179
 20
2.1514265929
 30
0.0
 11
29.3589471179
 21
1.2876287182
 31
0.0
  0
LINE
  5
129
330
1F
100
AcDbEntity
  8
0
  6
CONTINUOUS
 62
     7
100
AcDbLine
 10
29.3589471179
 20
2.7036472003
 30
0.0
 11
34.7526465161
 21
2.7036472003
 31
0.0
  0
LINE
  5
12A
330
1F
100
AcDbEntity
  8
0
  6
CONTINUOUS
 62
     7
100
AcDbLine
 10
29.3589471179
 20
7.7078234983
 30
0.0
 11
34.7526465161
 21
7.7078234983
 31
0.0
  0
LINE
  5
12B
330
1F
100
AcDbEntity
  8
0
  6
CONTINUOUS
 62
     7
100
AcDbLine
 10
34.7526465161
 20
2.7036472003
 30
0.0
 11
34.7526465161
 21
7.7078234983
 31
0.0
  0
LINE
  5
12C
330
1F
100
AcDbEntity
  8
0
  6
CONTINUOUS
 62
     7
100
AcDbLine
 10
29.3589471179
 20
7.7078234983
 30
0.0
 11
29.3589471179
 21
2.7036472003
 31
0.0
  0
LINE
  5
12D
330
1F
100
AcDbEntity
  8
0
  6
CONTINUOUS
 62
     7
100
AcDbLine
 10
34.7526465161
 20
7.9046742909
 30
0.0
 11
29.3589471179
 21
7.9046742909
 31
0.0
  0
LINE
  5
12E
330
1F
100
AcDbEntity
  8
0
  6
CONTINUOUS
 62
     7
100
AcDbLine
 10
34.7526465161
 20
7.7078234983
 30
0.0
 11
34.7526465161
 21
7.9046742909
 31
0.0
  0
LINE
  5
12F
330
1F
100
AcDbEntity
  8
0
  6
CONTINUOUS
 62
     7
100
AcDbLine
 10
29.3589471179
 20
7.9046742909
 30
0.0
 11
29.3589471179
 21
7.7078234983
 31
0.0
  0
LINE
  5
130
330
1F
100
AcDbEntity
  8
0
  6
CONTINUOUS
 62
     7
100
AcDbLine
 10
34.7526465161
 20
2.7036472003
 30
0.0
 11
34.7526465161
 21
2.1514265929
 31
0.0
  0
LINE
  5
131
330
1F
100
AcDbEntity
  8
0
  6
CONTINUOUS
 62
     7
100
AcDbLine
 10
29.3589471179
 20
2.1514265929
 30
0.0
 11
29.3589471179
 21
2.7036472003
 31
0.0
  0
ARC
  5
132
330
1F
100
AcDbEntity
  8
0
  6
CONTINUOUS
 62
     7
100
AcDbCircle
 10
19.8243372999
 20
10.5617650872
 30
0.0
 40
0.1908464566929172
100
AcDbArc
 50
322.9805865283
 51
355.2874055479
  0
ARC
  5
133
330
1F
100
AcDbEntity
  8
0
  6
CONTINUOUS
 62
     7
100
AcDbCircle
 10
20.0537755542
 20
10.5428510533
 30
0.0
 40
0.0393700787401562
100
AcDbArc
 50
150.0
 51
175.2874055479
  0
LINE
  5
134
330
1F
100
AcDbEntity
  8
0
  6
CONTINUOUS
 62
     7
100
AcDbLine
 10
20.1342389625
 20
10.7609582015
 30
0.0
 11
20.0196807125
 21
10.562535747
 31
0.0
  0
ARC
  5
135
330
1F
100
AcDbEntity
  8
0
  6
CONTINUOUS
 62
     7
100
AcDbCircle
 10
20.1683348972
 20
10.7412725539
 30
0.0
 40
0.0393706297576695
100
AcDbArc
 50
124.7126345201
 51
150.0
  0
ARC
  5
136
330
1F
100
AcDbEntity
  8
0
  6
CONTINUOUS
 62
     7
100
AcDbCircle
 10
20.0372352901
 20
10.930515255
 30
0.0
 40
0.1908464566929144
100
AcDbArc
 50
304.7126345201
 51
132.4587642756
  0
ARC
  5
137
330
1F
100
AcDbEntity
  8
0
  6
CONTINUOUS
 62
     7
100
AcDbCircle
 10
19.8818254504
 20
11.1003605814
 30
0.0
 40
0.0393700787401572
100
AcDbArc
 50
240.0000176025
 51
312.4587642756
  0
LINE
  5
138
330
1F
100
AcDbEntity
  8
0
  6
CONTINUOUS
 62
     7
100
AcDbLine
 10
19.6823043433
 20
11.1700936352
 30
0.0
 11
19.8621402391
 21
11.0662653946
 31
0.0
  0
ARC
  5
139
330
1F
100
AcDbEntity
  8
0
  6
CONTINUOUS
 62
     7
100
AcDbCircle
 10
19.7019897822
 20
11.2041886792
 30
0.0
 40
0.0393700941976405
100
AcDbArc
 50
167.5412425128
 51
240.0000176025
  0
ARC
  5
13A
330
1F
100
AcDbEntity
  8
0
  6
CONTINUOUS
 62
     7
100
AcDbCircle
 10
19.4771944891
 20
11.2538548585
 30
0.0
 40
0.1908464412354298
100
AcDbArc
 50
347.5412425128
 51
175.2873777324
  0
ARC
  5
13B
330
1F
100
AcDbEntity
  8
0
  6
CONTINUOUS
 62
     7
100
AcDbCircle
 10
19.2477562967
 20
11.2727689994
 30
0.0
 40
0.0393700568547536
100
AcDbArc
 50
330.0
 51
355.2873777324
  0
LINE
  5
13C
330
1F
100
AcDbEntity
  8
0
  6
CONTINUOUS
 62
     7
100
AcDbLine
 10
19.1672932261
 20
11.0546624353
 30
0.0
 11
19.281851476
 21
11.2530837164
 31
0.0
  0
ARC
  5
13D
330
1F
100
AcDbEntity
  8
0
  6
CONTINUOUS
 62
     7
100
AcDbCircle
 10
19.1331973072
 20
11.0743470092
 30
0.0
 40
0.0393700787401584
100
AcDbArc
 50
304.7126037568
 51
330.0
  0
ARC
  5
13E
330
1F
100
AcDbEntity
  8
0
  6
CONTINUOUS
 62
     7
100
AcDbCircle
 10
19.2642964989
 20
10.8851046907
 30
0.0
 40
0.1908464566929165
100
AcDbArc
 50
124.7126037568
 51
157.0193863071
  0
LINE
  5
13F
330
1F
100
AcDbEntity
  8
0
  6
CONTINUOUS
 62
     7
100
AcDbLine
 10
19.0885963218
 20
10.95961532
 30
0.0
 11
16.5409928986
 21
12.4304749151
 31
0.0
  0
ARC
  5
140
330
1F
100
AcDbEntity
  8
0
  6
CONTINUOUS
 62
     7
100
AcDbCircle
 10
16.3886150327
 20
12.5453802631
 30
0.0
 40
0.1908464566929158
100
AcDbArc
 50
322.9805865283
 51
355.2874055479
  0
ARC
  5
141
330
1F
100
AcDbEntity
  8
0
  6
CONTINUOUS
 62
     7
100
AcDbCircle
 10
16.618053287
 20
12.5264662291
 30
0.0
 40
0.0393700787401571
100
AcDbArc
 50
150.0
 51
175.2874055479
  0
LINE
  5
142
330
1F
100
AcDbEntity
  8
0
  6
CONTINUOUS
 62
     7
100
AcDbLine
 10
16.6985169456
 20
12.74457262
 30
0.0
 11
16.5839575223
 21
12.5461513388
 31
0.0
  0
ARC
  5
143
330
1F
100
AcDbEntity
  8
0
  6
CONTINUOUS
 62
     7
100
AcDbCircle
 10
16.73261263
 20
12.7248877297
 30
0.0
 40
0.0393706297576655
100
AcDbArc
 50
124.7126345201
 51
150.0
  0
ARC
  5
144
330
1F
100
AcDbEntity
  8
0
  6
CONTINUOUS
 62
     7
100
AcDbCircle
 10
16.6015130229
 20
12.9141304308
 30
0.0
 40
0.190846456692915
100
AcDbArc
 50
304.7126345201
 51
132.4587642756
  0
ARC
  5
145
330
1F
100
AcDbEntity
  8
0
  6
CONTINUOUS
 62
     7
100
AcDbCircle
 10
16.4461031832
 20
13.0839757572
 30
0.0
 40
0.03937007874016
100
AcDbArc
 50
240.0000176025
 51
312.4587642756
  0
LINE
  5
146
330
1F
100
AcDbEntity
  8
0
  6
CONTINUOUS
 62
     7
100
AcDbLine
 10
16.2465823264
 20
13.1537080536
 30
0.0
 11
16.4264182222
 21
13.049879813
 31
0.0
  0
ARC
  5
147
330
1F
100
AcDbEntity
  8
0
  6
CONTINUOUS
 62
     7
100
AcDbCircle
 10
16.2662675151
 20
13.187803855
 30
0.0
 40
0.039370094197637
100
AcDbArc
 50
167.5412425128
 51
240.0000176025
  0
ARC
  5
148
330
1F
100
AcDbEntity
  8
0
  6
CONTINUOUS
 62
     7
100
AcDbCircle
 10
16.0414722219
 20
13.2374700343
 30
0.0
 40
0.1908464412354367
100
AcDbArc
 50
347.5412425128
 51
175.2873777324
  0
ARC
  5
149
330
1F
100
AcDbEntity
  8
0
  6
CONTINUOUS
 62
     7
100
AcDbCircle
 10
15.8120340295
 20
13.2563841753
 30
0.0
 40
0.0393700568547522
100
AcDbArc
 50
330.0
 51
355.2873777324
  0
LINE
  5
14A
330
1F
100
AcDbEntity
  8
0
  6
CONTINUOUS
 62
     7
100
AcDbLine
 10
15.7315700358
 20
13.0382768537
 30
0.0
 11
15.8461294591
 21
13.2366993082
 31
0.0
  0
ARC
  5
14B
330
1F
100
AcDbEntity
  8
0
  6
CONTINUOUS
 62
     7
100
AcDbCircle
 10
15.8285742317
 20
12.8687198666
 30
0.0
 40
0.1908464566929141
100
AcDbArc
 50
124.7126037568
 51
157.0193863071
  0
LINE
  5
14C
330
1F
100
AcDbEntity
  8
0
  6
CONTINUOUS
 62
     7
100
AcDbLine
 10
15.6528743049
 20
12.9432297384
 30
0.0
 11
15.4283372721
 21
13.0728663208
 31
0.0
  0
ARC
  5
14D
330
1F
100
AcDbEntity
  8
0
  6
CONTINUOUS
 62
     7
100
AcDbCircle
 10
15.4480217373
 20
13.1069621878
 30
0.0
 40
0.0393700787401602
100
AcDbArc
 50
167.5412391186
 51
240.0
  0
ARC
  5
14E
330
1F
100
AcDbEntity
  8
0
  6
CONTINUOUS
 62
     7
100
AcDbCircle
 10
15.2232264471
 20
13.1566283804
 30
0.0
 40
0.1908464566929159
100
AcDbArc
 50
347.5412391186
 51
175.2874008956
  0
ARC
  5
14F
330
1F
100
AcDbEntity
  8
0
  6
CONTINUOUS
 62
     7
100
AcDbCircle
 10
14.9937881944
 20
13.175542433
 30
0.0
 40
0.0393700787401602
100
AcDbArc
 50
330.0
 51
355.2874008956
  0
LINE
  5
150
330
1F
100
AcDbEntity
  8
0
  6
CONTINUOUS
 62
     7
100
AcDbLine
 10
15.0278832315
 20
13.1558575754
 30
0.0
 11
14.9066323656
 21
12.9458427216
 31
0.0
  0
ARC
  5
151
330
1F
100
AcDbEntity
  8
0
  6
CONTINUOUS
 62
     7
100
AcDbCircle
 10
14.8725363533
 20
12.9655280838
 30
0.0
 40
0.0393700787401568
100
AcDbArc
 50
304.7125991044
 51
330.0
  0
ARC
  5
152
330
1F
100
AcDbEntity
  8
0
  6
CONTINUOUS
 62
     7
100
AcDbCircle
 10
15.0036355297
 20
12.7762857546
 30
0.0
 40
0.190846456692921
100
AcDbArc
 50
124.7125991044
 51
312.4587608814
  0
ARC
  5
153
330
1F
100
AcDbEntity
  8
0
  6
CONTINUOUS
 62
     7
100
AcDbCircle
 10
15.1590453593
 20
12.606440419
 30
0.0
 40
0.0393700787401568
100
AcDbArc
 50
60.0
 51
132.4587608814
  0
LINE
  5
154
330
1F
100
AcDbEntity
  8
0
  6
CONTINUOUS
 62
     7
100
AcDbLine
 10
15.1787299156
 20
12.6405355285
 30
0.0
 11
19.3573722036
 21
10.227996465
 31
0.0
  0
LINE
  5
155
330
1F
100
AcDbEntity
  8
0
  6
CONTINUOUS
 62
     7
100
AcDbLine
 10
19.3573722036
 20
10.227996465
 30
0.0
 11
19.3573722036
 21
6.1267885892
 31
0.0
  0
LINE
  5
156
330
1F
100
AcDbEntity
  8
0
  6
CONTINUOUS
 62
     7
100
AcDbLine
 10
19.3573722036
 20
6.1267885892
 30
0.0
 11
15.1787299156
 21
3.7142492324
 31
0.0
  0
ARC
  5
157
330
1F
100
AcDbEntity
  8
0
  6
CONTINUOUS
 62
     7
100
AcDbCircle
 10
15.1590453593
 20
3.7483445826
 30
0.0
 40
0.0393700787401586
100
AcDbArc
 50
227.5412391186
 51
300.0
  0
ARC
  5
158
330
1F
100
AcDbEntity
  8
0
  6
CONTINUOUS
 62
     7
100
AcDbCircle
 10
15.0036355297
 20
3.578499247
 30
0.0
 40
0.190846456692914
100
AcDbArc
 50
47.5412391186
 51
235.2874008956
  0
ARC
  5
159
330
1F
100
AcDbEntity
  8
0
  6
CONTINUOUS
 62
     7
100
AcDbCircle
 10
14.8725363533
 20
3.3892569178
 30
0.0
 40
0.0393700787401575
100
AcDbArc
 50
30.0
 51
55.2874008956
  0
LINE
  5
15A
330
1F
100
AcDbEntity
  8
0
  6
CONTINUOUS
 62
     7
100
AcDbLine
 10
14.9066323656
 20
3.4089420393
 30
0.0
 11
15.0278832315
 21
3.1989274787
 31
0.0
  0
ARC
  5
15B
330
1F
100
AcDbEntity
  8
0
  6
CONTINUOUS
 62
     7
100
AcDbCircle
 10
14.9937881944
 20
3.1792425687
 30
0.0
 40
0.0393700787401555
100
AcDbArc
 50
4.7125991044
 51
30.0
  0
ARC
  5
15C
330
1F
100
AcDbEntity
  8
0
  6
CONTINUOUS
 62
     7
100
AcDbCircle
 10
15.2232264471
 20
3.1981566212
 30
0.0
 40
0.1908464566929154
100
AcDbArc
 50
184.7125991044
 51
12.4587608814
  0
ARC
  5
15D
330
1F
100
AcDbEntity
  8
0
  6
CONTINUOUS
 62
     7
100
AcDbCircle
 10
15.4480217373
 20
3.2478228138
 30
0.0
 40
0.0393700787401571
100
AcDbArc
 50
120.0
 51
192.4587608814
  0
LINE
  5
15E
330
1F
100
AcDbEntity
  8
0
  6
CONTINUOUS
 62
     7
100
AcDbLine
 10
15.4283372721
 20
3.28191844
 30
0.0
 11
15.6528743049
 21
3.4115550225
 31
0.0
  0
ARC
  5
15F
330
1F
100
AcDbEntity
  8
0
  6
CONTINUOUS
 62
     7
100
AcDbCircle
 10
15.8285742628
 20
3.4860650493
 30
0.0
 40
0.1908464412354337
100
AcDbArc
 50
202.9805859569
 51
235.2873777324
  0
ARC
  5
160
330
1F
100
AcDbEntity
  8
0
  6
CONTINUOUS
 62
     7
100
AcDbCircle
 10
15.69747504
 20
3.2968228166
 30
0.0
 40
0.0393700568547525
100
AcDbArc
 50
30.0
 51
55.2873777324
  0
LINE
  5
161
330
1F
100
AcDbEntity
  8
0
  6
CONTINUOUS
 62
     7
100
AcDbLine
 10
15.8461294591
 20
3.118085746
 30
0.0
 11
15.7315700358
 21
3.3165079071
 31
0.0
  0
ARC
  5
162
330
1F
100
AcDbEntity
  8
0
  6
CONTINUOUS
 62
     7
100
AcDbCircle
 10
15.8120340295
 20
3.0984008264
 30
0.0
 40
0.0393700787401583
100
AcDbArc
 50
4.7126037568
 51
30.0
  0
ARC
  5
163
330
1F
100
AcDbEntity
  8
0
  6
CONTINUOUS
 62
     7
100
AcDbCircle
 10
16.0414722806
 20
3.1173148975
 30
0.0
 40
0.1908464566929162
100
AcDbArc
 50
184.7126037568
 51
12.4587642756
  0
ARC
  5
164
330
1F
100
AcDbEntity
  8
0
  6
CONTINUOUS
 62
     7
100
AcDbCircle
 10
16.2662675679
 20
3.1669811035
 30
0.0
 40
0.0393700787401584
100
AcDbArc
 50
120.0000176025
 51
192.4587642756
  0
LINE
  5
165
330
1F
100
AcDbEntity
  8
0
  6
CONTINUOUS
 62
     7
100
AcDbLine
 10
16.4264182222
 20
3.3049046545
 30
0.0
 11
16.2465823264
 21
3.2010767073
 31
0.0
  0
ARC
  5
166
330
1F
100
AcDbEntity
  8
0
  6
CONTINUOUS
 62
     7
100
AcDbCircle
 10
16.4461031722
 20
3.2708093117
 30
0.0
 40
0.039370078740157
100
AcDbArc
 50
47.5412425128
 51
120.0000176025
  0
ARC
  5
167
330
1F
100
AcDbEntity
  8
0
  6
CONTINUOUS
 62
     7
100
AcDbCircle
 10
16.6015129918
 20
3.4406546566
 30
0.0
 40
0.1908464566929187
100
AcDbArc
 50
227.5412425128
 51
55.2874055479
  0
ARC
  5
168
330
1F
100
AcDbEntity
  8
0
  6
CONTINUOUS
 62
     7
100
AcDbCircle
 10
16.7326121528
 20
3.6298969964
 30
0.0
 40
0.0393700787401588
100
AcDbArc
 50
210.0
 51
235.2874055479
  0
LINE
  5
169
330
1F
100
AcDbEntity
  8
0
  6
CONTINUOUS
 62
     7
100
AcDbLine
 10
16.5839575223
 20
3.8086337154
 30
0.0
 11
16.6985169456
 21
3.6102118476
 31
0.0
  0
ARC
  5
16A
330
1F
100
AcDbEntity
  8
0
  6
CONTINUOUS
 62
     7
100
AcDbCircle
 10
16.6180537642
 20
3.828319048
 30
0.0
 40
0.039370629757668
100
AcDbArc
 50
184.7126345201
 51
210.0
  0
ARC
  5
16B
330
1F
100
AcDbEntity
  8
0
  6
CONTINUOUS
 62
     7
100
AcDbCircle
 10
16.388614974
 20
3.8094048084
 30
0.0
 40
0.1908464566929116
100
AcDbArc
 50
4.7126345201
 51
37.0193863071
  0
LINE
  5
16C
330
1F
100
AcDbEntity
  8
0
  6
CONTINUOUS
 62
     7
100
AcDbLine
 10
16.5409928986
 20
3.9243107257
 30
0.0
 11
19.0885963218
 21
5.3951703209
 31
0.0
  0
ARC
  5
16D
330
1F
100
AcDbEntity
  8
0
  6
CONTINUOUS
 62
     7
100
AcDbCircle
 10
19.26429653
 20
5.4696802251
 30
0.0
 40
0.1908464412354361
100
AcDbArc
 50
202.9805859569
 51
235.2873777324
  0
ARC
  5
16E
330
1F
100
AcDbEntity
  8
0
  6
CONTINUOUS
 62
     7
100
AcDbCircle
 10
19.1331973072
 20
5.2804379924
 30
0.0
 40
0.0393700568547541
100
AcDbArc
 50
30.0
 51
55.2873777324
  0
LINE
  5
16F
330
1F
100
AcDbEntity
  8
0
  6
CONTINUOUS
 62
     7
100
AcDbLine
 10
19.281851476
 20
5.1017007511
 30
0.0
 11
19.1672932261
 21
5.3001232056
 31
0.0
  0
ARC
  5
170
330
1F
100
AcDbEntity
  8
0
  6
CONTINUOUS
 62
     7
100
AcDbCircle
 10
19.2477562967
 20
5.0820160022
 30
0.0
 40
0.0393700787401567
100
AcDbArc
 50
4.7126037568
 51
30.0
  0
ARC
  5
171
330
1F
100
AcDbEntity
  8
0
  6
CONTINUOUS
 62
     7
100
AcDbCircle
 10
19.4771945478
 20
5.1009300734
 30
0.0
 40
0.1908464566929146
100
AcDbArc
 50
184.7126037568
 51
12.4587642756
  0
ARC
  5
172
330
1F
100
AcDbEntity
  8
0
  6
CONTINUOUS
 62
     7
100
AcDbCircle
 10
19.7019898351
 20
5.1505962793
 30
0.0
 40
0.0393700787401565
100
AcDbArc
 50
120.0000176025
 51
192.4587642756
  0
LINE
  5
173
330
1F
100
AcDbEntity
  8
0
  6
CONTINUOUS
 62
     7
100
AcDbLine
 10
19.8621402391
 20
5.2885202463
 30
0.0
 11
19.6823043433
 21
5.1846920057
 31
0.0
  0
ARC
  5
174
330
1F
100
AcDbEntity
  8
0
  6
CONTINUOUS
 62
     7
100
AcDbCircle
 10
19.8818254394
 20
5.2544244876
 30
0.0
 40
0.0393700787401607
100
AcDbArc
 50
47.5412425128
 51
120.0000176025
  0
ARC
  5
175
330
1F
100
AcDbEntity
  8
0
  6
CONTINUOUS
 62
     7
100
AcDbCircle
 10
20.037235259
 20
5.4242698324
 30
0.0
 40
0.1908464566929142
100
AcDbArc
 50
227.5412425128
 51
55.2874055479
  0
ARC
  5
176
330
1F
100
AcDbEntity
  8
0
  6
CONTINUOUS
 62
     7
100
AcDbCircle
 10
20.16833442
 20
5.6135121722
 30
0.0
 40
0.0393700787401589
100
AcDbArc
 50
210.0
 51
235.2874055479
  0
LINE
  5
177
330
1F
100
AcDbEntity
  8
0
  6
CONTINUOUS
 62
     7
100
AcDbLine
 10
20.0196807125
 20
5.7922487205
 30
0.0
 11
20.1342389625
 21
5.5938268527
 31
0.0
  0
ARC
  5
178
330
1F
100
AcDbEntity
  8
0
  6
CONTINUOUS
 62
     7
100
AcDbCircle
 10
20.0537760313
 20
5.8119342238
 30
0.0
 40
0.0393706297576695
100
AcDbArc
 50
184.7126345201
 51
210.0
  0
ARC
  5
179
330
1F
100
AcDbEntity
  8
0
  6
CONTINUOUS
 62
     7
100
AcDbCircle
 10
19.8243372412
 20
5.7930199842
 30
0.0
 40
0.1908464566929116
100
AcDbArc
 50
4.7126345201
 51
37.0193863071
  0
LINE
  5
17A
330
1F
100
AcDbEntity
  8
0
  6
CONTINUOUS
 62
     7
100
AcDbLine
 10
19.9767160889
 20
5.9079257308
 30
0.0
 11
20.6306001618
 21
6.2854466497
 31
0.0
  0
LINE
  5
17B
330
1F
100
AcDbEntity
  8
0
  6
CONTINUOUS
 62
     7
100
AcDbLine
 10
20.6306001618
 20
6.2854466497
 30
0.0
 11
20.6306001618
 21
5.641723526
 31
0.0
  0
ARC
  5
17C
330
1F
100
AcDbEntity
  8
0
  6
CONTINUOUS
 62
     7
100
AcDbCircle
 10
19.2526473015
 20
5.6417236334
 30
0.0
 40
1.37795275590551
100
AcDbArc
 50
300.0
 51
0.0
  0
LINE
  5
17D
330
1F
100
AcDbEntity
  8
0
  6
CONTINUOUS
 62
     7
100
AcDbLine
 10
19.9416244409
 20
4.4483816316
 30
0.0
 11
15.54971603
 21
1.9127126305
 31
0.0
  0
ARC
  5
17E
330
1F
100
AcDbEntity
  8
0
  6
CONTINUOUS
 62
     7
100
AcDbCircle
 10
14.860739992
 20
3.106054766
 30
0.0
 40
1.377952755905512
100
AcDbArc
 50
240.0
 51
300.0
  0
LINE
  5
17F
330
1F
100
AcDbEntity
  8
0
  6
CONTINUOUS
 62
     7
100
AcDbLine
 10
14.1717634149
 20
1.9127126305
 30
0.0
 11
9.7798561772
 21
4.4483816316
 31
0.0
  0
ARC
  5
180
330
1F
100
AcDbEntity
  8
0
  6
CONTINUOUS
 62
     7
100
AcDbCircle
 10
10.4688326825
 20
5.6417236334
 30
0.0
 40
1.377952755905513
100
AcDbArc
 50
180.0
 51
240.0
  0
LINE
  5
181
330
1F
100
AcDbEntity
  8
0
  6
CONTINUOUS
 62
     7
100
AcDbLine
 10
9.0908798697
 20
5.641723526
 30
0.0
 11
9.0908798697
 21
10.7130609415
 31
0.0
  0
ARC
  5
182
330
1F
100
AcDbEntity
  8
0
  6
CONTINUOUS
 62
     7
100
AcDbCircle
 10
10.4688326825
 20
10.7130613682
 30
0.0
 40
1.377952755905513
100
AcDbArc
 50
120.0
 51
180.0
  0
LINE
  5
183
330
1F
100
AcDbEntity
  8
0
  6
CONTINUOUS
 62
     7
100
AcDbLine
 10
9.7798561772
 20
11.9064034226
 30
0.0
 11
14.1717634149
 21
14.442071837
 31
0.0
  0
ARC
  5
184
330
1F
100
AcDbEntity
  8
0
  6
CONTINUOUS
 62
     7
100
AcDbCircle
 10
14.860739992
 20
13.2487302356
 30
0.0
 40
1.377952755905512
100
AcDbArc
 50
60.0
 51
120.0
  0
LINE
  5
185
330
1F
100
AcDbEntity
  8
0
  6
CONTINUOUS
 62
     7
100
AcDbLine
 10
15.54971603
 20
14.442071837
 30
0.0
 11
19.9416244409
 21
11.9064034226
 31
0.0
  0
ARC
  5
186
330
1F
100
AcDbEntity
  8
0
  6
CONTINUOUS
 62
     7
100
AcDbCircle
 10
19.2526473015
 20
10.7130613682
 30
0.0
 40
1.377952755905511
100
AcDbArc
 50
0.0
 51
60.0
  0
LINE
  5
187
330
1F
100
AcDbEntity
  8
0
  6
CONTINUOUS
 62
     7
100
AcDbLine
 10
20.6306001618
 20
10.7130609415
 30
0.0
 11
20.6306001618
 21
10.0693389912
 31
0.0
  0
LINE
  5
188
330
1F
100
AcDbEntity
  8
0
  6
CONTINUOUS
 62
     7
100
AcDbLine
 10
20.6306001618
 20
10.0693389912
 30
0.0
 11
19.9767160889
 21
10.4468593234
 31
0.0
  0
ARC
  5
189
330
1F
100
AcDbEntity
  8
0
  6
CONTINUOUS
 62
     7
100
AcDbCircle
 10
12.892236055
 20
4.6971775551
 30
0.0
 40
0.9842519685039399
100
AcDbArc
 50
240.0
 51
0.0
  0
LINE
  5
18A
330
1F
100
AcDbEntity
  8
0
  6
CONTINUOUS
 62
     7
100
AcDbLine
 10
13.8764881059
 20
4.6971776375
 30
0.0
 11
13.8764881059
 21
11.6576080033
 31
0.0
  0
ARC
  5
18B
330
1F
100
AcDbEntity
  8
0
  6
CONTINUOUS
 62
     7
100
AcDbCircle
 10
12.892236055
 20
11.6576074465
 30
0.0
 40
0.9842519685039388
100
AcDbArc
 50
0.0
 51
120.0
  0
LINE
  5
18C
330
1F
100
AcDbEntity
  8
0
  6
CONTINUOUS
 62
     7
100
AcDbLine
 10
12.4001103878
 20
12.5099943165
 30
0.0
 11
10.7641083804
 21
11.565448428
 31
0.0
  0
ARC
  5
18D
330
1F
100
AcDbEntity
  8
0
  6
CONTINUOUS
 62
     7
100
AcDbCircle
 10
11.6499350447
 20
10.0311516015
 30
0.0
 40
1.771653543307089
100
AcDbArc
 50
120.0
 51
180.0
  0
LINE
  5
18E
330
1F
100
AcDbEntity
  8
0
  6
CONTINUOUS
 62
     7
100
AcDbLine
 10
9.8782812802
 20
10.0311521256
 30
0.0
 11
9.8782812802
 21
6.3236335152
 31
0.0
  0
ARC
  5
18F
330
1F
100
AcDbEntity
  8
0
  6
CONTINUOUS
 62
     7
100
AcDbCircle
 10
11.6499350447
 20
6.3236334002
 30
0.0
 40
1.771653543307089
100
AcDbArc
 50
180.0
 51
240.0
  0
LINE
  5
190
330
1F
100
AcDbEntity
  8
0
  6
CONTINUOUS
 62
     7
100
AcDbLine
 10
10.7641083804
 20
4.7893363329
 30
0.0
 11
12.4001103878
 21
3.8447904444
 31
0.0
  0
ARC
  5
191
330
1F
100
AcDbEntity
  8
0
  6
CONTINUOUS
 62
     7
100
AcDbCircle
 10
15.69747504
 20
13.0579621851
 30
0.0
 40
0.0393700787401559
100
AcDbArc
 50
304.7126037568
 51
330.0
  0
LINE
  5
192
330
1F
100
AcDbEntity
  8
0
  6
CONTINUOUS
 62
     7
100
AcDbLine
 10
20.8274503678
 20
6.975539371
 30
0.0
 11
19.8431981646
 21
6.4072812422
 31
0.0
  0
LINE
  5
193
330
1F
100
AcDbEntity
  8
0
  6
CONTINUOUS
 62
     7
100
AcDbLine
 10
19.8431981646
 20
6.4072812422
 30
0.0
 11
19.8431981646
 21
9.947503812
 31
0.0
  0
LINE
  5
194
330
1F
100
AcDbEntity
  8
0
  6
CONTINUOUS
 62
     7
100
AcDbLine
 10
19.8431981646
 20
9.947503812
 30
0.0
 11
20.8274503678
 21
9.3792456832
 31
0.0
  0
LINE
  5
195
330
1F
100
AcDbEntity
  8
0
  6
CONTINUOUS
 62
     7
100
AcDbLine
 10
20.8274503678
 20
6.975539371
 30
0.0
 11
20.8274503678
 21
9.3792456832
 31
0.0
  0
ARC
  5
196
330
1F
100
AcDbEntity
  8
0
  6
CONTINUOUS
 62
     7
100
AcDbCircle
 10
19.2526473015
 20
5.6417236334
 30
0.0
 40
1.574803149606299
100
AcDbArc
 50
300.0
 51
0.0
  0
LINE
  5
197
330
1F
100
AcDbEntity
  8
0
  6
CONTINUOUS
 62
     7
100
AcDbLine
 10
15.6481411329
 20
1.7422352799
 30
0.0
 11
20.0400495439
 21
4.2779041343
 31
0.0
  0
ARC
  5
198
330
1F
100
AcDbEntity
  8
0
  6
CONTINUOUS
 62
     7
100
AcDbCircle
 10
14.860739992
 20
3.106054766
 30
0.0
 40
1.5748031496063
100
AcDbArc
 50
240.0
 51
300.0
  0
LINE
  5
199
330
1F
100
AcDbEntity
  8
0
  6
CONTINUOUS
 62
     7
100
AcDbLine
 10
9.6814310742
 20
4.2779041343
 30
0.0
 11
14.0733383119
 21
1.7422352799
 31
0.0
  0
ARC
  5
19A
330
1F
100
AcDbEntity
  8
0
  6
CONTINUOUS
 62
     7
100
AcDbCircle
 10
10.4688326825
 20
5.6417236334
 30
0.0
 40
1.574803149606299
100
AcDbArc
 50
180.0
 51
240.0
  0
LINE
  5
19B
330
1F
100
AcDbEntity
  8
0
  6
CONTINUOUS
 62
     7
100
AcDbLine
 10
8.8940296637
 20
10.7130609415
 30
0.0
 11
8.8940296637
 21
5.641723526
 31
0.0
  0
ARC
  5
19C
330
1F
100
AcDbEntity
  8
0
  6
CONTINUOUS
 62
     7
100
AcDbCircle
 10
10.4688326825
 20
10.7130613682
 30
0.0
 40
1.574803149606302
100
AcDbArc
 50
120.0
 51
180.0
  0
ARC
  5
19D
330
1F
100
AcDbEntity
  8
0
  6
CONTINUOUS
 62
     7
100
AcDbCircle
 10
14.860739992
 20
13.2487302356
 30
0.0
 40
1.574803149606302
100
AcDbArc
 50
60.0
 51
120.0
  0
LINE
  5
19E
330
1F
100
AcDbEntity
  8
0
  6
CONTINUOUS
 62
     7
100
AcDbLine
 10
20.0400495439
 20
12.0768809199
 30
0.0
 11
15.6481411329
 21
14.6125493343
 31
0.0
  0
ARC
  5
19F
330
1F
100
AcDbEntity
  8
0
  6
CONTINUOUS
 62
     7
100
AcDbCircle
 10
19.2526473015
 20
10.7130613682
 30
0.0
 40
1.574803149606301
100
AcDbArc
 50
0.0
 51
60.0
  0
LINE
  5
1A0
330
1F
100
AcDbEntity
  8
0
  6
CONTINUOUS
 62
     7
100
AcDbLine
 10
14.0733383119
 20
14.6125493343
 30
0.0
 11
9.6814310742
 21
12.0768809199
 31
0.0
  0
LINE
  5
1A1
330
1F
100
AcDbEntity
  8
0
  6
CONTINUOUS
 62
     7
100
AcDbLine
 10
20.8274503678
 20
6.3990979234
 30
0.0
 11
20.6306001618
 21
6.2854466497
 31
0.0
  0
LINE
  5
1A2
330
1F
100
AcDbEntity
  8
0
  6
CONTINUOUS
 62
     7
100
AcDbLine
 10
20.6306001618
 20
10.0693389912
 30
0.0
 11
20.8274503678
 21
9.9556865441
 31
0.0
  0
LINE
  5
1A3
330
1F
100
AcDbEntity
  8
0
  6
CONTINUOUS
 62
     7
100
AcDbLine
 10
20.8274503678
 20
5.641723526
 30
0.0
 11
20.8274503678
 21
6.3990979234
 31
0.0
  0
LINE
  5
1A4
330
1F
100
AcDbEntity
  8
0
  6
CONTINUOUS
 62
     7
100
AcDbLine
 10
20.8274503678
 20
9.9556865441
 30
0.0
 11
20.8274503678
 21
10.7130609415
 31
0.0
  0
ARC
  5
1A5
330
1F
100
AcDbEntity
  8
0
  6
CONTINUOUS
 62
     7
100
AcDbCircle
 10
11.6499350447
 20
6.3236334002
 30
0.0
 40
1.574803149606298
100
AcDbArc
 50
180.0
 51
240.0
  0
LINE
  5
1A6
330
1F
100
AcDbEntity
  8
0
  6
CONTINUOUS
 62
     7
100
AcDbLine
 10
10.8625334834
 20
4.9598138302
 30
0.0
 11
12.4985354908
 21
4.0152676483
 31
0.0
  0
ARC
  5
1A7
330
1F
100
AcDbEntity
  8
0
  6
CONTINUOUS
 62
     7
100
AcDbCircle
 10
12.892236055
 20
4.6971775551
 30
0.0
 40
0.7874015748031502
100
AcDbArc
 50
240.0
 51
0.0
  0
ARC
  5
1A8
330
1F
100
AcDbEntity
  8
0
  6
CONTINUOUS
 62
     7
100
AcDbCircle
 10
11.6499350447
 20
10.0311516015
 30
0.0
 40
1.574803149606302
100
AcDbArc
 50
120.0
 51
180.0
  0
LINE
  5
1A9
330
1F
100
AcDbEntity
  8
0
  6
CONTINUOUS
 62
     7
100
AcDbLine
 10
10.0751314862
 20
10.0311521256
 30
0.0
 11
10.0751314862
 21
6.3236335152
 31
0.0
  0
ARC
  5
1AA
330
1F
100
AcDbEntity
  8
0
  6
CONTINUOUS
 62
     7
100
AcDbCircle
 10
12.892236055
 20
11.6576074465
 30
0.0
 40
0.78740157480315
100
AcDbArc
 50
0.0
 51
120.0
  0
LINE
  5
1AB
330
1F
100
AcDbEntity
  8
0
  6
CONTINUOUS
 62
     7
100
AcDbLine
 10
13.6796378999
 20
4.6971776375
 30
0.0
 11
13.6796378999
 21
11.6576080033
 31
0.0
  0
LINE
  5
1AC
330
1F
100
AcDbEntity
  8
0
  6
CONTINUOUS
 62
     7
100
AcDbLine
 10
12.4985354908
 20
12.3395168192
 30
0.0
 11
10.8625334834
 21
11.3949709307
 31
0.0
  0
ARC
  5
1AD
330
1F
100
AcDbEntity
  8
0
  6
CONTINUOUS
 62
     7
100
AcDbCircle
 10
19.5995419539
 20
5.7433537782
 30
0.0
 40
0.0393700787401572
100
AcDbArc
 50
300.0000176025
 51
12.4587642756
  0
LINE
  5
1AE
330
1F
100
AcDbEntity
  8
0
  6
CONTINUOUS
 62
     7
100
AcDbLine
 10
19.619226672
 20
5.7092580525
 30
0.0
 11
19.4393919494
 21
5.605429812
 31
0.0
  0
ARC
  5
1AF
330
1F
100
AcDbEntity
  8
0
  6
CONTINUOUS
 62
     7
100
AcDbCircle
 10
19.4197063496
 20
5.63952557
 30
0.0
 40
0.0393700787401593
100
AcDbArc
 50
227.5412425128
 51
300.0000176025
  0
ARC
  5
1B0
330
1F
100
AcDbEntity
  8
0
  6
CONTINUOUS
 62
     7
100
AcDbCircle
 10
16.1638196867
 20
3.7597386024
 30
0.0
 40
0.039370078740157
100
AcDbArc
 50
300.0000176025
 51
12.4587642756
  0
LINE
  5
1B1
330
1F
100
AcDbEntity
  8
0
  6
CONTINUOUS
 62
     7
100
AcDbLine
 10
16.183504655
 20
3.7256430474
 30
0.0
 11
16.0036687592
 21
3.6218148069
 31
0.0
  0
ARC
  5
1B2
330
1F
100
AcDbEntity
  8
0
  6
CONTINUOUS
 62
     7
100
AcDbCircle
 10
15.9839840824
 20
3.6559103942
 30
0.0
 40
0.0393700787401595
100
AcDbArc
 50
227.5412425128
 51
300.0000176025
  0
ARC
  5
1B3
330
1F
100
AcDbEntity
  8
0
  6
CONTINUOUS
 62
     7
100
AcDbCircle
 10
19.4197063386
 20
10.7152593643
 30
0.0
 40
0.0393700787401572
100
AcDbArc
 50
60.0000176025
 51
132.4587642756
  0
LINE
  5
1B4
330
1F
100
AcDbEntity
  8
0
  6
CONTINUOUS
 62
     7
100
AcDbLine
 10
19.4393919494
 20
10.7493552422
 30
0.0
 11
19.619226672
 21
10.6455270017
 31
0.0
  0
ARC
  5
1B5
330
1F
100
AcDbEntity
  8
0
  6
CONTINUOUS
 62
     7
100
AcDbCircle
 10
19.5995420068
 20
10.6114312665
 30
0.0
 40
0.0393700787401567
100
AcDbArc
 50
347.5412425128
 51
60.0000176025
  0
ARC
  5
1B6
330
1F
100
AcDbEntity
  8
0
  6
CONTINUOUS
 62
     7
100
AcDbCircle
 10
15.9839840714
 20
12.6988745401
 30
0.0
 40
0.0393700787401557
100
AcDbArc
 50
60.0000176025
 51
132.4587642756
  0
ARC
  5
1B7
330
1F
100
AcDbEntity
  8
0
  6
CONTINUOUS
 62
     7
100
AcDbCircle
 10
16.1638197396
 20
12.5950464424
 30
0.0
 40
0.039370078740157
100
AcDbArc
 50
347.5412425128
 51
60.0000176025
  0
LINE
  5
1B8
330
1F
100
AcDbEntity
  8
0
  6
CONTINUOUS
 62
     7
100
AcDbLine
 10
16.0036687592
 20
12.7329696607
 30
0.0
 11
16.183504655
 21
12.6291414201
 31
0.0
  0
ARC
  5
1B9
330
1F
100
AcDbEntity
  8
0
  6
CONTINUOUS
 62
     7
100
AcDbCircle
 10
19.8243372412
 20
5.7930199842
 30
0.0
 40
0.1908464566929157
100
AcDbArc
 50
37.0193863071
 51
192.4587642756
  0
LINE
  5
1BA
330
1F
100
AcDbEntity
  8
0
  6
CONTINUOUS
 62
     7
100
AcDbLine
 10
20.8274503678
 20
6.975539371
 30
0.0
 11
20.8274503678
 21
6.3990979234
 31
0.0
  0
LINE
  5
1BB
330
1F
100
AcDbEntity
  8
0
  6
CONTINUOUS
 62
     7
100
AcDbLine
 10
20.8274503678
 20
9.9556865441
 30
0.0
 11
20.8274503678
 21
9.3792456832
 31
0.0
  0
ARC
  5
1BC
330
1F
100
AcDbEntity
  8
0
  6
CONTINUOUS
 62
     7
100
AcDbCircle
 10
19.8243372999
 20
10.5617650872
 30
0.0
 40
0.190846456692914
100
AcDbArc
 50
167.5412425128
 51
322.9805865283
  0
ARC
  5
1BD
330
1F
100
AcDbEntity
  8
0
  6
CONTINUOUS
 62
     7
100
AcDbCircle
 10
19.26429653
 20
5.4696802251
 30
0.0
 40
0.1908464566929122
100
AcDbArc
 50
47.5412425128
 51
202.9805859569
  0
ARC
  5
1BE
330
1F
100
AcDbEntity
  8
0
  6
CONTINUOUS
 62
     7
100
AcDbCircle
 10
19.2642964989
 20
10.8851046907
 30
0.0
 40
0.1908464566929168
100
AcDbArc
 50
157.0193863071
 51
312.4587642756
  0
ARC
  5
1BF
330
1F
100
AcDbEntity
  8
0
  6
CONTINUOUS
 62
     7
100
AcDbCircle
 10
16.388614974
 20
3.8094048084
 30
0.0
 40
0.1908464566929121
100
AcDbArc
 50
37.0193863071
 51
192.4587642756
  0
ARC
  5
1C0
330
1F
100
AcDbEntity
  8
0
  6
CONTINUOUS
 62
     7
100
AcDbCircle
 10
16.3886150327
 20
12.5453802631
 30
0.0
 40
0.1908464566929132
100
AcDbArc
 50
167.5412425128
 51
322.9805865283
  0
ARC
  5
1C1
330
1F
100
AcDbEntity
  8
0
  6
CONTINUOUS
 62
     7
100
AcDbCircle
 10
15.8285742628
 20
3.4860650493
 30
0.0
 40
0.1908464566929142
100
AcDbArc
 50
47.5412425128
 51
202.9805859569
  0
ARC
  5
1C2
330
1F
100
AcDbEntity
  8
0
  6
CONTINUOUS
 62
     7
100
AcDbCircle
 10
15.8285742317
 20
12.8687198666
 30
0.0
 40
0.1908464566929138
100
AcDbArc
 50
157.0193863071
 51
312.4587642756
  0
ARC
  5
1C3
330
1F
100
AcDbEntity
  8
0
  6
CONTINUOUS
 62
     7
100
AcDbCircle
 10
2.1457836406
 20
13.7033367468
 30
0.0
 40
0.7874015748031523
100
AcDbArc
 50
60.0
 51
180.0
  0
LINE
  5
1C4
330
1F
100
AcDbEntity
  8
0
  6
CONTINUOUS
 62
     7
100
AcDbLine
 10
2.5394844719
 20
14.3852467868
 30
0.0
 11
6.5377301639
 21
12.0768586268
 31
0.0
  0
ARC
  5
1C5
330
1F
100
AcDbEntity
  8
0
  6
CONTINUOUS
 62
     7
100
AcDbCircle
 10
5.7503287455
 20
10.7130386379
 30
0.0
 40
1.574803149606301
100
AcDbArc
 50
0.0
 51
60.0
  0
LINE
  5
1C6
330
1F
100
AcDbEntity
  8
0
  6
CONTINUOUS
 62
     7
100
AcDbLine
 10
7.3251321611
 20
10.7130386484
 30
0.0
 11
7.3251321611
 21
9.955664251
 31
0.0
  0
LINE
  5
1C7
330
1F
100
AcDbEntity
  8
0
  6
CONTINUOUS
 62
     7
100
AcDbLine
 10
6.4743574026
 20
10.4468593234
 30
0.0
 11
7.3251321611
 21
9.955664251
 31
0.0
  0
ARC
  5
1C8
330
1F
100
AcDbEntity
  8
0
  6
CONTINUOUS
 62
     7
100
AcDbCircle
 10
6.3219793738
 20
10.5617650872
 30
0.0
 40
0.190846456692916
100
AcDbArc
 50
322.9805865283
 51
355.2874055479
  0
ARC
  5
1C9
330
1F
100
AcDbEntity
  8
0
  6
CONTINUOUS
 62
     7
100
AcDbCircle
 10
6.551417628
 20
10.5428510533
 30
0.0
 40
0.0393700787401585
100
AcDbArc
 50
150.0
 51
175.2874055479
  0
LINE
  5
1CA
330
1F
100
AcDbEntity
  8
0
  6
CONTINUOUS
 62
     7
100
AcDbLine
 10
6.6318808629
 20
10.7609582015
 30
0.0
 11
6.5173220263
 21
10.562535747
 31
0.0
  0
ARC
  5
1CB
330
1F
100
AcDbEntity
  8
0
  6
CONTINUOUS
 62
     7
100
AcDbCircle
 10
6.665976971
 20
10.7412725539
 30
0.0
 40
0.0393706297576663
100
AcDbArc
 50
124.7126345201
 51
150.0
  0
ARC
  5
1CC
330
1F
100
AcDbEntity
  8
0
  6
CONTINUOUS
 62
     7
100
AcDbCircle
 10
6.5348773639
 20
10.930515255
 30
0.0
 40
0.1908464566929139
100
AcDbArc
 50
304.7126345201
 51
132.4587642756
  0
ARC
  5
1CD
330
1F
100
AcDbEntity
  8
0
  6
CONTINUOUS
 62
     7
100
AcDbCircle
 10
6.3794675242
 20
11.1003605814
 30
0.0
 40
0.0393700787401582
100
AcDbArc
 50
240.0000176025
 51
312.4587642756
  0
LINE
  5
1CE
330
1F
100
AcDbEntity
  8
0
  6
CONTINUOUS
 62
     7
100
AcDbLine
 10
6.1799468303
 20
11.1700936352
 30
0.0
 11
6.3597827262
 21
11.0662653946
 31
0.0
  0
ARC
  5
1CF
330
1F
100
AcDbEntity
  8
0
  6
CONTINUOUS
 62
     7
100
AcDbCircle
 10
6.1996318561
 20
11.2041886792
 30
0.0
 40
0.0393700941976384
100
AcDbArc
 50
167.5412425128
 51
240.0000176025
  0
ARC
  5
1D0
330
1F
100
AcDbEntity
  8
0
  6
CONTINUOUS
 62
     7
100
AcDbCircle
 10
5.9748365629
 20
11.2538548585
 30
0.0
 40
0.1908464412354305
100
AcDbArc
 50
347.5412425128
 51
175.2873777324
  0
ARC
  5
1D1
330
1F
100
AcDbEntity
  8
0
  6
CONTINUOUS
 62
     7
100
AcDbCircle
 10
5.7453983705
 20
11.2727689994
 30
0.0
 40
0.0393700568547539
100
AcDbArc
 50
330.0
 51
355.2873777324
  0
LINE
  5
1D2
330
1F
100
AcDbEntity
  8
0
  6
CONTINUOUS
 62
     7
100
AcDbLine
 10
5.6649351265
 20
11.0546624353
 30
0.0
 11
5.7794939631
 21
11.2530837164
 31
0.0
  0
ARC
  5
1D3
330
1F
100
AcDbEntity
  8
0
  6
CONTINUOUS
 62
     7
100
AcDbCircle
 10
5.6308393811
 20
11.0743470092
 30
0.0
 40
0.0393700787401577
100
AcDbArc
 50
304.7126037568
 51
330.0
  0
ARC
  5
1D4
330
1F
100
AcDbEntity
  8
0
  6
CONTINUOUS
 62
     7
100
AcDbCircle
 10
5.7619385728
 20
10.8851046907
 30
0.0
 40
0.190846456692915
100
AcDbArc
 50
124.7126037568
 51
157.0193863071
  0
LINE
  5
1D5
330
1F
100
AcDbEntity
  8
0
  6
CONTINUOUS
 62
     7
100
AcDbLine
 10
3.0337048027
 20
12.4333213889
 30
0.0
 11
5.5862382222
 21
10.95961532
 31
0.0
  0
ARC
  5
1D6
330
1F
100
AcDbEntity
  8
0
  6
CONTINUOUS
 62
     7
100
AcDbCircle
 10
2.8813268989
 20
12.5482267197
 30
0.0
 40
0.1908464566929149
100
AcDbArc
 50
322.9805865283
 51
355.2874055479
  0
ARC
  5
1D7
330
1F
100
AcDbEntity
  8
0
  6
CONTINUOUS
 62
     7
100
AcDbCircle
 10
3.1107651532
 20
12.5293126858
 30
0.0
 40
0.0393700787401581
100
AcDbArc
 50
150.0
 51
175.2874055479
  0
LINE
  5
1D8
330
1F
100
AcDbEntity
  8
0
  6
CONTINUOUS
 62
     7
100
AcDbLine
 10
3.1912285563
 20
12.7474190938
 30
0.0
 11
3.0766697197
 21
12.5489978126
 31
0.0
  0
ARC
  5
1D9
330
1F
100
AcDbEntity
  8
0
  6
CONTINUOUS
 62
     7
100
AcDbCircle
 10
3.2253244962
 20
12.7277341864
 30
0.0
 40
0.0393706297576659
100
AcDbArc
 50
124.7126345201
 51
150.0
  0
ARC
  5
1DA
330
1F
100
AcDbEntity
  8
0
  6
CONTINUOUS
 62
     7
100
AcDbCircle
 10
3.0942248891
 20
12.9169768875
 30
0.0
 40
0.1908464566929161
100
AcDbArc
 50
304.7126345201
 51
132.4587642756
  0
ARC
  5
1DB
330
1F
100
AcDbEntity
  8
0
  6
CONTINUOUS
 62
     7
100
AcDbCircle
 10
2.9388150494
 20
13.0868222139
 30
0.0
 40
0.0393700787401596
100
AcDbArc
 50
240.0000176025
 51
312.4587642756
  0
LINE
  5
1DC
330
1F
100
AcDbEntity
  8
0
  6
CONTINUOUS
 62
     7
100
AcDbLine
 10
2.7392942304
 20
13.1565545274
 30
0.0
 11
2.9191301262
 21
13.0527262868
 31
0.0
  0
ARC
  5
1DD
330
1F
100
AcDbEntity
  8
0
  6
CONTINUOUS
 62
     7
100
AcDbCircle
 10
2.7589793813
 20
13.1906503117
 30
0.0
 40
0.0393700941976375
100
AcDbArc
 50
167.5412425128
 51
240.0000176025
  0
ARC
  5
1DE
330
1F
100
AcDbEntity
  8
0
  6
CONTINUOUS
 62
     7
100
AcDbCircle
 10
2.5341840881
 20
13.240316491
 30
0.0
 40
0.1908464412354353
100
AcDbArc
 50
347.5412425128
 51
175.2873777324
  0
ARC
  5
1DF
330
1F
100
AcDbEntity
  8
0
  6
CONTINUOUS
 62
     7
100
AcDbCircle
 10
2.3047458957
 20
13.259230632
 30
0.0
 40
0.0393700568547568
100
AcDbArc
 50
330.0
 51
355.2873777324
  0
LINE
  5
1E0
330
1F
100
AcDbEntity
  8
0
  6
CONTINUOUS
 62
     7
100
AcDbLine
 10
2.2242823798
 20
13.0411233275
 30
0.0
 11
2.3388413631
 21
13.239545782
 31
0.0
  0
ARC
  5
1E1
330
1F
100
AcDbEntity
  8
0
  6
CONTINUOUS
 62
     7
100
AcDbCircle
 10
2.1901869063
 20
13.0608086418
 30
0.0
 40
0.0393700787401572
100
AcDbArc
 50
304.7126037568
 51
330.0
  0
ARC
  5
1E2
330
1F
100
AcDbEntity
  8
0
  6
CONTINUOUS
 62
     7
100
AcDbCircle
 10
2.321286098
 20
12.8715663232
 30
0.0
 40
0.1908464566929125
100
AcDbArc
 50
124.7126037568
 51
157.0193863071
  0
LINE
  5
1E3
330
1F
100
AcDbEntity
  8
0
  6
CONTINUOUS
 62
     7
100
AcDbLine
 10
1.3583820628
 20
13.4005686685
 30
0.0
 11
2.1455857689
 21
12.9460762122
 31
0.0
  0
LINE
  5
1E4
330
1F
100
AcDbEntity
  8
0
  6
CONTINUOUS
 62
     7
100
AcDbLine
 10
1.3583820628
 20
13.4005686685
 30
0.0
 11
1.3583820628
 21
13.7033367976
 31
0.0
  0
LINE
  5
1E5
330
1F
100
AcDbEntity
  8
0
  6
CONTINUOUS
 62
     7
100
AcDbLine
 10
1.3583820628
 20
3.5306572466
 30
0.0
 11
5.8550135173
 21
6.1267885892
 31
0.0
  0
LINE
  5
1E6
330
1F
100
AcDbEntity
  8
0
  6
CONTINUOUS
 62
     7
100
AcDbLine
 10
5.8550135173
 20
10.227996465
 30
0.0
 11
1.3583820628
 21
12.824127221
 31
0.0
  0
LINE
  5
1E7
330
1F
100
AcDbEntity
  8
0
  6
CONTINUOUS
 62
     7
100
AcDbLine
 10
5.8550135173
 20
6.1267885892
 30
0.0
 11
5.8550135173
 21
10.227996465
 31
0.0
  0
LINE
  5
1E8
330
1F
100
AcDbEntity
  8
0
  6
CONTINUOUS
 62
     7
100
AcDbLine
 10
1.3583820628
 20
3.5306572466
 30
0.0
 11
1.3583820628
 21
12.824127221
 31
0.0
  0
ARC
  5
1E9
330
1F
100
AcDbEntity
  8
0
  6
CONTINUOUS
 62
     7
100
AcDbCircle
 10
5.7503287455
 20
5.6417463637
 30
0.0
 40
1.574803149606301
100
AcDbArc
 50
300.0
 51
0.0
  0
LINE
  5
1EA
330
1F
100
AcDbEntity
  8
0
  6
CONTINUOUS
 62
     7
100
AcDbLine
 10
6.5377301639
 20
4.2779267207
 30
0.0
 11
2.5394844719
 21
1.9695385608
 31
0.0
  0
ARC
  5
1EB
330
1F
100
AcDbEntity
  8
0
  6
CONTINUOUS
 62
     7
100
AcDbCircle
 10
2.1457836406
 20
2.6514482548
 30
0.0
 40
0.7874015748031525
100
AcDbArc
 50
180.0
 51
300.0
  0
LINE
  5
1EC
330
1F
100
AcDbEntity
  8
0
  6
CONTINUOUS
 62
     7
100
AcDbLine
 10
2.1455857689
 20
3.4087085487
 30
0.0
 11
1.3583820628
 21
2.9542160923
 31
0.0
  0
ARC
  5
1ED
330
1F
100
AcDbEntity
  8
0
  6
CONTINUOUS
 62
     7
100
AcDbCircle
 10
2.321286129
 20
3.4832185926
 30
0.0
 40
0.1908464412354331
100
AcDbArc
 50
202.9805859569
 51
235.2873777324
  0
ARC
  5
1EE
330
1F
100
AcDbEntity
  8
0
  6
CONTINUOUS
 62
     7
100
AcDbCircle
 10
2.1901869063
 20
3.2939763599
 30
0.0
 40
0.0393700568547539
100
AcDbArc
 50
30.0
 51
55.2873777324
  0
LINE
  5
1EF
330
1F
100
AcDbEntity
  8
0
  6
CONTINUOUS
 62
     7
100
AcDbLine
 10
2.3388413631
 20
3.1152392722
 30
0.0
 11
2.2242823798
 21
3.3136614333
 31
0.0
  0
ARC
  5
1F0
330
1F
100
AcDbEntity
  8
0
  6
CONTINUOUS
 62
     7
100
AcDbCircle
 10
2.3047458957
 20
3.0955543697
 30
0.0
 40
0.0393700787401583
100
AcDbArc
 50
4.7126037568
 51
30.0
  0
ARC
  5
1F1
330
1F
100
AcDbEntity
  8
0
  6
CONTINUOUS
 62
     7
100
AcDbCircle
 10
2.5341841469
 20
3.1144684409
 30
0.0
 40
0.1908464566929146
100
AcDbArc
 50
184.7126037568
 51
12.4587642756
  0
ARC
  5
1F2
330
1F
100
AcDbEntity
  8
0
  6
CONTINUOUS
 62
     7
100
AcDbCircle
 10
2.7589794341
 20
3.1641346468
 30
0.0
 40
0.039370078740157
100
AcDbArc
 50
120.0000176025
 51
192.4587642756
  0
LINE
  5
1F3
330
1F
100
AcDbEntity
  8
0
  6
CONTINUOUS
 62
     7
100
AcDbLine
 10
2.9191301262
 20
3.302058474
 30
0.0
 11
2.7392945237
 21
3.1982302335
 31
0.0
  0
ARC
  5
1F4
330
1F
100
AcDbEntity
  8
0
  6
CONTINUOUS
 62
     7
100
AcDbCircle
 10
2.9388150385
 20
3.267962855
 30
0.0
 40
0.0393700787401586
100
AcDbArc
 50
47.5412425128
 51
120.0000176025
  0
ARC
  5
1F5
330
1F
100
AcDbEntity
  8
0
  6
CONTINUOUS
 62
     7
100
AcDbCircle
 10
3.094224858
 20
3.4378081999
 30
0.0
 40
0.1908464566929157
100
AcDbArc
 50
227.5412425128
 51
55.2874055479
  0
ARC
  5
1F6
330
1F
100
AcDbEntity
  8
0
  6
CONTINUOUS
 62
     7
100
AcDbCircle
 10
3.225324019
 20
3.6270505397
 30
0.0
 40
0.0393700787401577
100
AcDbArc
 50
210.0
 51
235.2874055479
  0
LINE
  5
1F7
330
1F
100
AcDbEntity
  8
0
  6
CONTINUOUS
 62
     7
100
AcDbLine
 10
3.0766697197
 20
3.8057872416
 30
0.0
 11
3.1912285563
 21
3.6073653738
 31
0.0
  0
ARC
  5
1F8
330
1F
100
AcDbEntity
  8
0
  6
CONTINUOUS
 62
     7
100
AcDbCircle
 10
3.1107656304
 20
3.8254725913
 30
0.0
 40
0.039370629757666
100
AcDbArc
 50
184.7126345201
 51
210.0
  0
ARC
  5
1F9
330
1F
100
AcDbEntity
  8
0
  6
CONTINUOUS
 62
     7
100
AcDbCircle
 10
2.8813268402
 20
3.8065583517
 30
0.0
 40
0.1908464566929133
100
AcDbArc
 50
4.7126345201
 51
37.0193863071
  0
LINE
  5
1FA
330
1F
100
AcDbEntity
  8
0
  6
CONTINUOUS
 62
     7
100
AcDbLine
 10
5.5862382222
 20
5.3951703209
 30
0.0
 11
3.0337048027
 21
3.9214642519
 31
0.0
  0
ARC
  5
1FB
330
1F
100
AcDbEntity
  8
0
  6
CONTINUOUS
 62
     7
100
AcDbCircle
 10
5.7619386038
 20
5.4696802251
 30
0.0
 40
0.1908464412354307
100
AcDbArc
 50
202.9805859569
 51
235.2873777324
  0
ARC
  5
1FC
330
1F
100
AcDbEntity
  8
0
  6
CONTINUOUS
 62
     7
100
AcDbCircle
 10
5.6308393811
 20
5.2804379924
 30
0.0
 40
0.0393700568547551
100
AcDbArc
 50
30.0
 51
55.2873777324
  0
LINE
  5
1FD
330
1F
100
AcDbEntity
  8
0
  6
CONTINUOUS
 62
     7
100
AcDbLine
 10
5.7794939631
 20
5.1017007511
 30
0.0
 11
5.6649351265
 21
5.3001232056
 31
0.0
  0
ARC
  5
1FE
330
1F
100
AcDbEntity
  8
0
  6
CONTINUOUS
 62
     7
100
AcDbCircle
 10
5.7453983705
 20
5.0820160022
 30
0.0
 40
0.0393700787401581
100
AcDbArc
 50
4.7126037568
 51
30.0
  0
ARC
  5
1FF
330
1F
100
AcDbEntity
  8
0
  6
CONTINUOUS
 62
     7
100
AcDbCircle
 10
5.9748366217
 20
5.1009300734
 30
0.0
 40
0.1908464566929146
100
AcDbArc
 50
184.7126037568
 51
12.4587642756
  0
ARC
  5
200
330
1F
100
AcDbEntity
  8
0
  6
CONTINUOUS
 62
     7
100
AcDbCircle
 10
6.1996319089
 20
5.1505962793
 30
0.0
 40
0.0393700787401569
100
AcDbArc
 50
120.0000176025
 51
192.4587642756
  0
LINE
  5
201
330
1F
100
AcDbEntity
  8
0
  6
CONTINUOUS
 62
     7
100
AcDbLine
 10
6.3597827262
 20
5.2885202463
 30
0.0
 11
6.1799468303
 21
5.1846920057
 31
0.0
  0
ARC
  5
202
330
1F
100
AcDbEntity
  8
0
  6
CONTINUOUS
 62
     7
100
AcDbCircle
 10
6.3794675133
 20
5.2544244876
 30
0.0
 40
0.0393700787401574
100
AcDbArc
 50
47.5412425128
 51
120.0000176025
  0
ARC
  5
203
330
1F
100
AcDbEntity
  8
0
  6
CONTINUOUS
 62
     7
100
AcDbCircle
 10
6.5348773328
 20
5.4242698324
 30
0.0
 40
0.1908464566929135
100
AcDbArc
 50
227.5412425128
 51
55.2874055479
  0
ARC
  5
204
330
1F
100
AcDbEntity
  8
0
  6
CONTINUOUS
 62
     7
100
AcDbCircle
 10
6.6659764938
 20
5.6135121722
 30
0.0
 40
0.0393700787401581
100
AcDbArc
 50
210.0
 51
235.2874055479
  0
LINE
  5
205
330
1F
100
AcDbEntity
  8
0
  6
CONTINUOUS
 62
     7
100
AcDbLine
 10
6.5173220263
 20
5.7922487205
 30
0.0
 11
6.6318808629
 21
5.5938268527
 31
0.0
  0
ARC
  5
206
330
1F
100
AcDbEntity
  8
0
  6
CONTINUOUS
 62
     7
100
AcDbCircle
 10
6.5514181052
 20
5.8119342238
 30
0.0
 40
0.0393706297576663
100
AcDbArc
 50
184.7126345201
 51
210.0
  0
ARC
  5
207
330
1F
100
AcDbEntity
  8
0
  6
CONTINUOUS
 62
     7
100
AcDbCircle
 10
6.321979315
 20
5.7930199842
 30
0.0
 40
0.1908464566929177
100
AcDbArc
 50
4.7126345201
 51
37.0193863071
  0
LINE
  5
208
330
1F
100
AcDbEntity
  8
0
  6
CONTINUOUS
 62
     7
100
AcDbLine
 10
7.3251321611
 20
6.3991208032
 30
0.0
 11
6.4743574026
 21
5.9079257308
 31
0.0
  0
LINE
  5
209
330
1F
100
AcDbEntity
  8
0
  6
CONTINUOUS
 62
     7
100
AcDbLine
 10
7.3251321611
 20
6.3991208032
 30
0.0
 11
7.3251321611
 21
5.6417464058
 31
0.0
  0
LINE
  5
20A
330
1F
100
AcDbEntity
  8
0
  6
CONTINUOUS
 62
     7
100
AcDbLine
 10
1.3583820628
 20
2.6514482566
 30
0.0
 11
1.3583820628
 21
2.9542160923
 31
0.0
  0
LINE
  5
20B
330
1F
100
AcDbEntity
  8
0
  6
CONTINUOUS
 62
     7
100
AcDbLine
 10
6.3408406517
 20
6.4072812422
 30
0.0
 11
7.3251321611
 21
6.9755616641
 31
0.0
  0
LINE
  5
20C
330
1F
100
AcDbEntity
  8
0
  6
CONTINUOUS
 62
     7
100
AcDbLine
 10
6.3408406517
 20
9.947503812
 30
0.0
 11
6.3408406517
 21
6.4072812422
 31
0.0
  0
LINE
  5
20D
330
1F
100
AcDbEntity
  8
0
  6
CONTINUOUS
 62
     7
100
AcDbLine
 10
7.3251321611
 20
9.3792233901
 30
0.0
 11
6.3408406517
 21
9.947503812
 31
0.0
  0
LINE
  5
20E
330
1F
100
AcDbEntity
  8
0
  6
CONTINUOUS
 62
     7
100
AcDbLine
 10
7.3251321611
 20
9.3792233901
 30
0.0
 11
7.3251321611
 21
6.9755616641
 31
0.0
  0
ARC
  5
20F
330
1F
100
AcDbEntity
  8
0
  6
CONTINUOUS
 62
     7
100
AcDbCircle
 10
6.0971840278
 20
5.7433537782
 30
0.0
 40
0.039370078740157
100
AcDbArc
 50
300.0000176025
 51
12.4587642756
  0
LINE
  5
210
330
1F
100
AcDbEntity
  8
0
  6
CONTINUOUS
 62
     7
100
AcDbLine
 10
6.116869159
 20
5.7092580525
 30
0.0
 11
5.9370332632
 21
5.605429812
 31
0.0
  0
ARC
  5
211
330
1F
100
AcDbEntity
  8
0
  6
CONTINUOUS
 62
     7
100
AcDbCircle
 10
5.9173484234
 20
5.63952557
 30
0.0
 40
0.0393700787401584
100
AcDbArc
 50
227.5412425128
 51
300.0000176025
  0
ARC
  5
212
330
1F
100
AcDbEntity
  8
0
  6
CONTINUOUS
 62
     7
100
AcDbCircle
 10
2.656531553
 20
3.7568921457
 30
0.0
 40
0.0393700787401566
100
AcDbArc
 50
300.0000176025
 51
12.4587642756
  0
LINE
  5
213
330
1F
100
AcDbEntity
  8
0
  6
CONTINUOUS
 62
     7
100
AcDbLine
 10
2.6762165591
 20
3.7227965736
 30
0.0
 11
2.4963809565
 21
3.6189683331
 31
0.0
  0
ARC
  5
214
330
1F
100
AcDbEntity
  8
0
  6
CONTINUOUS
 62
     7
100
AcDbCircle
 10
2.4766959486
 20
3.6530639375
 30
0.0
 40
0.039370078740159
100
AcDbArc
 50
227.5412425128
 51
300.0000176025
  0
ARC
  5
215
330
1F
100
AcDbEntity
  8
0
  6
CONTINUOUS
 62
     7
100
AcDbCircle
 10
2.4766959377
 20
12.7017209968
 30
0.0
 40
0.039370078740158
100
AcDbArc
 50
60.0000176025
 51
132.4587642756
  0
LINE
  5
216
330
1F
100
AcDbEntity
  8
0
  6
CONTINUOUS
 62
     7
100
AcDbLine
 10
2.4963809565
 20
12.7358161345
 30
0.0
 11
2.6762165591
 21
12.6319878939
 31
0.0
  0
ARC
  5
217
330
1F
100
AcDbEntity
  8
0
  6
CONTINUOUS
 62
     7
100
AcDbCircle
 10
2.6565316058
 20
12.5978928991
 30
0.0
 40
0.0393700787401566
100
AcDbArc
 50
347.5412425128
 51
60.0000176025
  0
ARC
  5
218
330
1F
100
AcDbEntity
  8
0
  6
CONTINUOUS
 62
     7
100
AcDbCircle
 10
5.9173484125
 20
10.7152593643
 30
0.0
 40
0.0393700787401578
100
AcDbArc
 50
60.0000176025
 51
132.4587642756
  0
LINE
  5
219
330
1F
100
AcDbEntity
  8
0
  6
CONTINUOUS
 62
     7
100
AcDbLine
 10
5.9370332632
 20
10.7493552422
 30
0.0
 11
6.116869159
 21
10.6455270017
 31
0.0
  0
ARC
  5
21A
330
1F
100
AcDbEntity
  8
0
  6
CONTINUOUS
 62
     7
100
AcDbCircle
 10
6.0971840806
 20
10.6114312665
 30
0.0
 40
0.0393700787401605
100
AcDbArc
 50
347.5412425128
 51
60.0000176025
  0
LINE
  5
21B
330
1F
100
AcDbEntity
  8
0
  6
CONTINUOUS
 62
     7
100
AcDbLine
 10
7.3251321611
 20
6.3991208032
 30
0.0
 11
7.3251321611
 21
6.9755616641
 31
0.0
  0
LINE
  5
21C
330
1F
100
AcDbEntity
  8
0
  6
CONTINUOUS
 62
     7
100
AcDbLine
 10
7.3251321611
 20
9.3792233901
 30
0.0
 11
7.3251321611
 21
9.955664251
 31
0.0
  0
ARC
  5
21D
330
1F
100
AcDbEntity
  8
0
  6
CONTINUOUS
 62
     7
100
AcDbCircle
 10
6.321979315
 20
5.7930199842
 30
0.0
 40
0.1908464566929138
100
AcDbArc
 50
37.0193863071
 51
192.4587642756
  0
ARC
  5
21E
330
1F
100
AcDbEntity
  8
0
  6
CONTINUOUS
 62
     7
100
AcDbCircle
 10
6.3219793738
 20
10.5617650872
 30
0.0
 40
0.1908464566929127
100
AcDbArc
 50
167.5412425128
 51
322.9805865283
  0
ARC
  5
21F
330
1F
100
AcDbEntity
  8
0
  6
CONTINUOUS
 62
     7
100
AcDbCircle
 10
5.7619386038
 20
5.4696802251
 30
0.0
 40
0.1908464566929148
100
AcDbArc
 50
47.5412425128
 51
202.9805859569
  0
ARC
  5
220
330
1F
100
AcDbEntity
  8
0
  6
CONTINUOUS
 62
     7
100
AcDbCircle
 10
5.7619385728
 20
10.8851046907
 30
0.0
 40
0.1908464566929121
100
AcDbArc
 50
157.0193863071
 51
312.4587642756
  0
ARC
  5
221
330
1F
100
AcDbEntity
  8
0
  6
CONTINUOUS
 62
     7
100
AcDbCircle
 10
2.8813268402
 20
3.8065583517
 30
0.0
 40
0.1908464566929152
100
AcDbArc
 50
37.0193863071
 51
192.4587642756
  0
ARC
  5
222
330
1F
100
AcDbEntity
  8
0
  6
CONTINUOUS
 62
     7
100
AcDbCircle
 10
2.321286129
 20
3.4832185926
 30
0.0
 40
0.1908464566929144
100
AcDbArc
 50
47.5412425128
 51
202.9805859569
  0
ARC
  5
223
330
1F
100
AcDbEntity
  8
0
  6
CONTINUOUS
 62
     7
100
AcDbCircle
 10
2.8813268989
 20
12.5482267197
 30
0.0
 40
0.1908464566929123
100
AcDbArc
 50
167.5412425128
 51
322.9805865283
  0
ARC
  5
224
330
1F
100
AcDbEntity
  8
0
  6
CONTINUOUS
 62
     7
100
AcDbCircle
 10
2.321286098
 20
12.8715663232
 30
0.0
 40
0.1908464566929124
100
AcDbArc
 50
157.0193863071
 51
312.4587642756
  0
LINE
  5
225
330
1F
100
AcDbEntity
  8
0
  6
CONTINUOUS
 62
     7
100
AcDbLine
 10
1.3583820628
 20
13.4005686685
 30
0.0
 11
1.3583820628
 21
12.824127221
 31
0.0
  0
LINE
  5
226
330
1F
100
AcDbEntity
  8
0
  6
CONTINUOUS
 62
     7
100
AcDbLine
 10
1.3583820628
 20
3.5306572466
 30
0.0
 11
1.3583820628
 21
2.9542160923
 31
0.0
  0
LINE
  5
227
330
1F
100
AcDbEntity
  8
0
  6
CONTINUOUS
 62
     7
100
AcDbLine
 10
22.3963478704
 20
1.2876287182
 30
0.0
 11
27.7900496152
 21
1.2876287182
 31
0.0
  0
LINE
  5
228
330
1F
100
AcDbEntity
  8
0
  6
CONTINUOUS
 62
     7
100
AcDbLine
 10
22.3963478704
 20
5.8767336112
 30
0.0
 11
22.3963478704
 21
1.2876287182
 31
0.0
  0
LINE
  5
229
330
1F
100
AcDbEntity
  8
0
  6
CONTINUOUS
 62
     7
100
AcDbLine
 10
27.7900496152
 20
5.8767336112
 30
0.0
 11
22.3963478704
 21
5.8767336112
 31
0.0
  0
LINE
  5
22A
330
1F
100
AcDbEntity
  8
0
  6
CONTINUOUS
 62
     7
100
AcDbLine
 10
27.7900496152
 20
1.2876287182
 30
0.0
 11
27.7900496152
 21
5.8767336112
 31
0.0
  0
LINE
  5
22B
330
1F
100
AcDbEntity
  8
PROFILES_INSIDE
100
AcDbLine
 10
6.5173221397
 20
10.5625360927
 30
0.0
 11
6.6318810055
 21
10.7609578688
 31
0.0
  0
LINE
  5
22C
330
1F
100
AcDbEntity
  8
PROFILES_INSIDE
100
AcDbLine
 10
5.9370334414
 20
10.7493548587
 30
0.0
 11
6.1168691095
 21
10.6455267609
 31
0.0
  0
LINE
  5
22D
330
1F
100
AcDbEntity
  8
PROFILES_INSIDE
100
AcDbLine
 10
5.7794938399
 20
11.253083971
 30
0.0
 11
5.6649348694
 21
11.0546619699
 31
0.0
  0
LINE
  5
22E
330
1F
100
AcDbEntity
  8
PROFILES_INSIDE
100
AcDbLine
 10
6.3597824953
 20
11.066265087
 30
0.0
 11
6.1799468166
 21
11.1700931664
 31
0.0
  0
LINE
  5
22F
330
1F
100
AcDbEntity
  8
PROFILES_INSIDE
100
AcDbLine
 10
3.0766696648
 20
12.5489977252
 30
0.0
 11
3.1912285307
 21
12.7474195013
 31
0.0
  0
LINE
  5
230
330
1F
100
AcDbEntity
  8
PROFILES_INSIDE
100
AcDbLine
 10
2.9191300205
 20
13.0527267195
 30
0.0
 11
2.7392943485
 21
13.1565548106
 31
0.0
  0
LINE
  5
231
330
1F
100
AcDbEntity
  8
PROFILES_INSIDE
100
AcDbLine
 10
2.3388413634
 20
13.2395456045
 30
0.0
 11
2.2242823946
 21
13.0411236024
 31
0.0
  0
LINE
  5
232
330
1F
100
AcDbEntity
  8
PROFILES_INSIDE
100
AcDbLine
 10
2.4963809666
 20
12.7358164912
 30
0.0
 11
2.6762166347
 21
12.6319883934
 31
0.0
  0
LINE
  5
233
330
1F
100
AcDbEntity
  8
PROFILES_OUTSIDE
100
AcDbLine
 10
6.5377303203
 20
12.0768581714
 30
0.0
 11
2.539484428
 21
14.3852465136
 31
0.0
  0
LINE
  5
234
330
1F
100
AcDbEntity
  8
PROFILES_OUTSIDE
100
AcDbLine
 10
1.3583820658
 20
13.7033367468
 30
0.0
 11
1.3583820658
 21
2.6514482548
 31
0.0
  0
LINE
  5
235
330
1F
100
AcDbEntity
  8
PROFILES_OUTSIDE
100
AcDbLine
 10
2.539484428
 20
1.969538488
 30
0.0
 11
6.5377303203
 21
4.2779268302
 31
0.0
  0
LINE
  5
236
330
1F
100
AcDbEntity
  8
POCKETS
100
AcDbLine
 10
35.1276473015
 20
2.70364728
 30
0.0
 11
28.9839465141
 21
2.70364728
 31
0.0
  0
LINE
  5
237
330
1F
100
AcDbEntity
  8
POCKETS
100
AcDbLine
 10
28.9839465141
 20
2.70364728
 30
0.0
 11
28.9839465141
 21
2.1514265532
 31
0.0
  0
LINE
  5
238
330
1F
100
AcDbEntity
  8
POCKETS
100
AcDbLine
 10
28.9839465141
 20
2.1514265532
 30
0.0
 11
35.1276473015
 21
2.1514265532
 31
0.0
  0
LINE
  5
239
330
1F
100
AcDbEntity
  8
POCKETS
100
AcDbLine
 10
35.1276473015
 20
2.1514265532
 30
0.0
 11
35.1276473015
 21
2.70364728
 31
0.0
  0
LINE
  5
23A
330
1F
100
AcDbEntity
  8
PROFILES_INSIDE
100
AcDbLine
 10
6.6318810055
 20
5.5938271329
 30
0.0
 11
6.5173221397
 21
5.7922489089
 31
0.0
  0
LINE
  5
23B
330
1F
100
AcDbEntity
  8
PROFILES_INSIDE
100
AcDbLine
 10
6.1168690776
 20
5.7092582959
 30
0.0
 11
5.9370334742
 21
5.605430086
 31
0.0
  0
LINE
  5
23C
330
1F
100
AcDbEntity
  8
PROFILES_INSIDE
100
AcDbLine
 10
5.6649348471
 20
5.3001230189
 30
0.0
 11
5.7794938588
 21
5.1017010416
 31
0.0
  0
LINE
  5
23D
330
1F
100
AcDbEntity
  8
PROFILES_INSIDE
100
AcDbLine
 10
6.1799468591
 20
5.1846917616
 30
0.0
 11
6.3597824634
 21
5.2885199699
 31
0.0
  0
LINE
  5
23E
330
1F
100
AcDbEntity
  8
PROFILES_OUTSIDE
100
AcDbLine
 10
7.3251318951
 20
5.6417463637
 30
0.0
 11
7.3251318951
 21
10.7130386379
 31
0.0
  0
LINE
  5
23F
330
1F
100
AcDbEntity
  8
PROFILES_OUTSIDE
100
AcDbLine
 10
8.8940295329
 20
10.7130613682
 30
0.0
 11
8.8940295329
 21
5.6417236334
 31
0.0
  0
LINE
  5
240
330
1F
100
AcDbEntity
  8
PROFILES_OUTSIDE
100
AcDbLine
 10
14.0733384172
 20
14.6125497692
 30
0.0
 11
9.6814311077
 21
12.0768809017
 31
0.0
  0
LINE
  5
241
330
1F
100
AcDbEntity
  8
PROFILES_OUTSIDE
100
AcDbLine
 10
20.0400488763
 20
12.0768809017
 30
0.0
 11
15.6481415668
 21
14.6125497692
 31
0.0
  0
LINE
  5
242
330
1F
100
AcDbEntity
  8
PROFILES_INSIDE
100
AcDbLine
 10
2.2242823756
 20
3.3136613883
 30
0.0
 11
2.338841384
 21
3.115239409
 31
0.0
  0
LINE
  5
243
330
1F
100
AcDbEntity
  8
PROFILES_INSIDE
100
AcDbLine
 10
2.7392943843
 20
3.1982301291
 30
0.0
 11
2.9191299886
 21
3.3020583373
 31
0.0
  0
LINE
  5
244
330
1F
100
AcDbEntity
  8
PROFILES_INSIDE
100
AcDbLine
 10
3.1912285307
 20
3.6073655003
 30
0.0
 11
3.0766696648
 21
3.8057872764
 31
0.0
  0
LINE
  5
245
330
1F
100
AcDbEntity
  8
PROFILES_INSIDE
100
AcDbLine
 10
2.6762166028
 20
3.7227966634
 30
0.0
 11
2.4963809985
 21
3.6189684552
 31
0.0
  0
LINE
  5
246
330
1F
100
AcDbEntity
  8
PROFILES_OUTSIDE
100
AcDbLine
 10
20.8274504512
 20
5.6417236334
 30
0.0
 11
20.8274504512
 21
10.7130613682
 31
0.0
  0
LINE
  5
247
330
1F
100
AcDbEntity
  8
PROFILES_OUTSIDE
100
AcDbLine
 10
15.6481415668
 20
1.7422352325
 30
0.0
 11
20.0400488763
 21
4.2779040999
 31
0.0
  0
LINE
  5
248
330
1F
100
AcDbEntity
  8
PROFILES_OUTSIDE
100
AcDbLine
 10
9.6814311077
 20
4.2779040999
 30
0.0
 11
14.0733384172
 21
1.7422352325
 31
0.0
  0
LINE
  5
249
330
1F
100
AcDbEntity
  8
PROFILES_INSIDE
100
AcDbLine
 10
20.0196800658
 20
10.5625360927
 30
0.0
 11
20.1342389317
 21
10.7609578688
 31
0.0
  0
LINE
  5
24A
330
1F
100
AcDbEntity
  8
PROFILES_INSIDE
100
AcDbLine
 10
19.4393913675
 20
10.7493548587
 30
0.0
 11
19.6192270357
 21
10.6455267609
 31
0.0
  0
LINE
  5
24B
330
1F
100
AcDbEntity
  8
PROFILES_INSIDE
100
AcDbLine
 10
19.2818517661
 20
11.253083971
 30
0.0
 11
19.1672927956
 21
11.0546619699
 31
0.0
  0
LINE
  5
24C
330
1F
100
AcDbEntity
  8
PROFILES_INSIDE
100
AcDbLine
 10
19.8621404215
 20
11.066265087
 30
0.0
 11
19.6823047427
 21
11.1700931664
 31
0.0
  0
LINE
  5
24D
330
1F
100
AcDbEntity
  8
PROFILES_INSIDE
100
AcDbLine
 10
16.5839577986
 20
12.5461512685
 30
0.0
 11
16.6985166645
 21
12.7445730446
 31
0.0
  0
LINE
  5
24E
330
1F
100
AcDbEntity
  8
PROFILES_INSIDE
100
AcDbLine
 10
16.4264181543
 20
13.0498802628
 30
0.0
 11
16.2465824823
 21
13.1537083539
 31
0.0
  0
LINE
  5
24F
330
1F
100
AcDbEntity
  8
PROFILES_INSIDE
100
AcDbLine
 10
15.8461294972
 20
13.2366991478
 30
0.0
 11
15.7315705284
 21
13.0382771457
 31
0.0
  0
LINE
  5
250
330
1F
100
AcDbEntity
  8
PROFILES_INSIDE
100
AcDbLine
 10
16.0036691003
 20
12.7329700345
 30
0.0
 11
16.1835047685
 21
12.6291419368
 31
0.0
  0
LINE
  5
251
330
1F
100
AcDbEntity
  8
PROFILES_INSIDE
100
AcDbLine
 10
20.1342389317
 20
5.5938271329
 30
0.0
 11
20.0196800658
 21
5.7922489089
 31
0.0
  0
LINE
  5
252
330
1F
100
AcDbEntity
  8
BOX_STOCK
100
AcDbLine
 10
0.1802324595
 20
0.109479115
 30
0.0
 11
96.2432245855
 21
0.109479115
 31
0.0
  0
LINE
  5
253
330
1F
100
AcDbEntity
  8
BOX_STOCK
100
AcDbLine
 10
96.2432245855
 20
0.109479115
 30
0.0
 11
96.2432245855
 21
48.140975178
 31
0.0
  0
LINE
  5
254
330
1F
100
AcDbEntity
  8
BOX_STOCK
100
AcDbLine
 10
96.2432245855
 20
48.140975178
 30
0.0
 11
0.1802324595
 21
48.140975178
 31
0.0
  0
LINE
  5
255
330
1F
100
AcDbEntity
  8
BOX_STOCK
100
AcDbLine
 10
0.1802324595
 20
48.140975178
 30
0.0
 11
0.1802324595
 21
0.109479115
 31
0.0
  0
LINE
  5
256
330
1F
100
AcDbEntity
  8
PROFILES_INSIDE
100
AcDbLine
 10
19.6192270038
 20
5.7092582959
 30
0.0
 11
19.4393914004
 21
5.605430086
 31
0.0
  0
LINE
  5
257
330
1F
100
AcDbEntity
  8
PROFILES_INSIDE
100
AcDbLine
 10
19.1672927733
 20
5.3001230189
 30
0.0
 11
19.281851785
 21
5.1017010416
 31
0.0
  0
LINE
  5
258
330
1F
100
AcDbEntity
  8
PROFILES_INSIDE
100
AcDbLine
 10
19.6823047853
 20
5.1846917616
 30
0.0
 11
19.8621403896
 21
5.2885199699
 31
0.0
  0
LINE
  5
259
330
1F
100
AcDbEntity
  8
PROFILES_INSIDE
100
AcDbLine
 10
15.7315705094
 20
3.316507845
 30
0.0
 11
15.8461295178
 21
3.1180858657
 31
0.0
  0
LINE
  5
25A
330
1F
100
AcDbEntity
  8
PROFILES_INSIDE
100
AcDbLine
 10
16.2465825181
 20
3.2010765858
 30
0.0
 11
16.4264181224
 21
3.304904794
 31
0.0
  0
LINE
  5
25B
330
1F
100
AcDbEntity
  8
PROFILES_INSIDE
100
AcDbLine
 10
16.6985166645
 20
3.610211957
 30
0.0
 11
16.5839577986
 21
3.8086337331
 31
0.0
  0
LINE
  5
25C
330
1F
100
AcDbEntity
  8
PROFILES_INSIDE
100
AcDbLine
 10
16.1835047366
 20
3.7256431201
 30
0.0
 11
16.0036691322
 21
3.6218149119
 31
0.0
  0
LINE
  5
25D
330
1F
100
AcDbEntity
  8
PROFILES_INSIDE
100
AcDbLine
 10
10.0751318951
 20
10.0311516015
 30
0.0
 11
10.0751318951
 21
6.3236334002
 31
0.0
  0
LINE
  5
25E
330
1F
100
AcDbEntity
  8
POCKETS
100
AcDbLine
 10
35.1276473015
 20
10.8895902512
 30
0.0
 11
28.9839465141
 21
10.8895902512
 31
0.0
  0
LINE
  5
25F
330
1F
100
AcDbEntity
  8
POCKETS
100
AcDbLine
 10
28.9839465141
 20
10.8895902512
 30
0.0
 11
28.9839465141
 21
10.3373695244
 31
0.0
  0
LINE
  5
260
330
1F
100
AcDbEntity
  8
POCKETS
100
AcDbLine
 10
28.9839465141
 20
10.3373695244
 30
0.0
 11
35.1276473015
 21
10.3373695244
 31
0.0
  0
LINE
  5
261
330
1F
100
AcDbEntity
  8
POCKETS
100
AcDbLine
 10
35.1276473015
 20
10.3373695244
 30
0.0
 11
35.1276473015
 21
10.8895902512
 31
0.0
  0
LINE
  5
262
330
1F
100
AcDbEntity
  8
PROFILES_INSIDE
100
AcDbLine
 10
10.8625334699
 20
4.9598138666
 30
0.0
 11
12.4985352676
 21
4.0152677883
 31
0.0
  0
LINE
  5
263
330
1F
100
AcDbEntity
  8
PROFILES_INSIDE
100
AcDbLine
 10
13.6796376298
 20
4.6971775551
 30
0.0
 11
13.6796376298
 21
11.6576074465
 31
0.0
  0
LINE
  5
264
330
1F
100
AcDbEntity
  8
PROFILES_INSIDE
100
AcDbLine
 10
12.4985352676
 20
12.3395172133
 30
0.0
 11
10.8625334699
 21
11.394971135
 31
0.0
  0
LINE
  5
265
330
1F
100
AcDbEntity
  8
PROFILES_OUTSIDE
100
AcDbLine
 10
27.7900488763
 20
1.2876287213
 30
0.0
 11
27.7900488763
 21
5.8767337275
 31
0.0
  0
LINE
  5
266
330
1F
100
AcDbEntity
  8
PROFILES_OUTSIDE
100
AcDbLine
 10
27.7900488763
 20
5.8767337275
 30
0.0
 11
22.3963480889
 21
5.8767337275
 31
0.0
  0
LINE
  5
267
330
1F
100
AcDbEntity
  8
PROFILES_OUTSIDE
100
AcDbLine
 10
22.3963480889
 20
5.8767337275
 30
0.0
 11
22.3963480889
 21
1.2876287213
 31
0.0
  0
LINE
  5
268
330
1F
100
AcDbEntity
  8
PROFILES_OUTSIDE
100
AcDbLine
 10
22.3963480889
 20
1.2876287213
 30
0.0
 11
27.7900488763
 21
1.2876287213
 31
0.0
  0
LINE
  5
269
330
1F
100
AcDbEntity
  8
PROFILES_OUTSIDE
100
AcDbLine
 10
34.7526473015
 20
7.9046740548
 30
0.0
 11
29.3589465141
 21
7.9046740548
 31
0.0
  0
LINE
  5
26A
330
1F
100
AcDbEntity
  8
PROFILES_OUTSIDE
100
AcDbLine
 10
29.3589465141
 20
7.9046740548
 30
0.0
 11
29.3589465141
 21
1.2876287213
 31
0.0
  0
LINE
  5
26B
330
1F
100
AcDbEntity
  8
PROFILES_OUTSIDE
100
AcDbLine
 10
29.3589465141
 20
1.2876287213
 30
0.0
 11
34.7526473015
 21
1.2876287213
 31
0.0
  0
LINE
  5
26C
330
1F
100
AcDbEntity
  8
PROFILES_OUTSIDE
100
AcDbLine
 10
34.7526473015
 20
1.2876287213
 30
0.0
 11
34.7526473015
 21
7.9046740548
 31
0.0
  0
LINE
  5
26D
330
1F
100
AcDbEntity
  8
PROFILES_OUTSIDE
100
AcDbLine
 10
29.3589465141
 20
16.090617026
 30
0.0
 11
29.3589465141
 21
9.4735716926
 31
0.0
  0
LINE
  5
26E
330
1F
100
AcDbEntity
  8
PROFILES_OUTSIDE
100
AcDbLine
 10
29.3589465141
 20
9.4735716926
 30
0.0
 11
34.7526473015
 21
9.4735716926
 31
0.0
  0
LINE
  5
26F
330
1F
100
AcDbEntity
  8
PROFILES_OUTSIDE
100
AcDbLine
 10
34.7526473015
 20
9.4735716926
 30
0.0
 11
34.7526473015
 21
16.090617026
 31
0.0
  0
LINE
  5
270
330
1F
100
AcDbEntity
  8
PROFILES_OUTSIDE
100
AcDbLine
 10
34.7526473015
 20
16.090617026
 30
0.0
 11
29.3589465141
 21
16.090617026
 31
0.0
  0
LINE
  5
271
330
1F
100
AcDbEntity
  8
POCKETS
100
AcDbLine
 10
7.6547909741
 20
7.1658906255
 30
0.0
 11
7.3300314477
 21
6.9783906255
 31
0.0
  0
LINE
  5
272
330
1F
100
AcDbEntity
  8
POCKETS
100
AcDbLine
 10
7.9043972733
 20
6.7335598334
 30
0.0
 11
7.6547909741
 21
7.1658906255
 31
0.0
  0
LINE
  5
273
330
1F
100
AcDbEntity
  8
POCKETS
100
AcDbLine
 10
7.5796377469
 20
6.5460598334
 30
0.0
 11
7.9043972733
 21
6.7335598334
 31
0.0
  0
LINE
  5
274
330
1F
100
AcDbEntity
  8
POCKETS
100
AcDbLine
 10
1.3534825132
 20
2.9513874332
 30
0.0
 11
7.5796377469
 21
6.5460598334
 31
0.0
  0
LINE
  5
275
330
1F
100
AcDbEntity
  8
POCKETS
100
AcDbLine
 10
1.0287229868
 20
2.7638874332
 30
0.0
 11
1.3534825132
 21
2.9513874332
 31
0.0
  0
LINE
  5
276
330
1F
100
AcDbEntity
  8
POCKETS
100
AcDbLine
 10
0.7791166876
 20
3.1962182253
 30
0.0
 11
1.0287229868
 21
2.7638874332
 31
0.0
  0
LINE
  5
277
330
1F
100
AcDbEntity
  8
POCKETS
100
AcDbLine
 10
1.103876214
 20
3.3837182253
 30
0.0
 11
0.7791166876
 21
3.1962182253
 31
0.0
  0
LINE
  5
278
330
1F
100
AcDbEntity
  8
POCKETS
100
AcDbLine
 10
5.8550137848
 20
6.1267887808
 30
0.0
 11
1.103876214
 21
3.3837182253
 31
0.0
  0
LINE
  5
279
330
1F
100
AcDbEntity
  8
POCKETS
100
AcDbLine
 10
5.8550137848
 20
10.2279962208
 30
0.0
 11
5.8550137848
 21
6.1267887808
 31
0.0
  0
LINE
  5
27A
330
1F
100
AcDbEntity
  8
POCKETS
100
AcDbLine
 10
1.103876214
 20
12.9710667763
 30
0.0
 11
5.8550137848
 21
10.2279962208
 31
0.0
  0
LINE
  5
27B
330
1F
100
AcDbEntity
  8
POCKETS
100
AcDbLine
 10
0.7791166876
 20
13.1585667763
 30
0.0
 11
1.103876214
 21
12.9710667763
 31
0.0
  0
LINE
  5
27C
330
1F
100
AcDbEntity
  8
POCKETS
100
AcDbLine
 10
1.0287229868
 20
13.5908975684
 30
0.0
 11
0.7791166876
 21
13.1585667763
 31
0.0
  0
LINE
  5
27D
330
1F
100
AcDbEntity
  8
POCKETS
100
AcDbLine
 10
1.3534825132
 20
13.4033975684
 30
0.0
 11
1.0287229868
 21
13.5908975684
 31
0.0
  0
LINE
  5
27E
330
1F
100
AcDbEntity
  8
POCKETS
100
AcDbLine
 10
7.5796377469
 20
9.8087251682
 30
0.0
 11
1.3534825132
 21
13.4033975684
 31
0.0
  0
LINE
  5
27F
330
1F
100
AcDbEntity
  8
POCKETS
100
AcDbLine
 10
7.9043972733
 20
9.6212251682
 30
0.0
 11
7.5796377469
 21
9.8087251682
 31
0.0
  0
LINE
  5
280
330
1F
100
AcDbEntity
  8
POCKETS
100
AcDbLine
 10
7.6547909741
 20
9.1888943761
 30
0.0
 11
7.9043972733
 21
9.6212251682
 31
0.0
  0
LINE
  5
281
330
1F
100
AcDbEntity
  8
POCKETS
100
AcDbLine
 10
7.3300314477
 20
9.3763943761
 30
0.0
 11
7.6547909741
 21
9.1888943761
 31
0.0
  0
LINE
  5
282
330
1F
100
AcDbEntity
  8
POCKETS
100
AcDbLine
 10
6.3408405565
 20
9.9475040034
 30
0.0
 11
7.3300314477
 21
9.3763943761
 31
0.0
  0
LINE
  5
283
330
1F
100
AcDbEntity
  8
POCKETS
100
AcDbLine
 10
6.3408405565
 20
6.4072809982
 30
0.0
 11
6.3408405565
 21
9.9475040034
 31
0.0
  0
LINE
  5
284
330
1F
100
AcDbEntity
  8
POCKETS
100
AcDbLine
 10
7.3300314477
 20
6.9783906255
 30
0.0
 11
6.3408405565
 21
6.4072809982
 31
0.0
  0
LINE
  5
285
330
1F
100
AcDbEntity
  8
POCKETS
100
AcDbLine
 10
15.0278836827
 20
13.1558573936
 30
0.0
 11
14.9066318417
 21
12.9458430444
 31
0.0
  0
LINE
  5
286
330
1F
100
AcDbEntity
  8
POCKETS
100
AcDbLine
 10
15.1787303987
 20
12.6405359073
 30
0.0
 11
19.357371711
 21
10.2279962208
 31
0.0
  0
LINE
  5
287
330
1F
100
AcDbEntity
  8
POCKETS
100
AcDbLine
 10
19.357371711
 20
10.2279962208
 30
0.0
 11
19.357371711
 21
6.1267887808
 31
0.0
  0
LINE
  5
288
330
1F
100
AcDbEntity
  8
POCKETS
100
AcDbLine
 10
19.357371711
 20
6.1267887808
 30
0.0
 11
15.1787303987
 21
3.7142490943
 31
0.0
  0
LINE
  5
289
330
1F
100
AcDbEntity
  8
POCKETS
100
AcDbLine
 10
14.9066318417
 20
3.4089419572
 30
0.0
 11
15.0278836827
 21
3.198927608
 31
0.0
  0
LINE
  5
28A
330
1F
100
AcDbEntity
  8
POCKETS
100
AcDbLine
 10
15.4283366979
 20
3.2819183022
 30
0.0
 11
21.081956303
 21
6.5460371031
 31
0.0
  0
LINE
  5
28B
330
1F
100
AcDbEntity
  8
POCKETS
100
AcDbLine
 10
21.081956303
 20
6.5460371031
 30
0.0
 11
21.4067158294
 21
6.7335371031
 31
0.0
  0
LINE
  5
28C
330
1F
100
AcDbEntity
  8
POCKETS
100
AcDbLine
 10
21.4067158294
 20
6.7335371031
 30
0.0
 11
21.1571095302
 21
7.1658678952
 31
0.0
  0
LINE
  5
28D
330
1F
100
AcDbEntity
  8
POCKETS
100
AcDbLine
 10
21.1571095302
 20
7.1658678952
 30
0.0
 11
20.8323500038
 21
6.9783678952
 31
0.0
  0
LINE
  5
28E
330
1F
100
AcDbEntity
  8
POCKETS
100
AcDbLine
 10
20.8323500038
 20
6.9783678952
 30
0.0
 11
19.8431984826
 21
6.4072809982
 31
0.0
  0
LINE
  5
28F
330
1F
100
AcDbEntity
  8
POCKETS
100
AcDbLine
 10
19.8431984826
 20
6.4072809982
 30
0.0
 11
19.8431984826
 21
9.9475040034
 31
0.0
  0
LINE
  5
290
330
1F
100
AcDbEntity
  8
POCKETS
100
AcDbLine
 10
19.8431984826
 20
9.9475040034
 30
0.0
 11
20.8323500038
 21
9.3764171064
 31
0.0
  0
LINE
  5
291
330
1F
100
AcDbEntity
  8
POCKETS
100
AcDbLine
 10
20.8323500038
 20
9.3764171064
 30
0.0
 11
21.1571095302
 21
9.1889171064
 31
0.0
  0
LINE
  5
292
330
1F
100
AcDbEntity
  8
POCKETS
100
AcDbLine
 10
21.1571095302
 20
9.1889171064
 30
0.0
 11
21.4067158294
 21
9.6212478985
 31
0.0
  0
LINE
  5
293
330
1F
100
AcDbEntity
  8
POCKETS
100
AcDbLine
 10
21.4067158294
 20
9.6212478985
 30
0.0
 11
21.081956303
 21
9.8087478985
 31
0.0
  0
LINE
  5
294
330
1F
100
AcDbEntity
  8
POCKETS
100
AcDbLine
 10
21.081956303
 20
9.8087478985
 30
0.0
 11
15.4283366979
 21
13.0728666994
 31
0.0
  0
LINE
  5
295
330
1F
100
AcDbEntity
  8
PROFILES_OUTSIDE
100
AcDbLine
 10
36.8042221047
 20
6.9829929312
 30
0.0
 11
36.3609150181
 21
6.9829929312
 31
0.0
  0
LINE
  5
296
330
1F
100
AcDbEntity
  8
PROFILES_OUTSIDE
100
AcDbLine
 10
36.8199701362
 20
6.7369299391
 30
0.0
 11
36.8042221047
 21
6.9829929312
 31
0.0
  0
LINE
  5
297
330
1F
100
AcDbEntity
  8
PROFILES_OUTSIDE
100
AcDbLine
 10
37.1774424497
 20
6.7369299391
 30
0.0
 11
36.8199701362
 21
6.7369299391
 31
0.0
  0
LINE
  5
298
330
1F
100
AcDbEntity
  8
PROFILES_OUTSIDE
100
AcDbLine
 10
37.3057969078
 20
7.2291346635
 30
0.0
 11
37.3057969078
 21
7.1252277703
 31
0.0
  0
LINE
  5
299
330
1F
100
AcDbEntity
  8
PROFILES_OUTSIDE
100
AcDbLine
 10
39.1897536008
 20
7.2291346635
 30
0.0
 11
37.3057969078
 21
7.2291346635
 31
0.0
  0
LINE
  5
29A
330
1F
100
AcDbEntity
  8
PROFILES_OUTSIDE
100
AcDbLine
 10
39.3806000575
 20
5.3758374072
 30
0.0
 11
39.3806000575
 21
7.0382882068
 31
0.0
  0
LINE
  5
29B
330
1F
100
AcDbEntity
  8
PROFILES_OUTSIDE
100
AcDbLine
 10
39.9614071441
 20
5.1849909505
 30
0.0
 11
39.5714465141
 21
5.1849909505
 31
0.0
  0
LINE
  5
29C
330
1F
100
AcDbEntity
  8
PROFILES_OUTSIDE
100
AcDbLine
 10
40.1522536008
 20
7.0382882068
 30
0.0
 11
40.1522536008
 21
5.3758374072
 31
0.0
  0
LINE
  5
29D
330
1F
100
AcDbEntity
  8
PROFILES_OUTSIDE
100
AcDbLine
 10
42.2270567504
 20
7.2291346635
 30
0.0
 11
40.3431000575
 21
7.2291346635
 31
0.0
  0
LINE
  5
29E
330
1F
100
AcDbEntity
  8
PROFILES_OUTSIDE
100
AcDbLine
 10
42.2270567504
 20
7.1252277703
 30
0.0
 11
42.2270567504
 21
7.2291346635
 31
0.0
  0
LINE
  5
29F
330
1F
100
AcDbEntity
  8
PROFILES_OUTSIDE
100
AcDbLine
 10
42.712883522
 20
6.7369299391
 30
0.0
 11
42.3554112085
 21
6.7369299391
 31
0.0
  0
LINE
  5
2A0
330
1F
100
AcDbEntity
  8
PROFILES_OUTSIDE
100
AcDbLine
 10
42.7286315535
 20
6.9829929312
 30
0.0
 11
42.712883522
 21
6.7369299391
 31
0.0
  0
LINE
  5
2A1
330
1F
100
AcDbEntity
  8
PROFILES_OUTSIDE
100
AcDbLine
 10
43.1719386401
 20
6.9829929312
 30
0.0
 11
42.7286315535
 21
6.9829929312
 31
0.0
  0
LINE
  5
2A2
330
1F
100
AcDbEntity
  8
PROFILES_OUTSIDE
100
AcDbLine
 10
43.2113087189
 20
6.4810244273
 30
0.0
 11
43.2113087189
 21
6.9436228525
 31
0.0
  0
LINE
  5
2A3
330
1F
100
AcDbEntity
  8
PROFILES_OUTSIDE
100
AcDbLine
 10
40.8884740732
 20
6.2448039548
 30
0.0
 11
42.9750882464
 21
6.2448039548
 31
0.0
  0
LINE
  5
2A4
330
1F
100
AcDbEntity
  8
PROFILES_OUTSIDE
100
AcDbLine
 10
40.6522536008
 20
5.1849909505
 30
0.0
 11
40.6522536008
 21
6.0085834824
 31
0.0
  0
LINE
  5
2A5
330
1F
100
AcDbEntity
  8
PROFILES_OUTSIDE
100
AcDbLine
 10
40.1522536008
 20
4.1977190979
 30
0.0
 11
40.1522536008
 21
4.3189655467
 31
0.0
  0
LINE
  5
2A6
330
1F
100
AcDbEntity
  8
PROFILES_OUTSIDE
100
AcDbLine
 10
40.6522536008
 20
2.5081011622
 30
0.0
 11
40.6522536008
 21
3.3316936941
 31
0.0
  0
LINE
  5
2A7
330
1F
100
AcDbEntity
  8
PROFILES_OUTSIDE
100
AcDbLine
 10
42.9750882464
 20
2.2718806898
 30
0.0
 11
40.8884740732
 21
2.2718806898
 31
0.0
  0
LINE
  5
2A8
330
1F
100
AcDbEntity
  8
PROFILES_OUTSIDE
100
AcDbLine
 10
43.2113087189
 20
1.5730617922
 30
0.0
 11
43.2113087189
 21
2.0356602173
 31
0.0
  0
LINE
  5
2A9
330
1F
100
AcDbEntity
  8
PROFILES_OUTSIDE
100
AcDbLine
 10
42.7286315535
 20
1.5336917134
 30
0.0
 11
43.1719386401
 21
1.5336917134
 31
0.0
  0
LINE
  5
2AA
330
1F
100
AcDbEntity
  8
PROFILES_OUTSIDE
100
AcDbLine
 10
42.712883522
 20
1.7797547055
 30
0.0
 11
42.7286315535
 21
1.5336917134
 31
0.0
  0
LINE
  5
2AB
330
1F
100
AcDbEntity
  8
PROFILES_OUTSIDE
100
AcDbLine
 10
42.3554112085
 20
1.7797547055
 30
0.0
 11
42.712883522
 21
1.7797547055
 31
0.0
  0
LINE
  5
2AC
330
1F
100
AcDbEntity
  8
PROFILES_OUTSIDE
100
AcDbLine
 10
42.2270567504
 20
1.2875499811
 30
0.0
 11
42.2270567504
 21
1.3914568743
 31
0.0
  0
LINE
  5
2AD
330
1F
100
AcDbEntity
  8
PROFILES_OUTSIDE
100
AcDbLine
 10
40.3431000575
 20
1.2875499811
 30
0.0
 11
42.2270567504
 21
1.2875499811
 31
0.0
  0
LINE
  5
2AE
330
1F
100
AcDbEntity
  8
PROFILES_OUTSIDE
100
AcDbLine
 10
40.1522536008
 20
3.1408472375
 30
0.0
 11
40.1522536008
 21
1.4783964378
 31
0.0
  0
LINE
  5
2AF
330
1F
100
AcDbEntity
  8
PROFILES_OUTSIDE
100
AcDbLine
 10
39.5714465141
 20
3.3316936941
 30
0.0
 11
39.9614071441
 21
3.3316936941
 31
0.0
  0
LINE
  5
2B0
330
1F
100
AcDbEntity
  8
PROFILES_OUTSIDE
100
AcDbLine
 10
39.3806000575
 20
1.4783964378
 30
0.0
 11
39.3806000575
 21
3.1408472375
 31
0.0
  0
LINE
  5
2B1
330
1F
100
AcDbEntity
  8
PROFILES_OUTSIDE
100
AcDbLine
 10
37.3057969078
 20
1.2875499811
 30
0.0
 11
39.1897536008
 21
1.2875499811
 31
0.0
  0
LINE
  5
2B2
330
1F
100
AcDbEntity
  8
PROFILES_OUTSIDE
100
AcDbLine
 10
37.3057969078
 20
1.3914568743
 30
0.0
 11
37.3057969078
 21
1.2875499811
 31
0.0
  0
LINE
  5
2B3
330
1F
100
AcDbEntity
  8
PROFILES_OUTSIDE
100
AcDbLine
 10
36.8199701362
 20
1.7797547055
 30
0.0
 11
37.1774424497
 21
1.7797547055
 31
0.0
  0
LINE
  5
2B4
330
1F
100
AcDbEntity
  8
PROFILES_OUTSIDE
100
AcDbLine
 10
36.8042221047
 20
1.5336917134
 30
0.0
 11
36.8199701362
 21
1.7797547055
 31
0.0
  0
LINE
  5
2B5
330
1F
100
AcDbEntity
  8
PROFILES_OUTSIDE
100
AcDbLine
 10
36.3609150181
 20
1.5336917134
 30
0.0
 11
36.8042221047
 21
1.5336917134
 31
0.0
  0
LINE
  5
2B6
330
1F
100
AcDbEntity
  8
PROFILES_OUTSIDE
100
AcDbLine
 10
36.3215449393
 20
2.0356602173
 30
0.0
 11
36.3215449393
 21
1.5730617922
 31
0.0
  0
LINE
  5
2B7
330
1F
100
AcDbEntity
  8
PROFILES_OUTSIDE
100
AcDbLine
 10
38.644379585
 20
2.2718806898
 30
0.0
 11
36.5577654118
 21
2.2718806898
 31
0.0
  0
LINE
  5
2B8
330
1F
100
AcDbEntity
  8
PROFILES_OUTSIDE
100
AcDbLine
 10
38.8806000575
 20
3.3316936941
 30
0.0
 11
38.8806000575
 21
2.5081011622
 31
0.0
  0
LINE
  5
2B9
330
1F
100
AcDbEntity
  8
PROFILES_OUTSIDE
100
AcDbLine
 10
39.3806000575
 20
4.3189655467
 30
0.0
 11
39.3806000575
 21
4.1977190979
 31
0.0
  0
LINE
  5
2BA
330
1F
100
AcDbEntity
  8
PROFILES_OUTSIDE
100
AcDbLine
 10
38.8806000575
 20
6.0085834824
 30
0.0
 11
38.8806000575
 21
5.1849909505
 31
0.0
  0
LINE
  5
2BB
330
1F
100
AcDbEntity
  8
PROFILES_OUTSIDE
100
AcDbLine
 10
36.5577654118
 20
6.2448039548
 30
0.0
 11
38.644379585
 21
6.2448039548
 31
0.0
  0
LINE
  5
2BC
330
1F
100
AcDbEntity
  8
PROFILES_OUTSIDE
100
AcDbLine
 10
36.3215449393
 20
6.9436228525
 30
0.0
 11
36.3215449393
 21
6.4810244273
 31
0.0
  0
LINE
  5
2BD
330
1F
100
AcDbEntity
  8
PROFILES_OUTSIDE
100
AcDbLine
 10
42.7286315535
 20
9.0440165532
 30
0.0
 11
43.1719386401
 21
9.0440165532
 31
0.0
  0
LINE
  5
2BE
330
1F
100
AcDbEntity
  8
PROFILES_OUTSIDE
100
AcDbLine
 10
42.712883522
 20
9.2900795454
 30
0.0
 11
42.7286315535
 21
9.0440165532
 31
0.0
  0
LINE
  5
2BF
330
1F
100
AcDbEntity
  8
PROFILES_OUTSIDE
100
AcDbLine
 10
42.3554112085
 20
9.2900795454
 30
0.0
 11
42.712883522
 21
9.2900795454
 31
0.0
  0
LINE
  5
2C0
330
1F
100
AcDbEntity
  8
PROFILES_OUTSIDE
100
AcDbLine
 10
42.2270567504
 20
8.797874821
 30
0.0
 11
42.2270567504
 21
8.9017817141
 31
0.0
  0
LINE
  5
2C1
330
1F
100
AcDbEntity
  8
PROFILES_OUTSIDE
100
AcDbLine
 10
40.3431000575
 20
8.797874821
 30
0.0
 11
42.2270567504
 21
8.797874821
 31
0.0
  0
LINE
  5
2C2
330
1F
100
AcDbEntity
  8
PROFILES_OUTSIDE
100
AcDbLine
 10
40.1522536008
 20
10.6511720773
 30
0.0
 11
40.1522536008
 21
8.9887212777
 31
0.0
  0
LINE
  5
2C3
330
1F
100
AcDbEntity
  8
PROFILES_OUTSIDE
100
AcDbLine
 10
39.5714465141
 20
10.842018534
 30
0.0
 11
39.9614071441
 21
10.842018534
 31
0.0
  0
LINE
  5
2C4
330
1F
100
AcDbEntity
  8
PROFILES_OUTSIDE
100
AcDbLine
 10
39.3806000575
 20
8.9887212777
 30
0.0
 11
39.3806000575
 21
10.6511720773
 31
0.0
  0
LINE
  5
2C5
330
1F
100
AcDbEntity
  8
PROFILES_OUTSIDE
100
AcDbLine
 10
37.3057969078
 20
8.797874821
 30
0.0
 11
39.1897536008
 21
8.797874821
 31
0.0
  0
LINE
  5
2C6
330
1F
100
AcDbEntity
  8
PROFILES_OUTSIDE
100
AcDbLine
 10
37.3057969078
 20
8.9017817141
 30
0.0
 11
37.3057969078
 21
8.797874821
 31
0.0
  0
LINE
  5
2C7
330
1F
100
AcDbEntity
  8
PROFILES_OUTSIDE
100
AcDbLine
 10
36.8199701362
 20
9.2900795454
 30
0.0
 11
37.1774424497
 21
9.2900795454
 31
0.0
  0
LINE
  5
2C8
330
1F
100
AcDbEntity
  8
PROFILES_OUTSIDE
100
AcDbLine
 10
36.8042221047
 20
9.0440165532
 30
0.0
 11
36.8199701362
 21
9.2900795454
 31
0.0
  0
LINE
  5
2C9
330
1F
100
AcDbEntity
  8
PROFILES_OUTSIDE
100
AcDbLine
 10
36.3609150181
 20
9.0440165532
 30
0.0
 11
36.8042221047
 21
9.0440165532
 31
0.0
  0
LINE
  5
2CA
330
1F
100
AcDbEntity
  8
PROFILES_OUTSIDE
100
AcDbLine
 10
36.3215449393
 20
9.5459850572
 30
0.0
 11
36.3215449393
 21
9.083386632
 31
0.0
  0
LINE
  5
2CB
330
1F
100
AcDbEntity
  8
PROFILES_OUTSIDE
100
AcDbLine
 10
38.644379585
 20
9.7822055296
 30
0.0
 11
36.5577654118
 21
9.7822055296
 31
0.0
  0
LINE
  5
2CC
330
1F
100
AcDbEntity
  8
PROFILES_OUTSIDE
100
AcDbLine
 10
38.8806000575
 20
10.842018534
 30
0.0
 11
38.8806000575
 21
10.0184260021
 31
0.0
  0
LINE
  5
2CD
330
1F
100
AcDbEntity
  8
PROFILES_OUTSIDE
100
AcDbLine
 10
39.3806000575
 20
11.8292903865
 30
0.0
 11
39.3806000575
 21
11.7080439378
 31
0.0
  0
LINE
  5
2CE
330
1F
100
AcDbEntity
  8
PROFILES_OUTSIDE
100
AcDbLine
 10
38.8806000575
 20
13.5189083222
 30
0.0
 11
38.8806000575
 21
12.6953157903
 31
0.0
  0
LINE
  5
2CF
330
1F
100
AcDbEntity
  8
PROFILES_OUTSIDE
100
AcDbLine
 10
36.5577654118
 20
13.7551287947
 30
0.0
 11
38.644379585
 21
13.7551287947
 31
0.0
  0
LINE
  5
2D0
330
1F
100
AcDbEntity
  8
PROFILES_OUTSIDE
100
AcDbLine
 10
36.3215449393
 20
14.4539476923
 30
0.0
 11
36.3215449393
 21
13.9913492671
 31
0.0
  0
LINE
  5
2D1
330
1F
100
AcDbEntity
  8
PROFILES_OUTSIDE
100
AcDbLine
 10
36.8042221047
 20
14.493317771
 30
0.0
 11
36.3609150181
 21
14.493317771
 31
0.0
  0
LINE
  5
2D2
330
1F
100
AcDbEntity
  8
PROFILES_OUTSIDE
100
AcDbLine
 10
36.8199701362
 20
14.2472547789
 30
0.0
 11
36.8042221047
 21
14.493317771
 31
0.0
  0
LINE
  5
2D3
330
1F
100
AcDbEntity
  8
PROFILES_OUTSIDE
100
AcDbLine
 10
37.1774424497
 20
14.2472547789
 30
0.0
 11
36.8199701362
 21
14.2472547789
 31
0.0
  0
LINE
  5
2D4
330
1F
100
AcDbEntity
  8
PROFILES_OUTSIDE
100
AcDbLine
 10
37.3057969078
 20
14.7394595033
 30
0.0
 11
37.3057969078
 21
14.6355526102
 31
0.0
  0
LINE
  5
2D5
330
1F
100
AcDbEntity
  8
PROFILES_OUTSIDE
100
AcDbLine
 10
39.1897536008
 20
14.7394595033
 30
0.0
 11
37.3057969078
 21
14.7394595033
 31
0.0
  0
LINE
  5
2D6
330
1F
100
AcDbEntity
  8
PROFILES_OUTSIDE
100
AcDbLine
 10
39.3806000575
 20
12.886162247
 30
0.0
 11
39.3806000575
 21
14.5486130466
 31
0.0
  0
LINE
  5
2D7
330
1F
100
AcDbEntity
  8
PROFILES_OUTSIDE
100
AcDbLine
 10
39.9614071441
 20
12.6953157903
 30
0.0
 11
39.5714465141
 21
12.6953157903
 31
0.0
  0
LINE
  5
2D8
330
1F
100
AcDbEntity
  8
PROFILES_OUTSIDE
100
AcDbLine
 10
40.1522536008
 20
14.5486130466
 30
0.0
 11
40.1522536008
 21
12.886162247
 31
0.0
  0
LINE
  5
2D9
330
1F
100
AcDbEntity
  8
PROFILES_OUTSIDE
100
AcDbLine
 10
42.2270567504
 20
14.7394595033
 30
0.0
 11
40.3431000575
 21
14.7394595033
 31
0.0
  0
LINE
  5
2DA
330
1F
100
AcDbEntity
  8
PROFILES_OUTSIDE
100
AcDbLine
 10
42.2270567504
 20
14.6355526102
 30
0.0
 11
42.2270567504
 21
14.7394595033
 31
0.0
  0
LINE
  5
2DB
330
1F
100
AcDbEntity
  8
PROFILES_OUTSIDE
100
AcDbLine
 10
42.712883522
 20
14.2472547789
 30
0.0
 11
42.3554112085
 21
14.2472547789
 31
0.0
  0
LINE
  5
2DC
330
1F
100
AcDbEntity
  8
PROFILES_OUTSIDE
100
AcDbLine
 10
42.7286315535
 20
14.493317771
 30
0.0
 11
42.712883522
 21
14.2472547789
 31
0.0
  0
LINE
  5
2DD
330
1F
100
AcDbEntity
  8
PROFILES_OUTSIDE
100
AcDbLine
 10
43.1719386401
 20
14.493317771
 30
0.0
 11
42.7286315535
 21
14.493317771
 31
0.0
  0
LINE
  5
2DE
330
1F
100
AcDbEntity
  8
PROFILES_OUTSIDE
100
AcDbLine
 10
43.2113087189
 20
13.9913492671
 30
0.0
 11
43.2113087189
 21
14.4539476923
 31
0.0
  0
LINE
  5
2DF
330
1F
100
AcDbEntity
  8
PROFILES_OUTSIDE
100
AcDbLine
 10
40.8884740732
 20
13.7551287947
 30
0.0
 11
42.9750882464
 21
13.7551287947
 31
0.0
  0
LINE
  5
2E0
330
1F
100
AcDbEntity
  8
PROFILES_OUTSIDE
100
AcDbLine
 10
40.6522536008
 20
12.6953157903
 30
0.0
 11
40.6522536008
 21
13.5189083222
 31
0.0
  0
LINE
  5
2E1
330
1F
100
AcDbEntity
  8
PROFILES_OUTSIDE
100
AcDbLine
 10
40.1522536008
 20
11.7080439378
 30
0.0
 11
40.1522536008
 21
11.8292903865
 31
0.0
  0
LINE
  5
2E2
330
1F
100
AcDbEntity
  8
PROFILES_OUTSIDE
100
AcDbLine
 10
40.6522536008
 20
10.0184260021
 30
0.0
 11
40.6522536008
 21
10.842018534
 31
0.0
  0
LINE
  5
2E3
330
1F
100
AcDbEntity
  8
PROFILES_OUTSIDE
100
AcDbLine
 10
42.9750882464
 20
9.7822055296
 30
0.0
 11
40.8884740732
 21
9.7822055296
 31
0.0
  0
LINE
  5
2E4
330
1F
100
AcDbEntity
  8
PROFILES_OUTSIDE
100
AcDbLine
 10
43.2113087189
 20
9.083386632
 30
0.0
 11
43.2113087189
 21
9.5459850572
 31
0.0
  0
ARC
  5
2E5
330
1F
100
AcDbEntity
  8
PROFILES_OUTSIDE
100
AcDbCircle
 10
2.1457836406
 20
2.6514482548
 30
0.0
 40
0.7874015748031507
100
AcDbArc
 50
180.0
 51
300.0
  0
ARC
  5
2E6
330
1F
100
AcDbEntity
  8
PROFILES_INSIDE
100
AcDbCircle
 10
11.6499350447
 20
6.3236334002
 30
0.0
 40
1.574803149606301
100
AcDbArc
 50
180.0
 51
240.0
  0
ARC
  5
2E7
330
1F
100
AcDbEntity
  8
PROFILES_INSIDE
100
AcDbCircle
 10
12.892236055
 20
4.6971775551
 30
0.0
 40
0.78740157480315
100
AcDbArc
 50
240.0
 51
0.0
  0
ARC
  5
2E8
330
1F
100
AcDbEntity
  8
PROFILES_INSIDE
100
AcDbCircle
 10
12.892236055
 20
11.6576074465
 30
0.0
 40
0.78740157480315
100
AcDbArc
 50
0.0
 51
120.0
  0
ARC
  5
2E9
330
1F
100
AcDbEntity
  8
PROFILES_INSIDE
100
AcDbCircle
 10
11.6499350447
 20
10.0311516015
 30
0.0
 40
1.5748031496063
100
AcDbArc
 50
120.0
 51
180.0
  0
ARC
  5
2EA
330
1F
100
AcDbEntity
  8
PROFILES_INSIDE
100
AcDbCircle
 10
6.3794675242
 20
11.1003605814
 30
0.0
 40
0.0393700787401564
100
AcDbArc
 50
240.0000176025
 51
312.4587642756
  0
ARC
  5
2EB
330
1F
100
AcDbEntity
  8
PROFILES_INSIDE
100
AcDbCircle
 10
6.5348773639
 20
10.930515255
 30
0.0
 40
0.1908464566929164
100
AcDbArc
 50
304.7126345201
 51
132.4587642756
  0
ARC
  5
2EC
330
1F
100
AcDbEntity
  8
PROFILES_INSIDE
100
AcDbCircle
 10
6.665976971
 20
10.7412725539
 30
0.0
 40
0.0393706297576663
100
AcDbArc
 50
124.7126345201
 51
150.0
  0
ARC
  5
2ED
330
1F
100
AcDbEntity
  8
PROFILES_INSIDE
100
AcDbCircle
 10
6.551417628
 20
10.5428510533
 30
0.0
 40
0.0393700787401585
100
AcDbArc
 50
150.0
 51
175.2874055479
  0
ARC
  5
2EE
330
1F
100
AcDbEntity
  8
PROFILES_INSIDE
100
AcDbCircle
 10
6.3219793738
 20
10.5617650872
 30
0.0
 40
0.1908464566929138
100
AcDbArc
 50
167.5412425128
 51
355.2874055479
  0
ARC
  5
2EF
330
1F
100
AcDbEntity
  8
PROFILES_INSIDE
100
AcDbCircle
 10
6.0971840806
 20
10.6114312665
 30
0.0
 40
0.0393700787401562
100
AcDbArc
 50
347.5412425128
 51
60.0000176025
  0
ARC
  5
2F0
330
1F
100
AcDbEntity
  8
PROFILES_INSIDE
100
AcDbCircle
 10
5.9173484125
 20
10.7152593643
 30
0.0
 40
0.0393700787401578
100
AcDbArc
 50
60.0000176025
 51
132.4587642756
  0
ARC
  5
2F1
330
1F
100
AcDbEntity
  8
PROFILES_INSIDE
100
AcDbCircle
 10
5.7619385728
 20
10.8851046907
 30
0.0
 40
0.1908464566929148
100
AcDbArc
 50
124.7126037568
 51
312.4587642756
  0
ARC
  5
2F2
330
1F
100
AcDbEntity
  8
PROFILES_INSIDE
100
AcDbCircle
 10
5.6308393811
 20
11.0743470092
 30
0.0
 40
0.0393700787401585
100
AcDbArc
 50
304.7126037568
 51
330.0
  0
ARC
  5
2F3
330
1F
100
AcDbEntity
  8
PROFILES_OUTSIDE
100
AcDbCircle
 10
2.1457836406
 20
13.7033367468
 30
0.0
 40
0.7874015748031509
100
AcDbArc
 50
60.0
 51
180.0
  0
ARC
  5
2F4
330
1F
100
AcDbEntity
  8
PROFILES_OUTSIDE
100
AcDbCircle
 10
2.1457836406
 20
2.6514482548
 30
0.0
 40
0.7874015748031507
100
AcDbArc
 50
180.0
 51
300.0
  0
ARC
  5
2F5
330
1F
100
AcDbEntity
  8
PROFILES_OUTSIDE
100
AcDbCircle
 10
5.7503287455
 20
5.6417463637
 30
0.0
 40
1.574803149606302
100
AcDbArc
 50
300.0
 51
0.0
  0
ARC
  5
2F6
330
1F
100
AcDbEntity
  8
PROFILES_OUTSIDE
100
AcDbCircle
 10
5.7503287455
 20
10.7130386379
 30
0.0
 40
1.574803149606301
100
AcDbArc
 50
0.0
 51
60.0
  0
ARC
  5
2F7
330
1F
100
AcDbEntity
  8
PROFILES_INSIDE
100
AcDbCircle
 10
5.7453983705
 20
11.2727689994
 30
0.0
 40
0.039370056854757
100
AcDbArc
 50
330.0
 51
355.2873777324
  0
ARC
  5
2F8
330
1F
100
AcDbEntity
  8
PROFILES_INSIDE
100
AcDbCircle
 10
5.9748365629
 20
11.2538548585
 30
0.0
 40
0.1908464354388786
100
AcDbArc
 50
347.5412425128
 51
175.2873777324
  0
ARC
  5
2F9
330
1F
100
AcDbEntity
  8
PROFILES_INSIDE
100
AcDbCircle
 10
6.1996318561
 20
11.2041886792
 30
0.0
 40
0.0393700999941947
100
AcDbArc
 50
167.5412425128
 51
240.0000176025
  0
ARC
  5
2FA
330
1F
100
AcDbEntity
  8
PROFILES_INSIDE
100
AcDbCircle
 10
3.2253244962
 20
12.7277341864
 30
0.0
 40
0.0393706297576659
100
AcDbArc
 50
124.7126345201
 51
150.0
  0
ARC
  5
2FB
330
1F
100
AcDbEntity
  8
PROFILES_INSIDE
100
AcDbCircle
 10
3.0942248891
 20
12.9169768875
 30
0.0
 40
0.1908464566929161
100
AcDbArc
 50
304.7126345201
 51
132.4587642756
  0
ARC
  5
2FC
330
1F
100
AcDbEntity
  8
PROFILES_INSIDE
100
AcDbCircle
 10
2.9388150494
 20
13.0868222139
 30
0.0
 40
0.0393700787401573
100
AcDbArc
 50
240.0000176025
 51
312.4587642756
  0
ARC
  5
2FD
330
1F
100
AcDbEntity
  8
PROFILES_INSIDE
100
AcDbCircle
 10
2.7589793813
 20
13.1906503117
 30
0.0
 40
0.0393700903332692
100
AcDbArc
 50
167.5412425128
 51
240.0000176025
  0
ARC
  5
2FE
330
1F
100
AcDbEntity
  8
PROFILES_INSIDE
100
AcDbCircle
 10
2.5341840881
 20
13.240316491
 30
0.0
 40
0.1908464450998036
100
AcDbArc
 50
347.5412425128
 51
175.2873777324
  0
ARC
  5
2FF
330
1F
100
AcDbEntity
  8
PROFILES_INSIDE
100
AcDbCircle
 10
2.3047458957
 20
13.259230632
 30
0.0
 40
0.0393700549225688
100
AcDbArc
 50
330.0
 51
355.2873777324
  0
ARC
  5
300
330
1F
100
AcDbEntity
  8
PROFILES_INSIDE
100
AcDbCircle
 10
2.1901869063
 20
13.0608086418
 30
0.0
 40
0.0393700787401572
100
AcDbArc
 50
304.7126037568
 51
330.0
  0
ARC
  5
301
330
1F
100
AcDbEntity
  8
PROFILES_INSIDE
100
AcDbCircle
 10
2.321286098
 20
12.8715663232
 30
0.0
 40
0.190846456692915
100
AcDbArc
 50
124.7126037568
 51
312.4587642756
  0
ARC
  5
302
330
1F
100
AcDbEntity
  8
PROFILES_INSIDE
100
AcDbCircle
 10
2.4766959377
 20
12.7017209968
 30
0.0
 40
0.0393700787401578
100
AcDbArc
 50
60.0000176025
 51
132.4587642756
  0
ARC
  5
303
330
1F
100
AcDbEntity
  8
PROFILES_INSIDE
100
AcDbCircle
 10
2.6565316058
 20
12.5978928991
 30
0.0
 40
0.0393700787401566
100
AcDbArc
 50
347.5412425128
 51
60.0000176025
  0
ARC
  5
304
330
1F
100
AcDbEntity
  8
PROFILES_INSIDE
100
AcDbCircle
 10
2.8813268989
 20
12.5482267197
 30
0.0
 40
0.1908464566929162
100
AcDbArc
 50
167.5412425128
 51
355.2874055479
  0
ARC
  5
305
330
1F
100
AcDbEntity
  8
PROFILES_INSIDE
100
AcDbCircle
 10
3.1107651532
 20
12.5293126858
 30
0.0
 40
0.0393700787401572
100
AcDbArc
 50
150.0
 51
175.2874055479
  0
ARC
  5
306
330
1F
100
AcDbEntity
  8
PROFILES_INSIDE
100
AcDbCircle
 10
6.5348773328
 20
5.4242698324
 30
0.0
 40
0.1908464566929135
100
AcDbArc
 50
227.5412425128
 51
55.2874055479
  0
ARC
  5
307
330
1F
100
AcDbEntity
  8
PROFILES_INSIDE
100
AcDbCircle
 10
6.6659764938
 20
5.6135121722
 30
0.0
 40
0.0393700787401581
100
AcDbArc
 50
210.0
 51
235.2874055479
  0
ARC
  5
308
330
1F
100
AcDbEntity
  8
PROFILES_INSIDE
100
AcDbCircle
 10
6.5514181052
 20
5.8119342238
 30
0.0
 40
0.0393706297576663
100
AcDbArc
 50
184.7126345201
 51
210.0
  0
ARC
  5
309
330
1F
100
AcDbEntity
  8
PROFILES_INSIDE
100
AcDbCircle
 10
6.321979315
 20
5.7930199842
 30
0.0
 40
0.1908464566929175
100
AcDbArc
 50
4.7126345201
 51
192.4587642756
  0
ARC
  5
30A
330
1F
100
AcDbEntity
  8
PROFILES_INSIDE
100
AcDbCircle
 10
6.0971840278
 20
5.7433537782
 30
0.0
 40
0.039370078740157
100
AcDbArc
 50
300.0000176025
 51
12.4587642756
  0
ARC
  5
30B
330
1F
100
AcDbEntity
  8
PROFILES_INSIDE
100
AcDbCircle
 10
5.9173484234
 20
5.63952557
 30
0.0
 40
0.0393700884010844
100
AcDbArc
 50
227.5412425128
 51
300.0000176025
  0
ARC
  5
30C
330
1F
100
AcDbEntity
  8
PROFILES_INSIDE
100
AcDbCircle
 10
5.7619386038
 20
5.4696802251
 30
0.0
 40
0.1908464470319871
100
AcDbArc
 50
47.5412425128
 51
235.2873777324
  0
ARC
  5
30D
330
1F
100
AcDbEntity
  8
PROFILES_INSIDE
100
AcDbCircle
 10
5.6308393811
 20
5.2804379924
 30
0.0
 40
0.0393700529903842
100
AcDbArc
 50
30.0
 51
55.2873777324
  0
ARC
  5
30E
330
1F
100
AcDbEntity
  8
PROFILES_INSIDE
100
AcDbCircle
 10
5.7453983705
 20
5.0820160022
 30
0.0
 40
0.0393700787401581
100
AcDbArc
 50
4.7126037568
 51
30.0
  0
ARC
  5
30F
330
1F
100
AcDbEntity
  8
PROFILES_INSIDE
100
AcDbCircle
 10
5.9748366217
 20
5.1009300734
 30
0.0
 40
0.1908464566929146
100
AcDbArc
 50
184.7126037568
 51
12.4587642756
  0
ARC
  5
310
330
1F
100
AcDbEntity
  8
PROFILES_INSIDE
100
AcDbCircle
 10
6.1996319089
 20
5.1505962793
 30
0.0
 40
0.0393700787401613
100
AcDbArc
 50
120.0000176025
 51
192.4587642756
  0
ARC
  5
311
330
1F
100
AcDbEntity
  8
PROFILES_INSIDE
100
AcDbCircle
 10
6.3794675133
 20
5.2544244876
 30
0.0
 40
0.0393700787401574
100
AcDbArc
 50
47.5412425128
 51
120.0000176025
  0
ARC
  5
312
330
1F
100
AcDbEntity
  8
PROFILES_INSIDE
100
AcDbCircle
 10
2.3047458957
 20
3.0955543697
 30
0.0
 40
0.0393700787401583
100
AcDbArc
 50
4.7126037568
 51
30.0
  0
ARC
  5
313
330
1F
100
AcDbEntity
  8
PROFILES_INSIDE
100
AcDbCircle
 10
2.5341841469
 20
3.1144684409
 30
0.0
 40
0.1908464566929146
100
AcDbArc
 50
184.7126037568
 51
12.4587642756
  0
ARC
  5
314
330
1F
100
AcDbEntity
  8
PROFILES_INSIDE
100
AcDbCircle
 10
2.7589794341
 20
3.1641346468
 30
0.0
 40
0.039370078740157
100
AcDbArc
 50
120.0000176025
 51
192.4587642756
  0
ARC
  5
315
330
1F
100
AcDbEntity
  8
PROFILES_INSIDE
100
AcDbCircle
 10
2.9388150385
 20
3.267962855
 30
0.0
 40
0.039370078740157
100
AcDbArc
 50
47.5412425128
 51
120.0000176025
  0
ARC
  5
316
330
1F
100
AcDbEntity
  8
PROFILES_INSIDE
100
AcDbCircle
 10
3.094224858
 20
3.4378081999
 30
0.0
 40
0.1908464566929132
100
AcDbArc
 50
227.5412425128
 51
55.2874055479
  0
ARC
  5
317
330
1F
100
AcDbEntity
  8
PROFILES_INSIDE
100
AcDbCircle
 10
3.225324019
 20
3.6270505397
 30
0.0
 40
0.039370078740158
100
AcDbArc
 50
210.0
 51
235.2874055479
  0
ARC
  5
318
330
1F
100
AcDbEntity
  8
PROFILES_INSIDE
100
AcDbCircle
 10
3.1107656304
 20
3.8254725913
 30
0.0
 40
0.039370629757666
100
AcDbArc
 50
184.7126345201
 51
210.0
  0
ARC
  5
319
330
1F
100
AcDbEntity
  8
PROFILES_INSIDE
100
AcDbCircle
 10
2.8813268402
 20
3.8065583517
 30
0.0
 40
0.1908464566929133
100
AcDbArc
 50
4.7126345201
 51
192.4587642756
  0
ARC
  5
31A
330
1F
100
AcDbEntity
  8
PROFILES_INSIDE
100
AcDbCircle
 10
2.656531553
 20
3.7568921457
 30
0.0
 40
0.0393700787401566
100
AcDbArc
 50
300.0000176025
 51
12.4587642756
  0
ARC
  5
31B
330
1F
100
AcDbEntity
  8
PROFILES_INSIDE
100
AcDbCircle
 10
2.4766959486
 20
3.6530639375
 30
0.0
 40
0.0393700806723439
100
AcDbArc
 50
227.5412425128
 51
300.0000176025
  0
ARC
  5
31C
330
1F
100
AcDbEntity
  8
PROFILES_INSIDE
100
AcDbCircle
 10
2.321286129
 20
3.4832185926
 30
0.0
 40
0.1908464547607279
100
AcDbArc
 50
47.5412425128
 51
235.2873777324
  0
ARC
  5
31D
330
1F
100
AcDbEntity
  8
PROFILES_INSIDE
100
AcDbCircle
 10
2.1901869063
 20
3.2939763599
 30
0.0
 40
0.0393700568547534
100
AcDbArc
 50
30.0
 51
55.2873777324
  0
ARC
  5
31E
330
1F
100
AcDbEntity
  8
PROFILES_INSIDE
100
AcDbCircle
 10
19.8818254504
 20
11.1003605814
 30
0.0
 40
0.0393700787401569
100
AcDbArc
 50
240.0000176025
 51
312.4587642756
  0
ARC
  5
31F
330
1F
100
AcDbEntity
  8
PROFILES_INSIDE
100
AcDbCircle
 10
20.0372352901
 20
10.930515255
 30
0.0
 40
0.1908464566929144
100
AcDbArc
 50
304.7126345201
 51
132.4587642756
  0
ARC
  5
320
330
1F
100
AcDbEntity
  8
PROFILES_INSIDE
100
AcDbCircle
 10
20.1683348972
 20
10.7412725539
 30
0.0
 40
0.0393706297576695
100
AcDbArc
 50
124.7126345201
 51
150.0
  0
ARC
  5
321
330
1F
100
AcDbEntity
  8
PROFILES_INSIDE
100
AcDbCircle
 10
20.0537755542
 20
10.5428510533
 30
0.0
 40
0.0393700787401562
100
AcDbArc
 50
150.0
 51
175.2874055479
  0
ARC
  5
322
330
1F
100
AcDbEntity
  8
PROFILES_INSIDE
100
AcDbCircle
 10
19.8243372999
 20
10.5617650872
 30
0.0
 40
0.1908464566929174
100
AcDbArc
 50
167.5412425128
 51
355.2874055479
  0
ARC
  5
323
330
1F
100
AcDbEntity
  8
PROFILES_INSIDE
100
AcDbCircle
 10
19.5995420068
 20
10.6114312665
 30
0.0
 40
0.0393700787401567
100
AcDbArc
 50
347.5412425128
 51
60.0000176025
  0
ARC
  5
324
330
1F
100
AcDbEntity
  8
PROFILES_INSIDE
100
AcDbCircle
 10
19.4197063386
 20
10.7152593643
 30
0.0
 40
0.0393700787401572
100
AcDbArc
 50
60.0000176025
 51
132.4587642756
  0
ARC
  5
325
330
1F
100
AcDbEntity
  8
PROFILES_INSIDE
100
AcDbCircle
 10
19.2642964989
 20
10.8851046907
 30
0.0
 40
0.1908464566929165
100
AcDbArc
 50
124.7126037568
 51
312.4587642756
  0
ARC
  5
326
330
1F
100
AcDbEntity
  8
PROFILES_INSIDE
100
AcDbCircle
 10
19.1331973072
 20
11.0743470092
 30
0.0
 40
0.0393700787401584
100
AcDbArc
 50
304.7126037568
 51
330.0
  0
ARC
  5
327
330
1F
100
AcDbEntity
  8
PROFILES_INSIDE
100
AcDbCircle
 10
19.2477562967
 20
11.2727689994
 30
0.0
 40
0.0393700568547531
100
AcDbArc
 50
330.0
 51
355.2873777324
  0
ARC
  5
328
330
1F
100
AcDbEntity
  8
PROFILES_INSIDE
100
AcDbCircle
 10
19.4771944891
 20
11.2538548585
 30
0.0
 40
0.1908464354388778
100
AcDbArc
 50
347.5412425128
 51
175.2873777324
  0
ARC
  5
329
330
1F
100
AcDbEntity
  8
PROFILES_INSIDE
100
AcDbCircle
 10
19.7019897822
 20
11.2041886792
 30
0.0
 40
0.0393700999941947
100
AcDbArc
 50
167.5412425128
 51
240.0000176025
  0
ARC
  5
32A
330
1F
100
AcDbEntity
  8
PROFILES_INSIDE
100
AcDbCircle
 10
16.73261263
 20
12.7248877297
 30
0.0
 40
0.0393706297576655
100
AcDbArc
 50
124.7126345201
 51
150.0
  0
ARC
  5
32B
330
1F
100
AcDbEntity
  8
PROFILES_INSIDE
100
AcDbCircle
 10
16.6015130229
 20
12.9141304308
 30
0.0
 40
0.190846456692915
100
AcDbArc
 50
304.7126345201
 51
132.4587642756
  0
ARC
  5
32C
330
1F
100
AcDbEntity
  8
PROFILES_INSIDE
100
AcDbCircle
 10
16.4461031832
 20
13.0839757572
 30
0.0
 40
0.0393700787401618
100
AcDbArc
 50
240.0000176025
 51
312.4587642756
  0
ARC
  5
32D
330
1F
100
AcDbEntity
  8
PROFILES_INSIDE
100
AcDbCircle
 10
16.2662675151
 20
13.187803855
 30
0.0
 40
0.0393700903332717
100
AcDbArc
 50
167.5412425128
 51
240.0000176025
  0
ARC
  5
32E
330
1F
100
AcDbEntity
  8
PROFILES_INSIDE
100
AcDbCircle
 10
16.0414722219
 20
13.2374700343
 30
0.0
 40
0.190846445099802
100
AcDbArc
 50
347.5412425128
 51
175.2873777324
  0
ARC
  5
32F
330
1F
100
AcDbEntity
  8
PROFILES_INSIDE
100
AcDbCircle
 10
15.8120340295
 20
13.2563841753
 30
0.0
 40
0.0393700549225734
100
AcDbArc
 50
330.0
 51
355.2873777324
  0
ARC
  5
330
330
1F
100
AcDbEntity
  8
PROFILES_INSIDE
100
AcDbCircle
 10
15.69747504
 20
13.0579621851
 30
0.0
 40
0.0393700787401584
100
AcDbArc
 50
304.7126037568
 51
330.0
  0
ARC
  5
331
330
1F
100
AcDbEntity
  8
PROFILES_INSIDE
100
AcDbCircle
 10
15.8285742317
 20
12.8687198666
 30
0.0
 40
0.1908464566929141
100
AcDbArc
 50
124.7126037568
 51
312.4587642756
  0
ARC
  5
332
330
1F
100
AcDbEntity
  8
PROFILES_INSIDE
100
AcDbCircle
 10
15.9839840714
 20
12.6988745401
 30
0.0
 40
0.0393700787401587
100
AcDbArc
 50
60.0000176025
 51
132.4587642756
  0
ARC
  5
333
330
1F
100
AcDbEntity
  8
PROFILES_INSIDE
100
AcDbCircle
 10
16.1638197396
 20
12.5950464424
 30
0.0
 40
0.039370078740157
100
AcDbArc
 50
347.5412425128
 51
60.0000176025
  0
ARC
  5
334
330
1F
100
AcDbEntity
  8
PROFILES_INSIDE
100
AcDbCircle
 10
16.3886150327
 20
12.5453802631
 30
0.0
 40
0.1908464566929139
100
AcDbArc
 50
167.5412425128
 51
355.2874055479
  0
ARC
  5
335
330
1F
100
AcDbEntity
  8
PROFILES_INSIDE
100
AcDbCircle
 10
16.618053287
 20
12.5264662291
 30
0.0
 40
0.0393700787401571
100
AcDbArc
 50
150.0
 51
175.2874055479
  0
ARC
  5
336
330
1F
100
AcDbEntity
  8
PROFILES_INSIDE
100
AcDbCircle
 10
20.037235259
 20
5.4242698324
 30
0.0
 40
0.1908464566929141
100
AcDbArc
 50
227.5412425128
 51
55.2874055479
  0
ARC
  5
337
330
1F
100
AcDbEntity
  8
PROFILES_INSIDE
100
AcDbCircle
 10
20.16833442
 20
5.6135121722
 30
0.0
 40
0.0393700787401589
100
AcDbArc
 50
210.0
 51
235.2874055479
  0
ARC
  5
338
330
1F
100
AcDbEntity
  8
PROFILES_INSIDE
100
AcDbCircle
 10
20.0537760313
 20
5.8119342238
 30
0.0
 40
0.0393706297576695
100
AcDbArc
 50
184.7126345201
 51
210.0
  0
ARC
  5
339
330
1F
100
AcDbEntity
  8
PROFILES_INSIDE
100
AcDbCircle
 10
19.8243372412
 20
5.7930199842
 30
0.0
 40
0.1908464566929157
100
AcDbArc
 50
4.7126345201
 51
192.4587642756
  0
ARC
  5
33A
330
1F
100
AcDbEntity
  8
PROFILES_INSIDE
100
AcDbCircle
 10
19.5995419539
 20
5.7433537782
 30
0.0
 40
0.0393700787401549
100
AcDbArc
 50
300.0000176025
 51
12.4587642756
  0
ARC
  5
33B
330
1F
100
AcDbEntity
  8
PROFILES_INSIDE
100
AcDbCircle
 10
19.4197063496
 20
5.63952557
 30
0.0
 40
0.0393700884010844
100
AcDbArc
 50
227.5412425128
 51
300.0000176025
  0
ARC
  5
33C
330
1F
100
AcDbEntity
  8
PROFILES_INSIDE
100
AcDbCircle
 10
19.26429653
 20
5.4696802251
 30
0.0
 40
0.1908464470319871
100
AcDbArc
 50
47.5412425128
 51
235.2873777324
  0
ARC
  5
33D
330
1F
100
AcDbEntity
  8
PROFILES_INSIDE
100
AcDbCircle
 10
19.1331973072
 20
5.2804379924
 30
0.0
 40
0.0393700529903826
100
AcDbArc
 50
30.0
 51
55.2873777324
  0
ARC
  5
33E
330
1F
100
AcDbEntity
  8
PROFILES_INSIDE
100
AcDbCircle
 10
19.2477562967
 20
5.0820160022
 30
0.0
 40
0.0393700787401565
100
AcDbArc
 50
4.7126037568
 51
30.0
  0
ARC
  5
33F
330
1F
100
AcDbEntity
  8
PROFILES_INSIDE
100
AcDbCircle
 10
19.4771945478
 20
5.1009300734
 30
0.0
 40
0.1908464566929148
100
AcDbArc
 50
184.7126037568
 51
12.4587642756
  0
ARC
  5
340
330
1F
100
AcDbEntity
  8
PROFILES_INSIDE
100
AcDbCircle
 10
19.7019898351
 20
5.1505962793
 30
0.0
 40
0.0393700787401566
100
AcDbArc
 50
120.0000176025
 51
192.4587642756
  0
ARC
  5
341
330
1F
100
AcDbEntity
  8
PROFILES_INSIDE
100
AcDbCircle
 10
19.8818254394
 20
5.2544244876
 30
0.0
 40
0.0393700787401584
100
AcDbArc
 50
47.5412425128
 51
120.0000176025
  0
ARC
  5
342
330
1F
100
AcDbEntity
  8
PROFILES_INSIDE
100
AcDbCircle
 10
15.8120340295
 20
3.0984008264
 30
0.0
 40
0.0393700787401583
100
AcDbArc
 50
4.7126037568
 51
30.0
  0
ARC
  5
343
330
1F
100
AcDbEntity
  8
PROFILES_INSIDE
100
AcDbCircle
 10
16.0414722806
 20
3.1173148975
 30
0.0
 40
0.1908464566929162
100
AcDbArc
 50
184.7126037568
 51
12.4587642756
  0
ARC
  5
344
330
1F
100
AcDbEntity
  8
PROFILES_INSIDE
100
AcDbCircle
 10
16.2662675679
 20
3.1669811035
 30
0.0
 40
0.0393700787401549
100
AcDbArc
 50
120.0000176025
 51
192.4587642756
  0
ARC
  5
345
330
1F
100
AcDbEntity
  8
PROFILES_INSIDE
100
AcDbCircle
 10
16.4461031722
 20
3.2708093117
 30
0.0
 40
0.039370078740157
100
AcDbArc
 50
47.5412425128
 51
120.0000176025
  0
ARC
  5
346
330
1F
100
AcDbEntity
  8
PROFILES_INSIDE
100
AcDbCircle
 10
16.6015129918
 20
3.4406546566
 30
0.0
 40
0.1908464566929163
100
AcDbArc
 50
227.5412425128
 51
55.2874055479
  0
ARC
  5
347
330
1F
100
AcDbEntity
  8
PROFILES_INSIDE
100
AcDbCircle
 10
16.7326121528
 20
3.6298969964
 30
0.0
 40
0.0393700787401588
100
AcDbArc
 50
210.0
 51
235.2874055479
  0
ARC
  5
348
330
1F
100
AcDbEntity
  8
PROFILES_INSIDE
100
AcDbCircle
 10
16.6180537642
 20
3.828319048
 30
0.0
 40
0.039370629757668
100
AcDbArc
 50
184.7126345201
 51
210.0
  0
ARC
  5
349
330
1F
100
AcDbEntity
  8
PROFILES_INSIDE
100
AcDbCircle
 10
16.388614974
 20
3.8094048084
 30
0.0
 40
0.1908464566929121
100
AcDbArc
 50
4.7126345201
 51
192.4587642756
  0
ARC
  5
34A
330
1F
100
AcDbEntity
  8
PROFILES_INSIDE
100
AcDbCircle
 10
16.1638196867
 20
3.7597386024
 30
0.0
 40
0.039370078740157
100
AcDbArc
 50
300.0000176025
 51
12.4587642756
  0
ARC
  5
34B
330
1F
100
AcDbEntity
  8
PROFILES_INSIDE
100
AcDbCircle
 10
15.9839840824
 20
3.6559103942
 30
0.0
 40
0.0393700806723406
100
AcDbArc
 50
227.5412425128
 51
300.0000176025
  0
ARC
  5
34C
330
1F
100
AcDbEntity
  8
PROFILES_INSIDE
100
AcDbCircle
 10
15.8285742628
 20
3.4860650493
 30
0.0
 40
0.1908464547607309
100
AcDbArc
 50
47.5412425128
 51
235.2873777324
  0
ARC
  5
34D
330
1F
100
AcDbEntity
  8
PROFILES_INSIDE
100
AcDbCircle
 10
15.69747504
 20
3.2968228166
 30
0.0
 40
0.0393700568547571
100
AcDbArc
 50
30.0
 51
55.2873777324
  0
ARC
  5
34E
330
1F
100
AcDbEntity
  8
POCKETS
100
AcDbCircle
 10
15.2232264471
 20
13.1566283804
 30
0.0
 40
0.1908464566929159
100
AcDbArc
 50
347.5412391186
 51
175.2874008956
  0
ARC
  5
34F
330
1F
100
AcDbEntity
  8
POCKETS
100
AcDbCircle
 10
14.9937881944
 20
13.175542433
 30
0.0
 40
0.0393700787401602
100
AcDbArc
 50
330.0
 51
355.2874008956
  0
ARC
  5
350
330
1F
100
AcDbEntity
  8
POCKETS
100
AcDbCircle
 10
14.8725363533
 20
12.9655280838
 30
0.0
 40
0.0393700787401568
100
AcDbArc
 50
304.7125991044
 51
330.0
  0
ARC
  5
351
330
1F
100
AcDbEntity
  8
POCKETS
100
AcDbCircle
 10
15.0036355297
 20
12.7762857546
 30
0.0
 40
0.1908464566929149
100
AcDbArc
 50
124.7125991044
 51
312.4587608814
  0
ARC
  5
352
330
1F
100
AcDbEntity
  8
POCKETS
100
AcDbCircle
 10
15.1590453593
 20
12.606440419
 30
0.0
 40
0.0393700787401586
100
AcDbArc
 50
60.0
 51
132.4587608814
  0
ARC
  5
353
330
1F
100
AcDbEntity
  8
POCKETS
100
AcDbCircle
 10
15.1590453593
 20
3.7483445826
 30
0.0
 40
0.0393700787401567
100
AcDbArc
 50
227.5412391186
 51
300.0
  0
ARC
  5
354
330
1F
100
AcDbEntity
  8
POCKETS
100
AcDbCircle
 10
15.0036355297
 20
3.578499247
 30
0.0
 40
0.190846456692914
100
AcDbArc
 50
47.5412391186
 51
235.2874008956
  0
ARC
  5
355
330
1F
100
AcDbEntity
  8
POCKETS
100
AcDbCircle
 10
14.8725363533
 20
3.3892569178
 30
0.0
 40
0.0393700787401564
100
AcDbArc
 50
30.0
 51
55.2874008956
  0
ARC
  5
356
330
1F
100
AcDbEntity
  8
PROFILES_OUTSIDE
100
AcDbCircle
 10
10.4688326825
 20
5.6417236334
 30
0.0
 40
1.5748031496063
100
AcDbArc
 50
180.0
 51
240.0
  0
ARC
  5
357
330
1F
100
AcDbEntity
  8
PROFILES_OUTSIDE
100
AcDbCircle
 10
10.4688326825
 20
10.7130613682
 30
0.0
 40
1.574803149606298
100
AcDbArc
 50
120.0
 51
180.0
  0
ARC
  5
358
330
1F
100
AcDbEntity
  8
POCKETS
100
AcDbCircle
 10
14.9937881944
 20
3.1792425687
 30
0.0
 40
0.0393700787401562
100
AcDbArc
 50
4.7125991044
 51
30.0
  0
ARC
  5
359
330
1F
100
AcDbEntity
  8
POCKETS
100
AcDbCircle
 10
15.2232264471
 20
3.1981566212
 30
0.0
 40
0.1908464566929154
100
AcDbArc
 50
184.7125991044
 51
12.4587608814
  0
ARC
  5
35A
330
1F
100
AcDbEntity
  8
POCKETS
100
AcDbCircle
 10
15.4480217373
 20
3.2478228138
 30
0.0
 40
0.0393700787401571
100
AcDbArc
 50
120.0
 51
192.4587608814
  0
ARC
  5
35B
330
1F
100
AcDbEntity
  8
POCKETS
100
AcDbCircle
 10
15.4480217373
 20
13.1069621878
 30
0.0
 40
0.0393700787401602
100
AcDbArc
 50
167.5412391186
 51
240.0
  0
ARC
  5
35C
330
1F
100
AcDbEntity
  8
PROFILES_OUTSIDE
100
AcDbCircle
 10
14.860739992
 20
13.2487302356
 30
0.0
 40
1.5748031496063
100
AcDbArc
 50
60.0
 51
120.0
  0
ARC
  5
35D
330
1F
100
AcDbEntity
  8
PROFILES_OUTSIDE
100
AcDbCircle
 10
19.2526473015
 20
10.7130613682
 30
0.0
 40
1.574803149606301
100
AcDbArc
 50
0.0
 51
60.0
  0
ARC
  5
35E
330
1F
100
AcDbEntity
  8
PROFILES_OUTSIDE
100
AcDbCircle
 10
19.2526473015
 20
5.6417236334
 30
0.0
 40
1.574803149606297
100
AcDbArc
 50
300.0
 51
0.0
  0
ARC
  5
35F
330
1F
100
AcDbEntity
  8
PROFILES_OUTSIDE
100
AcDbCircle
 10
14.860739992
 20
3.106054766
 30
0.0
 40
1.5748031496063
100
AcDbArc
 50
240.0
 51
300.0
  0
ARC
  5
360
330
1F
100
AcDbEntity
  8
PROFILES_OUTSIDE
100
AcDbCircle
 10
37.1774424497
 20
6.6975598603
 30
0.0
 40
0.0393700787401602
100
AcDbArc
 50
64.7125991044
 51
90.0
  0
ARC
  5
361
330
1F
100
AcDbEntity
  8
PROFILES_OUTSIDE
100
AcDbCircle
 10
37.275781526
 20
6.9057162421
 30
0.0
 40
0.1908464566929145
100
AcDbArc
 50
244.7125991044
 51
72.4587608814
  0
ARC
  5
362
330
1F
100
AcDbEntity
  8
PROFILES_OUTSIDE
100
AcDbCircle
 10
37.3451669866
 20
7.1252277703
 30
0.0
 40
0.0393700787401627
100
AcDbArc
 50
180.0
 51
252.4587608814
  0
ARC
  5
363
330
1F
100
AcDbEntity
  8
PROFILES_OUTSIDE
100
AcDbCircle
 10
39.1897536008
 20
7.0382882068
 30
0.0
 40
0.1908464566929133
100
AcDbArc
 50
0.0
 51
90.0
  0
ARC
  5
364
330
1F
100
AcDbEntity
  8
PROFILES_OUTSIDE
100
AcDbCircle
 10
39.5714465141
 20
5.3758374072
 30
0.0
 40
0.1908464566929133
100
AcDbArc
 50
180.0
 51
270.0
  0
ARC
  5
365
330
1F
100
AcDbEntity
  8
PROFILES_OUTSIDE
100
AcDbCircle
 10
39.9614071441
 20
5.3758374072
 30
0.0
 40
0.1908464566929169
100
AcDbArc
 50
270.0
 51
0.0
  0
ARC
  5
366
330
1F
100
AcDbEntity
  8
PROFILES_OUTSIDE
100
AcDbCircle
 10
40.3431000575
 20
7.0382882068
 30
0.0
 40
0.1908464566929133
100
AcDbArc
 50
90.0
 51
180.0
  0
ARC
  5
367
330
1F
100
AcDbEntity
  8
PROFILES_OUTSIDE
100
AcDbCircle
 10
42.1876866716
 20
7.1252277703
 30
0.0
 40
0.0393700787401553
100
AcDbArc
 50
287.5412391186
 51
0.0
  0
ARC
  5
368
330
1F
100
AcDbEntity
  8
PROFILES_OUTSIDE
100
AcDbCircle
 10
42.2570721322
 20
6.9057162421
 30
0.0
 40
0.1908464566929158
100
AcDbArc
 50
107.5412391186
 51
295.2874008956
  0
ARC
  5
369
330
1F
100
AcDbEntity
  8
PROFILES_OUTSIDE
100
AcDbCircle
 10
42.3554112085
 20
6.6975598603
 30
0.0
 40
0.0393700787401574
100
AcDbArc
 50
90.0
 51
115.2874008956
  0
ARC
  5
36A
330
1F
100
AcDbEntity
  8
PROFILES_OUTSIDE
100
AcDbCircle
 10
43.1719386401
 20
6.9436228525
 30
0.0
 40
0.0393700787401574
100
AcDbArc
 50
0.0
 51
90.0
  0
ARC
  5
36B
330
1F
100
AcDbEntity
  8
PROFILES_OUTSIDE
100
AcDbCircle
 10
42.9750882464
 20
6.4810244273
 30
0.0
 40
0.2362204724409454
100
AcDbArc
 50
270.0
 51
0.0
  0
ARC
  5
36C
330
1F
100
AcDbEntity
  8
PROFILES_OUTSIDE
100
AcDbCircle
 10
40.8884740732
 20
6.0085834824
 30
0.0
 40
0.236220472440948
100
AcDbArc
 50
90.0
 51
180.0
  0
ARC
  5
36D
330
1F
100
AcDbEntity
  8
PROFILES_OUTSIDE
100
AcDbCircle
 10
40.1522536008
 20
5.1849909505
 30
0.0
 40
0.500000000000001
100
AcDbArc
 50
300.0
 51
0.0
  0
ARC
  5
36E
330
1F
100
AcDbEntity
  8
PROFILES_OUTSIDE
100
AcDbCircle
 10
40.6522536008
 20
4.3189655467
 30
0.0
 40
0.5
100
AcDbArc
 50
120.0
 51
180.0
  0
ARC
  5
36F
330
1F
100
AcDbEntity
  8
PROFILES_OUTSIDE
100
AcDbCircle
 10
40.6522536008
 20
4.1977190979
 30
0.0
 40
0.5
100
AcDbArc
 50
180.0
 51
240.0
  0
ARC
  5
370
330
1F
100
AcDbEntity
  8
PROFILES_OUTSIDE
100
AcDbCircle
 10
40.1522536008
 20
3.3316936941
 30
0.0
 40
0.5
100
AcDbArc
 50
0.0
 51
60.0
  0
ARC
  5
371
330
1F
100
AcDbEntity
  8
PROFILES_OUTSIDE
100
AcDbCircle
 10
40.8884740732
 20
2.5081011622
 30
0.0
 40
0.236220472440948
100
AcDbArc
 50
180.0
 51
270.0
  0
ARC
  5
372
330
1F
100
AcDbEntity
  8
PROFILES_OUTSIDE
100
AcDbCircle
 10
42.9750882464
 20
2.0356602173
 30
0.0
 40
0.2362204724409449
100
AcDbArc
 50
0.0
 51
90.0
  0
ARC
  5
373
330
1F
100
AcDbEntity
  8
PROFILES_OUTSIDE
100
AcDbCircle
 10
43.1719386401
 20
1.5730617922
 30
0.0
 40
0.0393700787401574
100
AcDbArc
 50
270.0
 51
0.0
  0
ARC
  5
374
330
1F
100
AcDbEntity
  8
PROFILES_OUTSIDE
100
AcDbCircle
 10
42.3554112085
 20
1.8191247843
 30
0.0
 40
0.0393700787401574
100
AcDbArc
 50
244.7125991044
 51
270.0
  0
ARC
  5
375
330
1F
100
AcDbEntity
  8
PROFILES_OUTSIDE
100
AcDbCircle
 10
42.2570721322
 20
1.6109684026
 30
0.0
 40
0.1908464566929156
100
AcDbArc
 50
64.7125991044
 51
252.4587608814
  0
ARC
  5
376
330
1F
100
AcDbEntity
  8
PROFILES_OUTSIDE
100
AcDbCircle
 10
42.1876866716
 20
1.3914568743
 30
0.0
 40
0.0393700787401552
100
AcDbArc
 50
0.0
 51
72.4587608814
  0
ARC
  5
377
330
1F
100
AcDbEntity
  8
PROFILES_OUTSIDE
100
AcDbCircle
 10
40.3431000575
 20
1.4783964378
 30
0.0
 40
0.1908464566929136
100
AcDbArc
 50
180.0
 51
270.0
  0
ARC
  5
378
330
1F
100
AcDbEntity
  8
PROFILES_OUTSIDE
100
AcDbCircle
 10
39.9614071441
 20
3.1408472375
 30
0.0
 40
0.1908464566929169
100
AcDbArc
 50
0.0
 51
90.0
  0
ARC
  5
379
330
1F
100
AcDbEntity
  8
PROFILES_OUTSIDE
100
AcDbCircle
 10
39.5714465141
 20
3.1408472375
 30
0.0
 40
0.1908464566929133
100
AcDbArc
 50
90.0
 51
180.0
  0
ARC
  5
37A
330
1F
100
AcDbEntity
  8
PROFILES_OUTSIDE
100
AcDbCircle
 10
39.1897536008
 20
1.4783964378
 30
0.0
 40
0.1908464566929136
100
AcDbArc
 50
270.0
 51
0.0
  0
ARC
  5
37B
330
1F
100
AcDbEntity
  8
PROFILES_OUTSIDE
100
AcDbCircle
 10
37.3451669866
 20
1.3914568743
 30
0.0
 40
0.0393700787401627
100
AcDbArc
 50
107.5412391186
 51
180.0
  0
ARC
  5
37C
330
1F
100
AcDbEntity
  8
PROFILES_OUTSIDE
100
AcDbCircle
 10
37.275781526
 20
1.6109684026
 30
0.0
 40
0.1908464566929142
100
AcDbArc
 50
287.5412391186
 51
115.2874008956
  0
ARC
  5
37D
330
1F
100
AcDbEntity
  8
PROFILES_OUTSIDE
100
AcDbCircle
 10
37.1774424497
 20
1.8191247843
 30
0.0
 40
0.03937007874016
100
AcDbArc
 50
270.0
 51
295.2874008956
  0
ARC
  5
37E
330
1F
100
AcDbEntity
  8
PROFILES_OUTSIDE
100
AcDbCircle
 10
36.3609150181
 20
1.5730617922
 30
0.0
 40
0.0393700787401574
100
AcDbArc
 50
180.0
 51
270.0
  0
ARC
  5
37F
330
1F
100
AcDbEntity
  8
PROFILES_OUTSIDE
100
AcDbCircle
 10
36.5577654118
 20
2.0356602173
 30
0.0
 40
0.2362204724409449
100
AcDbArc
 50
90.0
 51
180.0
  0
ARC
  5
380
330
1F
100
AcDbEntity
  8
PROFILES_OUTSIDE
100
AcDbCircle
 10
38.644379585
 20
2.5081011622
 30
0.0
 40
0.236220472440948
100
AcDbArc
 50
270.0
 51
0.0
  0
ARC
  5
381
330
1F
100
AcDbEntity
  8
PROFILES_OUTSIDE
100
AcDbCircle
 10
39.3806000575
 20
3.3316936941
 30
0.0
 40
0.5
100
AcDbArc
 50
120.0
 51
180.0
  0
ARC
  5
382
330
1F
100
AcDbEntity
  8
PROFILES_OUTSIDE
100
AcDbCircle
 10
38.8806000575
 20
4.1977190979
 30
0.0
 40
0.5000000000000026
100
AcDbArc
 50
300.0
 51
0.0
  0
ARC
  5
383
330
1F
100
AcDbEntity
  8
PROFILES_OUTSIDE
100
AcDbCircle
 10
38.8806000575
 20
4.3189655467
 30
0.0
 40
0.4999999999999987
100
AcDbArc
 50
0.0
 51
60.0
  0
ARC
  5
384
330
1F
100
AcDbEntity
  8
PROFILES_OUTSIDE
100
AcDbCircle
 10
39.3806000575
 20
5.1849909505
 30
0.0
 40
0.4999999999999974
100
AcDbArc
 50
180.0
 51
240.0
  0
ARC
  5
385
330
1F
100
AcDbEntity
  8
PROFILES_OUTSIDE
100
AcDbCircle
 10
38.644379585
 20
6.0085834824
 30
0.0
 40
0.236220472440948
100
AcDbArc
 50
0.0
 51
90.0
  0
ARC
  5
386
330
1F
100
AcDbEntity
  8
PROFILES_OUTSIDE
100
AcDbCircle
 10
36.5577654118
 20
6.4810244273
 30
0.0
 40
0.2362204724409454
100
AcDbArc
 50
180.0
 51
270.0
  0
ARC
  5
387
330
1F
100
AcDbEntity
  8
PROFILES_OUTSIDE
100
AcDbCircle
 10
36.3609150181
 20
6.9436228525
 30
0.0
 40
0.0393700787401574
100
AcDbArc
 50
90.0
 51
180.0
  0
ARC
  5
388
330
1F
100
AcDbEntity
  8
PROFILES_OUTSIDE
100
AcDbCircle
 10
42.3554112085
 20
9.3294496241
 30
0.0
 40
0.0393700787401611
100
AcDbArc
 50
244.7125991044
 51
270.0
  0
ARC
  5
389
330
1F
100
AcDbEntity
  8
PROFILES_OUTSIDE
100
AcDbCircle
 10
42.2570721322
 20
9.1212932424
 30
0.0
 40
0.1908464566929145
100
AcDbArc
 50
64.7125991044
 51
252.4587608814
  0
ARC
  5
38A
330
1F
100
AcDbEntity
  8
PROFILES_OUTSIDE
100
AcDbCircle
 10
42.1876866716
 20
8.9017817141
 30
0.0
 40
0.0393700787401575
100
AcDbArc
 50
0.0
 51
72.4587608814
  0
ARC
  5
38B
330
1F
100
AcDbEntity
  8
PROFILES_OUTSIDE
100
AcDbCircle
 10
40.3431000575
 20
8.9887212777
 30
0.0
 40
0.1908464566929169
100
AcDbArc
 50
180.0
 51
270.0
  0
ARC
  5
38C
330
1F
100
AcDbEntity
  8
PROFILES_OUTSIDE
100
AcDbCircle
 10
39.9614071441
 20
10.6511720773
 30
0.0
 40
0.1908464566929116
100
AcDbArc
 50
0.0
 51
90.0
  0
ARC
  5
38D
330
1F
100
AcDbEntity
  8
PROFILES_OUTSIDE
100
AcDbCircle
 10
39.5714465141
 20
10.6511720773
 30
0.0
 40
0.1908464566929169
100
AcDbArc
 50
90.0
 51
180.0
  0
ARC
  5
38E
330
1F
100
AcDbEntity
  8
PROFILES_OUTSIDE
100
AcDbCircle
 10
39.1897536008
 20
8.9887212777
 30
0.0
 40
0.1908464566929133
100
AcDbArc
 50
270.0
 51
0.0
  0
ARC
  5
38F
330
1F
100
AcDbEntity
  8
PROFILES_OUTSIDE
100
AcDbCircle
 10
37.3451669866
 20
8.9017817141
 30
0.0
 40
0.0393700787401596
100
AcDbArc
 50
107.5412391186
 51
180.0
  0
ARC
  5
390
330
1F
100
AcDbEntity
  8
PROFILES_OUTSIDE
100
AcDbCircle
 10
37.275781526
 20
9.1212932424
 30
0.0
 40
0.1908464566929128
100
AcDbArc
 50
287.5412391186
 51
115.2874008956
  0
ARC
  5
391
330
1F
100
AcDbEntity
  8
PROFILES_OUTSIDE
100
AcDbCircle
 10
37.1774424497
 20
9.3294496241
 30
0.0
 40
0.0393700787401574
100
AcDbArc
 50
270.0
 51
295.2874008956
  0
ARC
  5
392
330
1F
100
AcDbEntity
  8
PROFILES_OUTSIDE
100
AcDbCircle
 10
36.3609150181
 20
9.083386632
 30
0.0
 40
0.0393700787401574
100
AcDbArc
 50
180.0
 51
270.0
  0
ARC
  5
393
330
1F
100
AcDbEntity
  8
PROFILES_OUTSIDE
100
AcDbCircle
 10
36.5577654118
 20
9.5459850572
 30
0.0
 40
0.2362204724409445
100
AcDbArc
 50
90.0
 51
180.0
  0
ARC
  5
394
330
1F
100
AcDbEntity
  8
PROFILES_OUTSIDE
100
AcDbCircle
 10
38.644379585
 20
10.0184260021
 30
0.0
 40
0.236220472440948
100
AcDbArc
 50
270.0
 51
0.0
  0
ARC
  5
395
330
1F
100
AcDbEntity
  8
PROFILES_OUTSIDE
100
AcDbCircle
 10
39.3806000575
 20
10.842018534
 30
0.0
 40
0.4999999999999959
100
AcDbArc
 50
120.0
 51
180.0
  0
ARC
  5
396
330
1F
100
AcDbEntity
  8
PROFILES_OUTSIDE
100
AcDbCircle
 10
38.8806000575
 20
11.7080439378
 30
0.0
 40
0.4999999999999995
100
AcDbArc
 50
300.0
 51
0.0
  0
ARC
  5
397
330
1F
100
AcDbEntity
  8
PROFILES_OUTSIDE
100
AcDbCircle
 10
38.8806000575
 20
11.8292903865
 30
0.0
 40
0.4999999999999959
100
AcDbArc
 50
0.0
 51
60.0
  0
ARC
  5
398
330
1F
100
AcDbEntity
  8
PROFILES_OUTSIDE
100
AcDbCircle
 10
39.3806000575
 20
12.6953157903
 30
0.0
 40
0.4999999999999979
100
AcDbArc
 50
180.0
 51
240.0
  0
ARC
  5
399
330
1F
100
AcDbEntity
  8
PROFILES_OUTSIDE
100
AcDbCircle
 10
38.644379585
 20
13.5189083222
 30
0.0
 40
0.236220472440948
100
AcDbArc
 50
0.0
 51
90.0
  0
ARC
  5
39A
330
1F
100
AcDbEntity
  8
PROFILES_OUTSIDE
100
AcDbCircle
 10
36.5577654118
 20
13.9913492671
 30
0.0
 40
0.2362204724409445
100
AcDbArc
 50
180.0
 51
270.0
  0
ARC
  5
39B
330
1F
100
AcDbEntity
  8
PROFILES_OUTSIDE
100
AcDbCircle
 10
36.3609150181
 20
14.4539476923
 30
0.0
 40
0.0393700787401592
100
AcDbArc
 50
90.0
 51
180.0
  0
ARC
  5
39C
330
1F
100
AcDbEntity
  8
PROFILES_OUTSIDE
100
AcDbCircle
 10
37.1774424497
 20
14.2078847002
 30
0.0
 40
0.0393700787401574
100
AcDbArc
 50
64.7125991044
 51
90.0
  0
ARC
  5
39D
330
1F
100
AcDbEntity
  8
PROFILES_OUTSIDE
100
AcDbCircle
 10
37.275781526
 20
14.4160410819
 30
0.0
 40
0.1908464566929128
100
AcDbArc
 50
244.7125991044
 51
72.4587608814
  0
ARC
  5
39E
330
1F
100
AcDbEntity
  8
PROFILES_OUTSIDE
100
AcDbCircle
 10
37.3451669866
 20
14.6355526102
 30
0.0
 40
0.0393700787401579
100
AcDbArc
 50
180.0
 51
252.4587608814
  0
ARC
  5
39F
330
1F
100
AcDbEntity
  8
PROFILES_OUTSIDE
100
AcDbCircle
 10
39.1897536008
 20
14.5486130466
 30
0.0
 40
0.1908464566929133
100
AcDbArc
 50
0.0
 51
90.0
  0
ARC
  5
3A0
330
1F
100
AcDbEntity
  8
PROFILES_OUTSIDE
100
AcDbCircle
 10
39.5714465141
 20
12.886162247
 30
0.0
 40
0.1908464566929169
100
AcDbArc
 50
180.0
 51
270.0
  0
ARC
  5
3A1
330
1F
100
AcDbEntity
  8
PROFILES_OUTSIDE
100
AcDbCircle
 10
39.9614071441
 20
12.886162247
 30
0.0
 40
0.1908464566929151
100
AcDbArc
 50
270.0
 51
0.0
  0
ARC
  5
3A2
330
1F
100
AcDbEntity
  8
PROFILES_OUTSIDE
100
AcDbCircle
 10
40.3431000575
 20
14.5486130466
 30
0.0
 40
0.1908464566929133
100
AcDbArc
 50
90.0
 51
180.0
  0
ARC
  5
3A3
330
1F
100
AcDbEntity
  8
PROFILES_OUTSIDE
100
AcDbCircle
 10
42.1876866716
 20
14.6355526102
 30
0.0
 40
0.0393700787401558
100
AcDbArc
 50
287.5412391186
 51
0.0
  0
ARC
  5
3A4
330
1F
100
AcDbEntity
  8
PROFILES_OUTSIDE
100
AcDbCircle
 10
42.2570721322
 20
14.4160410819
 30
0.0
 40
0.1908464566929145
100
AcDbArc
 50
107.5412391186
 51
295.2874008956
  0
ARC
  5
3A5
330
1F
100
AcDbEntity
  8
PROFILES_OUTSIDE
100
AcDbCircle
 10
42.3554112085
 20
14.2078847002
 30
0.0
 40
0.0393700787401596
100
AcDbArc
 50
90.0
 51
115.2874008956
  0
ARC
  5
3A6
330
1F
100
AcDbEntity
  8
PROFILES_OUTSIDE
100
AcDbCircle
 10
43.1719386401
 20
14.4539476923
 30
0.0
 40
0.0393700787401574
100
AcDbArc
 50
0.0
 51
90.0
  0
ARC
  5
3A7
330
1F
100
AcDbEntity
  8
PROFILES_OUTSIDE
100
AcDbCircle
 10
42.9750882464
 20
13.9913492671
 30
0.0
 40
0.2362204724409445
100
AcDbArc
 50
270.0
 51
0.0
  0
ARC
  5
3A8
330
1F
100
AcDbEntity
  8
PROFILES_OUTSIDE
100
AcDbCircle
 10
40.8884740732
 20
13.5189083222
 30
0.0
 40
0.2362204724409427
100
AcDbArc
 50
90.0
 51
180.0
  0
ARC
  5
3A9
330
1F
100
AcDbEntity
  8
PROFILES_OUTSIDE
100
AcDbCircle
 10
40.1522536008
 20
12.6953157903
 30
0.0
 40
0.500000000000003
100
AcDbArc
 50
300.0
 51
0.0
  0
ARC
  5
3AA
330
1F
100
AcDbEntity
  8
PROFILES_OUTSIDE
100
AcDbCircle
 10
40.6522536008
 20
11.8292903865
 30
0.0
 40
0.5000000000000021
100
AcDbArc
 50
120.0
 51
180.0
  0
ARC
  5
3AB
330
1F
100
AcDbEntity
  8
PROFILES_OUTSIDE
100
AcDbCircle
 10
40.6522536008
 20
11.7080439378
 30
0.0
 40
0.5
100
AcDbArc
 50
180.0
 51
240.0
  0
ARC
  5
3AC
330
1F
100
AcDbEntity
  8
PROFILES_OUTSIDE
100
AcDbCircle
 10
40.1522536008
 20
10.842018534
 30
0.0
 40
0.5000000000000014
100
AcDbArc
 50
0.0
 51
60.0
  0
ARC
  5
3AD
330
1F
100
AcDbEntity
  8
PROFILES_OUTSIDE
100
AcDbCircle
 10
40.8884740732
 20
10.0184260021
 30
0.0
 40
0.2362204724409462
100
AcDbArc
 50
180.0
 51
270.0
  0
ARC
  5
3AE
330
1F
100
AcDbEntity
  8
PROFILES_OUTSIDE
100
AcDbCircle
 10
42.9750882464
 20
9.5459850572
 30
0.0
 40
0.2362204724409445
100
AcDbArc
 50
0.0
 51
90.0
  0
ARC
  5
3AF
330
1F
100
AcDbEntity
  8
PROFILES_OUTSIDE
100
AcDbCircle
 10
43.1719386401
 20
9.083386632
 30
0.0
 40
0.0393700787401574
100
AcDbArc
 50
270.0
 51
0.0
  0
ENDSEC
  0
SECTION
  2
OBJECTS
  0
DICTIONARY
  5
C
330
0
100
AcDbDictionary
  3
ACAD_GROUP
350
D
  3
ACAD_MLINESTYLE
350
17
  3
ACAD_SCALELIST
350
47
  0
DICTIONARY
  5
D
102
{ACAD_REACTORS
330
C
102
}
330
C
100
AcDbDictionary
  0
DICTIONARY
  5
17
102
{ACAD_REACTORS
330
C
102
}
330
C
100
AcDbDictionary
  3
STANDARD
350
18
  0
DICTIONARY
  5
47
102
{ACAD_REACTORS
330
C
102
}
330
C
100
AcDbDictionary
  0
MLINESTYLE
  5
18
102
{ACAD_REACTORS
330
17
102
}
330
17
100
AcDbMlineStyle
  2
Standard
 70
     0
  3

 62
   256
 51
90.0
 52
90.0
 71
     2
 49
0.5
 62
   256
  6
BYLAYER
 49
-0.5
 62
   256
  6
BYLAYER
  0
ENDSEC
  0
EOF
