  0
SECTION
  2
HEADER
  9
$ACADVER
  1
AC1014
  9
$ACADMAINTVER
 70
     9
  9
$DWGCODEPAGE
  3
ANSI_1252
  9
$INSBASE
 10
0.0
 20
0.0
 30
0.0
  9
$EXTMIN
 10
0.0
 20
0.0
 30
0.0
  9
$EXTMAX
 10
96.062992126
 20
48.031496063
 30
0.0
  9
$LIMMIN
 10
0.0
 20
0.0
  9
$LIMMAX
 10
96.062992126
 20
48.031496063
  9
$ORTHOMODE
 70
     0
  9
$REGENMODE
 70
     1
  9
$FILLMODE
 70
     1
  9
$QTEXTMODE
 70
     0
  9
$MIRRTEXT
 70
     1
  9
$DRAGMODE
 70
     2
  9
$LTSCALE
 40
1.0
  9
$OSMODE
 70
    37
  9
$ATTMODE
 70
     1
  9
$TEXTSIZE
 40
0.1377952756
  9
$TRACEWID
 40
0.05
  9
$TEXTSTYLE
  7
STANDARD
  9
$CLAYER
  8
0
  9
$CELTYPE
  6
BYLAYER
  9
$CECOLOR
 62
   256
  9
$CELTSCALE
 40
1.0
  9
$DELOBJ
 70
     1
  9
$DISPSILH
 70
     0
  9
$DIMSCALE
 40
1.0
  9
$DIMASZ
 40
0.13
  9
$DIMEXO
 40
0.0393700787
  9
$DIMDLI
 40
0.38
  9
$DIMRND
 40
0.0
  9
$DIMDLE
 40
0.0
  9
$DIMEXE
 40
0.0393700787
  9
$DIMTP
 40
0.0
  9
$DIMTM
 40
0.0
  9
$DIMTXT
 40
0.1805555556
  9
$DIMCEN
 40
0.09
  9
$DIMTSZ
 40
0.0
  9
$DIMTOL
 70
     0
  9
$DIMLIM
 70
     0
  9
$DIMTIH
 70
     1
  9
$DIMTOH
 70
     1
  9
$DIMSE1
 70
     0
  9
$DIMSE2
 70
     0
  9
$DIMTAD
 70
     1
  9
$DIMZIN
 70
     0
  9
$DIMBLK
  1

  9
$DIMASO
 70
     1
  9
$DIMSHO
 70
     1
  9
$DIMPOST
  1

  9
$DIMAPOST
  1

  9
$DIMALT
 70
     0
  9
$DIMALTD
 70
     2
  9
$DIMALTF
 40
25.4
  9
$DIMLFAC
 40
1.0
  9
$DIMTOFL
 70
     0
  9
$DIMTVP
 40
0.0
  9
$DIMTIX
 70
     0
  9
$DIMSOXD
 70
     0
  9
$DIMSAH
 70
     0
  9
$DIMBLK1
  1

  9
$DIMBLK2
  1

  9
$DIMSTYLE
  2
STANDARD
  9
$DIMCLRD
 70
     0
  9
$DIMCLRE
 70
     0
  9
$DIMCLRT
 70
     0
  9
$DIMTFAC
 40
1.0
  9
$DIMGAP
 40
0.06
  9
$DIMJUST
 70
     0
  9
$DIMSD1
 70
     0
  9
$DIMSD2
 70
     0
  9
$DIMTOLJ
 70
     1
  9
$DIMTZIN
 70
     0
  9
$DIMALTZ
 70
     0
  9
$DIMALTTZ
 70
     0
  9
$DIMFIT
 70
     3
  9
$DIMUPT
 70
     0
  9
$DIMUNIT
 70
     2
  9
$DIMDEC
 70
     2
  9
$DIMTDEC
 70
     2
  9
$DIMALTU
 70
     2
  9
$DIMALTTD
 70
     2
  9
$DIMTXSTY
  7
STANDARD
  9
$DIMAUNIT
 70
     0
  9
$LUNITS
 70
     2
  9
$LUPREC
 70
     2
  9
$SKETCHINC
 40
0.1
  9
$FILLETRAD
 40
0.5
  9
$AUNITS
 70
     0
  9
$AUPREC
 70
     2
  9
$MENU
  1
.
  9
$ELEVATION
 40
0.0
  9
$PELEVATION
 40
0.0
  9
$THICKNESS
 40
0.0
  9
$LIMCHECK
 70
     0
  9
$CHAMFERA
 40
0.0
  9
$CHAMFERB
 40
0.0
  9
$CHAMFERC
 40
0.0
  9
$CHAMFERD
 40
0.0
  9
$SKPOLY
 70
     0
  9
$TDCREATE
 40
2457697.534606643
  9
$TDUPDATE
 40
2457697.534607118
  9
$TDINDWG
 40
0.0000000116
  9
$TDUSRTIMER
 40
0.0000000116
  9
$USRTIMER
 70
     1
  9
$ANGBASE
 50
0.0
  9
$ANGDIR
 70
     0
  9
$PDMODE
 70
     0
  9
$PDSIZE
 40
-1.0
  9
$PLINEWID
 40
0.0
  9
$COORDS
 70
     1
  9
$SPLFRAME
 70
     0
  9
$SPLINETYPE
 70
     6
  9
$SPLINESEGS
 70
     8
  9
$ATTDIA
 70
     0
  9
$ATTREQ
 70
     1
  9
$HANDLING
 70
     1
  9
$HANDSEED
  5
3B0
  9
$SURFTAB1
 70
     6
  9
$SURFTAB2
 70
     6
  9
$SURFTYPE
 70
     6
  9
$SURFU
 70
     6
  9
$SURFV
 70
     6
  9
$UCSNAME
  2

  9
$UCSORG
 10
0.0
 20
0.0
 30
0.0
  9
$UCSXDIR
 10
1.0
 20
0.0
 30
0.0
  9
$UCSYDIR
 10
0.0
 20
1.0
 30
0.0
  9
$PUCSNAME
  2

  9
$PUCSORG
 10
0.0
 20
0.0
 30
0.0
  9
$PUCSXDIR
 10
1.0
 20
0.0
 30
0.0
  9
$PUCSYDIR
 10
0.0
 20
1.0
 30
0.0
  9
$USERI1
 70
     0
  9
$USERI2
 70
     0
  9
$USERI3
 70
     0
  9
$USERI4
 70
     0
  9
$USERI5
 70
     0
  9
$USERR1
 40
0.0
  9
$USERR2
 40
0.0
  9
$USERR3
 40
0.0
  9
$USERR4
 40
0.0
  9
$USERR5
 40
0.0
  9
$WORLDVIEW
 70
     1
  9
$SHADEDGE
 70
     3
  9
$SHADEDIF
 70
    70
  9
$TILEMODE
 70
     1
  9
$MAXACTVP
 70
    64
  9
$PINSBASE
 10
0.0
 20
0.0
 30
0.0
  9
$PLIMCHECK
 70
     0
  9
$PEXTMIN
 10
1.0000000000E+20
 20
1.0000000000E+20
 30
1.0000000000E+20
  9
$PEXTMAX
 10
-1.0000000000E+20
 20
-1.0000000000E+20
 30
-1.0000000000E+20
  9
$PLIMMIN
 10
0.0
 20
0.0
  9
$PLIMMAX
 10
12.0
 20
9.0
  9
$UNITMODE
 70
     0
  9
$VISRETAIN
 70
     1
  9
$PLINEGEN
 70
     0
  9
$PSLTSCALE
 70
     1
  9
$TREEDEPTH
 70
  3020
  9
$PICKSTYLE
 70
     1
  9
$CMLSTYLE
  2
STANDARD
  9
$CMLJUST
 70
     0
  9
$CMLSCALE
 40
1.0
  9
$PROXYGRAPHICS
 70
     1
  9
$MEASUREMENT
 70
     0
  0
ENDSEC
  0
SECTION
  2
CLASSES
  0
CLASS
  1
ACDBDICTIONARYWDFLT
  2
AcDbDictionaryWithDefault
  3
ObjectDBX Classes
 90
        0
280
     0
281
     0
  0
CLASS
  1
VISUALSTYLE
  2
AcDbVisualStyle
  3
ObjectDBX Classes
 90
     4095
280
     0
281
     0
  0
CLASS
  1
MATERIAL
  2
AcDbMaterial
  3
ObjectDBX Classes
 90
     1153
280
     0
281
     0
  0
CLASS
  1
SCALE
  2
AcDbScale
  3
ObjectDBX Classes
 90
     1153
280
     0
281
     0
  0
CLASS
  1
TABLESTYLE
  2
AcDbTableStyle
  3
ObjectDBX Classes
 90
     4095
280
     0
281
     0
  0
CLASS
  1
MLEADERSTYLE
  2
AcDbMLeaderStyle
  3
ACDB_MLEADERSTYLE_CLASS
 90
     4095
280
     0
281
     0
  0
CLASS
  1
SUN
  2
AcDbSun
  3
SCENEOE
 90
     1153
280
     0
281
     0
  0
CLASS
  1
XRECORD
  2
AcDbXrecord
  3
ObjectDBX Classes
 90
        0
280
     0
281
     0
  0
CLASS
  1
LWPOLYLINE
  2
AcDbPolyline
  3
ObjectDBX Classes
 90
        0
280
     0
281
     1
  0
CLASS
  1
HATCH
  2
AcDbHatch
  3
ObjectDBX Classes
 90
        0
280
     0
281
     1
  0
ENDSEC
  0
SECTION
  2
TABLES
  0
TABLE
  2
VPORT
  5
8
330
0
100
AcDbSymbolTable
 70
     1
  0
VPORT
  5
29
330
8
100
AcDbSymbolTableRecord
100
AcDbViewportTableRecord
  2
*ACTIVE
 70
     0
 10
0.0
 20
0.0
 11
1.0
 21
1.0
 12
48.031496063
 22
24.0157480315
 13
0.0
 23
0.0
 14
0.5
 24
0.5
 15
0.5
 25
0.5
 16
0.0
 26
0.0
 36
1.0
 17
0.0
 27
0.0
 37
0.0
 40
48.031496063
 41
2.0
 42
50.0
 43
0.0
 44
0.0
 50
0.0
 51
0.0
 71
     0
 72
  2000
 73
     1
 74
     3
 75
     0
 76
     0
 77
     0
 78
     0
  0
ENDTAB
  0
TABLE
  2
LTYPE
  5
5
330
0
100
AcDbSymbolTable
 70
     6
  0
LTYPE
  5
14
330
5
100
AcDbSymbolTableRecord
100
AcDbLinetypeTableRecord
  2
BYBLOCK
 70
     0
  3

 72
    65
 73
     0
 40
0.0
  0
LTYPE
  5
15
330
5
100
AcDbSymbolTableRecord
100
AcDbLinetypeTableRecord
  2
BYLAYER
 70
     0
  3

 72
    65
 73
     0
 40
0.0
  0
LTYPE
  5
16
330
5
100
AcDbSymbolTableRecord
100
AcDbLinetypeTableRecord
  2
CONTINUOUS
 70
     0
  3
Solid line
 72
    65
 73
     0
 40
0.0
  0
LTYPE
  5
6E
330
5
100
AcDbSymbolTableRecord
100
AcDbLinetypeTableRecord
  2
HIDDEN
 70
     0
  3
Hidden __ __ __ __ __ __ __ __ __ __ __ __ __ __
 72
    65
 73
     2
 40
0.075
 49
0.05
 74
     0
 49
-0.025
 74
     0
  0
LTYPE
  5
6F
330
5
100
AcDbSymbolTableRecord
100
AcDbLinetypeTableRecord
  2
PHANTOM
 70
     0
  3
Phantom ______  __  __  ______  __  __  ______
 72
    65
 73
     6
 40
0.5
 49
0.25
 74
     0
 49
-0.05
 74
     0
 49
0.05
 74
     0
 49
-0.05
 74
     0
 49
0.05
 74
     0
 49
-0.05
 74
     0
  0
LTYPE
  5
70
330
5
100
AcDbSymbolTableRecord
100
AcDbLinetypeTableRecord
  2
CENTER
 70
     0
  3
Center ____ _ ____ _ ____ _ ____ _ ____ _ ____
 72
    65
 73
     4
 40
0.4
 49
0.25
 74
     0
 49
-0.05
 74
     0
 49
0.05
 74
     0
 49
-0.05
 74
     0
  0
LTYPE
  5
71
330
5
100
AcDbSymbolTableRecord
100
AcDbLinetypeTableRecord
  2
CENTERX2
 70
     0
  3
Center (2x) ________  __  ________  __  _____
 72
    65
 73
     4
 40
0.8
 49
0.5
 74
     0
 49
-0.1
 74
     0
 49
0.1
 74
     0
 49
-0.1
 74
     0
  0
LTYPE
  5
72
330
5
100
AcDbSymbolTableRecord
100
AcDbLinetypeTableRecord
  2
DOT2
 70
     0
  3
Dot (.5x) ........................................
 72
    65
 73
     2
 40
0.025
 49
0.0
 74
     0
 49
-0.025
 74
     0
  0
ENDTAB
  0
TABLE
  2
LAYER
  5
2
330
0
100
AcDbSymbolTable
 70
     6
  0
LAYER
  5
10
330
2
100
AcDbSymbolTableRecord
100
AcDbLayerTableRecord
  2
0
 70
     0
 62
     7
  6
CONTINUOUS
  0
LAYER
  5
73
330
2
100
AcDbSymbolTableRecord
100
AcDbLayerTableRecord
  2
BOX_STOCK
 70
     0
 62
     1
  6
CONTINUOUS
  0
LAYER
  5
74
330
2
100
AcDbSymbolTableRecord
100
AcDbLayerTableRecord
  2
HOLES
 70
     0
 62
    30
  6
CONTINUOUS
  0
LAYER
  5
75
330
2
100
AcDbSymbolTableRecord
100
AcDbLayerTableRecord
  2
POCKETS
 70
     0
 62
   171
  6
CONTINUOUS
  0
LAYER
  5
76
330
2
100
AcDbSymbolTableRecord
100
AcDbLayerTableRecord
  2
PROFILES_OUTSIDE
 70
     0
 62
     6
  6
CONTINUOUS
  0
LAYER
  5
77
330
2
100
AcDbSymbolTableRecord
100
AcDbLayerTableRecord
  2
PROFILES_INSIDE
 70
     0
 62
     4
  6
CONTINUOUS
  0
ENDTAB
  0
TABLE
  2
STYLE
  5
3
330
0
100
AcDbSymbolTable
 70
     1
  0
STYLE
  5
11
330
3
100
AcDbSymbolTableRecord
100
AcDbTextStyleTableRecord
  2
STANDARD
 70
     0
 40
0.0
 41
1.0
 50
0.0
 71
     0
 42
0.1377952756
  3
txt
  4

  0
ENDTAB
  0
TABLE
  2
VIEW
  5
6
330
0
100
AcDbSymbolTable
 70
     0
  0
ENDTAB
  0
TABLE
  2
UCS
  5
7
330
0
100
AcDbSymbolTable
 70
     0
  0
ENDTAB
  0
TABLE
  2
APPID
  5
9
330
0
100
AcDbSymbolTable
 70
     1
  0
APPID
  5
12
330
9
100
AcDbSymbolTableRecord
100
AcDbRegAppTableRecord
  2
ACAD
 70
     0
  0
ENDTAB
  0
TABLE
  2
DIMSTYLE
  5
A
330
0
100
AcDbSymbolTable
 70
     1
  0
DIMSTYLE
105
27
330
A
100
AcDbSymbolTableRecord
100
AcDbDimStyleTableRecord
  2
STANDARD
 70
     0
  3

  4

  5

  6

  7

 40
1.0
 41
0.18
 42
0.0625
 43
0.38
 44
0.18
 45
0.0
 46
0.0
 47
0.0
 48
0.0
140
0.18
141
0.09
142
0.0
143
25.4
144
1.0
145
0.0
146
1.0
147
0.09
 71
     0
 72
     0
 73
     1
 74
     1
 75
     0
 76
     0
 77
     0
 78
     0
170
     0
171
     2
172
     0
173
     0
174
     0
175
     0
176
     0
177
     0
178
     0
270
     2
271
     4
272
     4
273
     2
274
     2
340
11
275
     0
280
     0
281
     0
282
     0
283
     1
284
     0
285
     0
286
     0
287
     3
288
     0
  0
ENDTAB
  0
TABLE
  2
BLOCK_RECORD
  5
1
330
0
100
AcDbSymbolTable
 70
     1
  0
BLOCK_RECORD
  5
1F
330
1
100
AcDbSymbolTableRecord
100
AcDbBlockTableRecord
  2
*MODEL_SPACE
  0
BLOCK_RECORD
  5
1B
330
1
100
AcDbSymbolTableRecord
100
AcDbBlockTableRecord
  2
*PAPER_SPACE
  0
BLOCK_RECORD
  5
23
330
1
100
AcDbSymbolTableRecord
100
AcDbBlockTableRecord
  2
*PAPER_SPACE0
  0
ENDTAB
  0
ENDSEC
  0
SECTION
  2
BLOCKS
  0
BLOCK
  5
20
330
1F
100
AcDbEntity
  8
0
100
AcDbBlockBegin
  2
*MODEL_SPACE
 70
     0
 10
0.0
 20
0.0
 30
0.0
  3
*MODEL_SPACE
  1

  0
ENDBLK
  5
21
330
1F
100
AcDbEntity
  8
0
100
AcDbBlockEnd
  0
BLOCK
  5
1C
330
1B
100
AcDbEntity
 67
     1
  8
0
100
AcDbBlockBegin
  2
*PAPER_SPACE
 70
     0
 10
0.0
 20
0.0
 30
0.0
  3
*PAPER_SPACE
  1

  0
ENDBLK
  5
1D
330
1B
100
AcDbEntity
 67
     1
  8
0
100
AcDbBlockEnd
  0
BLOCK
  5
24
330
23
100
AcDbEntity
  8
0
100
AcDbBlockBegin
  2
*PAPER_SPACE0
 70
     0
 10
0.0
 20
0.0
 30
0.0
  3
*PAPER_SPACE0
  1

  0
ENDBLK
  5
25
330
23
100
AcDbEntity
  8
0
100
AcDbBlockEnd
  0
ENDSEC
  0
SECTION
  2
ENTITIES
  0
LINE
  5
78
330
1F
100
AcDbEntity
  8
0
  6
CONTINUOUS
 62
     7
100
AcDbLine
 10
37.081780143
 20
6.8227443894
 30
0.0
 11
37.0975284411
 21
6.5766810453
 31
0.0
  0
LINE
  5
79
330
1F
100
AcDbEntity
  8
0
  6
CONTINUOUS
 62
     7
100
AcDbLine
 10
37.0975284411
 20
6.5766810453
 30
0.0
 11
37.7325596119
 21
6.5766810453
 31
0.0
  0
ARC
  5
7A
330
1F
100
AcDbEntity
  8
0
  6
CONTINUOUS
 62
     7
100
AcDbCircle
 10
37.7325605599
 20
6.5373110651
 30
0.0
 40
0.0393700787401574
100
AcDbArc
 50
64.7125991044
 51
90.0
  0
ARC
  5
7B
330
1F
100
AcDbEntity
  8
0
  6
CONTINUOUS
 62
     7
100
AcDbCircle
 10
37.8308996362
 20
6.7454674469
 30
0.0
 40
0.1908464566929136
100
AcDbArc
 50
244.7125991044
 51
72.4587608814
  0
ARC
  5
7C
330
1F
100
AcDbEntity
  8
0
  6
CONTINUOUS
 62
     7
100
AcDbCircle
 10
37.9002850968
 20
6.9649789751
 30
0.0
 40
0.0393700787401579
100
AcDbArc
 50
180.0
 51
252.4587608814
  0
LINE
  5
7D
330
1F
100
AcDbEntity
  8
0
  6
CONTINUOUS
 62
     7
100
AcDbLine
 10
37.8609161024
 20
7.0688857593
 30
0.0
 11
37.8609161024
 21
6.9649789063
 31
0.0
  0
LINE
  5
7E
330
1F
100
AcDbEntity
  8
0
  6
CONTINUOUS
 62
     7
100
AcDbLine
 10
39.7448710855
 20
7.0688857593
 30
0.0
 11
37.8609161024
 21
7.0688857593
 31
0.0
  0
ARC
  5
7F
330
1F
100
AcDbEntity
  8
0
  6
CONTINUOUS
 62
     7
100
AcDbCircle
 10
39.744871711
 20
6.8780394116
 30
0.0
 40
0.1908464566929169
100
AcDbArc
 50
0.0
 51
90.0
  0
LINE
  5
80
330
1F
100
AcDbEntity
  8
0
  6
CONTINUOUS
 62
     7
100
AcDbLine
 10
39.9357185874
 20
5.269005005
 30
0.0
 11
39.9357185874
 21
6.8780394307
 31
0.0
  0
ARC
  5
81
330
1F
100
AcDbEntity
  8
0
  6
CONTINUOUS
 62
     7
100
AcDbCircle
 10
40.1265646244
 20
5.269004877
 30
0.0
 40
0.1908464566929133
100
AcDbArc
 50
180.0
 51
270.0
  0
LINE
  5
82
330
1F
100
AcDbEntity
  8
0
  6
CONTINUOUS
 62
     7
100
AcDbLine
 10
40.5165259579
 20
5.0781586764
 30
0.0
 11
40.1265660894
 21
5.0781586764
 31
0.0
  0
ARC
  5
83
330
1F
100
AcDbEntity
  8
0
  6
CONTINUOUS
 62
     7
100
AcDbCircle
 10
40.5165252543
 20
5.269004877
 30
0.0
 40
0.1908464566929169
100
AcDbArc
 50
270.0
 51
0.0
  0
LINE
  5
84
330
1F
100
AcDbEntity
  8
0
  6
CONTINUOUS
 62
     7
100
AcDbLine
 10
40.7073734599
 20
6.8780394307
 30
0.0
 11
40.7073734599
 21
5.269005005
 31
0.0
  0
ARC
  5
85
330
1F
100
AcDbEntity
  8
0
  6
CONTINUOUS
 62
     7
100
AcDbCircle
 10
40.8982181677
 20
6.8780394116
 30
0.0
 40
0.1908464566929142
100
AcDbArc
 50
90.0
 51
180.0
  0
LINE
  5
86
330
1F
100
AcDbEntity
  8
0
  6
CONTINUOUS
 62
     7
100
AcDbLine
 10
42.7821735983
 20
7.0688857593
 30
0.0
 11
40.8982162686
 21
7.0688857593
 31
0.0
  0
LINE
  5
87
330
1F
100
AcDbEntity
  8
0
  6
CONTINUOUS
 62
     7
100
AcDbLine
 10
42.7821735983
 20
6.9649789063
 30
0.0
 11
42.7821735983
 21
7.0688857593
 31
0.0
  0
ARC
  5
88
330
1F
100
AcDbEntity
  8
0
  6
CONTINUOUS
 62
     7
100
AcDbCircle
 10
42.7428047819
 20
6.9649789751
 30
0.0
 40
0.0393700787401627
100
AcDbArc
 50
287.5412391186
 51
0.0
  0
ARC
  5
89
330
1F
100
AcDbEntity
  8
0
  6
CONTINUOUS
 62
     7
100
AcDbCircle
 10
42.8121902424
 20
6.7454674469
 30
0.0
 40
0.1908464566929158
100
AcDbArc
 50
107.5412391186
 51
295.2874008956
  0
ARC
  5
8A
330
1F
100
AcDbEntity
  8
0
  6
CONTINUOUS
 62
     7
100
AcDbCircle
 10
42.9105293188
 20
6.5373110651
 30
0.0
 40
0.0393700787401601
100
AcDbArc
 50
90.0
 51
115.2874008956
  0
LINE
  5
8B
330
1F
100
AcDbEntity
  8
0
  6
CONTINUOUS
 62
     7
100
AcDbLine
 10
42.9105300888
 20
6.5766810453
 30
0.0
 11
43.5455589129
 21
6.5766810453
 31
0.0
  0
LINE
  5
8C
330
1F
100
AcDbEntity
  8
0
  6
CONTINUOUS
 62
     7
100
AcDbLine
 10
43.5455589129
 20
6.5766810453
 30
0.0
 11
43.5613095576
 21
6.8227443894
 31
0.0
  0
LINE
  5
8D
330
1F
100
AcDbEntity
  8
0
  6
CONTINUOUS
 62
     7
100
AcDbLine
 10
43.5613095576
 20
6.8227443894
 30
0.0
 11
43.7270574029
 21
6.8227443894
 31
0.0
  0
ARC
  5
8E
330
1F
100
AcDbEntity
  8
0
  6
CONTINUOUS
 62
     7
100
AcDbCircle
 10
43.7270567504
 20
6.7833740573
 30
0.0
 40
0.0393700787401574
100
AcDbArc
 50
0.0
 51
90.0
  0
LINE
  5
8F
330
1F
100
AcDbEntity
  8
0
  6
CONTINUOUS
 62
     7
100
AcDbLine
 10
43.7664246281
 20
6.3207758949
 30
0.0
 11
43.7664246281
 21
6.7833742309
 31
0.0
  0
ARC
  5
90
330
1F
100
AcDbEntity
  8
0
  6
CONTINUOUS
 62
     7
100
AcDbCircle
 10
43.5302063567
 20
6.3207756321
 30
0.0
 40
0.2362204724409454
100
AcDbArc
 50
270.0
 51
0.0
  0
LINE
  5
91
330
1F
100
AcDbEntity
  8
0
  6
CONTINUOUS
 62
     7
100
AcDbLine
 10
41.443594075
 20
6.0845549437
 30
0.0
 11
43.5302071969
 21
6.0845549437
 31
0.0
  0
ARC
  5
92
330
1F
100
AcDbEntity
  8
0
  6
CONTINUOUS
 62
     7
100
AcDbCircle
 10
41.4435921834
 20
5.8483346872
 30
0.0
 40
0.2362204724409454
100
AcDbArc
 50
90.0
 51
180.0
  0
LINE
  5
93
330
1F
100
AcDbEntity
  8
0
  6
CONTINUOUS
 62
     7
100
AcDbLine
 10
41.2073719505
 20
5.0781586764
 30
0.0
 11
41.2073719505
 21
5.8483345792
 31
0.0
  0
ARC
  5
94
330
1F
100
AcDbEntity
  8
0
  6
CONTINUOUS
 62
     7
100
AcDbCircle
 10
40.707371711
 20
5.0781584203
 30
0.0
 40
0.5
100
AcDbArc
 50
300.0
 51
0.0
  0
ARC
  5
95
330
1F
100
AcDbEntity
  8
0
  6
CONTINUOUS
 62
     7
100
AcDbCircle
 10
41.207371711
 20
4.2121330166
 30
0.0
 40
0.5000000000000022
100
AcDbArc
 50
120.0
 51
180.0
  0
LINE
  5
96
330
1F
100
AcDbEntity
  8
0
  6
CONTINUOUS
 62
     7
100
AcDbLine
 10
40.7073734599
 20
4.1443029044
 30
0.0
 11
40.7073734599
 21
4.2121331074
 31
0.0
  0
ARC
  5
97
330
1F
100
AcDbEntity
  8
0
  6
CONTINUOUS
 62
     7
100
AcDbCircle
 10
41.207371711
 20
4.1443028329
 30
0.0
 40
0.5000000000000022
100
AcDbArc
 50
180.0
 51
240.0
  0
ARC
  5
98
330
1F
100
AcDbEntity
  8
0
  6
CONTINUOUS
 62
     7
100
AcDbCircle
 10
40.707371711
 20
3.2782774291
 30
0.0
 40
0.5
100
AcDbArc
 50
0.0
 51
60.0
  0
LINE
  5
99
330
1F
100
AcDbEntity
  8
0
  6
CONTINUOUS
 62
     7
100
AcDbLine
 10
41.2073719505
 20
2.5081011392
 30
0.0
 11
41.2073719505
 21
3.2782773354
 31
0.0
  0
ARC
  5
9A
330
1F
100
AcDbEntity
  8
0
  6
CONTINUOUS
 62
     7
100
AcDbCircle
 10
41.4435921834
 20
2.5081011622
 30
0.0
 40
0.2362204724409431
100
AcDbArc
 50
180.0
 51
270.0
  0
LINE
  5
9B
330
1F
100
AcDbEntity
  8
0
  6
CONTINUOUS
 62
     7
100
AcDbLine
 10
43.5302071969
 20
2.2718806281
 30
0.0
 11
41.443594075
 21
2.2718806281
 31
0.0
  0
ARC
  5
9C
330
1F
100
AcDbEntity
  8
0
  6
CONTINUOUS
 62
     7
100
AcDbCircle
 10
43.5302063567
 20
2.0356602173
 30
0.0
 40
0.2362204724409449
100
AcDbArc
 50
0.0
 51
90.0
  0
LINE
  5
9D
330
1F
100
AcDbEntity
  8
0
  6
CONTINUOUS
 62
     7
100
AcDbLine
 10
43.7664246281
 20
1.5730617809
 30
0.0
 11
43.7664246281
 21
2.0356602636
 31
0.0
  0
ARC
  5
9E
330
1F
100
AcDbEntity
  8
0
  6
CONTINUOUS
 62
     7
100
AcDbCircle
 10
43.7270567504
 20
1.5730617922
 30
0.0
 40
0.0393700787401619
100
AcDbArc
 50
270.0
 51
0.0
  0
LINE
  5
9F
330
1F
100
AcDbEntity
  8
0
  6
CONTINUOUS
 62
     7
100
AcDbLine
 10
43.7270574029
 20
1.533691769
 30
0.0
 11
43.5613095576
 21
1.533691769
 31
0.0
  0
LINE
  5
A0
330
1F
100
AcDbEntity
  8
0
  6
CONTINUOUS
 62
     7
100
AcDbLine
 10
43.5613095576
 20
1.533691769
 30
0.0
 11
43.5455589129
 21
1.7797546732
 31
0.0
  0
LINE
  5
A1
330
1F
100
AcDbEntity
  8
0
  6
CONTINUOUS
 62
     7
100
AcDbLine
 10
43.5455589129
 20
1.7797546732
 30
0.0
 11
42.9105300888
 21
1.7797546732
 31
0.0
  0
ARC
  5
A2
330
1F
100
AcDbEntity
  8
0
  6
CONTINUOUS
 62
     7
100
AcDbCircle
 10
42.9105293188
 20
1.8191247843
 30
0.0
 40
0.0393700787401574
100
AcDbArc
 50
244.7125991044
 51
270.0
  0
ARC
  5
A3
330
1F
100
AcDbEntity
  8
0
  6
CONTINUOUS
 62
     7
100
AcDbCircle
 10
42.8121902424
 20
1.6109684026
 30
0.0
 40
0.1908464566929156
100
AcDbArc
 50
64.7125991044
 51
252.4587608814
  0
ARC
  5
A4
330
1F
100
AcDbEntity
  8
0
  6
CONTINUOUS
 62
     7
100
AcDbCircle
 10
42.7428047819
 20
1.3914568743
 30
0.0
 40
0.039370078740153
100
AcDbArc
 50
0.0
 51
72.4587608814
  0
LINE
  5
A5
330
1F
100
AcDbEntity
  8
0
  6
CONTINUOUS
 62
     7
100
AcDbLine
 10
42.7821735983
 20
1.2875499591
 30
0.0
 11
42.7821735983
 21
1.3914568121
 31
0.0
  0
LINE
  5
A6
330
1F
100
AcDbEntity
  8
0
  6
CONTINUOUS
 62
     7
100
AcDbLine
 10
40.7073734599
 20
3.0874310068
 30
0.0
 11
40.7073734599
 21
1.4783964345
 31
0.0
  0
ARC
  5
A7
330
1F
100
AcDbEntity
  8
0
  6
CONTINUOUS
 62
     7
100
AcDbCircle
 10
40.5165252543
 20
3.0874309724
 30
0.0
 40
0.1908464566929169
100
AcDbArc
 50
0.0
 51
90.0
  0
LINE
  5
A8
330
1F
100
AcDbEntity
  8
0
  6
CONTINUOUS
 62
     7
100
AcDbLine
 10
40.1265660894
 20
3.2782773354
 30
0.0
 11
40.5165259579
 21
3.2782773354
 31
0.0
  0
ARC
  5
A9
330
1F
100
AcDbEntity
  8
0
  6
CONTINUOUS
 62
     7
100
AcDbCircle
 10
40.1265646244
 20
3.0874309724
 30
0.0
 40
0.1908464566929138
100
AcDbArc
 50
90.0
 51
180.0
  0
LINE
  5
AA
330
1F
100
AcDbEntity
  8
0
  6
CONTINUOUS
 62
     7
100
AcDbLine
 10
39.9357185874
 20
1.4783964345
 30
0.0
 11
39.9357185874
 21
3.0874310068
 31
0.0
  0
ARC
  5
AB
330
1F
100
AcDbEntity
  8
0
  6
CONTINUOUS
 62
     7
100
AcDbCircle
 10
39.744871711
 20
1.4783964378
 30
0.0
 40
0.1908464566929136
100
AcDbArc
 50
270.0
 51
0.0
  0
ARC
  5
AC
330
1F
100
AcDbEntity
  8
0
  6
CONTINUOUS
 62
     7
100
AcDbCircle
 10
37.9002850968
 20
1.3914568743
 30
0.0
 40
0.0393700787401594
100
AcDbArc
 50
107.5412391186
 51
180.0
  0
ARC
  5
AD
330
1F
100
AcDbEntity
  8
0
  6
CONTINUOUS
 62
     7
100
AcDbCircle
 10
37.8308996362
 20
1.6109684026
 30
0.0
 40
0.1908464566929128
100
AcDbArc
 50
287.5412391186
 51
115.2874008956
  0
ARC
  5
AE
330
1F
100
AcDbEntity
  8
0
  6
CONTINUOUS
 62
     7
100
AcDbCircle
 10
37.7325605599
 20
1.8191247843
 30
0.0
 40
0.0393700787401568
100
AcDbArc
 50
270.0
 51
295.2874008956
  0
LINE
  5
AF
330
1F
100
AcDbEntity
  8
0
  6
CONTINUOUS
 62
     7
100
AcDbLine
 10
37.7325596119
 20
1.7797546732
 30
0.0
 11
37.0975284411
 21
1.7797546732
 31
0.0
  0
LINE
  5
B0
330
1F
100
AcDbEntity
  8
0
  6
CONTINUOUS
 62
     7
100
AcDbLine
 10
37.0975284411
 20
1.7797546732
 30
0.0
 11
37.081780143
 21
1.533691769
 31
0.0
  0
LINE
  5
B1
330
1F
100
AcDbEntity
  8
0
  6
CONTINUOUS
 62
     7
100
AcDbLine
 10
37.081780143
 20
1.533691769
 30
0.0
 11
36.9160322978
 21
1.533691769
 31
0.0
  0
ARC
  5
B2
330
1F
100
AcDbEntity
  8
0
  6
CONTINUOUS
 62
     7
100
AcDbCircle
 10
36.9160331283
 20
1.5730617922
 30
0.0
 40
0.0393700787401627
100
AcDbArc
 50
180.0
 51
270.0
  0
LINE
  5
B3
330
1F
100
AcDbEntity
  8
0
  6
CONTINUOUS
 62
     7
100
AcDbLine
 10
36.8766627259
 20
2.0356602636
 30
0.0
 11
36.8766627259
 21
1.5730617809
 31
0.0
  0
ARC
  5
B4
330
1F
100
AcDbEntity
  8
0
  6
CONTINUOUS
 62
     7
100
AcDbCircle
 10
37.112883522
 20
2.0356602173
 30
0.0
 40
0.236220472440948
100
AcDbArc
 50
90.0
 51
180.0
  0
LINE
  5
B5
330
1F
100
AcDbEntity
  8
0
  6
CONTINUOUS
 62
     7
100
AcDbLine
 10
39.1994979723
 20
2.2718806281
 30
0.0
 11
37.1128825038
 21
2.2718806281
 31
0.0
  0
ARC
  5
B6
330
1F
100
AcDbEntity
  8
0
  6
CONTINUOUS
 62
     7
100
AcDbCircle
 10
39.1994976952
 20
2.5081011622
 30
0.0
 40
0.236220472440948
100
AcDbArc
 50
270.0
 51
0.0
  0
LINE
  5
B7
330
1F
100
AcDbEntity
  8
0
  6
CONTINUOUS
 62
     7
100
AcDbLine
 10
39.4357177502
 20
3.2782773354
 30
0.0
 11
39.4357177502
 21
2.5081011392
 31
0.0
  0
ARC
  5
B8
330
1F
100
AcDbEntity
  8
0
  6
CONTINUOUS
 62
     7
100
AcDbCircle
 10
39.9357181677
 20
3.2782774291
 30
0.0
 40
0.5000000000000071
100
AcDbArc
 50
120.0
 51
180.0
  0
ARC
  5
B9
330
1F
100
AcDbEntity
  8
0
  6
CONTINUOUS
 62
     7
100
AcDbCircle
 10
39.4357181677
 20
4.1443028329
 30
0.0
 40
0.499999999999999
100
AcDbArc
 50
300.0
 51
0.0
  0
LINE
  5
BA
330
1F
100
AcDbEntity
  8
0
  6
CONTINUOUS
 62
     7
100
AcDbLine
 10
39.9357185874
 20
4.2121331074
 30
0.0
 11
39.9357185874
 21
4.1443029044
 31
0.0
  0
ARC
  5
BB
330
1F
100
AcDbEntity
  8
0
  6
CONTINUOUS
 62
     7
100
AcDbCircle
 10
39.4357181677
 20
4.2121330166
 30
0.0
 40
0.4999999999999952
100
AcDbArc
 50
0.0
 51
60.0
  0
ARC
  5
BC
330
1F
100
AcDbEntity
  8
0
  6
CONTINUOUS
 62
     7
100
AcDbCircle
 10
39.9357181677
 20
5.0781584203
 30
0.0
 40
0.5000000000000071
100
AcDbArc
 50
180.0
 51
240.0
  0
LINE
  5
BD
330
1F
100
AcDbEntity
  8
0
  6
CONTINUOUS
 62
     7
100
AcDbLine
 10
39.4357177502
 20
5.8483345792
 30
0.0
 11
39.4357177502
 21
5.0781586764
 31
0.0
  0
ARC
  5
BE
330
1F
100
AcDbEntity
  8
0
  6
CONTINUOUS
 62
     7
100
AcDbCircle
 10
39.1994976952
 20
5.8483346872
 30
0.0
 40
0.2362204724409454
100
AcDbArc
 50
0.0
 51
90.0
  0
LINE
  5
BF
330
1F
100
AcDbEntity
  8
0
  6
CONTINUOUS
 62
     7
100
AcDbLine
 10
37.1128825038
 20
6.0845549437
 30
0.0
 11
39.1994979723
 21
6.0845549437
 31
0.0
  0
ARC
  5
C0
330
1F
100
AcDbEntity
  8
0
  6
CONTINUOUS
 62
     7
100
AcDbCircle
 10
37.112883522
 20
6.3207756321
 30
0.0
 40
0.236220472440948
100
AcDbArc
 50
180.0
 51
270.0
  0
LINE
  5
C1
330
1F
100
AcDbEntity
  8
0
  6
CONTINUOUS
 62
     7
100
AcDbLine
 10
36.8766627259
 20
6.7833742309
 30
0.0
 11
36.8766627259
 21
6.3207758949
 31
0.0
  0
ARC
  5
C2
330
1F
100
AcDbEntity
  8
0
  6
CONTINUOUS
 62
     7
100
AcDbCircle
 10
36.9160331283
 20
6.7833740573
 30
0.0
 40
0.0393700787401574
100
AcDbArc
 50
90.0
 51
180.0
  0
LINE
  5
C3
330
1F
100
AcDbEntity
  8
0
  6
CONTINUOUS
 62
     7
100
AcDbLine
 10
36.9160322978
 20
6.8227443894
 30
0.0
 11
37.081780143
 21
6.8227443894
 31
0.0
  0
LINE
  5
C4
330
1F
100
AcDbEntity
  8
0
  6
CONTINUOUS
 62
     7
100
AcDbLine
 10
37.8609161024
 20
1.3914568121
 30
0.0
 11
37.8609161024
 21
1.2875499591
 31
0.0
  0
ARC
  5
C5
330
1F
100
AcDbEntity
  8
0
  6
CONTINUOUS
 62
     7
100
AcDbCircle
 10
40.8982181677
 20
1.4783964378
 30
0.0
 40
0.1908464566929098
100
AcDbArc
 50
180.0
 51
270.0
  0
LINE
  5
C6
330
1F
100
AcDbEntity
  8
0
  6
CONTINUOUS
 62
     7
100
AcDbLine
 10
37.8609161024
 20
1.2875499591
 30
0.0
 11
39.7448710855
 21
1.2875499591
 31
0.0
  0
LINE
  5
C7
330
1F
100
AcDbEntity
  8
0
  6
CONTINUOUS
 62
     7
100
AcDbLine
 10
40.8982162686
 20
1.2875499591
 30
0.0
 11
42.7821735983
 21
1.2875499591
 31
0.0
  0
LINE
  5
C8
330
1F
100
AcDbEntity
  8
0
  6
CONTINUOUS
 62
     7
100
AcDbLine
 10
43.5613095576
 20
8.8837679937
 30
0.0
 11
43.5455589129
 21
9.1298307511
 31
0.0
  0
LINE
  5
C9
330
1F
100
AcDbEntity
  8
0
  6
CONTINUOUS
 62
     7
100
AcDbLine
 10
43.5455589129
 20
9.1298307511
 30
0.0
 11
42.9105300888
 21
9.1298307511
 31
0.0
  0
ARC
  5
CA
330
1F
100
AcDbEntity
  8
0
  6
CONTINUOUS
 62
     7
100
AcDbCircle
 10
42.9105293188
 20
9.1692008289
 30
0.0
 40
0.0393700787401574
100
AcDbArc
 50
244.7125991044
 51
270.0
  0
ARC
  5
CB
330
1F
100
AcDbEntity
  8
0
  6
CONTINUOUS
 62
     7
100
AcDbCircle
 10
42.8121902424
 20
8.9610444472
 30
0.0
 40
0.1908464566929158
100
AcDbArc
 50
64.7125991044
 51
252.4587608814
  0
ARC
  5
CC
330
1F
100
AcDbEntity
  8
0
  6
CONTINUOUS
 62
     7
100
AcDbCircle
 10
42.7428047819
 20
8.7415329189
 30
0.0
 40
0.0393700787401558
100
AcDbArc
 50
0.0
 51
72.4587608814
  0
LINE
  5
CD
330
1F
100
AcDbEntity
  8
0
  6
CONTINUOUS
 62
     7
100
AcDbLine
 10
42.7821735983
 20
8.6376260371
 30
0.0
 11
42.7821735983
 21
8.7415328901
 31
0.0
  0
LINE
  5
CE
330
1F
100
AcDbEntity
  8
0
  6
CONTINUOUS
 62
     7
100
AcDbLine
 10
40.8982162686
 20
8.6376260371
 30
0.0
 11
42.7821735983
 21
8.6376260371
 31
0.0
  0
ARC
  5
CF
330
1F
100
AcDbEntity
  8
0
  6
CONTINUOUS
 62
     7
100
AcDbCircle
 10
40.8982181677
 20
8.8284724825
 30
0.0
 40
0.1908464566929169
100
AcDbArc
 50
180.0
 51
270.0
  0
LINE
  5
D0
330
1F
100
AcDbEntity
  8
0
  6
CONTINUOUS
 62
     7
100
AcDbLine
 10
40.7073734599
 20
10.4375067914
 30
0.0
 11
40.7073734599
 21
8.8284723658
 31
0.0
  0
ARC
  5
D1
330
1F
100
AcDbEntity
  8
0
  6
CONTINUOUS
 62
     7
100
AcDbCircle
 10
40.5165252543
 20
10.437507017
 30
0.0
 40
0.1908464566929151
100
AcDbArc
 50
0.0
 51
90.0
  0
LINE
  5
D2
330
1F
100
AcDbEntity
  8
0
  6
CONTINUOUS
 62
     7
100
AcDbLine
 10
40.1265660894
 20
10.6283531201
 30
0.0
 11
40.5165259579
 21
10.6283531201
 31
0.0
  0
ARC
  5
D3
330
1F
100
AcDbEntity
  8
0
  6
CONTINUOUS
 62
     7
100
AcDbCircle
 10
40.1265646244
 20
10.437507017
 30
0.0
 40
0.1908464566929169
100
AcDbArc
 50
90.0
 51
180.0
  0
LINE
  5
D4
330
1F
100
AcDbEntity
  8
0
  6
CONTINUOUS
 62
     7
100
AcDbLine
 10
39.9357185874
 20
8.8284723658
 30
0.0
 11
39.9357185874
 21
10.4375067914
 31
0.0
  0
ARC
  5
D5
330
1F
100
AcDbEntity
  8
0
  6
CONTINUOUS
 62
     7
100
AcDbCircle
 10
39.744871711
 20
8.8284724825
 30
0.0
 40
0.1908464566929133
100
AcDbArc
 50
270.0
 51
0.0
  0
LINE
  5
D6
330
1F
100
AcDbEntity
  8
0
  6
CONTINUOUS
 62
     7
100
AcDbLine
 10
37.8609161024
 20
8.6376260371
 30
0.0
 11
39.7448710855
 21
8.6376260371
 31
0.0
  0
LINE
  5
D7
330
1F
100
AcDbEntity
  8
0
  6
CONTINUOUS
 62
     7
100
AcDbLine
 10
37.8609161024
 20
8.7415328901
 30
0.0
 11
37.8609161024
 21
8.6376260371
 31
0.0
  0
ARC
  5
D8
330
1F
100
AcDbEntity
  8
0
  6
CONTINUOUS
 62
     7
100
AcDbCircle
 10
37.9002850968
 20
8.7415329189
 30
0.0
 40
0.0393700787401579
100
AcDbArc
 50
107.5412391186
 51
180.0
  0
ARC
  5
D9
330
1F
100
AcDbEntity
  8
0
  6
CONTINUOUS
 62
     7
100
AcDbCircle
 10
37.8308996362
 20
8.9610444472
 30
0.0
 40
0.1908464566929128
100
AcDbArc
 50
287.5412391186
 51
115.2874008956
  0
ARC
  5
DA
330
1F
100
AcDbEntity
  8
0
  6
CONTINUOUS
 62
     7
100
AcDbCircle
 10
37.7325605599
 20
9.1692008289
 30
0.0
 40
0.0393700787401574
100
AcDbArc
 50
270.0
 51
295.2874008956
  0
LINE
  5
DB
330
1F
100
AcDbEntity
  8
0
  6
CONTINUOUS
 62
     7
100
AcDbLine
 10
37.7325596119
 20
9.1298307511
 30
0.0
 11
37.0975284411
 21
9.1298307511
 31
0.0
  0
LINE
  5
DC
330
1F
100
AcDbEntity
  8
0
  6
CONTINUOUS
 62
     7
100
AcDbLine
 10
37.0975284411
 20
9.1298307511
 30
0.0
 11
37.081780143
 21
8.8837679937
 31
0.0
  0
LINE
  5
DD
330
1F
100
AcDbEntity
  8
0
  6
CONTINUOUS
 62
     7
100
AcDbLine
 10
37.081780143
 20
8.8837679937
 30
0.0
 11
36.9160322978
 21
8.8837679937
 31
0.0
  0
ARC
  5
DE
330
1F
100
AcDbEntity
  8
0
  6
CONTINUOUS
 62
     7
100
AcDbCircle
 10
36.9160331283
 20
8.9231378368
 30
0.0
 40
0.0393700787401574
100
AcDbArc
 50
180.0
 51
270.0
  0
LINE
  5
DF
330
1F
100
AcDbEntity
  8
0
  6
CONTINUOUS
 62
     7
100
AcDbLine
 10
36.8766627259
 20
9.3857364882
 30
0.0
 11
36.8766627259
 21
8.9231375655
 31
0.0
  0
ARC
  5
E0
330
1F
100
AcDbEntity
  8
0
  6
CONTINUOUS
 62
     7
100
AcDbCircle
 10
37.112883522
 20
9.385736262
 30
0.0
 40
0.2362204724409445
100
AcDbArc
 50
90.0
 51
180.0
  0
LINE
  5
E1
330
1F
100
AcDbEntity
  8
0
  6
CONTINUOUS
 62
     7
100
AcDbLine
 10
39.1994979723
 20
9.6219568527
 30
0.0
 11
37.1128825038
 21
9.6219568527
 31
0.0
  0
ARC
  5
E2
330
1F
100
AcDbEntity
  8
0
  6
CONTINUOUS
 62
     7
100
AcDbCircle
 10
39.1994976952
 20
9.8581772069
 30
0.0
 40
0.2362204724409445
100
AcDbArc
 50
270.0
 51
0.0
  0
LINE
  5
E3
330
1F
100
AcDbEntity
  8
0
  6
CONTINUOUS
 62
     7
100
AcDbLine
 10
39.4357177502
 20
10.6283531201
 30
0.0
 11
39.4357177502
 21
9.8581772172
 31
0.0
  0
ARC
  5
E4
330
1F
100
AcDbEntity
  8
0
  6
CONTINUOUS
 62
     7
100
AcDbCircle
 10
39.9357181677
 20
10.6283534737
 30
0.0
 40
0.4999999999999944
100
AcDbArc
 50
120.0
 51
180.0
  0
ARC
  5
E5
330
1F
100
AcDbEntity
  8
0
  6
CONTINUOUS
 62
     7
100
AcDbCircle
 10
39.4357181677
 20
11.4943788775
 30
0.0
 40
0.4999999999999995
100
AcDbArc
 50
300.0
 51
0.0
  0
LINE
  5
E6
330
1F
100
AcDbEntity
  8
0
  6
CONTINUOUS
 62
     7
100
AcDbLine
 10
39.9357185874
 20
11.5622088921
 30
0.0
 11
39.9357185874
 21
11.4943792756
 31
0.0
  0
ARC
  5
E7
330
1F
100
AcDbEntity
  8
0
  6
CONTINUOUS
 62
     7
100
AcDbCircle
 10
39.4357181677
 20
11.5622090612
 30
0.0
 40
0.4999999999999979
100
AcDbArc
 50
0.0
 51
60.0
  0
ARC
  5
E8
330
1F
100
AcDbEntity
  8
0
  6
CONTINUOUS
 62
     7
100
AcDbCircle
 10
39.9357181677
 20
12.428234465
 30
0.0
 40
0.4999999999999959
100
AcDbArc
 50
180.0
 51
240.0
  0
LINE
  5
E9
330
1F
100
AcDbEntity
  8
0
  6
CONTINUOUS
 62
     7
100
AcDbLine
 10
39.4357177502
 20
13.1984103639
 30
0.0
 11
39.4357177502
 21
12.4282350477
 31
0.0
  0
ARC
  5
EA
330
1F
100
AcDbEntity
  8
0
  6
CONTINUOUS
 62
     7
100
AcDbCircle
 10
39.1994976952
 20
13.1984107318
 30
0.0
 40
0.236220472440948
100
AcDbArc
 50
0.0
 51
90.0
  0
LINE
  5
EB
330
1F
100
AcDbEntity
  8
0
  6
CONTINUOUS
 62
     7
100
AcDbLine
 10
37.1128825038
 20
13.434631315
 30
0.0
 11
39.1994979723
 21
13.434631315
 31
0.0
  0
ARC
  5
EC
330
1F
100
AcDbEntity
  8
0
  6
CONTINUOUS
 62
     7
100
AcDbCircle
 10
37.112883522
 20
13.6708516767
 30
0.0
 40
0.2362204724409462
100
AcDbArc
 50
180.0
 51
270.0
  0
LINE
  5
ED
330
1F
100
AcDbEntity
  8
0
  6
CONTINUOUS
 62
     7
100
AcDbLine
 10
36.8766627259
 20
14.1334500155
 30
0.0
 11
36.8766627259
 21
13.6708510929
 31
0.0
  0
ARC
  5
EE
330
1F
100
AcDbEntity
  8
0
  6
CONTINUOUS
 62
     7
100
AcDbCircle
 10
36.9160331283
 20
14.1334501019
 30
0.0
 40
0.0393700787401574
100
AcDbArc
 50
90.0
 51
180.0
  0
LINE
  5
EF
330
1F
100
AcDbEntity
  8
0
  6
CONTINUOUS
 62
     7
100
AcDbLine
 10
36.9160322978
 20
14.1728207607
 30
0.0
 11
37.081780143
 21
14.1728207607
 31
0.0
  0
LINE
  5
F0
330
1F
100
AcDbEntity
  8
0
  6
CONTINUOUS
 62
     7
100
AcDbLine
 10
37.081780143
 20
14.1728207607
 30
0.0
 11
37.0975284411
 21
13.9267568299
 31
0.0
  0
LINE
  5
F1
330
1F
100
AcDbEntity
  8
0
  6
CONTINUOUS
 62
     7
100
AcDbLine
 10
37.0975284411
 20
13.9267568299
 30
0.0
 11
37.7325596119
 21
13.9267568299
 31
0.0
  0
ARC
  5
F2
330
1F
100
AcDbEntity
  8
0
  6
CONTINUOUS
 62
     7
100
AcDbCircle
 10
37.7325605599
 20
13.8873871098
 30
0.0
 40
0.0393700787401596
100
AcDbArc
 50
64.7125991044
 51
90.0
  0
ARC
  5
F3
330
1F
100
AcDbEntity
  8
0
  6
CONTINUOUS
 62
     7
100
AcDbCircle
 10
37.8308996362
 20
14.0955434915
 30
0.0
 40
0.1908464566929128
100
AcDbArc
 50
244.7125991044
 51
72.4587608814
  0
ARC
  5
F4
330
1F
100
AcDbEntity
  8
0
  6
CONTINUOUS
 62
     7
100
AcDbCircle
 10
37.9002850968
 20
14.3150550198
 30
0.0
 40
0.0393700787401562
100
AcDbArc
 50
180.0
 51
252.4587608814
  0
LINE
  5
F5
330
1F
100
AcDbEntity
  8
0
  6
CONTINUOUS
 62
     7
100
AcDbLine
 10
37.8609161024
 20
14.4189621306
 30
0.0
 11
37.8609161024
 21
14.3150552776
 31
0.0
  0
LINE
  5
F6
330
1F
100
AcDbEntity
  8
0
  6
CONTINUOUS
 62
     7
100
AcDbLine
 10
39.7448710855
 20
14.4189621306
 30
0.0
 11
37.8609161024
 21
14.4189621306
 31
0.0
  0
ARC
  5
F7
330
1F
100
AcDbEntity
  8
0
  6
CONTINUOUS
 62
     7
100
AcDbCircle
 10
39.744871711
 20
14.2281154563
 30
0.0
 40
0.1908464566929133
100
AcDbArc
 50
0.0
 51
90.0
  0
LINE
  5
F8
330
1F
100
AcDbEntity
  8
0
  6
CONTINUOUS
 62
     7
100
AcDbLine
 10
39.9357185874
 20
12.6190813763
 30
0.0
 11
39.9357185874
 21
14.228115802
 31
0.0
  0
ARC
  5
F9
330
1F
100
AcDbEntity
  8
0
  6
CONTINUOUS
 62
     7
100
AcDbCircle
 10
40.1265646244
 20
12.6190809217
 30
0.0
 40
0.1908464566929169
100
AcDbArc
 50
180.0
 51
270.0
  0
LINE
  5
FA
330
1F
100
AcDbEntity
  8
0
  6
CONTINUOUS
 62
     7
100
AcDbLine
 10
40.5165259579
 20
12.4282350477
 30
0.0
 11
40.1265660894
 21
12.4282350477
 31
0.0
  0
ARC
  5
FB
330
1F
100
AcDbEntity
  8
0
  6
CONTINUOUS
 62
     7
100
AcDbCircle
 10
40.5165252543
 20
12.6190809217
 30
0.0
 40
0.1908464566929133
100
AcDbArc
 50
270.0
 51
0.0
  0
LINE
  5
FC
330
1F
100
AcDbEntity
  8
0
  6
CONTINUOUS
 62
     7
100
AcDbLine
 10
40.7073734599
 20
14.228115802
 30
0.0
 11
40.7073734599
 21
12.6190813763
 31
0.0
  0
ARC
  5
FD
330
1F
100
AcDbEntity
  8
0
  6
CONTINUOUS
 62
     7
100
AcDbCircle
 10
40.8982181677
 20
14.2281154563
 30
0.0
 40
0.1908464566929133
100
AcDbArc
 50
90.0
 51
180.0
  0
LINE
  5
FE
330
1F
100
AcDbEntity
  8
0
  6
CONTINUOUS
 62
     7
100
AcDbLine
 10
42.7821735983
 20
14.4189621306
 30
0.0
 11
40.8982162686
 21
14.4189621306
 31
0.0
  0
LINE
  5
FF
330
1F
100
AcDbEntity
  8
0
  6
CONTINUOUS
 62
     7
100
AcDbLine
 10
42.7821735983
 20
14.3150552776
 30
0.0
 11
42.7821735983
 21
14.4189621306
 31
0.0
  0
ARC
  5
100
330
1F
100
AcDbEntity
  8
0
  6
CONTINUOUS
 62
     7
100
AcDbCircle
 10
42.7428047819
 20
14.3150550198
 30
0.0
 40
0.0393700787401541
100
AcDbArc
 50
287.5412391186
 51
0.0
  0
ARC
  5
101
330
1F
100
AcDbEntity
  8
0
  6
CONTINUOUS
 62
     7
100
AcDbCircle
 10
42.8121902424
 20
14.0955434915
 30
0.0
 40
0.1908464566929145
100
AcDbArc
 50
107.5412391186
 51
295.2874008956
  0
ARC
  5
102
330
1F
100
AcDbEntity
  8
0
  6
CONTINUOUS
 62
     7
100
AcDbCircle
 10
42.9105293188
 20
13.8873871098
 30
0.0
 40
0.0393700787401594
100
AcDbArc
 50
90.0
 51
115.2874008956
  0
LINE
  5
103
330
1F
100
AcDbEntity
  8
0
  6
CONTINUOUS
 62
     7
100
AcDbLine
 10
42.9105300888
 20
13.9267568299
 30
0.0
 11
43.5455589129
 21
13.9267568299
 31
0.0
  0
LINE
  5
104
330
1F
100
AcDbEntity
  8
0
  6
CONTINUOUS
 62
     7
100
AcDbLine
 10
43.5455589129
 20
13.9267568299
 30
0.0
 11
43.5613095576
 21
14.1728207607
 31
0.0
  0
LINE
  5
105
330
1F
100
AcDbEntity
  8
0
  6
CONTINUOUS
 62
     7
100
AcDbLine
 10
43.5613095576
 20
14.1728207607
 30
0.0
 11
43.7270574029
 21
14.1728207607
 31
0.0
  0
ARC
  5
106
330
1F
100
AcDbEntity
  8
0
  6
CONTINUOUS
 62
     7
100
AcDbCircle
 10
43.7270567504
 20
14.1334501019
 30
0.0
 40
0.0393700787401574
100
AcDbArc
 50
0.0
 51
90.0
  0
LINE
  5
107
330
1F
100
AcDbEntity
  8
0
  6
CONTINUOUS
 62
     7
100
AcDbLine
 10
43.7664246281
 20
13.6708510929
 30
0.0
 11
43.7664246281
 21
14.1334500155
 31
0.0
  0
ARC
  5
108
330
1F
100
AcDbEntity
  8
0
  6
CONTINUOUS
 62
     7
100
AcDbCircle
 10
43.5302063567
 20
13.6708516767
 30
0.0
 40
0.2362204724409445
100
AcDbArc
 50
270.0
 51
0.0
  0
LINE
  5
109
330
1F
100
AcDbEntity
  8
0
  6
CONTINUOUS
 62
     7
100
AcDbLine
 10
41.443594075
 20
13.434631315
 30
0.0
 11
43.5302071969
 21
13.434631315
 31
0.0
  0
ARC
  5
10A
330
1F
100
AcDbEntity
  8
0
  6
CONTINUOUS
 62
     7
100
AcDbCircle
 10
41.4435921834
 20
13.1984107318
 30
0.0
 40
0.2362204724409427
100
AcDbArc
 50
90.0
 51
180.0
  0
LINE
  5
10B
330
1F
100
AcDbEntity
  8
0
  6
CONTINUOUS
 62
     7
100
AcDbLine
 10
41.2073719505
 20
12.4282350477
 30
0.0
 11
41.2073719505
 21
13.1984103639
 31
0.0
  0
ARC
  5
10C
330
1F
100
AcDbEntity
  8
0
  6
CONTINUOUS
 62
     7
100
AcDbCircle
 10
40.707371711
 20
12.428234465
 30
0.0
 40
0.5000000000000071
100
AcDbArc
 50
300.0
 51
0.0
  0
ARC
  5
10D
330
1F
100
AcDbEntity
  8
0
  6
CONTINUOUS
 62
     7
100
AcDbCircle
 10
41.207371711
 20
11.5622090612
 30
0.0
 40
0.5
100
AcDbArc
 50
120.0
 51
180.0
  0
LINE
  5
10E
330
1F
100
AcDbEntity
  8
0
  6
CONTINUOUS
 62
     7
100
AcDbLine
 10
40.7073734599
 20
11.4943792756
 30
0.0
 11
40.7073734599
 21
11.5622088921
 31
0.0
  0
ARC
  5
10F
330
1F
100
AcDbEntity
  8
0
  6
CONTINUOUS
 62
     7
100
AcDbCircle
 10
41.207371711
 20
11.4943788775
 30
0.0
 40
0.5
100
AcDbArc
 50
180.0
 51
240.0
  0
ARC
  5
110
330
1F
100
AcDbEntity
  8
0
  6
CONTINUOUS
 62
     7
100
AcDbCircle
 10
40.707371711
 20
10.6283534737
 30
0.0
 40
0.5000000000000014
100
AcDbArc
 50
0.0
 51
60.0
  0
LINE
  5
111
330
1F
100
AcDbEntity
  8
0
  6
CONTINUOUS
 62
     7
100
AcDbLine
 10
41.2073719505
 20
9.8581772172
 30
0.0
 11
41.2073719505
 21
10.6283531201
 31
0.0
  0
ARC
  5
112
330
1F
100
AcDbEntity
  8
0
  6
CONTINUOUS
 62
     7
100
AcDbCircle
 10
41.4435921834
 20
9.8581772069
 30
0.0
 40
0.2362204724409445
100
AcDbArc
 50
180.0
 51
270.0
  0
LINE
  5
113
330
1F
100
AcDbEntity
  8
0
  6
CONTINUOUS
 62
     7
100
AcDbLine
 10
43.5302071969
 20
9.6219568527
 30
0.0
 11
41.443594075
 21
9.6219568527
 31
0.0
  0
ARC
  5
114
330
1F
100
AcDbEntity
  8
0
  6
CONTINUOUS
 62
     7
100
AcDbCircle
 10
43.5302063567
 20
9.385736262
 30
0.0
 40
0.2362204724409445
100
AcDbArc
 50
0.0
 51
90.0
  0
LINE
  5
115
330
1F
100
AcDbEntity
  8
0
  6
CONTINUOUS
 62
     7
100
AcDbLine
 10
43.7664246281
 20
8.9231375655
 30
0.0
 11
43.7664246281
 21
9.3857364882
 31
0.0
  0
ARC
  5
116
330
1F
100
AcDbEntity
  8
0
  6
CONTINUOUS
 62
     7
100
AcDbCircle
 10
43.7270567504
 20
8.9231378368
 30
0.0
 40
0.0393700787401574
100
AcDbArc
 50
270.0
 51
0.0
  0
LINE
  5
117
330
1F
100
AcDbEntity
  8
0
  6
CONTINUOUS
 62
     7
100
AcDbLine
 10
43.7270574029
 20
8.8837679937
 30
0.0
 11
43.5613095576
 21
8.8837679937
 31
0.0
  0
LINE
  5
118
330
1F
100
AcDbEntity
  8
0
  6
CONTINUOUS
 62
     7
100
AcDbLine
 10
35.3077652233
 20
9.3133227114
 30
0.0
 11
35.3077652233
 21
10.0168716506
 31
0.0
  0
LINE
  5
119
330
1F
100
AcDbEntity
  8
0
  6
CONTINUOUS
 62
     7
100
AcDbLine
 10
29.6365052982
 20
10.0168716506
 30
0.0
 11
29.6365052982
 21
9.3133227114
 31
0.0
  0
LINE
  5
11A
330
1F
100
AcDbEntity
  8
0
  6
CONTINUOUS
 62
     7
100
AcDbLine
 10
29.6365052982
 20
10.0168716506
 30
0.0
 11
35.3077652233
 21
10.0168716506
 31
0.0
  0
LINE
  5
11B
330
1F
100
AcDbEntity
  8
0
  6
CONTINUOUS
 62
     7
100
AcDbLine
 10
29.6365052982
 20
9.3133227114
 30
0.0
 11
35.3077652233
 21
9.3133227114
 31
0.0
  0
LINE
  5
11C
330
1F
100
AcDbEntity
  8
0
  6
CONTINUOUS
 62
     7
100
AcDbLine
 10
35.3077652233
 20
10.8895904222
 30
0.0
 11
29.6365052982
 21
10.8895904222
 31
0.0
  0
LINE
  5
11D
330
1F
100
AcDbEntity
  8
0
  6
CONTINUOUS
 62
     7
100
AcDbLine
 10
29.6365052982
 20
15.573269436
 30
0.0
 11
35.3077652233
 21
15.573269436
 31
0.0
  0
LINE
  5
11E
330
1F
100
AcDbEntity
  8
0
  6
CONTINUOUS
 62
     7
100
AcDbLine
 10
29.6365052982
 20
15.573269436
 30
0.0
 11
29.6365052982
 21
10.8895904222
 31
0.0
  0
LINE
  5
11F
330
1F
100
AcDbEntity
  8
0
  6
CONTINUOUS
 62
     7
100
AcDbLine
 10
35.3077652233
 20
10.8895904222
 30
0.0
 11
35.3077652233
 21
15.573269436
 31
0.0
  0
LINE
  5
120
330
1F
100
AcDbEntity
  8
0
  6
CONTINUOUS
 62
     7
100
AcDbLine
 10
35.3077652233
 20
15.7701196419
 30
0.0
 11
29.6365052982
 21
15.7701196419
 31
0.0
  0
LINE
  5
121
330
1F
100
AcDbEntity
  8
0
  6
CONTINUOUS
 62
     7
100
AcDbLine
 10
29.6365052982
 20
15.7701196419
 30
0.0
 11
29.6365052982
 21
15.573269436
 31
0.0
  0
LINE
  5
122
330
1F
100
AcDbEntity
  8
0
  6
CONTINUOUS
 62
     7
100
AcDbLine
 10
35.3077652233
 20
15.573269436
 30
0.0
 11
35.3077652233
 21
15.7701196419
 31
0.0
  0
LINE
  5
123
330
1F
100
AcDbEntity
  8
0
  6
CONTINUOUS
 62
     7
100
AcDbLine
 10
29.6365052982
 20
10.0168716506
 30
0.0
 11
29.6365052982
 21
10.8895904222
 31
0.0
  0
LINE
  5
124
330
1F
100
AcDbEntity
  8
0
  6
CONTINUOUS
 62
     7
100
AcDbLine
 10
35.3077652233
 20
10.8895904222
 30
0.0
 11
35.3077652233
 21
10.0168716506
 31
0.0
  0
LINE
  5
125
330
1F
100
AcDbEntity
  8
0
  6
CONTINUOUS
 62
     7
100
AcDbLine
 10
29.6365052982
 20
1.2876287182
 30
0.0
 11
35.3077652233
 21
1.2876287182
 31
0.0
  0
LINE
  5
126
330
1F
100
AcDbEntity
  8
0
  6
CONTINUOUS
 62
     7
100
AcDbLine
 10
29.6365052982
 20
1.9911778041
 30
0.0
 11
29.6365052982
 21
1.2876287182
 31
0.0
  0
LINE
  5
127
330
1F
100
AcDbEntity
  8
0
  6
CONTINUOUS
 62
     7
100
AcDbLine
 10
35.3077652233
 20
1.9911778041
 30
0.0
 11
29.6365052982
 21
1.9911778041
 31
0.0
  0
LINE
  5
128
330
1F
100
AcDbEntity
  8
0
  6
CONTINUOUS
 62
     7
100
AcDbLine
 10
35.3077652233
 20
1.2876287182
 30
0.0
 11
35.3077652233
 21
1.9911778041
 31
0.0
  0
LINE
  5
129
330
1F
100
AcDbEntity
  8
0
  6
CONTINUOUS
 62
     7
100
AcDbLine
 10
29.6365052982
 20
2.8638959891
 30
0.0
 11
35.3077652233
 21
2.8638959891
 31
0.0
  0
LINE
  5
12A
330
1F
100
AcDbEntity
  8
0
  6
CONTINUOUS
 62
     7
100
AcDbLine
 10
29.6365052982
 20
7.5475750028
 30
0.0
 11
35.3077652233
 21
7.5475750028
 31
0.0
  0
LINE
  5
12B
330
1F
100
AcDbEntity
  8
0
  6
CONTINUOUS
 62
     7
100
AcDbLine
 10
29.6365052982
 20
7.5475750028
 30
0.0
 11
29.6365052982
 21
2.8638959891
 31
0.0
  0
LINE
  5
12C
330
1F
100
AcDbEntity
  8
0
  6
CONTINUOUS
 62
     7
100
AcDbLine
 10
35.3077652233
 20
2.8638959891
 30
0.0
 11
35.3077652233
 21
7.5475750028
 31
0.0
  0
LINE
  5
12D
330
1F
100
AcDbEntity
  8
0
  6
CONTINUOUS
 62
     7
100
AcDbLine
 10
35.3077652233
 20
7.7444252088
 30
0.0
 11
29.6365052982
 21
7.7444252088
 31
0.0
  0
LINE
  5
12E
330
1F
100
AcDbEntity
  8
0
  6
CONTINUOUS
 62
     7
100
AcDbLine
 10
29.6365052982
 20
7.7444252088
 30
0.0
 11
29.6365052982
 21
7.5475750028
 31
0.0
  0
LINE
  5
12F
330
1F
100
AcDbEntity
  8
0
  6
CONTINUOUS
 62
     7
100
AcDbLine
 10
35.3077652233
 20
7.5475750028
 30
0.0
 11
35.3077652233
 21
7.7444252088
 31
0.0
  0
LINE
  5
130
330
1F
100
AcDbEntity
  8
0
  6
CONTINUOUS
 62
     7
100
AcDbLine
 10
29.6365052982
 20
1.9911778041
 30
0.0
 11
29.6365052982
 21
2.8638959891
 31
0.0
  0
LINE
  5
131
330
1F
100
AcDbEntity
  8
0
  6
CONTINUOUS
 62
     7
100
AcDbLine
 10
35.3077652233
 20
2.8638959891
 30
0.0
 11
35.3077652233
 21
1.9911778041
 31
0.0
  0
ARC
  5
132
330
1F
100
AcDbEntity
  8
0
  6
CONTINUOUS
 62
     7
100
AcDbCircle
 10
19.8176443806
 20
10.2296750238
 30
0.0
 40
0.1908464566929126
100
AcDbArc
 50
327.0154686408
 51
355.2874046152
  0
ARC
  5
133
330
1F
100
AcDbEntity
  8
0
  6
CONTINUOUS
 62
     7
100
AcDbCircle
 10
20.0470826346
 20
10.2107609862
 30
0.0
 40
0.0393700787401593
100
AcDbArc
 50
150.0
 51
175.2874046152
  0
LINE
  5
134
330
1F
100
AcDbEntity
  8
0
  6
CONTINUOUS
 62
     7
100
AcDbLine
 10
20.2663266099
 20
10.6692409677
 30
0.0
 11
20.0129880965
 21
10.2304463567
 31
0.0
  0
ARC
  5
135
330
1F
100
AcDbEntity
  8
0
  6
CONTINUOUS
 62
     7
100
AcDbCircle
 10
20.3004214219
 20
10.6495557562
 30
0.0
 40
0.0393705192937281
100
AcDbArc
 50
124.7126274202
 51
150.0
  0
ARC
  5
136
330
1F
100
AcDbEntity
  8
0
  6
CONTINUOUS
 62
     7
100
AcDbCircle
 10
20.1693219011
 20
10.8387983827
 30
0.0
 40
0.1908464566929162
100
AcDbArc
 50
304.7126274202
 51
132.4587635951
  0
ARC
  5
137
330
1F
100
AcDbEntity
  8
0
  6
CONTINUOUS
 62
     7
100
AcDbCircle
 10
20.0139120635
 20
11.008643711
 30
0.0
 40
0.0393700787401564
100
AcDbArc
 50
240.0000140737
 51
312.4587635951
  0
LINE
  5
138
330
1F
100
AcDbEntity
  8
0
  6
CONTINUOUS
 62
     7
100
AcDbLine
 10
19.8143908174
 20
11.0783764013
 30
0.0
 11
19.9942267133
 21
10.9745481608
 31
0.0
  0
ARC
  5
139
330
1F
100
AcDbEntity
  8
0
  6
CONTINUOUS
 62
     7
100
AcDbCircle
 10
19.8340764017
 20
11.1124718198
 30
0.0
 40
0.0393700910988408
100
AcDbArc
 50
167.5412418324
 51
240.0000140737
  0
ARC
  5
13A
330
1F
100
AcDbEntity
  8
0
  6
CONTINUOUS
 62
     7
100
AcDbCircle
 10
19.6092811092
 20
11.1621380018
 30
0.0
 40
0.1908464443342308
100
AcDbArc
 50
347.5412418324
 51
175.287382376
  0
ARC
  5
13B
330
1F
100
AcDbEntity
  8
0
  6
CONTINUOUS
 62
     7
100
AcDbCircle
 10
19.3798429047
 20
11.1810521251
 30
0.0
 40
0.0393700612421805
100
AcDbArc
 50
330.0
 51
355.287382376
  0
LINE
  5
13C
330
1F
100
AcDbEntity
  8
0
  6
CONTINUOUS
 62
     7
100
AcDbLine
 10
19.1605994367
 20
10.7225718716
 30
0.0
 11
19.4139379501
 21
11.161367656
 31
0.0
  0
ARC
  5
13D
330
1F
100
AcDbEntity
  8
0
  6
CONTINUOUS
 62
     7
100
AcDbCircle
 10
19.1265044
 20
10.7422569636
 30
0.0
 40
0.0393700787401593
100
AcDbArc
 50
304.7126028241
 51
330.0
  0
ARC
  5
13E
330
1F
100
AcDbEntity
  8
0
  6
CONTINUOUS
 62
     7
100
AcDbCircle
 10
19.2576035887
 20
10.5530146429
 30
0.0
 40
0.1908464566929131
100
AcDbArc
 50
124.7126028241
 51
152.9845097739
  0
LINE
  5
13F
330
1F
100
AcDbEntity
  8
0
  6
CONTINUOUS
 62
     7
100
AcDbLine
 10
19.0875814002
 20
10.6397026423
 30
0.0
 11
16.6807869104
 21
12.0292664299
 31
0.0
  0
ARC
  5
140
330
1F
100
AcDbEntity
  8
0
  6
CONTINUOUS
 62
     7
100
AcDbCircle
 10
16.520701641
 20
12.1331658021
 30
0.0
 40
0.1908464566929176
100
AcDbArc
 50
327.0154686408
 51
355.2874046152
  0
ARC
  5
141
330
1F
100
AcDbEntity
  8
0
  6
CONTINUOUS
 62
     7
100
AcDbCircle
 10
16.7501398949
 20
12.1142517644
 30
0.0
 40
0.0393700787401593
100
AcDbArc
 50
150.0
 51
175.2874046152
  0
LINE
  5
142
330
1F
100
AcDbEntity
  8
0
  6
CONTINUOUS
 62
     7
100
AcDbLine
 10
16.9693825098
 20
12.5727317251
 30
0.0
 11
16.7160439964
 21
12.1339371141
 31
0.0
  0
ARC
  5
143
330
1F
100
AcDbEntity
  8
0
  6
CONTINUOUS
 62
     7
100
AcDbCircle
 10
17.0034786823
 20
12.5530465345
 30
0.0
 40
0.0393705192937283
100
AcDbArc
 50
124.7126274202
 51
150.0
  0
ARC
  5
144
330
1F
100
AcDbEntity
  8
0
  6
CONTINUOUS
 62
     7
100
AcDbCircle
 10
16.8723791615
 20
12.742289161
 30
0.0
 40
0.190846456692914
100
AcDbArc
 50
304.7126274202
 51
132.4587635951
  0
ARC
  5
145
330
1F
100
AcDbEntity
  8
0
  6
CONTINUOUS
 62
     7
100
AcDbCircle
 10
16.7169693238
 20
12.9121344893
 30
0.0
 40
0.0393700787401577
100
AcDbArc
 50
240.0000140737
 51
312.4587635951
  0
LINE
  5
146
330
1F
100
AcDbEntity
  8
0
  6
CONTINUOUS
 62
     7
100
AcDbLine
 10
16.517449064
 20
12.9818671587
 30
0.0
 11
16.6972837865
 21
12.8780389182
 31
0.0
  0
ARC
  5
147
330
1F
100
AcDbEntity
  8
0
  6
CONTINUOUS
 62
     7
100
AcDbCircle
 10
16.5371336621
 20
13.0159625981
 30
0.0
 40
0.0393700910988369
100
AcDbArc
 50
167.5412418324
 51
240.0000140737
  0
ARC
  5
148
330
1F
100
AcDbEntity
  8
0
  6
CONTINUOUS
 62
     7
100
AcDbCircle
 10
16.3123383695
 20
13.0656287801
 30
0.0
 40
0.1908464443342281
100
AcDbArc
 50
347.5412418324
 51
175.287382376
  0
ARC
  5
149
330
1F
100
AcDbEntity
  8
0
  6
CONTINUOUS
 62
     7
100
AcDbCircle
 10
16.082900165
 20
13.0845429033
 30
0.0
 40
0.0393700612421749
100
AcDbArc
 50
330.0
 51
355.287382376
  0
LINE
  5
14A
330
1F
100
AcDbEntity
  8
0
  6
CONTINUOUS
 62
     7
100
AcDbLine
 10
15.8636576833
 20
12.626062629
 30
0.0
 11
16.1169961967
 21
13.0648584133
 31
0.0
  0
ARC
  5
14B
330
1F
100
AcDbEntity
  8
0
  6
CONTINUOUS
 62
     7
100
AcDbCircle
 10
15.960660849
 20
12.4565054211
 30
0.0
 40
0.1908464566929164
100
AcDbArc
 50
124.7126028241
 51
152.9845097739
  0
LINE
  5
14C
330
1F
100
AcDbEntity
  8
0
  6
CONTINUOUS
 62
     7
100
AcDbLine
 10
15.7906384735
 20
12.5431933997
 30
0.0
 11
15.5671163623
 21
12.6722444955
 31
0.0
  0
ARC
  5
14D
330
1F
100
AcDbEntity
  8
0
  6
CONTINUOUS
 62
     7
100
AcDbCircle
 10
15.5868012648
 20
12.7063401998
 30
0.0
 40
0.039370078740156
100
AcDbArc
 50
167.5412391186
 51
240.0
  0
ARC
  5
14E
330
1F
100
AcDbEntity
  8
0
  6
CONTINUOUS
 62
     7
100
AcDbCircle
 10
15.3620059746
 20
12.7560063924
 30
0.0
 40
0.1908464566929144
100
AcDbArc
 50
347.5412391186
 51
175.2874008956
  0
ARC
  5
14F
330
1F
100
AcDbEntity
  8
0
  6
CONTINUOUS
 62
     7
100
AcDbCircle
 10
15.1325677219
 20
12.774920445
 30
0.0
 40
0.0393700787401586
100
AcDbArc
 50
330.0
 51
355.2874008956
  0
LINE
  5
150
330
1F
100
AcDbEntity
  8
0
  6
CONTINUOUS
 62
     7
100
AcDbLine
 10
15.166663495
 20
12.7552357501
 30
0.0
 11
14.9066323656
 21
12.3048475664
 31
0.0
  0
ARC
  5
151
330
1F
100
AcDbEntity
  8
0
  6
CONTINUOUS
 62
     7
100
AcDbCircle
 10
14.8725363533
 20
12.324532903
 30
0.0
 40
0.0393700787401586
100
AcDbArc
 50
304.7125991044
 51
330.0
  0
ARC
  5
152
330
1F
100
AcDbEntity
  8
0
  6
CONTINUOUS
 62
     7
100
AcDbCircle
 10
15.0036355297
 20
12.1352905739
 30
0.0
 40
0.1908464566929166
100
AcDbArc
 50
124.7125991044
 51
312.4587608814
  0
ARC
  5
153
330
1F
100
AcDbEntity
  8
0
  6
CONTINUOUS
 62
     7
100
AcDbCircle
 10
15.1590453593
 20
11.9654452382
 30
0.0
 40
0.0393700787401579
100
AcDbArc
 50
60.0
 51
132.4587608814
  0
LINE
  5
154
330
1F
100
AcDbEntity
  8
0
  6
CONTINUOUS
 62
     7
100
AcDbLine
 10
15.1787299156
 20
11.9995403733
 30
0.0
 11
19.07981285
 21
9.7472498053
 31
0.0
  0
LINE
  5
155
330
1F
100
AcDbEntity
  8
0
  6
CONTINUOUS
 62
     7
100
AcDbLine
 10
19.07981285
 20
9.7472498053
 30
0.0
 11
19.07981285
 21
6.6075352489
 31
0.0
  0
LINE
  5
156
330
1F
100
AcDbEntity
  8
0
  6
CONTINUOUS
 62
     7
100
AcDbLine
 10
19.07981285
 20
6.6075352489
 30
0.0
 11
15.1787299156
 21
4.3552443875
 31
0.0
  0
ARC
  5
157
330
1F
100
AcDbEntity
  8
0
  6
CONTINUOUS
 62
     7
100
AcDbCircle
 10
15.1590453593
 20
4.3893397634
 30
0.0
 40
0.0393700787401596
100
AcDbArc
 50
227.5412391186
 51
300.0
  0
ARC
  5
158
330
1F
100
AcDbEntity
  8
0
  6
CONTINUOUS
 62
     7
100
AcDbCircle
 10
15.0036355297
 20
4.2194944278
 30
0.0
 40
0.1908464566929136
100
AcDbArc
 50
47.5412391186
 51
235.2874008956
  0
ARC
  5
159
330
1F
100
AcDbEntity
  8
0
  6
CONTINUOUS
 62
     7
100
AcDbCircle
 10
14.8725363533
 20
4.0302520986
 30
0.0
 40
0.0393700787401573
100
AcDbArc
 50
30.0
 51
55.2874008956
  0
LINE
  5
15A
330
1F
100
AcDbEntity
  8
0
  6
CONTINUOUS
 62
     7
100
AcDbLine
 10
14.9066323656
 20
4.0499371945
 30
0.0
 11
15.166663495
 21
3.5995495974
 31
0.0
  0
ARC
  5
15B
330
1F
100
AcDbEntity
  8
0
  6
CONTINUOUS
 62
     7
100
AcDbCircle
 10
15.1325677219
 20
3.5798645566
 30
0.0
 40
0.0393700787401593
100
AcDbArc
 50
4.7125991044
 51
30.0
  0
ARC
  5
15C
330
1F
100
AcDbEntity
  8
0
  6
CONTINUOUS
 62
     7
100
AcDbCircle
 10
15.3620059746
 20
3.5987786092
 30
0.0
 40
0.1908464566929143
100
AcDbArc
 50
184.7125991044
 51
12.4587608814
  0
ARC
  5
15D
330
1F
100
AcDbEntity
  8
0
  6
CONTINUOUS
 62
     7
100
AcDbCircle
 10
15.5868012648
 20
3.6484448018
 30
0.0
 40
0.0393700787401601
100
AcDbArc
 50
120.0
 51
192.4587608814
  0
LINE
  5
15E
330
1F
100
AcDbEntity
  8
0
  6
CONTINUOUS
 62
     7
100
AcDbLine
 10
15.5671163623
 20
3.6825402653
 30
0.0
 11
15.7906384735
 21
3.8115910679
 31
0.0
  0
ARC
  5
15F
330
1F
100
AcDbEntity
  8
0
  6
CONTINUOUS
 62
     7
100
AcDbCircle
 10
15.9606608739
 20
3.8982795119
 30
0.0
 40
0.1908464443342327
100
AcDbArc
 50
207.0154684474
 51
235.287382376
  0
ARC
  5
160
330
1F
100
AcDbEntity
  8
0
  6
CONTINUOUS
 62
     7
100
AcDbCircle
 10
15.8295616604
 20
3.7090372598
 30
0.0
 40
0.0393700612421758
100
AcDbArc
 50
30.0
 51
55.287382376
  0
LINE
  5
161
330
1F
100
AcDbEntity
  8
0
  6
CONTINUOUS
 62
     7
100
AcDbLine
 10
16.1169961967
 20
3.2899272275
 30
0.0
 11
15.8636576833
 21
3.7287224252
 31
0.0
  0
ARC
  5
162
330
1F
100
AcDbEntity
  8
0
  6
CONTINUOUS
 62
     7
100
AcDbCircle
 10
16.082900165
 20
3.2702420983
 30
0.0
 40
0.0393700787401592
100
AcDbArc
 50
4.7126028241
 51
30.0
  0
ARC
  5
163
330
1F
100
AcDbEntity
  8
0
  6
CONTINUOUS
 62
     7
100
AcDbCircle
 10
16.3123384165
 20
3.2891561658
 30
0.0
 40
0.1908464566929146
100
AcDbArc
 50
184.7126028241
 51
12.4587635951
  0
ARC
  5
164
330
1F
100
AcDbEntity
  8
0
  6
CONTINUOUS
 62
     7
100
AcDbCircle
 10
16.5371337043
 20
3.338822369
 30
0.0
 40
0.0393700787401595
100
AcDbArc
 50
120.0000140737
 51
192.4587635951
  0
LINE
  5
165
330
1F
100
AcDbEntity
  8
0
  6
CONTINUOUS
 62
     7
100
AcDbLine
 10
16.6972837865
 20
3.476746136
 30
0.0
 11
16.517449064
 21
3.3729178955
 31
0.0
  0
ARC
  5
166
330
1F
100
AcDbEntity
  8
0
  6
CONTINUOUS
 62
     7
100
AcDbCircle
 10
16.7169693151
 20
3.4426505662
 30
0.0
 40
0.0393700787401577
100
AcDbArc
 50
47.5412418324
 51
120.0000140737
  0
ARC
  5
167
330
1F
100
AcDbEntity
  8
0
  6
CONTINUOUS
 62
     7
100
AcDbCircle
 10
16.8723791367
 20
3.6124959092
 30
0.0
 40
0.1908464566929148
100
AcDbArc
 50
227.5412418324
 51
55.2874046152
  0
ARC
  5
168
330
1F
100
AcDbEntity
  8
0
  6
CONTINUOUS
 62
     7
100
AcDbCircle
 10
17.0034783007
 20
3.8017382469
 30
0.0
 40
0.0393700787401588
100
AcDbArc
 50
210.0
 51
235.2874046152
  0
LINE
  5
169
330
1F
100
AcDbEntity
  8
0
  6
CONTINUOUS
 62
     7
100
AcDbLine
 10
16.7160439964
 20
4.2208482334
 30
0.0
 11
16.9693825098
 21
3.7820533291
 31
0.0
  0
ARC
  5
16A
330
1F
100
AcDbEntity
  8
0
  6
CONTINUOUS
 62
     7
100
AcDbCircle
 10
16.7501402765
 20
4.2405334575
 30
0.0
 40
0.0393705192937262
100
AcDbArc
 50
184.7126274202
 51
210.0
  0
ARC
  5
16B
330
1F
100
AcDbEntity
  8
0
  6
CONTINUOUS
 62
     7
100
AcDbCircle
 10
16.5207015941
 20
4.2216192554
 30
0.0
 40
0.1908464566929169
100
AcDbArc
 50
4.7126274202
 51
32.9845097738
  0
LINE
  5
16C
330
1F
100
AcDbEntity
  8
0
  6
CONTINUOUS
 62
     7
100
AcDbLine
 10
16.6807869104
 20
4.3255183309
 30
0.0
 11
19.0875814002
 21
5.7150818253
 31
0.0
  0
ARC
  5
16D
330
1F
100
AcDbEntity
  8
0
  6
CONTINUOUS
 62
     7
100
AcDbCircle
 10
19.2576036135
 20
5.8017702901
 30
0.0
 40
0.1908464443342335
100
AcDbArc
 50
207.0154684474
 51
235.287382376
  0
ARC
  5
16E
330
1F
100
AcDbEntity
  8
0
  6
CONTINUOUS
 62
     7
100
AcDbCircle
 10
19.1265044
 20
5.6125280381
 30
0.0
 40
0.0393700612421758
100
AcDbArc
 50
30.0
 51
55.287382376
  0
LINE
  5
16F
330
1F
100
AcDbEntity
  8
0
  6
CONTINUOUS
 62
     7
100
AcDbLine
 10
19.4139379501
 20
5.1934179849
 30
0.0
 11
19.1605994367
 21
5.6322131826
 31
0.0
  0
ARC
  5
170
330
1F
100
AcDbEntity
  8
0
  6
CONTINUOUS
 62
     7
100
AcDbCircle
 10
19.3798429047
 20
5.1737328765
 30
0.0
 40
0.0393700787401588
100
AcDbArc
 50
4.7126028241
 51
30.0
  0
ARC
  5
171
330
1F
100
AcDbEntity
  8
0
  6
CONTINUOUS
 62
     7
100
AcDbCircle
 10
19.6092811561
 20
5.192646944
 30
0.0
 40
0.1908464566929171
100
AcDbArc
 50
184.7126028241
 51
12.4587635951
  0
ARC
  5
172
330
1F
100
AcDbEntity
  8
0
  6
CONTINUOUS
 62
     7
100
AcDbCircle
 10
19.834076444
 20
5.2423131473
 30
0.0
 40
0.0393700787401559
100
AcDbArc
 50
120.0000140737
 51
192.4587635951
  0
LINE
  5
173
330
1F
100
AcDbEntity
  8
0
  6
CONTINUOUS
 62
     7
100
AcDbLine
 10
19.9942267133
 20
5.3802368934
 30
0.0
 11
19.8143908174
 21
5.2764086528
 31
0.0
  0
ARC
  5
174
330
1F
100
AcDbEntity
  8
0
  6
CONTINUOUS
 62
     7
100
AcDbCircle
 10
20.0139120547
 20
5.3461413444
 30
0.0
 40
0.0393700787401579
100
AcDbArc
 50
47.5412418324
 51
120.0000140737
  0
ARC
  5
175
330
1F
100
AcDbEntity
  8
0
  6
CONTINUOUS
 62
     7
100
AcDbCircle
 10
20.1693218763
 20
5.5159866875
 30
0.0
 40
0.1908464566929131
100
AcDbArc
 50
227.5412418324
 51
55.2874046152
  0
ARC
  5
176
330
1F
100
AcDbEntity
  8
0
  6
CONTINUOUS
 62
     7
100
AcDbCircle
 10
20.3004210404
 20
5.7052290251
 30
0.0
 40
0.0393700787401602
100
AcDbArc
 50
210.0
 51
235.2874046152
  0
LINE
  5
177
330
1F
100
AcDbEntity
  8
0
  6
CONTINUOUS
 62
     7
100
AcDbLine
 10
20.0129880965
 20
6.1243386975
 30
0.0
 11
20.2663266099
 21
5.6855440865
 31
0.0
  0
ARC
  5
178
330
1F
100
AcDbEntity
  8
0
  6
CONTINUOUS
 62
     7
100
AcDbCircle
 10
20.0470830161
 20
6.1440242357
 30
0.0
 40
0.0393705192937296
100
AcDbArc
 50
184.7126274202
 51
210.0
  0
ARC
  5
179
330
1F
100
AcDbEntity
  8
0
  6
CONTINUOUS
 62
     7
100
AcDbCircle
 10
19.8176443337
 20
6.1251100336
 30
0.0
 40
0.1908464566929119
100
AcDbArc
 50
4.7126274202
 51
32.9845097738
  0
LINE
  5
17A
330
1F
100
AcDbEntity
  8
0
  6
CONTINUOUS
 62
     7
100
AcDbLine
 10
19.9777298372
 20
6.2290093816
 30
0.0
 11
20.6306001618
 21
6.6059442273
 31
0.0
  0
LINE
  5
17B
330
1F
100
AcDbEntity
  8
0
  6
CONTINUOUS
 62
     7
100
AcDbLine
 10
20.6306001618
 20
6.6059442273
 30
0.0
 11
20.6306001618
 21
5.641723526
 31
0.0
  0
ARC
  5
17C
330
1F
100
AcDbEntity
  8
0
  6
CONTINUOUS
 62
     7
100
AcDbCircle
 10
19.2526473015
 20
5.6417236334
 30
0.0
 40
1.377952755905513
100
AcDbArc
 50
300.0
 51
0.0
  0
LINE
  5
17D
330
1F
100
AcDbEntity
  8
0
  6
CONTINUOUS
 62
     7
100
AcDbLine
 10
19.9416244409
 20
4.4483816316
 30
0.0
 11
15.54971603
 21
1.9127126305
 31
0.0
  0
ARC
  5
17E
330
1F
100
AcDbEntity
  8
0
  6
CONTINUOUS
 62
     7
100
AcDbCircle
 10
14.860739992
 20
3.106054766
 30
0.0
 40
1.377952755905514
100
AcDbArc
 50
240.0
 51
300.0
  0
LINE
  5
17F
330
1F
100
AcDbEntity
  8
0
  6
CONTINUOUS
 62
     7
100
AcDbLine
 10
14.1717634149
 20
1.9127126305
 30
0.0
 11
9.7798561772
 21
4.4483816316
 31
0.0
  0
ARC
  5
180
330
1F
100
AcDbEntity
  8
0
  6
CONTINUOUS
 62
     7
100
AcDbCircle
 10
10.4688326825
 20
5.6417236334
 30
0.0
 40
1.377952755905513
100
AcDbArc
 50
180.0
 51
240.0
  0
LINE
  5
181
330
1F
100
AcDbEntity
  8
0
  6
CONTINUOUS
 62
     7
100
AcDbLine
 10
9.0908798697
 20
5.641723526
 30
0.0
 11
9.0908798697
 21
10.7130609415
 31
0.0
  0
ARC
  5
182
330
1F
100
AcDbEntity
  8
0
  6
CONTINUOUS
 62
     7
100
AcDbCircle
 10
10.4688326825
 20
10.7130613682
 30
0.0
 40
1.377952755905513
100
AcDbArc
 50
120.0
 51
180.0
  0
LINE
  5
183
330
1F
100
AcDbEntity
  8
0
  6
CONTINUOUS
 62
     7
100
AcDbLine
 10
9.7798561772
 20
11.9064034226
 30
0.0
 11
14.1717634149
 21
14.442071837
 31
0.0
  0
ARC
  5
184
330
1F
100
AcDbEntity
  8
0
  6
CONTINUOUS
 62
     7
100
AcDbCircle
 10
14.860739992
 20
13.2487302356
 30
0.0
 40
1.377952755905512
100
AcDbArc
 50
60.0
 51
120.0
  0
LINE
  5
185
330
1F
100
AcDbEntity
  8
0
  6
CONTINUOUS
 62
     7
100
AcDbLine
 10
15.54971603
 20
14.442071837
 30
0.0
 11
19.9416244409
 21
11.9064034226
 31
0.0
  0
ARC
  5
186
330
1F
100
AcDbEntity
  8
0
  6
CONTINUOUS
 62
     7
100
AcDbCircle
 10
19.2526473015
 20
10.7130613682
 30
0.0
 40
1.377952755905509
100
AcDbArc
 50
0.0
 51
60.0
  0
LINE
  5
187
330
1F
100
AcDbEntity
  8
0
  6
CONTINUOUS
 62
     7
100
AcDbLine
 10
20.6306001618
 20
10.7130609415
 30
0.0
 11
20.6306001618
 21
9.7488408269
 31
0.0
  0
LINE
  5
188
330
1F
100
AcDbEntity
  8
0
  6
CONTINUOUS
 62
     7
100
AcDbLine
 10
20.6306001618
 20
9.7488408269
 30
0.0
 11
19.9777298372
 21
10.1257756725
 31
0.0
  0
ARC
  5
189
330
1F
100
AcDbEntity
  8
0
  6
CONTINUOUS
 62
     7
100
AcDbCircle
 10
12.892236055
 20
4.6971775551
 30
0.0
 40
0.9842519685039388
100
AcDbArc
 50
240.0
 51
0.0
  0
LINE
  5
18A
330
1F
100
AcDbEntity
  8
0
  6
CONTINUOUS
 62
     7
100
AcDbLine
 10
13.8764881059
 20
4.6971776375
 30
0.0
 11
13.8764881059
 21
11.6576080033
 31
0.0
  0
ARC
  5
18B
330
1F
100
AcDbEntity
  8
0
  6
CONTINUOUS
 62
     7
100
AcDbCircle
 10
12.892236055
 20
11.6576074465
 30
0.0
 40
0.9842519685039388
100
AcDbArc
 50
0.0
 51
120.0
  0
LINE
  5
18C
330
1F
100
AcDbEntity
  8
0
  6
CONTINUOUS
 62
     7
100
AcDbLine
 10
12.4001103878
 20
12.5099943165
 30
0.0
 11
10.7641083804
 21
11.565448428
 31
0.0
  0
ARC
  5
18D
330
1F
100
AcDbEntity
  8
0
  6
CONTINUOUS
 62
     7
100
AcDbCircle
 10
11.6499350447
 20
10.0311516015
 30
0.0
 40
1.771653543307088
100
AcDbArc
 50
120.0
 51
180.0
  0
LINE
  5
18E
330
1F
100
AcDbEntity
  8
0
  6
CONTINUOUS
 62
     7
100
AcDbLine
 10
9.8782812802
 20
10.0311521256
 30
0.0
 11
9.8782812802
 21
6.3236335152
 31
0.0
  0
ARC
  5
18F
330
1F
100
AcDbEntity
  8
0
  6
CONTINUOUS
 62
     7
100
AcDbCircle
 10
11.6499350447
 20
6.3236334002
 30
0.0
 40
1.771653543307087
100
AcDbArc
 50
180.0
 51
240.0
  0
LINE
  5
190
330
1F
100
AcDbEntity
  8
0
  6
CONTINUOUS
 62
     7
100
AcDbLine
 10
10.7641083804
 20
4.7893363329
 30
0.0
 11
12.4001103878
 21
3.8447904444
 31
0.0
  0
ARC
  5
191
330
1F
100
AcDbEntity
  8
0
  6
CONTINUOUS
 62
     7
100
AcDbCircle
 10
15.8295616604
 20
12.6457477418
 30
0.0
 40
0.0393700787401568
100
AcDbArc
 50
304.7126028241
 51
330.0
  0
LINE
  5
192
330
1F
100
AcDbEntity
  8
0
  6
CONTINUOUS
 62
     7
100
AcDbLine
 10
20.8274503678
 20
7.6165345262
 30
0.0
 11
19.8431981646
 21
7.0482763974
 31
0.0
  0
LINE
  5
193
330
1F
100
AcDbEntity
  8
0
  6
CONTINUOUS
 62
     7
100
AcDbLine
 10
19.8431981646
 20
9.3065086568
 30
0.0
 11
20.8274503678
 21
8.738250528
 31
0.0
  0
LINE
  5
194
330
1F
100
AcDbEntity
  8
0
  6
CONTINUOUS
 62
     7
100
AcDbLine
 10
20.8274503678
 20
7.6165345262
 30
0.0
 11
20.8274503678
 21
8.738250528
 31
0.0
  0
LINE
  5
195
330
1F
100
AcDbEntity
  8
0
  6
CONTINUOUS
 62
     7
100
AcDbLine
 10
19.8431981646
 20
7.0482763974
 30
0.0
 11
19.8431981646
 21
9.3065086568
 31
0.0
  0
ARC
  5
196
330
1F
100
AcDbEntity
  8
0
  6
CONTINUOUS
 62
     7
100
AcDbCircle
 10
11.6499350447
 20
6.3236334002
 30
0.0
 40
1.5748031496063
100
AcDbArc
 50
180.0
 51
240.0
  0
LINE
  5
197
330
1F
100
AcDbEntity
  8
0
  6
CONTINUOUS
 62
     7
100
AcDbLine
 10
10.8625334834
 20
4.9598138302
 30
0.0
 11
12.4985354908
 21
4.0152676483
 31
0.0
  0
ARC
  5
198
330
1F
100
AcDbEntity
  8
0
  6
CONTINUOUS
 62
     7
100
AcDbCircle
 10
12.892236055
 20
4.6971775551
 30
0.0
 40
0.78740157480315
100
AcDbArc
 50
240.0
 51
0.0
  0
LINE
  5
199
330
1F
100
AcDbEntity
  8
0
  6
CONTINUOUS
 62
     7
100
AcDbLine
 10
13.6796378999
 20
4.6971776375
 30
0.0
 11
13.6796378999
 21
11.6576080033
 31
0.0
  0
ARC
  5
19A
330
1F
100
AcDbEntity
  8
0
  6
CONTINUOUS
 62
     7
100
AcDbCircle
 10
12.892236055
 20
11.6576074465
 30
0.0
 40
0.78740157480315
100
AcDbArc
 50
0.0
 51
120.0
  0
LINE
  5
19B
330
1F
100
AcDbEntity
  8
0
  6
CONTINUOUS
 62
     7
100
AcDbLine
 10
12.4985354908
 20
12.3395168192
 30
0.0
 11
10.8625334834
 21
11.3949709307
 31
0.0
  0
ARC
  5
19C
330
1F
100
AcDbEntity
  8
0
  6
CONTINUOUS
 62
     7
100
AcDbCircle
 10
11.6499350447
 20
10.0311516015
 30
0.0
 40
1.5748031496063
100
AcDbArc
 50
120.0
 51
180.0
  0
LINE
  5
19D
330
1F
100
AcDbEntity
  8
0
  6
CONTINUOUS
 62
     7
100
AcDbLine
 10
10.0751314862
 20
10.0311521256
 30
0.0
 11
10.0751314862
 21
6.3236335152
 31
0.0
  0
ARC
  5
19E
330
1F
100
AcDbEntity
  8
0
  6
CONTINUOUS
 62
     7
100
AcDbCircle
 10
19.2526473015
 20
5.6417236334
 30
0.0
 40
1.574803149606299
100
AcDbArc
 50
300.0
 51
0.0
  0
LINE
  5
19F
330
1F
100
AcDbEntity
  8
0
  6
CONTINUOUS
 62
     7
100
AcDbLine
 10
15.6481411329
 20
1.7422352799
 30
0.0
 11
20.0400495439
 21
4.2779041343
 31
0.0
  0
ARC
  5
1A0
330
1F
100
AcDbEntity
  8
0
  6
CONTINUOUS
 62
     7
100
AcDbCircle
 10
14.860739992
 20
3.106054766
 30
0.0
 40
1.5748031496063
100
AcDbArc
 50
240.0
 51
300.0
  0
LINE
  5
1A1
330
1F
100
AcDbEntity
  8
0
  6
CONTINUOUS
 62
     7
100
AcDbLine
 10
9.6814310742
 20
4.2779041343
 30
0.0
 11
14.0733383119
 21
1.7422352799
 31
0.0
  0
ARC
  5
1A2
330
1F
100
AcDbEntity
  8
0
  6
CONTINUOUS
 62
     7
100
AcDbCircle
 10
10.4688326825
 20
5.6417236334
 30
0.0
 40
1.5748031496063
100
AcDbArc
 50
180.0
 51
240.0
  0
LINE
  5
1A3
330
1F
100
AcDbEntity
  8
0
  6
CONTINUOUS
 62
     7
100
AcDbLine
 10
8.8940296637
 20
10.7130609415
 30
0.0
 11
8.8940296637
 21
5.641723526
 31
0.0
  0
ARC
  5
1A4
330
1F
100
AcDbEntity
  8
0
  6
CONTINUOUS
 62
     7
100
AcDbCircle
 10
10.4688326825
 20
10.7130613682
 30
0.0
 40
1.574803149606298
100
AcDbArc
 50
120.0
 51
180.0
  0
LINE
  5
1A5
330
1F
100
AcDbEntity
  8
0
  6
CONTINUOUS
 62
     7
100
AcDbLine
 10
14.0733383119
 20
14.6125493343
 30
0.0
 11
9.6814310742
 21
12.0768809199
 31
0.0
  0
ARC
  5
1A6
330
1F
100
AcDbEntity
  8
0
  6
CONTINUOUS
 62
     7
100
AcDbCircle
 10
14.860739992
 20
13.2487302356
 30
0.0
 40
1.574803149606302
100
AcDbArc
 50
60.0
 51
120.0
  0
LINE
  5
1A7
330
1F
100
AcDbEntity
  8
0
  6
CONTINUOUS
 62
     7
100
AcDbLine
 10
20.0400495439
 20
12.0768809199
 30
0.0
 11
15.6481411329
 21
14.6125493343
 31
0.0
  0
ARC
  5
1A8
330
1F
100
AcDbEntity
  8
0
  6
CONTINUOUS
 62
     7
100
AcDbCircle
 10
19.2526473015
 20
10.7130613682
 30
0.0
 40
1.574803149606299
100
AcDbArc
 50
0.0
 51
60.0
  0
LINE
  5
1A9
330
1F
100
AcDbEntity
  8
0
  6
CONTINUOUS
 62
     7
100
AcDbLine
 10
20.8274503678
 20
6.719595501
 30
0.0
 11
20.6306001618
 21
6.6059442273
 31
0.0
  0
LINE
  5
1AA
330
1F
100
AcDbEntity
  8
0
  6
CONTINUOUS
 62
     7
100
AcDbLine
 10
20.8274503678
 20
5.641723526
 30
0.0
 11
20.8274503678
 21
6.719595501
 31
0.0
  0
LINE
  5
1AB
330
1F
100
AcDbEntity
  8
0
  6
CONTINUOUS
 62
     7
100
AcDbLine
 10
20.8274503678
 20
9.6351895532
 30
0.0
 11
20.8274503678
 21
10.7130609415
 31
0.0
  0
LINE
  5
1AC
330
1F
100
AcDbEntity
  8
0
  6
CONTINUOUS
 62
     7
100
AcDbLine
 10
20.6306001618
 20
9.7488408269
 30
0.0
 11
20.8274503678
 21
9.6351895532
 31
0.0
  0
ARC
  5
1AD
330
1F
100
AcDbEntity
  8
0
  6
CONTINUOUS
 62
     7
100
AcDbCircle
 10
19.5928490458
 20
6.0754438303
 30
0.0
 40
0.0393700787401566
100
AcDbArc
 50
300.0000140737
 51
12.4587635951
  0
LINE
  5
1AE
330
1F
100
AcDbEntity
  8
0
  6
CONTINUOUS
 62
     7
100
AcDbLine
 10
19.6125340559
 20
6.0413486162
 30
0.0
 11
19.4326981601
 21
5.9375203756
 31
0.0
  0
ARC
  5
1AF
330
1F
100
AcDbEntity
  8
0
  6
CONTINUOUS
 62
     7
100
AcDbCircle
 10
19.4130134351
 20
5.9716156332
 30
0.0
 40
0.0393700787401584
100
AcDbArc
 50
227.5412418324
 51
300.0000140737
  0
ARC
  5
1B0
330
1F
100
AcDbEntity
  8
0
  6
CONTINUOUS
 62
     7
100
AcDbCircle
 10
16.2959063062
 20
4.1719530521
 30
0.0
 40
0.0393700787401569
100
AcDbArc
 50
300.0000140737
 51
12.4587635951
  0
LINE
  5
1B1
330
1F
100
AcDbEntity
  8
0
  6
CONTINUOUS
 62
     7
100
AcDbLine
 10
16.3155911292
 20
4.1378575655
 30
0.0
 11
16.1357552333
 21
4.0340293249
 31
0.0
  0
ARC
  5
1B2
330
1F
100
AcDbEntity
  8
0
  6
CONTINUOUS
 62
     7
100
AcDbCircle
 10
16.1160706955
 20
4.0681248549
 30
0.0
 40
0.0393700787401594
100
AcDbArc
 50
227.5412418324
 51
300.0000140737
  0
ARC
  5
1B3
330
1F
100
AcDbEntity
  8
0
  6
CONTINUOUS
 62
     7
100
AcDbCircle
 10
19.4130134263
 20
10.3831693146
 30
0.0
 40
0.0393700787401577
100
AcDbArc
 50
60.0000140737
 51
132.4587635951
  0
ARC
  5
1B4
330
1F
100
AcDbEntity
  8
0
  6
CONTINUOUS
 62
     7
100
AcDbCircle
 10
16.1160706867
 20
12.2866600929
 30
0.0
 40
0.0393700787401592
100
AcDbArc
 50
60.0000140737
 51
132.4587635951
  0
ARC
  5
1B5
330
1F
100
AcDbEntity
  8
0
  6
CONTINUOUS
 62
     7
100
AcDbCircle
 10
16.2959063485
 20
12.182831984
 30
0.0
 40
0.0393700787401607
100
AcDbArc
 50
347.5412418324
 51
60.0000140737
  0
LINE
  5
1B6
330
1F
100
AcDbEntity
  8
0
  6
CONTINUOUS
 62
     7
100
AcDbLine
 10
16.1357552333
 20
12.3207554359
 30
0.0
 11
16.3155911292
 21
12.2169271954
 31
0.0
  0
ARC
  5
1B7
330
1F
100
AcDbEntity
  8
0
  6
CONTINUOUS
 62
     7
100
AcDbCircle
 10
19.5928490881
 20
10.2793412058
 30
0.0
 40
0.0393700787401592
100
AcDbArc
 50
347.5412418324
 51
60.0000140737
  0
LINE
  5
1B8
330
1F
100
AcDbEntity
  8
0
  6
CONTINUOUS
 62
     7
100
AcDbLine
 10
19.4326981601
 20
10.4172646786
 30
0.0
 11
19.6125340559
 21
10.313436438
 31
0.0
  0
ARC
  5
1B9
330
1F
100
AcDbEntity
  8
0
  6
CONTINUOUS
 62
     7
100
AcDbCircle
 10
19.2576036135
 20
5.8017702901
 30
0.0
 40
0.1908464566929107
100
AcDbArc
 50
47.5412418324
 51
207.0154684474
  0
LINE
  5
1BA
330
1F
100
AcDbEntity
  8
0
  6
CONTINUOUS
 62
     7
100
AcDbLine
 10
20.8274503678
 20
7.6165345262
 30
0.0
 11
20.8274503678
 21
6.719595501
 31
0.0
  0
LINE
  5
1BB
330
1F
100
AcDbEntity
  8
0
  6
CONTINUOUS
 62
     7
100
AcDbLine
 10
20.8274503678
 20
9.6351895532
 30
0.0
 11
20.8274503678
 21
8.738250528
 31
0.0
  0
ARC
  5
1BC
330
1F
100
AcDbEntity
  8
0
  6
CONTINUOUS
 62
     7
100
AcDbCircle
 10
19.8176443806
 20
10.2296750238
 30
0.0
 40
0.1908464566929156
100
AcDbArc
 50
167.5412418324
 51
327.0154686408
  0
ARC
  5
1BD
330
1F
100
AcDbEntity
  8
0
  6
CONTINUOUS
 62
     7
100
AcDbCircle
 10
19.8176443337
 20
6.1251100336
 30
0.0
 40
0.1908464566929141
100
AcDbArc
 50
32.9845097738
 51
192.4587635951
  0
ARC
  5
1BE
330
1F
100
AcDbEntity
  8
0
  6
CONTINUOUS
 62
     7
100
AcDbCircle
 10
19.2576035887
 20
10.5530146429
 30
0.0
 40
0.1908464566929127
100
AcDbArc
 50
152.9845097739
 51
312.4587635951
  0
ARC
  5
1BF
330
1F
100
AcDbEntity
  8
0
  6
CONTINUOUS
 62
     7
100
AcDbCircle
 10
16.5207015941
 20
4.2216192554
 30
0.0
 40
0.1908464566929151
100
AcDbArc
 50
32.9845097738
 51
192.4587635951
  0
ARC
  5
1C0
330
1F
100
AcDbEntity
  8
0
  6
CONTINUOUS
 62
     7
100
AcDbCircle
 10
16.520701641
 20
12.1331658021
 30
0.0
 40
0.1908464566929146
100
AcDbArc
 50
167.5412418324
 51
327.0154686408
  0
ARC
  5
1C1
330
1F
100
AcDbEntity
  8
0
  6
CONTINUOUS
 62
     7
100
AcDbCircle
 10
15.9606608739
 20
3.8982795119
 30
0.0
 40
0.1908464566929107
100
AcDbArc
 50
47.5412418324
 51
207.0154684474
  0
ARC
  5
1C2
330
1F
100
AcDbEntity
  8
0
  6
CONTINUOUS
 62
     7
100
AcDbCircle
 10
15.960660849
 20
12.4565054211
 30
0.0
 40
0.1908464566929148
100
AcDbArc
 50
152.9845097739
 51
312.4587635951
  0
ARC
  5
1C3
330
1F
100
AcDbEntity
  8
0
  6
CONTINUOUS
 62
     7
100
AcDbCircle
 10
2.1457836406
 20
13.7033367468
 30
0.0
 40
0.7874015748031509
100
AcDbArc
 50
60.0
 51
180.0
  0
LINE
  5
1C4
330
1F
100
AcDbEntity
  8
0
  6
CONTINUOUS
 62
     7
100
AcDbLine
 10
2.5394844719
 20
14.3852467868
 30
0.0
 11
6.5377301639
 21
12.0768586268
 31
0.0
  0
ARC
  5
1C5
330
1F
100
AcDbEntity
  8
0
  6
CONTINUOUS
 62
     7
100
AcDbCircle
 10
5.7503287455
 20
10.7130386379
 30
0.0
 40
1.574803149606298
100
AcDbArc
 50
0.0
 51
60.0
  0
LINE
  5
1C6
330
1F
100
AcDbEntity
  8
0
  6
CONTINUOUS
 62
     7
100
AcDbLine
 10
7.3251321611
 20
10.7130386484
 30
0.0
 11
7.3251321611
 21
9.6351666734
 31
0.0
  0
LINE
  5
1C7
330
1F
100
AcDbEntity
  8
0
  6
CONTINUOUS
 62
     7
100
AcDbLine
 10
6.4753717376
 20
10.1257756725
 30
0.0
 11
7.3251321611
 21
9.6351666734
 31
0.0
  0
ARC
  5
1C8
330
1F
100
AcDbEntity
  8
0
  6
CONTINUOUS
 62
     7
100
AcDbCircle
 10
6.3152864545
 20
10.2296750238
 30
0.0
 40
0.190846456692917
100
AcDbArc
 50
327.0154686408
 51
355.2874046152
  0
ARC
  5
1C9
330
1F
100
AcDbEntity
  8
0
  6
CONTINUOUS
 62
     7
100
AcDbCircle
 10
6.5447247084
 20
10.2107609862
 30
0.0
 40
0.0393700787401568
100
AcDbArc
 50
150.0
 51
175.2874046152
  0
LINE
  5
1CA
330
1F
100
AcDbEntity
  8
0
  6
CONTINUOUS
 62
     7
100
AcDbLine
 10
6.763967337
 20
10.6692409677
 30
0.0
 11
6.5106294103
 21
10.2304463567
 31
0.0
  0
ARC
  5
1CB
330
1F
100
AcDbEntity
  8
0
  6
CONTINUOUS
 62
     7
100
AcDbCircle
 10
6.7980634957
 20
10.6495557562
 30
0.0
 40
0.0393705192937299
100
AcDbArc
 50
124.7126274202
 51
150.0
  0
ARC
  5
1CC
330
1F
100
AcDbEntity
  8
0
  6
CONTINUOUS
 62
     7
100
AcDbCircle
 10
6.666963975
 20
10.8387983827
 30
0.0
 40
0.1908464566929144
100
AcDbArc
 50
304.7126274202
 51
132.4587635951
  0
ARC
  5
1CD
330
1F
100
AcDbEntity
  8
0
  6
CONTINUOUS
 62
     7
100
AcDbCircle
 10
6.5115541373
 20
11.008643711
 30
0.0
 40
0.039370078740157
100
AcDbArc
 50
240.0000140737
 51
312.4587635951
  0
LINE
  5
1CE
330
1F
100
AcDbEntity
  8
0
  6
CONTINUOUS
 62
     7
100
AcDbLine
 10
6.3120333045
 20
11.0783764013
 30
0.0
 11
6.4918692003
 21
10.9745481608
 31
0.0
  0
ARC
  5
1CF
330
1F
100
AcDbEntity
  8
0
  6
CONTINUOUS
 62
     7
100
AcDbCircle
 10
6.3317184756
 20
11.1124718198
 30
0.0
 40
0.0393700910988413
100
AcDbArc
 50
167.5412418324
 51
240.0000140737
  0
ARC
  5
1D0
330
1F
100
AcDbEntity
  8
0
  6
CONTINUOUS
 62
     7
100
AcDbCircle
 10
6.106923183
 20
11.1621380018
 30
0.0
 40
0.1908464443342304
100
AcDbArc
 50
347.5412418324
 51
175.287382376
  0
ARC
  5
1D1
330
1F
100
AcDbEntity
  8
0
  6
CONTINUOUS
 62
     7
100
AcDbCircle
 10
5.8774849785
 20
11.1810521251
 30
0.0
 40
0.0393700612421765
100
AcDbArc
 50
330.0
 51
355.287382376
  0
LINE
  5
1D2
330
1F
100
AcDbEntity
  8
0
  6
CONTINUOUS
 62
     7
100
AcDbLine
 10
5.6582419238
 20
10.7225718716
 30
0.0
 11
5.9115804372
 21
11.161367656
 31
0.0
  0
ARC
  5
1D3
330
1F
100
AcDbEntity
  8
0
  6
CONTINUOUS
 62
     7
100
AcDbCircle
 10
5.6241464739
 20
10.7422569636
 30
0.0
 40
0.0393700787401576
100
AcDbArc
 50
304.7126028241
 51
330.0
  0
ARC
  5
1D4
330
1F
100
AcDbEntity
  8
0
  6
CONTINUOUS
 62
     7
100
AcDbCircle
 10
5.7552456625
 20
10.5530146429
 30
0.0
 40
0.1908464566929151
100
AcDbArc
 50
124.7126028241
 51
152.9845097738
  0
LINE
  5
1D5
330
1F
100
AcDbEntity
  8
0
  6
CONTINUOUS
 62
     7
100
AcDbLine
 10
3.1734988144
 20
12.0321129037
 30
0.0
 11
5.5852238873
 21
10.6397026423
 31
0.0
  0
ARC
  5
1D6
330
1F
100
AcDbEntity
  8
0
  6
CONTINUOUS
 62
     7
100
AcDbCircle
 10
3.0134135072
 20
12.1360122587
 30
0.0
 40
0.1908464566929135
100
AcDbArc
 50
327.0154686408
 51
355.2874046152
  0
ARC
  5
1D7
330
1F
100
AcDbEntity
  8
0
  6
CONTINUOUS
 62
     7
100
AcDbCircle
 10
3.2428517612
 20
12.1170982211
 30
0.0
 40
0.0393700787401581
100
AcDbArc
 50
150.0
 51
175.2874046152
  0
LINE
  5
1D8
330
1F
100
AcDbEntity
  8
0
  6
CONTINUOUS
 62
     7
100
AcDbLine
 10
3.4620947072
 20
12.5755781989
 30
0.0
 11
3.2087561938
 21
12.1367835879
 31
0.0
  0
ARC
  5
1D9
330
1F
100
AcDbEntity
  8
0
  6
CONTINUOUS
 62
     7
100
AcDbCircle
 10
3.4961905485
 20
12.5558929911
 30
0.0
 40
0.0393705192937263
100
AcDbArc
 50
124.7126274202
 51
150.0
  0
ARC
  5
1DA
330
1F
100
AcDbEntity
  8
0
  6
CONTINUOUS
 62
     7
100
AcDbCircle
 10
3.3650910277
 20
12.7451356177
 30
0.0
 40
0.190846456692912
100
AcDbArc
 50
304.7126274202
 51
132.4587635951
  0
ARC
  5
1DB
330
1F
100
AcDbEntity
  8
0
  6
CONTINUOUS
 62
     7
100
AcDbCircle
 10
3.2096811901
 20
12.9149809459
 30
0.0
 40
0.0393700787401583
100
AcDbArc
 50
240.0000140737
 51
312.4587635951
  0
LINE
  5
1DC
330
1F
100
AcDbEntity
  8
0
  6
CONTINUOUS
 62
     7
100
AcDbLine
 10
3.0101603813
 20
12.9847136325
 30
0.0
 11
3.1899962772
 21
12.8808853919
 31
0.0
  0
ARC
  5
1DD
330
1F
100
AcDbEntity
  8
0
  6
CONTINUOUS
 62
     7
100
AcDbCircle
 10
3.0298455283
 20
13.0188090548
 30
0.0
 40
0.0393700910988369
100
AcDbArc
 50
167.5412418324
 51
240.0000140737
  0
ARC
  5
1DE
330
1F
100
AcDbEntity
  8
0
  6
CONTINUOUS
 62
     7
100
AcDbCircle
 10
2.8050502358
 20
13.0684752368
 30
0.0
 40
0.1908464443342351
100
AcDbArc
 50
347.5412418324
 51
175.287382376
  0
ARC
  5
1DF
330
1F
100
AcDbEntity
  8
0
  6
CONTINUOUS
 62
     7
100
AcDbCircle
 10
2.5756120312
 20
13.08738936
 30
0.0
 40
0.0393700612421783
100
AcDbArc
 50
330.0
 51
355.287382376
  0
LINE
  5
1E0
330
1F
100
AcDbEntity
  8
0
  6
CONTINUOUS
 62
     7
100
AcDbLine
 10
2.3563690006
 20
12.6289091028
 30
0.0
 11
2.609707514
 21
13.0677048871
 31
0.0
  0
ARC
  5
1E1
330
1F
100
AcDbEntity
  8
0
  6
CONTINUOUS
 62
     7
100
AcDbCircle
 10
2.3222735266
 20
12.6485941985
 30
0.0
 40
0.0393700787401587
100
AcDbArc
 50
304.7126028241
 51
330.0
  0
ARC
  5
1E2
330
1F
100
AcDbEntity
  8
0
  6
CONTINUOUS
 62
     7
100
AcDbCircle
 10
2.4533727153
 20
12.4593518778
 30
0.0
 40
0.1908464566929146
100
AcDbArc
 50
124.7126028241
 51
152.9845097738
  0
LINE
  5
1E3
330
1F
100
AcDbEntity
  8
0
  6
CONTINUOUS
 62
     7
100
AcDbLine
 10
1.3583820628
 20
13.0800716776
 30
0.0
 11
2.2833506708
 21
12.5460398734
 31
0.0
  0
LINE
  5
1E4
330
1F
100
AcDbEntity
  8
0
  6
CONTINUOUS
 62
     7
100
AcDbLine
 10
1.3583820628
 20
13.0800716776
 30
0.0
 11
1.3583820628
 21
13.7033367976
 31
0.0
  0
LINE
  5
1E5
330
1F
100
AcDbEntity
  8
0
  6
CONTINUOUS
 62
     7
100
AcDbLine
 10
1.3583820628
 20
4.1716524017
 30
0.0
 11
5.5774547504
 21
6.6075352489
 31
0.0
  0
LINE
  5
1E6
330
1F
100
AcDbEntity
  8
0
  6
CONTINUOUS
 62
     7
100
AcDbLine
 10
1.3583820628
 20
4.1716524017
 30
0.0
 11
1.3583820628
 21
12.1831320658
 31
0.0
  0
LINE
  5
1E7
330
1F
100
AcDbEntity
  8
0
  6
CONTINUOUS
 62
     7
100
AcDbLine
 10
5.5774547504
 20
9.7472498053
 30
0.0
 11
1.3583820628
 21
12.1831320658
 31
0.0
  0
LINE
  5
1E8
330
1F
100
AcDbEntity
  8
0
  6
CONTINUOUS
 62
     7
100
AcDbLine
 10
5.5774547504
 20
6.6075352489
 30
0.0
 11
5.5774547504
 21
9.7472498053
 31
0.0
  0
ARC
  5
1E9
330
1F
100
AcDbEntity
  8
0
  6
CONTINUOUS
 62
     7
100
AcDbCircle
 10
5.7503287455
 20
5.6417463637
 30
0.0
 40
1.574803149606299
100
AcDbArc
 50
300.0
 51
0.0
  0
LINE
  5
1EA
330
1F
100
AcDbEntity
  8
0
  6
CONTINUOUS
 62
     7
100
AcDbLine
 10
6.5377301639
 20
4.2779267207
 30
0.0
 11
2.5394844719
 21
1.9695385608
 31
0.0
  0
ARC
  5
1EB
330
1F
100
AcDbEntity
  8
0
  6
CONTINUOUS
 62
     7
100
AcDbCircle
 10
2.4533727401
 20
3.8954330552
 30
0.0
 40
0.1908464443342339
100
AcDbArc
 50
207.0154684474
 51
235.287382376
  0
ARC
  5
1EC
330
1F
100
AcDbEntity
  8
0
  6
CONTINUOUS
 62
     7
100
AcDbCircle
 10
2.3222735266
 20
3.7061908031
 30
0.0
 40
0.0393700612421736
100
AcDbArc
 50
30.0
 51
55.287382376
  0
LINE
  5
1ED
330
1F
100
AcDbEntity
  8
0
  6
CONTINUOUS
 62
     7
100
AcDbLine
 10
2.609707514
 20
3.2870807537
 30
0.0
 11
2.3563690006
 21
3.7258759514
 31
0.0
  0
ARC
  5
1EE
330
1F
100
AcDbEntity
  8
0
  6
CONTINUOUS
 62
     7
100
AcDbCircle
 10
2.5756120312
 20
3.2673956416
 30
0.0
 40
0.0393700787401573
100
AcDbArc
 50
4.7126028241
 51
30.0
  0
ARC
  5
1EF
330
1F
100
AcDbEntity
  8
0
  6
CONTINUOUS
 62
     7
100
AcDbCircle
 10
2.8050502827
 20
3.2863097091
 30
0.0
 40
0.1908464566929166
100
AcDbArc
 50
184.7126028241
 51
12.4587635951
  0
ARC
  5
1F0
330
1F
100
AcDbEntity
  8
0
  6
CONTINUOUS
 62
     7
100
AcDbCircle
 10
3.0298455706
 20
3.3359759124
 30
0.0
 40
0.0393700787401556
100
AcDbArc
 50
120.0000140737
 51
192.4587635951
  0
LINE
  5
1F1
330
1F
100
AcDbEntity
  8
0
  6
CONTINUOUS
 62
     7
100
AcDbLine
 10
3.1899962772
 20
3.4738996622
 30
0.0
 11
3.0101603813
 21
3.3700714217
 31
0.0
  0
ARC
  5
1F2
330
1F
100
AcDbEntity
  8
0
  6
CONTINUOUS
 62
     7
100
AcDbCircle
 10
3.2096811813
 20
3.4398041095
 30
0.0
 40
0.0393700787401577
100
AcDbArc
 50
47.5412418324
 51
120.0000140737
  0
ARC
  5
1F3
330
1F
100
AcDbEntity
  8
0
  6
CONTINUOUS
 62
     7
100
AcDbCircle
 10
3.3650910029
 20
3.6096494525
 30
0.0
 40
0.1908464566929129
100
AcDbArc
 50
227.5412418324
 51
55.2874046152
  0
ARC
  5
1F4
330
1F
100
AcDbEntity
  8
0
  6
CONTINUOUS
 62
     7
100
AcDbCircle
 10
3.496190167
 20
3.7988917902
 30
0.0
 40
0.0393700787401574
100
AcDbArc
 50
210.0
 51
235.2874046152
  0
LINE
  5
1F5
330
1F
100
AcDbEntity
  8
0
  6
CONTINUOUS
 62
     7
100
AcDbLine
 10
3.2087561938
 20
4.2180017596
 30
0.0
 11
3.4620947072
 21
3.7792068553
 31
0.0
  0
ARC
  5
1F6
330
1F
100
AcDbEntity
  8
0
  6
CONTINUOUS
 62
     7
100
AcDbCircle
 10
3.2428521427
 20
4.2376870008
 30
0.0
 40
0.0393705192937288
100
AcDbArc
 50
184.7126274202
 51
210.0
  0
ARC
  5
1F7
330
1F
100
AcDbEntity
  8
0
  6
CONTINUOUS
 62
     7
100
AcDbCircle
 10
3.0134134603
 20
4.2187727987
 30
0.0
 40
0.1908464566929123
100
AcDbArc
 50
4.7126274202
 51
32.9845097739
  0
LINE
  5
1F8
330
1F
100
AcDbEntity
  8
0
  6
CONTINUOUS
 62
     7
100
AcDbLine
 10
5.5852238873
 20
5.7150818253
 30
0.0
 11
3.1734988144
 21
4.3226718572
 31
0.0
  0
ARC
  5
1F9
330
1F
100
AcDbEntity
  8
0
  6
CONTINUOUS
 62
     7
100
AcDbCircle
 10
5.7552456873
 20
5.8017702901
 30
0.0
 40
0.1908464443342316
100
AcDbArc
 50
207.0154684474
 51
235.287382376
  0
ARC
  5
1FA
330
1F
100
AcDbEntity
  8
0
  6
CONTINUOUS
 62
     7
100
AcDbCircle
 10
5.6241464739
 20
5.6125280381
 30
0.0
 40
0.0393700612421757
100
AcDbArc
 50
30.0
 51
55.287382376
  0
LINE
  5
1FB
330
1F
100
AcDbEntity
  8
0
  6
CONTINUOUS
 62
     7
100
AcDbLine
 10
5.9115804372
 20
5.1934179849
 30
0.0
 11
5.6582419238
 21
5.6322131826
 31
0.0
  0
ARC
  5
1FC
330
1F
100
AcDbEntity
  8
0
  6
CONTINUOUS
 62
     7
100
AcDbCircle
 10
5.8774849785
 20
5.1737328765
 30
0.0
 40
0.0393700787401583
100
AcDbArc
 50
4.7126028241
 51
30.0
  0
ARC
  5
1FD
330
1F
100
AcDbEntity
  8
0
  6
CONTINUOUS
 62
     7
100
AcDbCircle
 10
6.10692323
 20
5.192646944
 30
0.0
 40
0.1908464566929136
100
AcDbArc
 50
184.7126028241
 51
12.4587635951
  0
ARC
  5
1FE
330
1F
100
AcDbEntity
  8
0
  6
CONTINUOUS
 62
     7
100
AcDbCircle
 10
6.3317185178
 20
5.2423131473
 30
0.0
 40
0.0393700787401559
100
AcDbArc
 50
120.0000140737
 51
192.4587635951
  0
LINE
  5
1FF
330
1F
100
AcDbEntity
  8
0
  6
CONTINUOUS
 62
     7
100
AcDbLine
 10
6.4918692003
 20
5.3802368934
 30
0.0
 11
6.3120333045
 21
5.2764086528
 31
0.0
  0
ARC
  5
200
330
1F
100
AcDbEntity
  8
0
  6
CONTINUOUS
 62
     7
100
AcDbCircle
 10
6.5115541285
 20
5.3461413444
 30
0.0
 40
0.0393700787401574
100
AcDbArc
 50
47.5412418324
 51
120.0000140737
  0
ARC
  5
201
330
1F
100
AcDbEntity
  8
0
  6
CONTINUOUS
 62
     7
100
AcDbCircle
 10
6.6669639501
 20
5.5159866875
 30
0.0
 40
0.1908464566929144
100
AcDbArc
 50
227.5412418324
 51
55.2874046152
  0
ARC
  5
202
330
1F
100
AcDbEntity
  8
0
  6
CONTINUOUS
 62
     7
100
AcDbCircle
 10
6.7980631142
 20
5.7052290251
 30
0.0
 40
0.0393700787401603
100
AcDbArc
 50
210.0
 51
235.2874046152
  0
LINE
  5
203
330
1F
100
AcDbEntity
  8
0
  6
CONTINUOUS
 62
     7
100
AcDbLine
 10
6.5106294103
 20
6.1243386975
 30
0.0
 11
6.763967337
 21
5.6855440865
 31
0.0
  0
ARC
  5
204
330
1F
100
AcDbEntity
  8
0
  6
CONTINUOUS
 62
     7
100
AcDbCircle
 10
6.5447250899
 20
6.1440242357
 30
0.0
 40
0.0393705192937257
100
AcDbArc
 50
184.7126274202
 51
210.0
  0
ARC
  5
205
330
1F
100
AcDbEntity
  8
0
  6
CONTINUOUS
 62
     7
100
AcDbCircle
 10
6.3152864075
 20
6.1251100336
 30
0.0
 40
0.1908464566929169
100
AcDbArc
 50
4.7126274202
 51
32.9845097739
  0
LINE
  5
206
330
1F
100
AcDbEntity
  8
0
  6
CONTINUOUS
 62
     7
100
AcDbLine
 10
7.3251321611
 20
6.7196183808
 30
0.0
 11
6.4753717376
 21
6.2290093816
 31
0.0
  0
LINE
  5
207
330
1F
100
AcDbEntity
  8
0
  6
CONTINUOUS
 62
     7
100
AcDbLine
 10
7.3251321611
 20
6.7196183808
 30
0.0
 11
7.3251321611
 21
5.6417464058
 31
0.0
  0
LINE
  5
208
330
1F
100
AcDbEntity
  8
0
  6
CONTINUOUS
 62
     7
100
AcDbLine
 10
2.2833506708
 20
3.8087445941
 30
0.0
 11
1.3583820628
 21
3.2747136699
 31
0.0
  0
ARC
  5
209
330
1F
100
AcDbEntity
  8
0
  6
CONTINUOUS
 62
     7
100
AcDbCircle
 10
2.1457836406
 20
2.6514482548
 30
0.0
 40
0.7874015748031507
100
AcDbArc
 50
180.0
 51
300.0
  0
LINE
  5
20A
330
1F
100
AcDbEntity
  8
0
  6
CONTINUOUS
 62
     7
100
AcDbLine
 10
1.3583820628
 20
2.6514482566
 30
0.0
 11
1.3583820628
 21
3.2747136699
 31
0.0
  0
LINE
  5
20B
330
1F
100
AcDbEntity
  8
0
  6
CONTINUOUS
 62
     7
100
AcDbLine
 10
6.3408406517
 20
9.3065086568
 30
0.0
 11
6.3408406517
 21
7.0482763974
 31
0.0
  0
LINE
  5
20C
330
1F
100
AcDbEntity
  8
0
  6
CONTINUOUS
 62
     7
100
AcDbLine
 10
7.3251321611
 20
8.7382282349
 30
0.0
 11
6.3408406517
 21
9.3065086568
 31
0.0
  0
LINE
  5
20D
330
1F
100
AcDbEntity
  8
0
  6
CONTINUOUS
 62
     7
100
AcDbLine
 10
6.3408406517
 20
7.0482763974
 30
0.0
 11
7.3251321611
 21
7.6165568192
 31
0.0
  0
LINE
  5
20E
330
1F
100
AcDbEntity
  8
0
  6
CONTINUOUS
 62
     7
100
AcDbLine
 10
7.3251321611
 20
8.7382282349
 30
0.0
 11
7.3251321611
 21
7.6165568192
 31
0.0
  0
ARC
  5
20F
330
1F
100
AcDbEntity
  8
0
  6
CONTINUOUS
 62
     7
100
AcDbCircle
 10
6.0904911197
 20
6.0754438303
 30
0.0
 40
0.0393700787401596
100
AcDbArc
 50
300.0000140737
 51
12.4587635951
  0
LINE
  5
210
330
1F
100
AcDbEntity
  8
0
  6
CONTINUOUS
 62
     7
100
AcDbLine
 10
6.1101759563
 20
6.0413486162
 30
0.0
 11
5.9303406471
 21
5.9375203756
 31
0.0
  0
ARC
  5
211
330
1F
100
AcDbEntity
  8
0
  6
CONTINUOUS
 62
     7
100
AcDbCircle
 10
5.9106555089
 20
5.9716156332
 30
0.0
 40
0.0393700787401593
100
AcDbArc
 50
227.5412418324
 51
300.0000140737
  0
ARC
  5
212
330
1F
100
AcDbEntity
  8
0
  6
CONTINUOUS
 62
     7
100
AcDbCircle
 10
2.7886181724
 20
4.1691065954
 30
0.0
 40
0.03937007874016
100
AcDbArc
 50
300.0000140737
 51
12.4587635951
  0
LINE
  5
213
330
1F
100
AcDbEntity
  8
0
  6
CONTINUOUS
 62
     7
100
AcDbLine
 10
2.8083033265
 20
4.1350110917
 30
0.0
 11
2.6284675773
 21
4.0311828511
 31
0.0
  0
ARC
  5
214
330
1F
100
AcDbEntity
  8
0
  6
CONTINUOUS
 62
     7
100
AcDbCircle
 10
2.6087825617
 20
4.0652783982
 30
0.0
 40
0.0393700787401598
100
AcDbArc
 50
227.5412418324
 51
300.0000140737
  0
ARC
  5
215
330
1F
100
AcDbEntity
  8
0
  6
CONTINUOUS
 62
     7
100
AcDbCircle
 10
2.6087825529
 20
12.2895065496
 30
0.0
 40
0.0393700787401594
100
AcDbArc
 50
60.0000140737
 51
132.4587635951
  0
LINE
  5
216
330
1F
100
AcDbEntity
  8
0
  6
CONTINUOUS
 62
     7
100
AcDbLine
 10
2.6284675773
 20
12.3236019097
 30
0.0
 11
2.8083033265
 21
12.2197736692
 31
0.0
  0
ARC
  5
217
330
1F
100
AcDbEntity
  8
0
  6
CONTINUOUS
 62
     7
100
AcDbCircle
 10
2.7886182147
 20
12.1856784407
 30
0.0
 40
0.0393700787401579
100
AcDbArc
 50
347.5412418324
 51
60.0000140737
  0
ARC
  5
218
330
1F
100
AcDbEntity
  8
0
  6
CONTINUOUS
 62
     7
100
AcDbCircle
 10
5.9106555002
 20
10.3831693146
 30
0.0
 40
0.0393700787401583
100
AcDbArc
 50
60.0000140737
 51
132.4587635951
  0
LINE
  5
219
330
1F
100
AcDbEntity
  8
0
  6
CONTINUOUS
 62
     7
100
AcDbLine
 10
5.9303406471
 20
10.4172646786
 30
0.0
 11
6.1101759563
 21
10.313436438
 31
0.0
  0
ARC
  5
21A
330
1F
100
AcDbEntity
  8
0
  6
CONTINUOUS
 62
     7
100
AcDbCircle
 10
6.0904911619
 20
10.2793412058
 30
0.0
 40
0.0393700787401581
100
AcDbArc
 50
347.5412418324
 51
60.0000140737
  0
LINE
  5
21B
330
1F
100
AcDbEntity
  8
0
  6
CONTINUOUS
 62
     7
100
AcDbLine
 10
7.3251321611
 20
6.7196183808
 30
0.0
 11
7.3251321611
 21
7.6165568192
 31
0.0
  0
LINE
  5
21C
330
1F
100
AcDbEntity
  8
0
  6
CONTINUOUS
 62
     7
100
AcDbLine
 10
7.3251321611
 20
8.7382282349
 30
0.0
 11
7.3251321611
 21
9.6351666734
 31
0.0
  0
ARC
  5
21D
330
1F
100
AcDbEntity
  8
0
  6
CONTINUOUS
 62
     7
100
AcDbCircle
 10
6.3152864075
 20
6.1251100336
 30
0.0
 40
0.1908464566929169
100
AcDbArc
 50
32.9845097739
 51
192.4587635951
  0
ARC
  5
21E
330
1F
100
AcDbEntity
  8
0
  6
CONTINUOUS
 62
     7
100
AcDbCircle
 10
5.7552456625
 20
10.5530146429
 30
0.0
 40
0.1908464566929142
100
AcDbArc
 50
152.9845097738
 51
312.4587635951
  0
ARC
  5
21F
330
1F
100
AcDbEntity
  8
0
  6
CONTINUOUS
 62
     7
100
AcDbCircle
 10
6.3152864545
 20
10.2296750238
 30
0.0
 40
0.1908464566929144
100
AcDbArc
 50
167.5412418324
 51
327.0154686408
  0
ARC
  5
220
330
1F
100
AcDbEntity
  8
0
  6
CONTINUOUS
 62
     7
100
AcDbCircle
 10
5.7552456873
 20
5.8017702901
 30
0.0
 40
0.1908464566929137
100
AcDbArc
 50
47.5412418324
 51
207.0154684474
  0
ARC
  5
221
330
1F
100
AcDbEntity
  8
0
  6
CONTINUOUS
 62
     7
100
AcDbCircle
 10
3.0134135072
 20
12.1360122587
 30
0.0
 40
0.1908464566929148
100
AcDbArc
 50
167.5412418324
 51
327.0154686408
  0
ARC
  5
222
330
1F
100
AcDbEntity
  8
0
  6
CONTINUOUS
 62
     7
100
AcDbCircle
 10
2.4533727401
 20
3.8954330552
 30
0.0
 40
0.1908464566929113
100
AcDbArc
 50
47.5412418324
 51
207.0154684474
  0
ARC
  5
223
330
1F
100
AcDbEntity
  8
0
  6
CONTINUOUS
 62
     7
100
AcDbCircle
 10
3.0134134603
 20
4.2187727987
 30
0.0
 40
0.1908464566929136
100
AcDbArc
 50
32.9845097739
 51
192.4587635951
  0
ARC
  5
224
330
1F
100
AcDbEntity
  8
0
  6
CONTINUOUS
 62
     7
100
AcDbCircle
 10
2.4533727153
 20
12.4593518778
 30
0.0
 40
0.1908464566929142
100
AcDbArc
 50
152.9845097738
 51
312.4587635951
  0
LINE
  5
225
330
1F
100
AcDbEntity
  8
0
  6
CONTINUOUS
 62
     7
100
AcDbLine
 10
1.3583820628
 20
13.0800716776
 30
0.0
 11
1.3583820628
 21
12.1831320658
 31
0.0
  0
LINE
  5
226
330
1F
100
AcDbEntity
  8
0
  6
CONTINUOUS
 62
     7
100
AcDbLine
 10
1.3583820628
 20
4.1716524017
 30
0.0
 11
1.3583820628
 21
3.2747136699
 31
0.0
  0
LINE
  5
227
330
1F
100
AcDbEntity
  8
0
  6
CONTINUOUS
 62
     7
100
AcDbLine
 10
22.3963478704
 20
1.2876287182
 30
0.0
 11
28.0676077955
 21
1.2876287182
 31
0.0
  0
LINE
  5
228
330
1F
100
AcDbEntity
  8
0
  6
CONTINUOUS
 62
     7
100
AcDbLine
 10
28.0676077955
 20
5.192800232
 30
0.0
 11
22.3963478704
 21
5.192800232
 31
0.0
  0
LINE
  5
229
330
1F
100
AcDbEntity
  8
0
  6
CONTINUOUS
 62
     7
100
AcDbLine
 10
28.0676077955
 20
1.2876287182
 30
0.0
 11
28.0676077955
 21
5.192800232
 31
0.0
  0
LINE
  5
22A
330
1F
100
AcDbEntity
  8
0
  6
CONTINUOUS
 62
     7
100
AcDbLine
 10
22.3963478704
 20
5.192800232
 30
0.0
 11
22.3963478704
 21
1.2876287182
 31
0.0
  0
LINE
  5
22B
330
1F
100
AcDbEntity
  8
PROFILES_INSIDE
100
AcDbLine
 10
6.5106292201
 20
10.2304460255
 30
0.0
 11
6.7639676259
 21
10.6692410159
 31
0.0
  0
LINE
  5
22C
330
1F
100
AcDbEntity
  8
PROFILES_INSIDE
100
AcDbLine
 10
5.9303405312
 20
10.4172648078
 30
0.0
 11
6.1101761929
 21
10.313436699
 31
0.0
  0
LINE
  5
22D
330
1F
100
AcDbEntity
  8
PROFILES_INSIDE
100
AcDbLine
 10
5.9115804517
 20
11.1613670945
 30
0.0
 11
5.6582419622
 21
10.7225719242
 31
0.0
  0
LINE
  5
22E
330
1F
100
AcDbEntity
  8
PROFILES_INSIDE
100
AcDbLine
 10
6.4918691063
 20
10.9745482179
 30
0.0
 11
6.3120334361
 21
11.078376312
 31
0.0
  0
LINE
  5
22F
330
1F
100
AcDbEntity
  8
PROFILES_INSIDE
100
AcDbLine
 10
3.2087562728
 20
12.1367832605
 30
0.0
 11
3.4620946786
 21
12.5755782508
 31
0.0
  0
LINE
  5
230
330
1F
100
AcDbEntity
  8
PROFILES_INSIDE
100
AcDbLine
 10
3.1899961591
 20
12.8808854528
 30
0.0
 11
3.0101604942
 21
12.9847135562
 31
0.0
  0
LINE
  5
231
330
1F
100
AcDbEntity
  8
PROFILES_INSIDE
100
AcDbLine
 10
2.6097075031
 20
13.0677043302
 30
0.0
 11
2.356369015
 21
12.6289091591
 31
0.0
  0
LINE
  5
232
330
1F
100
AcDbEntity
  8
PROFILES_INSIDE
100
AcDbLine
 10
2.6284675839
 20
12.3236020427
 30
0.0
 11
2.8083032457
 21
12.2197739339
 31
0.0
  0
LINE
  5
233
330
1F
100
AcDbEntity
  8
PROFILES_OUTSIDE
100
AcDbLine
 10
6.5377303203
 20
12.0768581714
 30
0.0
 11
2.539484428
 21
14.3852465136
 31
0.0
  0
LINE
  5
234
330
1F
100
AcDbEntity
  8
PROFILES_OUTSIDE
100
AcDbLine
 10
1.3583820658
 20
13.7033367468
 30
0.0
 11
1.3583820658
 21
2.6514482548
 31
0.0
  0
LINE
  5
235
330
1F
100
AcDbEntity
  8
PROFILES_OUTSIDE
100
AcDbLine
 10
2.539484428
 20
1.969538488
 30
0.0
 11
6.5377303203
 21
4.2779268302
 31
0.0
  0
LINE
  5
236
330
1F
100
AcDbEntity
  8
POCKETS
100
AcDbLine
 10
35.6827654118
 20
2.8638960751
 30
0.0
 11
29.2615055693
 21
2.8638960751
 31
0.0
  0
LINE
  5
237
330
1F
100
AcDbEntity
  8
POCKETS
100
AcDbLine
 10
29.2615055693
 20
2.8638960751
 30
0.0
 11
29.2615055693
 21
1.991177758
 31
0.0
  0
LINE
  5
238
330
1F
100
AcDbEntity
  8
POCKETS
100
AcDbLine
 10
29.2615055693
 20
1.991177758
 30
0.0
 11
35.6827654118
 21
1.991177758
 31
0.0
  0
LINE
  5
239
330
1F
100
AcDbEntity
  8
POCKETS
100
AcDbLine
 10
35.6827654118
 20
1.991177758
 30
0.0
 11
35.6827654118
 21
2.8638960751
 31
0.0
  0
LINE
  5
23A
330
1F
100
AcDbEntity
  8
PROFILES_INSIDE
100
AcDbLine
 10
6.7639676259
 20
5.6855439858
 30
0.0
 11
6.5106292201
 21
6.1243389761
 31
0.0
  0
LINE
  5
23B
330
1F
100
AcDbEntity
  8
PROFILES_INSIDE
100
AcDbLine
 10
6.1101761674
 20
6.0413483468
 30
0.0
 11
5.9303405575
 21
5.9375201483
 31
0.0
  0
LINE
  5
23C
330
1F
100
AcDbEntity
  8
PROFILES_INSIDE
100
AcDbLine
 10
5.6582419444
 20
5.6322130671
 30
0.0
 11
5.9115804668
 21
5.1934179159
 31
0.0
  0
LINE
  5
23D
330
1F
100
AcDbEntity
  8
PROFILES_INSIDE
100
AcDbLine
 10
6.3120334701
 20
5.2764086308
 30
0.0
 11
6.4918690808
 21
5.3802368279
 31
0.0
  0
LINE
  5
23E
330
1F
100
AcDbEntity
  8
PROFILES_OUTSIDE
100
AcDbLine
 10
7.3251318951
 20
5.6417463637
 30
0.0
 11
7.3251318951
 21
10.7130386379
 31
0.0
  0
LINE
  5
23F
330
1F
100
AcDbEntity
  8
PROFILES_OUTSIDE
100
AcDbLine
 10
8.8940295329
 20
10.7130613682
 30
0.0
 11
8.8940295329
 21
5.6417236334
 31
0.0
  0
LINE
  5
240
330
1F
100
AcDbEntity
  8
PROFILES_OUTSIDE
100
AcDbLine
 10
14.0733384172
 20
14.6125497692
 30
0.0
 11
9.6814311077
 21
12.0768809017
 31
0.0
  0
LINE
  5
241
330
1F
100
AcDbEntity
  8
PROFILES_OUTSIDE
100
AcDbLine
 10
20.0400488763
 20
12.0768809017
 30
0.0
 11
15.6481415668
 21
14.6125497692
 31
0.0
  0
LINE
  5
242
330
1F
100
AcDbEntity
  8
PROFILES_INSIDE
100
AcDbLine
 10
2.3563689998
 20
3.7258758338
 30
0.0
 11
2.6097075196
 21
3.287080681
 31
0.0
  0
LINE
  5
243
330
1F
100
AcDbEntity
  8
PROFILES_INSIDE
100
AcDbLine
 10
3.0101605228
 20
3.3700713959
 30
0.0
 11
3.1899961336
 21
3.473899593
 31
0.0
  0
LINE
  5
244
330
1F
100
AcDbEntity
  8
PROFILES_INSIDE
100
AcDbLine
 10
3.4620946786
 20
3.7792067508
 30
0.0
 11
3.2087562728
 21
4.2180017412
 31
0.0
  0
LINE
  5
245
330
1F
100
AcDbEntity
  8
PROFILES_INSIDE
100
AcDbLine
 10
2.8083032202
 20
4.1350111119
 30
0.0
 11
2.6284676094
 21
4.0311829147
 31
0.0
  0
LINE
  5
246
330
1F
100
AcDbEntity
  8
PROFILES_OUTSIDE
100
AcDbLine
 10
20.8274504512
 20
5.6417236334
 30
0.0
 11
20.8274504512
 21
10.7130613682
 31
0.0
  0
LINE
  5
247
330
1F
100
AcDbEntity
  8
PROFILES_OUTSIDE
100
AcDbLine
 10
15.6481415668
 20
1.7422352325
 30
0.0
 11
20.0400488763
 21
4.2779040999
 31
0.0
  0
LINE
  5
248
330
1F
100
AcDbEntity
  8
PROFILES_OUTSIDE
100
AcDbLine
 10
9.6814311077
 20
4.2779040999
 30
0.0
 11
14.0733384172
 21
1.7422352325
 31
0.0
  0
LINE
  5
249
330
1F
100
AcDbEntity
  8
PROFILES_INSIDE
100
AcDbLine
 10
20.0129871462
 20
10.2304460255
 30
0.0
 11
20.266325552
 21
10.6692410159
 31
0.0
  0
LINE
  5
24A
330
1F
100
AcDbEntity
  8
PROFILES_INSIDE
100
AcDbLine
 10
19.4326984573
 20
10.4172648078
 30
0.0
 11
19.6125341191
 21
10.313436699
 31
0.0
  0
LINE
  5
24B
330
1F
100
AcDbEntity
  8
PROFILES_INSIDE
100
AcDbLine
 10
19.4139383778
 20
11.1613670945
 30
0.0
 11
19.1605998884
 21
10.7225719242
 31
0.0
  0
LINE
  5
24C
330
1F
100
AcDbEntity
  8
PROFILES_INSIDE
100
AcDbLine
 10
19.9942270325
 20
10.9745482179
 30
0.0
 11
19.8143913622
 21
11.078376312
 31
0.0
  0
LINE
  5
24D
330
1F
100
AcDbEntity
  8
PROFILES_INSIDE
100
AcDbLine
 10
16.7160444066
 20
12.1339368038
 30
0.0
 11
16.9693828124
 21
12.5727317941
 31
0.0
  0
LINE
  5
24E
330
1F
100
AcDbEntity
  8
PROFILES_INSIDE
100
AcDbLine
 10
16.6972842928
 20
12.8780389961
 30
0.0
 11
16.517448628
 21
12.9818670996
 31
0.0
  0
LINE
  5
24F
330
1F
100
AcDbEntity
  8
PROFILES_INSIDE
100
AcDbLine
 10
16.1169956369
 20
13.0648578735
 30
0.0
 11
15.8636571487
 21
12.6260627024
 31
0.0
  0
LINE
  5
250
330
1F
100
AcDbEntity
  8
PROFILES_INSIDE
100
AcDbLine
 10
16.1357557177
 20
12.320755586
 30
0.0
 11
16.3155913795
 21
12.2169274772
 31
0.0
  0
LINE
  5
251
330
1F
100
AcDbEntity
  8
PROFILES_INSIDE
100
AcDbLine
 10
20.266325552
 20
5.6855439858
 30
0.0
 11
20.0129871462
 21
6.1243389761
 31
0.0
  0
LINE
  5
252
330
1F
100
AcDbEntity
  8
BOX_STOCK
100
AcDbLine
 10
0.1802324595
 20
0.109479115
 30
0.0
 11
96.2432245855
 21
0.109479115
 31
0.0
  0
LINE
  5
253
330
1F
100
AcDbEntity
  8
BOX_STOCK
100
AcDbLine
 10
96.2432245855
 20
0.109479115
 30
0.0
 11
96.2432245855
 21
48.140975178
 31
0.0
  0
LINE
  5
254
330
1F
100
AcDbEntity
  8
BOX_STOCK
100
AcDbLine
 10
96.2432245855
 20
48.140975178
 30
0.0
 11
0.1802324595
 21
48.140975178
 31
0.0
  0
LINE
  5
255
330
1F
100
AcDbEntity
  8
BOX_STOCK
100
AcDbLine
 10
0.1802324595
 20
48.140975178
 30
0.0
 11
0.1802324595
 21
0.109479115
 31
0.0
  0
LINE
  5
256
330
1F
100
AcDbEntity
  8
PROFILES_INSIDE
100
AcDbLine
 10
19.6125340936
 20
6.0413483468
 30
0.0
 11
19.4326984836
 21
5.9375201483
 31
0.0
  0
LINE
  5
257
330
1F
100
AcDbEntity
  8
PROFILES_INSIDE
100
AcDbLine
 10
19.1605998705
 20
5.6322130671
 30
0.0
 11
19.413938393
 21
5.1934179159
 31
0.0
  0
LINE
  5
258
330
1F
100
AcDbEntity
  8
PROFILES_INSIDE
100
AcDbLine
 10
19.8143913962
 20
5.2764086308
 30
0.0
 11
19.994227007
 21
5.3802368279
 31
0.0
  0
LINE
  5
259
330
1F
100
AcDbEntity
  8
PROFILES_INSIDE
100
AcDbLine
 10
15.8636571336
 20
3.7287222904
 30
0.0
 11
16.1169956534
 21
3.2899271377
 31
0.0
  0
LINE
  5
25A
330
1F
100
AcDbEntity
  8
PROFILES_INSIDE
100
AcDbLine
 10
16.5174486566
 20
3.3729178525
 30
0.0
 11
16.6972842673
 21
3.4767460497
 31
0.0
  0
LINE
  5
25B
330
1F
100
AcDbEntity
  8
PROFILES_INSIDE
100
AcDbLine
 10
16.9693828124
 20
3.7820532075
 30
0.0
 11
16.7160444066
 21
4.2208481979
 31
0.0
  0
LINE
  5
25C
330
1F
100
AcDbEntity
  8
PROFILES_INSIDE
100
AcDbLine
 10
16.3155913539
 20
4.1378575686
 30
0.0
 11
16.1357557432
 21
4.0340293714
 31
0.0
  0
LINE
  5
25D
330
1F
100
AcDbEntity
  8
PROFILES_INSIDE
100
AcDbLine
 10
10.0751318951
 20
10.0311516015
 30
0.0
 11
10.0751318951
 21
6.3236334002
 31
0.0
  0
LINE
  5
25E
330
1F
100
AcDbEntity
  8
POCKETS
100
AcDbLine
 10
35.6827654118
 20
10.8895902512
 30
0.0
 11
29.2615055693
 21
10.8895902512
 31
0.0
  0
LINE
  5
25F
330
1F
100
AcDbEntity
  8
POCKETS
100
AcDbLine
 10
29.2615055693
 20
10.8895902512
 30
0.0
 11
29.2615055693
 21
10.0168719341
 31
0.0
  0
LINE
  5
260
330
1F
100
AcDbEntity
  8
POCKETS
100
AcDbLine
 10
29.2615055693
 20
10.0168719341
 30
0.0
 11
35.6827654118
 21
10.0168719341
 31
0.0
  0
LINE
  5
261
330
1F
100
AcDbEntity
  8
POCKETS
100
AcDbLine
 10
35.6827654118
 20
10.0168719341
 30
0.0
 11
35.6827654118
 21
10.8895902512
 31
0.0
  0
LINE
  5
262
330
1F
100
AcDbEntity
  8
PROFILES_INSIDE
100
AcDbLine
 10
10.8625334699
 20
4.9598138666
 30
0.0
 11
12.4985352676
 21
4.0152677883
 31
0.0
  0
LINE
  5
263
330
1F
100
AcDbEntity
  8
PROFILES_INSIDE
100
AcDbLine
 10
13.6796376298
 20
4.6971775551
 30
0.0
 11
13.6796376298
 21
11.6576074465
 31
0.0
  0
LINE
  5
264
330
1F
100
AcDbEntity
  8
PROFILES_INSIDE
100
AcDbLine
 10
12.4985352676
 20
12.3395172133
 30
0.0
 11
10.8625334699
 21
11.394971135
 31
0.0
  0
LINE
  5
265
330
1F
100
AcDbEntity
  8
PROFILES_OUTSIDE
100
AcDbLine
 10
28.0676079315
 20
1.2876287213
 30
0.0
 11
28.0676079315
 21
5.1928000115
 31
0.0
  0
LINE
  5
266
330
1F
100
AcDbEntity
  8
PROFILES_OUTSIDE
100
AcDbLine
 10
28.0676079315
 20
5.1928000115
 30
0.0
 11
22.3963480889
 21
5.1928000115
 31
0.0
  0
LINE
  5
267
330
1F
100
AcDbEntity
  8
PROFILES_OUTSIDE
100
AcDbLine
 10
22.3963480889
 20
5.1928000115
 30
0.0
 11
22.3963480889
 21
1.2876287213
 31
0.0
  0
LINE
  5
268
330
1F
100
AcDbEntity
  8
PROFILES_OUTSIDE
100
AcDbLine
 10
22.3963480889
 20
1.2876287213
 30
0.0
 11
28.0676079315
 21
1.2876287213
 31
0.0
  0
LINE
  5
269
330
1F
100
AcDbEntity
  8
PROFILES_OUTSIDE
100
AcDbLine
 10
35.3077654118
 20
7.7444252596
 30
0.0
 11
29.6365055693
 21
7.7444252596
 31
0.0
  0
LINE
  5
26A
330
1F
100
AcDbEntity
  8
PROFILES_OUTSIDE
100
AcDbLine
 10
29.6365055693
 20
7.7444252596
 30
0.0
 11
29.6365055693
 21
1.2876287213
 31
0.0
  0
LINE
  5
26B
330
1F
100
AcDbEntity
  8
PROFILES_OUTSIDE
100
AcDbLine
 10
29.6365055693
 20
1.2876287213
 30
0.0
 11
35.3077654118
 21
1.2876287213
 31
0.0
  0
LINE
  5
26C
330
1F
100
AcDbEntity
  8
PROFILES_OUTSIDE
100
AcDbLine
 10
35.3077654118
 20
1.2876287213
 30
0.0
 11
35.3077654118
 21
7.7444252596
 31
0.0
  0
LINE
  5
26D
330
1F
100
AcDbEntity
  8
PROFILES_OUTSIDE
100
AcDbLine
 10
29.6365055693
 20
15.7701194357
 30
0.0
 11
29.6365055693
 21
9.3133228974
 31
0.0
  0
LINE
  5
26E
330
1F
100
AcDbEntity
  8
PROFILES_OUTSIDE
100
AcDbLine
 10
29.6365055693
 20
9.3133228974
 30
0.0
 11
35.3077654118
 21
9.3133228974
 31
0.0
  0
LINE
  5
26F
330
1F
100
AcDbEntity
  8
PROFILES_OUTSIDE
100
AcDbLine
 10
35.3077654118
 20
9.3133228974
 30
0.0
 11
35.3077654118
 21
15.7701194357
 31
0.0
  0
LINE
  5
270
330
1F
100
AcDbEntity
  8
PROFILES_OUTSIDE
100
AcDbLine
 10
35.3077654118
 20
15.7701194357
 30
0.0
 11
29.6365055693
 21
15.7701194357
 31
0.0
  0
LINE
  5
271
330
1F
100
AcDbEntity
  8
POCKETS
100
AcDbLine
 10
7.6547909741
 20
7.8068858063
 30
0.0
 11
7.3300314477
 21
7.6193858063
 31
0.0
  0
LINE
  5
272
330
1F
100
AcDbEntity
  8
POCKETS
100
AcDbLine
 10
8.0431768009
 20
7.1341818214
 30
0.0
 11
7.6547909741
 21
7.8068858063
 31
0.0
  0
LINE
  5
273
330
1F
100
AcDbEntity
  8
POCKETS
100
AcDbLine
 10
7.7184172745
 20
6.9466818214
 30
0.0
 11
8.0431768009
 21
7.1341818214
 31
0.0
  0
LINE
  5
274
330
1F
100
AcDbEntity
  8
POCKETS
100
AcDbLine
 10
1.3534825132
 20
3.2718850236
 30
0.0
 11
7.7184172745
 21
6.9466818214
 31
0.0
  0
LINE
  5
275
330
1F
100
AcDbEntity
  8
POCKETS
100
AcDbLine
 10
1.0287229868
 20
3.0843850236
 30
0.0
 11
1.3534825132
 21
3.2718850236
 31
0.0
  0
LINE
  5
276
330
1F
100
AcDbEntity
  8
POCKETS
100
AcDbLine
 10
0.64033716
 20
3.7570890085
 30
0.0
 11
1.0287229868
 21
3.0843850236
 31
0.0
  0
LINE
  5
277
330
1F
100
AcDbEntity
  8
POCKETS
100
AcDbLine
 10
0.9650966864
 20
3.9445890085
 30
0.0
 11
0.64033716
 21
3.7570890085
 31
0.0
  0
LINE
  5
278
330
1F
100
AcDbEntity
  8
POCKETS
100
AcDbLine
 10
5.5774547297
 20
6.6075351664
 30
0.0
 11
0.9650966864
 21
3.9445890085
 31
0.0
  0
LINE
  5
279
330
1F
100
AcDbEntity
  8
POCKETS
100
AcDbLine
 10
5.5774547297
 20
9.7472498352
 30
0.0
 11
5.5774547297
 21
6.6075351664
 31
0.0
  0
LINE
  5
27A
330
1F
100
AcDbEntity
  8
POCKETS
100
AcDbLine
 10
0.9650966864
 20
12.4101959931
 30
0.0
 11
5.5774547297
 21
9.7472498352
 31
0.0
  0
LINE
  5
27B
330
1F
100
AcDbEntity
  8
POCKETS
100
AcDbLine
 10
0.64033716
 20
12.5976959931
 30
0.0
 11
0.9650966864
 21
12.4101959931
 31
0.0
  0
LINE
  5
27C
330
1F
100
AcDbEntity
  8
POCKETS
100
AcDbLine
 10
1.0287229868
 20
13.270399978
 30
0.0
 11
0.64033716
 21
12.5976959931
 31
0.0
  0
LINE
  5
27D
330
1F
100
AcDbEntity
  8
POCKETS
100
AcDbLine
 10
1.3534825132
 20
13.082899978
 30
0.0
 11
1.0287229868
 21
13.270399978
 31
0.0
  0
LINE
  5
27E
330
1F
100
AcDbEntity
  8
POCKETS
100
AcDbLine
 10
7.7184172745
 20
9.4081031802
 30
0.0
 11
1.3534825132
 21
13.082899978
 31
0.0
  0
LINE
  5
27F
330
1F
100
AcDbEntity
  8
POCKETS
100
AcDbLine
 10
8.0431768009
 20
9.2206031802
 30
0.0
 11
7.7184172745
 21
9.4081031802
 31
0.0
  0
LINE
  5
280
330
1F
100
AcDbEntity
  8
POCKETS
100
AcDbLine
 10
7.6547909741
 20
8.5478991953
 30
0.0
 11
8.0431768009
 21
9.2206031802
 31
0.0
  0
LINE
  5
281
330
1F
100
AcDbEntity
  8
POCKETS
100
AcDbLine
 10
7.3300314477
 20
8.7353991953
 30
0.0
 11
7.6547909741
 21
8.5478991953
 31
0.0
  0
LINE
  5
282
330
1F
100
AcDbEntity
  8
POCKETS
100
AcDbLine
 10
6.3408405565
 20
9.3065088227
 30
0.0
 11
7.3300314477
 21
8.7353991953
 31
0.0
  0
LINE
  5
283
330
1F
100
AcDbEntity
  8
POCKETS
100
AcDbLine
 10
6.3408405565
 20
7.048276179
 30
0.0
 11
6.3408405565
 21
9.3065088227
 31
0.0
  0
LINE
  5
284
330
1F
100
AcDbEntity
  8
POCKETS
100
AcDbLine
 10
7.3300314477
 20
7.6193858063
 30
0.0
 11
6.3408405565
 21
7.048276179
 31
0.0
  0
LINE
  5
285
330
1F
100
AcDbEntity
  8
POCKETS
100
AcDbLine
 10
15.1666632103
 20
12.7552354056
 30
0.0
 11
14.9066318417
 21
12.3048478637
 31
0.0
  0
LINE
  5
286
330
1F
100
AcDbEntity
  8
POCKETS
100
AcDbLine
 10
15.1787303987
 20
11.9995407266
 30
0.0
 11
19.0798126559
 21
9.7472498352
 31
0.0
  0
LINE
  5
287
330
1F
100
AcDbEntity
  8
POCKETS
100
AcDbLine
 10
19.0798126559
 20
9.7472498352
 30
0.0
 11
19.0798126559
 21
6.6075351664
 31
0.0
  0
LINE
  5
288
330
1F
100
AcDbEntity
  8
POCKETS
100
AcDbLine
 10
19.0798126559
 20
6.6075351664
 30
0.0
 11
15.1787303987
 21
4.3552442751
 31
0.0
  0
LINE
  5
289
330
1F
100
AcDbEntity
  8
POCKETS
100
AcDbLine
 10
14.9066318417
 20
4.049937138
 30
0.0
 11
15.1666632103
 21
3.599549596
 31
0.0
  0
LINE
  5
28A
330
1F
100
AcDbEntity
  8
POCKETS
100
AcDbLine
 10
15.5671162255
 20
3.6825402902
 30
0.0
 11
21.2207358306
 21
6.9466590911
 31
0.0
  0
LINE
  5
28B
330
1F
100
AcDbEntity
  8
POCKETS
100
AcDbLine
 10
21.2207358306
 20
6.9466590911
 30
0.0
 11
21.545495357
 21
7.1341590911
 31
0.0
  0
LINE
  5
28C
330
1F
100
AcDbEntity
  8
POCKETS
100
AcDbLine
 10
21.545495357
 20
7.1341590911
 30
0.0
 11
21.1571095302
 21
7.806863076
 31
0.0
  0
LINE
  5
28D
330
1F
100
AcDbEntity
  8
POCKETS
100
AcDbLine
 10
21.1571095302
 20
7.806863076
 30
0.0
 11
20.8323500038
 21
7.619363076
 31
0.0
  0
LINE
  5
28E
330
1F
100
AcDbEntity
  8
POCKETS
100
AcDbLine
 10
20.8323500038
 20
7.619363076
 30
0.0
 11
19.8431984826
 21
7.048276179
 31
0.0
  0
LINE
  5
28F
330
1F
100
AcDbEntity
  8
POCKETS
100
AcDbLine
 10
19.8431984826
 20
7.048276179
 30
0.0
 11
19.8431984826
 21
9.3065088227
 31
0.0
  0
LINE
  5
290
330
1F
100
AcDbEntity
  8
POCKETS
100
AcDbLine
 10
19.8431984826
 20
9.3065088227
 30
0.0
 11
20.8323500038
 21
8.7354219257
 31
0.0
  0
LINE
  5
291
330
1F
100
AcDbEntity
  8
POCKETS
100
AcDbLine
 10
20.8323500038
 20
8.7354219257
 30
0.0
 11
21.1571095302
 21
8.5479219257
 31
0.0
  0
LINE
  5
292
330
1F
100
AcDbEntity
  8
POCKETS
100
AcDbLine
 10
21.1571095302
 20
8.5479219257
 30
0.0
 11
21.545495357
 21
9.2206259106
 31
0.0
  0
LINE
  5
293
330
1F
100
AcDbEntity
  8
POCKETS
100
AcDbLine
 10
21.545495357
 20
9.2206259106
 30
0.0
 11
21.2207358306
 21
9.4081259106
 31
0.0
  0
LINE
  5
294
330
1F
100
AcDbEntity
  8
POCKETS
100
AcDbLine
 10
21.2207358306
 20
9.4081259106
 30
0.0
 11
15.5671162255
 21
12.6722447115
 31
0.0
  0
LINE
  5
295
330
1F
100
AcDbEntity
  8
PROFILES_OUTSIDE
100
AcDbLine
 10
37.0817811598
 20
6.822744136
 30
0.0
 11
36.9160331283
 21
6.822744136
 31
0.0
  0
LINE
  5
296
330
1F
100
AcDbEntity
  8
PROFILES_OUTSIDE
100
AcDbLine
 10
37.0975291913
 20
6.5766811439
 30
0.0
 11
37.0817811598
 21
6.822744136
 31
0.0
  0
LINE
  5
297
330
1F
100
AcDbEntity
  8
PROFILES_OUTSIDE
100
AcDbLine
 10
37.7325605599
 20
6.5766811439
 30
0.0
 11
37.0975291913
 21
6.5766811439
 31
0.0
  0
LINE
  5
298
330
1F
100
AcDbEntity
  8
PROFILES_OUTSIDE
100
AcDbLine
 10
37.8609150181
 20
7.0688858683
 30
0.0
 11
37.8609150181
 21
6.9649789751
 31
0.0
  0
LINE
  5
299
330
1F
100
AcDbEntity
  8
PROFILES_OUTSIDE
100
AcDbLine
 10
39.744871711
 20
7.0688858683
 30
0.0
 11
37.8609150181
 21
7.0688858683
 31
0.0
  0
LINE
  5
29A
330
1F
100
AcDbEntity
  8
PROFILES_OUTSIDE
100
AcDbLine
 10
39.9357181677
 20
5.269004877
 30
0.0
 11
39.9357181677
 21
6.8780394116
 31
0.0
  0
LINE
  5
29B
330
1F
100
AcDbEntity
  8
PROFILES_OUTSIDE
100
AcDbLine
 10
40.5165252543
 20
5.0781584203
 30
0.0
 11
40.1265646244
 21
5.0781584203
 31
0.0
  0
LINE
  5
29C
330
1F
100
AcDbEntity
  8
PROFILES_OUTSIDE
100
AcDbLine
 10
40.707371711
 20
6.8780394116
 30
0.0
 11
40.707371711
 21
5.269004877
 31
0.0
  0
LINE
  5
29D
330
1F
100
AcDbEntity
  8
PROFILES_OUTSIDE
100
AcDbLine
 10
42.7821748606
 20
7.0688858683
 30
0.0
 11
40.8982181677
 21
7.0688858683
 31
0.0
  0
LINE
  5
29E
330
1F
100
AcDbEntity
  8
PROFILES_OUTSIDE
100
AcDbLine
 10
42.7821748606
 20
6.9649789751
 30
0.0
 11
42.7821748606
 21
7.0688858683
 31
0.0
  0
LINE
  5
29F
330
1F
100
AcDbEntity
  8
PROFILES_OUTSIDE
100
AcDbLine
 10
43.5455606874
 20
6.5766811439
 30
0.0
 11
42.9105293188
 21
6.5766811439
 31
0.0
  0
LINE
  5
2A0
330
1F
100
AcDbEntity
  8
PROFILES_OUTSIDE
100
AcDbLine
 10
43.5613087189
 20
6.822744136
 30
0.0
 11
43.5455606874
 21
6.5766811439
 31
0.0
  0
LINE
  5
2A1
330
1F
100
AcDbEntity
  8
PROFILES_OUTSIDE
100
AcDbLine
 10
43.7270567504
 20
6.822744136
 30
0.0
 11
43.5613087189
 21
6.822744136
 31
0.0
  0
LINE
  5
2A2
330
1F
100
AcDbEntity
  8
PROFILES_OUTSIDE
100
AcDbLine
 10
43.7664268291
 20
6.3207756321
 30
0.0
 11
43.7664268291
 21
6.7833740573
 31
0.0
  0
LINE
  5
2A3
330
1F
100
AcDbEntity
  8
PROFILES_OUTSIDE
100
AcDbLine
 10
41.4435921834
 20
6.0845551596
 30
0.0
 11
43.5302063567
 21
6.0845551596
 31
0.0
  0
LINE
  5
2A4
330
1F
100
AcDbEntity
  8
PROFILES_OUTSIDE
100
AcDbLine
 10
41.207371711
 20
5.0781584203
 30
0.0
 11
41.207371711
 21
5.8483346872
 31
0.0
  0
LINE
  5
2A5
330
1F
100
AcDbEntity
  8
PROFILES_OUTSIDE
100
AcDbLine
 10
40.707371711
 20
4.1443028329
 30
0.0
 11
40.707371711
 21
4.2121330166
 31
0.0
  0
LINE
  5
2A6
330
1F
100
AcDbEntity
  8
PROFILES_OUTSIDE
100
AcDbLine
 10
41.207371711
 20
2.5081011622
 30
0.0
 11
41.207371711
 21
3.2782774291
 31
0.0
  0
LINE
  5
2A7
330
1F
100
AcDbEntity
  8
PROFILES_OUTSIDE
100
AcDbLine
 10
43.5302063567
 20
2.2718806898
 30
0.0
 11
41.4435921834
 21
2.2718806898
 31
0.0
  0
LINE
  5
2A8
330
1F
100
AcDbEntity
  8
PROFILES_OUTSIDE
100
AcDbLine
 10
43.7664268291
 20
1.5730617922
 30
0.0
 11
43.7664268291
 21
2.0356602173
 31
0.0
  0
LINE
  5
2A9
330
1F
100
AcDbEntity
  8
PROFILES_OUTSIDE
100
AcDbLine
 10
43.5613087189
 20
1.5336917134
 30
0.0
 11
43.7270567504
 21
1.5336917134
 31
0.0
  0
LINE
  5
2AA
330
1F
100
AcDbEntity
  8
PROFILES_OUTSIDE
100
AcDbLine
 10
43.5455606874
 20
1.7797547055
 30
0.0
 11
43.5613087189
 21
1.5336917134
 31
0.0
  0
LINE
  5
2AB
330
1F
100
AcDbEntity
  8
PROFILES_OUTSIDE
100
AcDbLine
 10
42.9105293188
 20
1.7797547055
 30
0.0
 11
43.5455606874
 21
1.7797547055
 31
0.0
  0
LINE
  5
2AC
330
1F
100
AcDbEntity
  8
PROFILES_OUTSIDE
100
AcDbLine
 10
42.7821748606
 20
1.2875499811
 30
0.0
 11
42.7821748606
 21
1.3914568743
 31
0.0
  0
LINE
  5
2AD
330
1F
100
AcDbEntity
  8
PROFILES_OUTSIDE
100
AcDbLine
 10
40.8982181677
 20
1.2875499811
 30
0.0
 11
42.7821748606
 21
1.2875499811
 31
0.0
  0
LINE
  5
2AE
330
1F
100
AcDbEntity
  8
PROFILES_OUTSIDE
100
AcDbLine
 10
40.707371711
 20
3.0874309724
 30
0.0
 11
40.707371711
 21
1.4783964378
 31
0.0
  0
LINE
  5
2AF
330
1F
100
AcDbEntity
  8
PROFILES_OUTSIDE
100
AcDbLine
 10
40.1265646244
 20
3.2782774291
 30
0.0
 11
40.5165252543
 21
3.2782774291
 31
0.0
  0
LINE
  5
2B0
330
1F
100
AcDbEntity
  8
PROFILES_OUTSIDE
100
AcDbLine
 10
39.9357181677
 20
1.4783964378
 30
0.0
 11
39.9357181677
 21
3.0874309724
 31
0.0
  0
LINE
  5
2B1
330
1F
100
AcDbEntity
  8
PROFILES_OUTSIDE
100
AcDbLine
 10
37.8609150181
 20
1.2875499811
 30
0.0
 11
39.744871711
 21
1.2875499811
 31
0.0
  0
LINE
  5
2B2
330
1F
100
AcDbEntity
  8
PROFILES_OUTSIDE
100
AcDbLine
 10
37.8609150181
 20
1.3914568743
 30
0.0
 11
37.8609150181
 21
1.2875499811
 31
0.0
  0
LINE
  5
2B3
330
1F
100
AcDbEntity
  8
PROFILES_OUTSIDE
100
AcDbLine
 10
37.0975291913
 20
1.7797547055
 30
0.0
 11
37.7325605599
 21
1.7797547055
 31
0.0
  0
LINE
  5
2B4
330
1F
100
AcDbEntity
  8
PROFILES_OUTSIDE
100
AcDbLine
 10
37.0817811598
 20
1.5336917134
 30
0.0
 11
37.0975291913
 21
1.7797547055
 31
0.0
  0
LINE
  5
2B5
330
1F
100
AcDbEntity
  8
PROFILES_OUTSIDE
100
AcDbLine
 10
36.9160331283
 20
1.5336917134
 30
0.0
 11
37.0817811598
 21
1.5336917134
 31
0.0
  0
LINE
  5
2B6
330
1F
100
AcDbEntity
  8
PROFILES_OUTSIDE
100
AcDbLine
 10
36.8766630496
 20
2.0356602173
 30
0.0
 11
36.8766630496
 21
1.5730617922
 31
0.0
  0
LINE
  5
2B7
330
1F
100
AcDbEntity
  8
PROFILES_OUTSIDE
100
AcDbLine
 10
39.1994976952
 20
2.2718806898
 30
0.0
 11
37.112883522
 21
2.2718806898
 31
0.0
  0
LINE
  5
2B8
330
1F
100
AcDbEntity
  8
PROFILES_OUTSIDE
100
AcDbLine
 10
39.4357181677
 20
3.2782774291
 30
0.0
 11
39.4357181677
 21
2.5081011622
 31
0.0
  0
LINE
  5
2B9
330
1F
100
AcDbEntity
  8
PROFILES_OUTSIDE
100
AcDbLine
 10
39.9357181677
 20
4.2121330166
 30
0.0
 11
39.9357181677
 21
4.1443028329
 31
0.0
  0
LINE
  5
2BA
330
1F
100
AcDbEntity
  8
PROFILES_OUTSIDE
100
AcDbLine
 10
39.4357181677
 20
5.8483346872
 30
0.0
 11
39.4357181677
 21
5.0781584203
 31
0.0
  0
LINE
  5
2BB
330
1F
100
AcDbEntity
  8
PROFILES_OUTSIDE
100
AcDbLine
 10
37.112883522
 20
6.0845551596
 30
0.0
 11
39.1994976952
 21
6.0845551596
 31
0.0
  0
LINE
  5
2BC
330
1F
100
AcDbEntity
  8
PROFILES_OUTSIDE
100
AcDbLine
 10
36.8766630496
 20
6.7833740573
 30
0.0
 11
36.8766630496
 21
6.3207756321
 31
0.0
  0
LINE
  5
2BD
330
1F
100
AcDbEntity
  8
PROFILES_OUTSIDE
100
AcDbLine
 10
43.5613087189
 20
8.8837677581
 30
0.0
 11
43.7270567504
 21
8.8837677581
 31
0.0
  0
LINE
  5
2BE
330
1F
100
AcDbEntity
  8
PROFILES_OUTSIDE
100
AcDbLine
 10
43.5455606874
 20
9.1298307502
 30
0.0
 11
43.5613087189
 21
8.8837677581
 31
0.0
  0
LINE
  5
2BF
330
1F
100
AcDbEntity
  8
PROFILES_OUTSIDE
100
AcDbLine
 10
42.9105293188
 20
9.1298307502
 30
0.0
 11
43.5455606874
 21
9.1298307502
 31
0.0
  0
LINE
  5
2C0
330
1F
100
AcDbEntity
  8
PROFILES_OUTSIDE
100
AcDbLine
 10
42.7821748606
 20
8.6376260258
 30
0.0
 11
42.7821748606
 21
8.7415329189
 31
0.0
  0
LINE
  5
2C1
330
1F
100
AcDbEntity
  8
PROFILES_OUTSIDE
100
AcDbLine
 10
40.8982181677
 20
8.6376260258
 30
0.0
 11
42.7821748606
 21
8.6376260258
 31
0.0
  0
LINE
  5
2C2
330
1F
100
AcDbEntity
  8
PROFILES_OUTSIDE
100
AcDbLine
 10
40.707371711
 20
10.437507017
 30
0.0
 11
40.707371711
 21
8.8284724825
 31
0.0
  0
LINE
  5
2C3
330
1F
100
AcDbEntity
  8
PROFILES_OUTSIDE
100
AcDbLine
 10
40.1265646244
 20
10.6283534737
 30
0.0
 11
40.5165252543
 21
10.6283534737
 31
0.0
  0
LINE
  5
2C4
330
1F
100
AcDbEntity
  8
PROFILES_OUTSIDE
100
AcDbLine
 10
39.9357181677
 20
8.8284724825
 30
0.0
 11
39.9357181677
 21
10.437507017
 31
0.0
  0
LINE
  5
2C5
330
1F
100
AcDbEntity
  8
PROFILES_OUTSIDE
100
AcDbLine
 10
37.8609150181
 20
8.6376260258
 30
0.0
 11
39.744871711
 21
8.6376260258
 31
0.0
  0
LINE
  5
2C6
330
1F
100
AcDbEntity
  8
PROFILES_OUTSIDE
100
AcDbLine
 10
37.8609150181
 20
8.7415329189
 30
0.0
 11
37.8609150181
 21
8.6376260258
 31
0.0
  0
LINE
  5
2C7
330
1F
100
AcDbEntity
  8
PROFILES_OUTSIDE
100
AcDbLine
 10
37.0975291913
 20
9.1298307502
 30
0.0
 11
37.7325605599
 21
9.1298307502
 31
0.0
  0
LINE
  5
2C8
330
1F
100
AcDbEntity
  8
PROFILES_OUTSIDE
100
AcDbLine
 10
37.0817811598
 20
8.8837677581
 30
0.0
 11
37.0975291913
 21
9.1298307502
 31
0.0
  0
LINE
  5
2C9
330
1F
100
AcDbEntity
  8
PROFILES_OUTSIDE
100
AcDbLine
 10
36.9160331283
 20
8.8837677581
 30
0.0
 11
37.0817811598
 21
8.8837677581
 31
0.0
  0
LINE
  5
2CA
330
1F
100
AcDbEntity
  8
PROFILES_OUTSIDE
100
AcDbLine
 10
36.8766630496
 20
9.385736262
 30
0.0
 11
36.8766630496
 21
8.9231378368
 31
0.0
  0
LINE
  5
2CB
330
1F
100
AcDbEntity
  8
PROFILES_OUTSIDE
100
AcDbLine
 10
39.1994976952
 20
9.6219567344
 30
0.0
 11
37.112883522
 21
9.6219567344
 31
0.0
  0
LINE
  5
2CC
330
1F
100
AcDbEntity
  8
PROFILES_OUTSIDE
100
AcDbLine
 10
39.4357181677
 20
10.6283534737
 30
0.0
 11
39.4357181677
 21
9.8581772069
 31
0.0
  0
LINE
  5
2CD
330
1F
100
AcDbEntity
  8
PROFILES_OUTSIDE
100
AcDbLine
 10
39.9357181677
 20
11.5622090612
 30
0.0
 11
39.9357181677
 21
11.4943788775
 31
0.0
  0
LINE
  5
2CE
330
1F
100
AcDbEntity
  8
PROFILES_OUTSIDE
100
AcDbLine
 10
39.4357181677
 20
13.1984107318
 30
0.0
 11
39.4357181677
 21
12.428234465
 31
0.0
  0
LINE
  5
2CF
330
1F
100
AcDbEntity
  8
PROFILES_OUTSIDE
100
AcDbLine
 10
37.112883522
 20
13.4346312043
 30
0.0
 11
39.1994976952
 21
13.4346312043
 31
0.0
  0
LINE
  5
2D0
330
1F
100
AcDbEntity
  8
PROFILES_OUTSIDE
100
AcDbLine
 10
36.8766630496
 20
14.1334501019
 30
0.0
 11
36.8766630496
 21
13.6708516767
 31
0.0
  0
LINE
  5
2D1
330
1F
100
AcDbEntity
  8
PROFILES_OUTSIDE
100
AcDbLine
 10
37.0817811598
 20
14.1728201807
 30
0.0
 11
36.9160331283
 21
14.1728201807
 31
0.0
  0
LINE
  5
2D2
330
1F
100
AcDbEntity
  8
PROFILES_OUTSIDE
100
AcDbLine
 10
37.0975291913
 20
13.9267571885
 30
0.0
 11
37.0817811598
 21
14.1728201807
 31
0.0
  0
LINE
  5
2D3
330
1F
100
AcDbEntity
  8
PROFILES_OUTSIDE
100
AcDbLine
 10
37.7325605599
 20
13.9267571885
 30
0.0
 11
37.0975291913
 21
13.9267571885
 31
0.0
  0
LINE
  5
2D4
330
1F
100
AcDbEntity
  8
PROFILES_OUTSIDE
100
AcDbLine
 10
37.8609150181
 20
14.4189619129
 30
0.0
 11
37.8609150181
 21
14.3150550198
 31
0.0
  0
LINE
  5
2D5
330
1F
100
AcDbEntity
  8
PROFILES_OUTSIDE
100
AcDbLine
 10
39.744871711
 20
14.4189619129
 30
0.0
 11
37.8609150181
 21
14.4189619129
 31
0.0
  0
LINE
  5
2D6
330
1F
100
AcDbEntity
  8
PROFILES_OUTSIDE
100
AcDbLine
 10
39.9357181677
 20
12.6190809217
 30
0.0
 11
39.9357181677
 21
14.2281154563
 31
0.0
  0
LINE
  5
2D7
330
1F
100
AcDbEntity
  8
PROFILES_OUTSIDE
100
AcDbLine
 10
40.5165252543
 20
12.428234465
 30
0.0
 11
40.1265646244
 21
12.428234465
 31
0.0
  0
LINE
  5
2D8
330
1F
100
AcDbEntity
  8
PROFILES_OUTSIDE
100
AcDbLine
 10
40.707371711
 20
14.2281154563
 30
0.0
 11
40.707371711
 21
12.6190809217
 31
0.0
  0
LINE
  5
2D9
330
1F
100
AcDbEntity
  8
PROFILES_OUTSIDE
100
AcDbLine
 10
42.7821748606
 20
14.4189619129
 30
0.0
 11
40.8982181677
 21
14.4189619129
 31
0.0
  0
LINE
  5
2DA
330
1F
100
AcDbEntity
  8
PROFILES_OUTSIDE
100
AcDbLine
 10
42.7821748606
 20
14.3150550198
 30
0.0
 11
42.7821748606
 21
14.4189619129
 31
0.0
  0
LINE
  5
2DB
330
1F
100
AcDbEntity
  8
PROFILES_OUTSIDE
100
AcDbLine
 10
43.5455606874
 20
13.9267571885
 30
0.0
 11
42.9105293188
 21
13.9267571885
 31
0.0
  0
LINE
  5
2DC
330
1F
100
AcDbEntity
  8
PROFILES_OUTSIDE
100
AcDbLine
 10
43.5613087189
 20
14.1728201807
 30
0.0
 11
43.5455606874
 21
13.9267571885
 31
0.0
  0
LINE
  5
2DD
330
1F
100
AcDbEntity
  8
PROFILES_OUTSIDE
100
AcDbLine
 10
43.7270567504
 20
14.1728201807
 30
0.0
 11
43.5613087189
 21
14.1728201807
 31
0.0
  0
LINE
  5
2DE
330
1F
100
AcDbEntity
  8
PROFILES_OUTSIDE
100
AcDbLine
 10
43.7664268291
 20
13.6708516767
 30
0.0
 11
43.7664268291
 21
14.1334501019
 31
0.0
  0
LINE
  5
2DF
330
1F
100
AcDbEntity
  8
PROFILES_OUTSIDE
100
AcDbLine
 10
41.4435921834
 20
13.4346312043
 30
0.0
 11
43.5302063567
 21
13.4346312043
 31
0.0
  0
LINE
  5
2E0
330
1F
100
AcDbEntity
  8
PROFILES_OUTSIDE
100
AcDbLine
 10
41.207371711
 20
12.428234465
 30
0.0
 11
41.207371711
 21
13.1984107318
 31
0.0
  0
LINE
  5
2E1
330
1F
100
AcDbEntity
  8
PROFILES_OUTSIDE
100
AcDbLine
 10
40.707371711
 20
11.4943788775
 30
0.0
 11
40.707371711
 21
11.5622090612
 31
0.0
  0
LINE
  5
2E2
330
1F
100
AcDbEntity
  8
PROFILES_OUTSIDE
100
AcDbLine
 10
41.207371711
 20
9.8581772069
 30
0.0
 11
41.207371711
 21
10.6283534737
 31
0.0
  0
LINE
  5
2E3
330
1F
100
AcDbEntity
  8
PROFILES_OUTSIDE
100
AcDbLine
 10
43.5302063567
 20
9.6219567344
 30
0.0
 11
41.4435921834
 21
9.6219567344
 31
0.0
  0
LINE
  5
2E4
330
1F
100
AcDbEntity
  8
PROFILES_OUTSIDE
100
AcDbLine
 10
43.7664268291
 20
8.9231378368
 30
0.0
 11
43.7664268291
 21
9.385736262
 31
0.0
  0
ARC
  5
2E5
330
1F
100
AcDbEntity
  8
PROFILES_OUTSIDE
100
AcDbCircle
 10
2.1457836406
 20
2.6514482548
 30
0.0
 40
0.7874015748031507
100
AcDbArc
 50
180.0
 51
300.0
  0
ARC
  5
2E6
330
1F
100
AcDbEntity
  8
PROFILES_INSIDE
100
AcDbCircle
 10
11.6499350447
 20
6.3236334002
 30
0.0
 40
1.5748031496063
100
AcDbArc
 50
180.0
 51
240.0
  0
ARC
  5
2E7
330
1F
100
AcDbEntity
  8
PROFILES_INSIDE
100
AcDbCircle
 10
12.892236055
 20
4.6971775551
 30
0.0
 40
0.78740157480315
100
AcDbArc
 50
240.0
 51
0.0
  0
ARC
  5
2E8
330
1F
100
AcDbEntity
  8
PROFILES_INSIDE
100
AcDbCircle
 10
12.892236055
 20
11.6576074465
 30
0.0
 40
0.7874015748031504
100
AcDbArc
 50
0.0
 51
120.0
  0
ARC
  5
2E9
330
1F
100
AcDbEntity
  8
PROFILES_INSIDE
100
AcDbCircle
 10
11.6499350447
 20
10.0311516015
 30
0.0
 40
1.574803149606299
100
AcDbArc
 50
120.0
 51
180.0
  0
ARC
  5
2EA
330
1F
100
AcDbEntity
  8
PROFILES_INSIDE
100
AcDbCircle
 10
6.5115541373
 20
11.008643711
 30
0.0
 40
0.039370078740157
100
AcDbArc
 50
240.0000140737
 51
312.4587635951
  0
ARC
  5
2EB
330
1F
100
AcDbEntity
  8
PROFILES_INSIDE
100
AcDbCircle
 10
6.666963975
 20
10.8387983827
 30
0.0
 40
0.1908464566929143
100
AcDbArc
 50
304.7126274202
 51
132.4587635951
  0
ARC
  5
2EC
330
1F
100
AcDbEntity
  8
PROFILES_INSIDE
100
AcDbCircle
 10
6.7980634957
 20
10.6495557562
 30
0.0
 40
0.039370519293728
100
AcDbArc
 50
124.7126274202
 51
150.0
  0
ARC
  5
2ED
330
1F
100
AcDbEntity
  8
PROFILES_INSIDE
100
AcDbCircle
 10
6.5447247084
 20
10.2107609862
 30
0.0
 40
0.0393700787401609
100
AcDbArc
 50
150.0
 51
175.2874046152
  0
ARC
  5
2EE
330
1F
100
AcDbEntity
  8
PROFILES_INSIDE
100
AcDbCircle
 10
6.3152864545
 20
10.2296750238
 30
0.0
 40
0.1908464566929125
100
AcDbArc
 50
167.5412418324
 51
355.2874046152
  0
ARC
  5
2EF
330
1F
100
AcDbEntity
  8
PROFILES_INSIDE
100
AcDbCircle
 10
6.0904911619
 20
10.2793412058
 30
0.0
 40
0.0393700787401581
100
AcDbArc
 50
347.5412418324
 51
60.0000140737
  0
ARC
  5
2F0
330
1F
100
AcDbEntity
  8
PROFILES_INSIDE
100
AcDbCircle
 10
5.9106555002
 20
10.3831693146
 30
0.0
 40
0.0393700787401583
100
AcDbArc
 50
60.0000140737
 51
132.4587635951
  0
ARC
  5
2F1
330
1F
100
AcDbEntity
  8
PROFILES_INSIDE
100
AcDbCircle
 10
5.7552456625
 20
10.5530146429
 30
0.0
 40
0.1908464566929151
100
AcDbArc
 50
124.7126028241
 51
312.4587635951
  0
ARC
  5
2F2
330
1F
100
AcDbEntity
  8
PROFILES_INSIDE
100
AcDbCircle
 10
5.6241464739
 20
10.7422569636
 30
0.0
 40
0.0393700787401576
100
AcDbArc
 50
304.7126028241
 51
330.0
  0
ARC
  5
2F3
330
1F
100
AcDbEntity
  8
PROFILES_OUTSIDE
100
AcDbCircle
 10
2.1457836406
 20
13.7033367468
 30
0.0
 40
0.7874015748031511
100
AcDbArc
 50
60.0
 51
180.0
  0
ARC
  5
2F4
330
1F
100
AcDbEntity
  8
PROFILES_OUTSIDE
100
AcDbCircle
 10
2.1457836406
 20
2.6514482548
 30
0.0
 40
0.7874015748031507
100
AcDbArc
 50
180.0
 51
300.0
  0
ARC
  5
2F5
330
1F
100
AcDbEntity
  8
PROFILES_OUTSIDE
100
AcDbCircle
 10
5.7503287455
 20
5.6417463637
 30
0.0
 40
1.5748031496063
100
AcDbArc
 50
300.0
 51
0.0
  0
ARC
  5
2F6
330
1F
100
AcDbEntity
  8
PROFILES_OUTSIDE
100
AcDbCircle
 10
5.7503287455
 20
10.7130386379
 30
0.0
 40
1.574803149606301
100
AcDbArc
 50
0.0
 51
60.0
  0
ARC
  5
2F7
330
1F
100
AcDbEntity
  8
PROFILES_INSIDE
100
AcDbCircle
 10
5.8774849785
 20
11.1810521251
 30
0.0
 40
0.0393700612421765
100
AcDbArc
 50
330.0
 51
355.287382376
  0
ARC
  5
2F8
330
1F
100
AcDbEntity
  8
PROFILES_INSIDE
100
AcDbCircle
 10
6.106923183
 20
11.1621380018
 30
0.0
 40
0.1908464396997256
100
AcDbArc
 50
347.5412418324
 51
175.287382376
  0
ARC
  5
2F9
330
1F
100
AcDbEntity
  8
PROFILES_INSIDE
100
AcDbCircle
 10
6.3317184756
 20
11.1124718198
 30
0.0
 40
0.0393700957333466
100
AcDbArc
 50
167.5412418324
 51
240.0000140737
  0
ARC
  5
2FA
330
1F
100
AcDbEntity
  8
PROFILES_INSIDE
100
AcDbCircle
 10
3.4961905485
 20
12.5558929911
 30
0.0
 40
0.0393705192937247
100
AcDbArc
 50
124.7126274202
 51
150.0
  0
ARC
  5
2FB
330
1F
100
AcDbEntity
  8
PROFILES_INSIDE
100
AcDbCircle
 10
3.3650910277
 20
12.7451356177
 30
0.0
 40
0.1908464566929145
100
AcDbArc
 50
304.7126274202
 51
132.4587635951
  0
ARC
  5
2FC
330
1F
100
AcDbEntity
  8
PROFILES_INSIDE
100
AcDbCircle
 10
3.2096811901
 20
12.9149809459
 30
0.0
 40
0.0393700787401613
100
AcDbArc
 50
240.0000140737
 51
312.4587635951
  0
ARC
  5
2FD
330
1F
100
AcDbEntity
  8
PROFILES_INSIDE
100
AcDbCircle
 10
3.0298455283
 20
13.0188090548
 30
0.0
 40
0.0393700880091672
100
AcDbArc
 50
167.5412418324
 51
240.0000140737
  0
ARC
  5
2FE
330
1F
100
AcDbEntity
  8
PROFILES_INSIDE
100
AcDbCircle
 10
2.8050502358
 20
13.0684752368
 30
0.0
 40
0.1908464474239049
100
AcDbArc
 50
347.5412418324
 51
175.287382376
  0
ARC
  5
2FF
330
1F
100
AcDbEntity
  8
PROFILES_INSIDE
100
AcDbCircle
 10
2.5756120312
 20
13.08738936
 30
0.0
 40
0.0393700596973416
100
AcDbArc
 50
330.0
 51
355.287382376
  0
ARC
  5
300
330
1F
100
AcDbEntity
  8
PROFILES_INSIDE
100
AcDbCircle
 10
2.3222735266
 20
12.6485941985
 30
0.0
 40
0.0393700787401587
100
AcDbArc
 50
304.7126028241
 51
330.0
  0
ARC
  5
301
330
1F
100
AcDbEntity
  8
PROFILES_INSIDE
100
AcDbCircle
 10
2.4533727153
 20
12.4593518778
 30
0.0
 40
0.1908464566929146
100
AcDbArc
 50
124.7126028241
 51
312.4587635951
  0
ARC
  5
302
330
1F
100
AcDbEntity
  8
PROFILES_INSIDE
100
AcDbCircle
 10
2.6087825529
 20
12.2895065496
 30
0.0
 40
0.0393700787401594
100
AcDbArc
 50
60.0000140737
 51
132.4587635951
  0
ARC
  5
303
330
1F
100
AcDbEntity
  8
PROFILES_INSIDE
100
AcDbCircle
 10
2.7886182147
 20
12.1856784407
 30
0.0
 40
0.0393700787401579
100
AcDbArc
 50
347.5412418324
 51
60.0000140737
  0
ARC
  5
304
330
1F
100
AcDbEntity
  8
PROFILES_INSIDE
100
AcDbCircle
 10
3.0134135072
 20
12.1360122587
 30
0.0
 40
0.1908464566929148
100
AcDbArc
 50
167.5412418324
 51
355.2874046152
  0
ARC
  5
305
330
1F
100
AcDbEntity
  8
PROFILES_INSIDE
100
AcDbCircle
 10
3.2428517612
 20
12.1170982211
 30
0.0
 40
0.0393700787401581
100
AcDbArc
 50
150.0
 51
175.2874046152
  0
ARC
  5
306
330
1F
100
AcDbEntity
  8
PROFILES_INSIDE
100
AcDbCircle
 10
6.6669639501
 20
5.5159866875
 30
0.0
 40
0.1908464566929143
100
AcDbArc
 50
227.5412418324
 51
55.2874046152
  0
ARC
  5
307
330
1F
100
AcDbEntity
  8
PROFILES_INSIDE
100
AcDbCircle
 10
6.7980631142
 20
5.7052290251
 30
0.0
 40
0.0393700787401603
100
AcDbArc
 50
210.0
 51
235.2874046152
  0
ARC
  5
308
330
1F
100
AcDbEntity
  8
PROFILES_INSIDE
100
AcDbCircle
 10
6.5447250899
 20
6.1440242357
 30
0.0
 40
0.0393705192937257
100
AcDbArc
 50
184.7126274202
 51
210.0
  0
ARC
  5
309
330
1F
100
AcDbEntity
  8
PROFILES_INSIDE
100
AcDbCircle
 10
6.3152864075
 20
6.1251100336
 30
0.0
 40
0.1908464566929145
100
AcDbArc
 50
4.7126274202
 51
192.4587635951
  0
ARC
  5
30A
330
1F
100
AcDbEntity
  8
PROFILES_INSIDE
100
AcDbCircle
 10
6.0904911197
 20
6.0754438303
 30
0.0
 40
0.0393700787401596
100
AcDbArc
 50
300.0000140737
 51
12.4587635951
  0
ARC
  5
30B
330
1F
100
AcDbEntity
  8
PROFILES_INSIDE
100
AcDbCircle
 10
5.9106555089
 20
5.9716156332
 30
0.0
 40
0.0393700864643325
100
AcDbArc
 50
227.5412418324
 51
300.0000140737
  0
ARC
  5
30C
330
1F
100
AcDbEntity
  8
PROFILES_INSIDE
100
AcDbCircle
 10
5.7552456873
 20
5.8017702901
 30
0.0
 40
0.1908464489687375
100
AcDbArc
 50
47.5412418324
 51
235.287382376
  0
ARC
  5
30D
330
1F
100
AcDbEntity
  8
PROFILES_INSIDE
100
AcDbCircle
 10
5.6241464739
 20
5.6125280381
 30
0.0
 40
0.0393700581525044
100
AcDbArc
 50
30.0
 51
55.287382376
  0
ARC
  5
30E
330
1F
100
AcDbEntity
  8
PROFILES_INSIDE
100
AcDbCircle
 10
5.8774849785
 20
5.1737328765
 30
0.0
 40
0.0393700787401583
100
AcDbArc
 50
4.7126028241
 51
30.0
  0
ARC
  5
30F
330
1F
100
AcDbEntity
  8
PROFILES_INSIDE
100
AcDbCircle
 10
6.10692323
 20
5.192646944
 30
0.0
 40
0.1908464566929136
100
AcDbArc
 50
184.7126028241
 51
12.4587635951
  0
ARC
  5
310
330
1F
100
AcDbEntity
  8
PROFILES_INSIDE
100
AcDbCircle
 10
6.3317185178
 20
5.2423131473
 30
0.0
 40
0.0393700787401559
100
AcDbArc
 50
120.0000140737
 51
192.4587635951
  0
ARC
  5
311
330
1F
100
AcDbEntity
  8
PROFILES_INSIDE
100
AcDbCircle
 10
6.5115541285
 20
5.3461413444
 30
0.0
 40
0.0393700787401574
100
AcDbArc
 50
47.5412418324
 51
120.0000140737
  0
ARC
  5
312
330
1F
100
AcDbEntity
  8
PROFILES_INSIDE
100
AcDbCircle
 10
2.5756120312
 20
3.2673956416
 30
0.0
 40
0.0393700787401573
100
AcDbArc
 50
4.7126028241
 51
30.0
  0
ARC
  5
313
330
1F
100
AcDbEntity
  8
PROFILES_INSIDE
100
AcDbCircle
 10
2.8050502827
 20
3.2863097091
 30
0.0
 40
0.1908464566929166
100
AcDbArc
 50
184.7126028241
 51
12.4587635951
  0
ARC
  5
314
330
1F
100
AcDbEntity
  8
PROFILES_INSIDE
100
AcDbCircle
 10
3.0298455706
 20
3.3359759124
 30
0.0
 40
0.0393700787401556
100
AcDbArc
 50
120.0000140737
 51
192.4587635951
  0
ARC
  5
315
330
1F
100
AcDbEntity
  8
PROFILES_INSIDE
100
AcDbCircle
 10
3.2096811813
 20
3.4398041095
 30
0.0
 40
0.0393700787401577
100
AcDbArc
 50
47.5412418324
 51
120.0000140737
  0
ARC
  5
316
330
1F
100
AcDbEntity
  8
PROFILES_INSIDE
100
AcDbCircle
 10
3.3650910029
 20
3.6096494525
 30
0.0
 40
0.1908464566929129
100
AcDbArc
 50
227.5412418324
 51
55.2874046152
  0
ARC
  5
317
330
1F
100
AcDbEntity
  8
PROFILES_INSIDE
100
AcDbCircle
 10
3.496190167
 20
3.7988917902
 30
0.0
 40
0.03937007874016
100
AcDbArc
 50
210.0
 51
235.2874046152
  0
ARC
  5
318
330
1F
100
AcDbEntity
  8
PROFILES_INSIDE
100
AcDbCircle
 10
3.2428521427
 20
4.2376870008
 30
0.0
 40
0.0393705192937247
100
AcDbArc
 50
184.7126274202
 51
210.0
  0
ARC
  5
319
330
1F
100
AcDbEntity
  8
PROFILES_INSIDE
100
AcDbCircle
 10
3.0134134603
 20
4.2187727987
 30
0.0
 40
0.1908464566929134
100
AcDbArc
 50
4.7126274202
 51
192.4587635951
  0
ARC
  5
31A
330
1F
100
AcDbEntity
  8
PROFILES_INSIDE
100
AcDbCircle
 10
2.7886181724
 20
4.1691065954
 30
0.0
 40
0.03937007874016
100
AcDbArc
 50
300.0000140737
 51
12.4587635951
  0
ARC
  5
31B
330
1F
100
AcDbEntity
  8
PROFILES_INSIDE
100
AcDbCircle
 10
2.6087825617
 20
4.0652783982
 30
0.0
 40
0.0393700802849929
100
AcDbArc
 50
227.5412418324
 51
300.0000140737
  0
ARC
  5
31C
330
1F
100
AcDbEntity
  8
PROFILES_INSIDE
100
AcDbCircle
 10
2.4533727401
 20
3.8954330552
 30
0.0
 40
0.1908464551480775
100
AcDbArc
 50
47.5412418324
 51
235.287382376
  0
ARC
  5
31D
330
1F
100
AcDbEntity
  8
PROFILES_INSIDE
100
AcDbCircle
 10
2.3222735266
 20
3.7061908031
 30
0.0
 40
0.039370061242172
100
AcDbArc
 50
30.0
 51
55.287382376
  0
ARC
  5
31E
330
1F
100
AcDbEntity
  8
PROFILES_INSIDE
100
AcDbCircle
 10
20.0139120635
 20
11.008643711
 30
0.0
 40
0.0393700787401564
100
AcDbArc
 50
240.0000140737
 51
312.4587635951
  0
ARC
  5
31F
330
1F
100
AcDbEntity
  8
PROFILES_INSIDE
100
AcDbCircle
 10
20.1693219011
 20
10.8387983827
 30
0.0
 40
0.1908464566929162
100
AcDbArc
 50
304.7126274202
 51
132.4587635951
  0
ARC
  5
320
330
1F
100
AcDbEntity
  8
PROFILES_INSIDE
100
AcDbCircle
 10
20.3004214219
 20
10.6495557562
 30
0.0
 40
0.0393705192937281
100
AcDbArc
 50
124.7126274202
 51
150.0
  0
ARC
  5
321
330
1F
100
AcDbEntity
  8
PROFILES_INSIDE
100
AcDbCircle
 10
20.0470826346
 20
10.2107609862
 30
0.0
 40
0.0393700787401593
100
AcDbArc
 50
150.0
 51
175.2874046152
  0
ARC
  5
322
330
1F
100
AcDbEntity
  8
PROFILES_INSIDE
100
AcDbCircle
 10
19.8176443806
 20
10.2296750238
 30
0.0
 40
0.190846456692914
100
AcDbArc
 50
167.5412418324
 51
355.2874046152
  0
ARC
  5
323
330
1F
100
AcDbEntity
  8
PROFILES_INSIDE
100
AcDbCircle
 10
19.5928490881
 20
10.2793412058
 30
0.0
 40
0.0393700787401592
100
AcDbArc
 50
347.5412418324
 51
60.0000140737
  0
ARC
  5
324
330
1F
100
AcDbEntity
  8
PROFILES_INSIDE
100
AcDbCircle
 10
19.4130134263
 20
10.3831693146
 30
0.0
 40
0.0393700787401612
100
AcDbArc
 50
60.0000140737
 51
132.4587635951
  0
ARC
  5
325
330
1F
100
AcDbEntity
  8
PROFILES_INSIDE
100
AcDbCircle
 10
19.2576035887
 20
10.5530146429
 30
0.0
 40
0.1908464566929131
100
AcDbArc
 50
124.7126028241
 51
312.4587635951
  0
ARC
  5
326
330
1F
100
AcDbEntity
  8
PROFILES_INSIDE
100
AcDbCircle
 10
19.1265044
 20
10.7422569636
 30
0.0
 40
0.0393700787401593
100
AcDbArc
 50
304.7126028241
 51
330.0
  0
ARC
  5
327
330
1F
100
AcDbEntity
  8
PROFILES_INSIDE
100
AcDbCircle
 10
19.3798429047
 20
11.1810521251
 30
0.0
 40
0.0393700612421758
100
AcDbArc
 50
330.0
 51
355.287382376
  0
ARC
  5
328
330
1F
100
AcDbEntity
  8
PROFILES_INSIDE
100
AcDbCircle
 10
19.6092811092
 20
11.1621380018
 30
0.0
 40
0.1908464396997273
100
AcDbArc
 50
347.5412418324
 51
175.287382376
  0
ARC
  5
329
330
1F
100
AcDbEntity
  8
PROFILES_INSIDE
100
AcDbCircle
 10
19.8340764017
 20
11.1124718198
 30
0.0
 40
0.0393700957333457
100
AcDbArc
 50
167.5412418324
 51
240.0000140737
  0
ARC
  5
32A
330
1F
100
AcDbEntity
  8
PROFILES_INSIDE
100
AcDbCircle
 10
17.0034786823
 20
12.5530465345
 30
0.0
 40
0.0393705192937283
100
AcDbArc
 50
124.7126274202
 51
150.0
  0
ARC
  5
32B
330
1F
100
AcDbEntity
  8
PROFILES_INSIDE
100
AcDbCircle
 10
16.8723791615
 20
12.742289161
 30
0.0
 40
0.1908464566929162
100
AcDbArc
 50
304.7126274202
 51
132.4587635951
  0
ARC
  5
32C
330
1F
100
AcDbEntity
  8
PROFILES_INSIDE
100
AcDbCircle
 10
16.7169693238
 20
12.9121344893
 30
0.0
 40
0.0393700787401577
100
AcDbArc
 50
240.0000140737
 51
312.4587635951
  0
ARC
  5
32D
330
1F
100
AcDbEntity
  8
PROFILES_INSIDE
100
AcDbCircle
 10
16.5371336621
 20
13.0159625981
 30
0.0
 40
0.0393700880091655
100
AcDbArc
 50
167.5412418324
 51
240.0000140737
  0
ARC
  5
32E
330
1F
100
AcDbEntity
  8
PROFILES_INSIDE
100
AcDbCircle
 10
16.3123383695
 20
13.0656287801
 30
0.0
 40
0.1908464474239066
100
AcDbArc
 50
347.5412418324
 51
175.287382376
  0
ARC
  5
32F
330
1F
100
AcDbEntity
  8
PROFILES_INSIDE
100
AcDbCircle
 10
16.082900165
 20
13.0845429033
 30
0.0
 40
0.0393700596973408
100
AcDbArc
 50
330.0
 51
355.287382376
  0
ARC
  5
330
330
1F
100
AcDbEntity
  8
PROFILES_INSIDE
100
AcDbCircle
 10
15.8295616604
 20
12.6457477418
 30
0.0
 40
0.0393700787401568
100
AcDbArc
 50
304.7126028241
 51
330.0
  0
ARC
  5
331
330
1F
100
AcDbEntity
  8
PROFILES_INSIDE
100
AcDbCircle
 10
15.960660849
 20
12.4565054211
 30
0.0
 40
0.1908464566929125
100
AcDbArc
 50
124.7126028241
 51
312.4587635951
  0
ARC
  5
332
330
1F
100
AcDbEntity
  8
PROFILES_INSIDE
100
AcDbCircle
 10
16.1160706867
 20
12.2866600929
 30
0.0
 40
0.0393700787401614
100
AcDbArc
 50
60.0000140737
 51
132.4587635951
  0
ARC
  5
333
330
1F
100
AcDbEntity
  8
PROFILES_INSIDE
100
AcDbCircle
 10
16.2959063485
 20
12.182831984
 30
0.0
 40
0.0393700787401573
100
AcDbArc
 50
347.5412418324
 51
60.0000140737
  0
ARC
  5
334
330
1F
100
AcDbEntity
  8
PROFILES_INSIDE
100
AcDbCircle
 10
16.520701641
 20
12.1331658021
 30
0.0
 40
0.1908464566929148
100
AcDbArc
 50
167.5412418324
 51
355.2874046152
  0
ARC
  5
335
330
1F
100
AcDbEntity
  8
PROFILES_INSIDE
100
AcDbCircle
 10
16.7501398949
 20
12.1142517644
 30
0.0
 40
0.0393700787401593
100
AcDbArc
 50
150.0
 51
175.2874046152
  0
ARC
  5
336
330
1F
100
AcDbEntity
  8
PROFILES_INSIDE
100
AcDbCircle
 10
20.1693218763
 20
5.5159866875
 30
0.0
 40
0.1908464566929144
100
AcDbArc
 50
227.5412418324
 51
55.2874046152
  0
ARC
  5
337
330
1F
100
AcDbEntity
  8
PROFILES_INSIDE
100
AcDbCircle
 10
20.3004210404
 20
5.7052290251
 30
0.0
 40
0.0393700787401588
100
AcDbArc
 50
210.0
 51
235.2874046152
  0
ARC
  5
338
330
1F
100
AcDbEntity
  8
PROFILES_INSIDE
100
AcDbCircle
 10
20.0470830161
 20
6.1440242357
 30
0.0
 40
0.0393705192937298
100
AcDbArc
 50
184.7126274202
 51
210.0
  0
ARC
  5
339
330
1F
100
AcDbEntity
  8
PROFILES_INSIDE
100
AcDbCircle
 10
19.8176443337
 20
6.1251100336
 30
0.0
 40
0.1908464566929145
100
AcDbArc
 50
4.7126274202
 51
192.4587635951
  0
ARC
  5
33A
330
1F
100
AcDbEntity
  8
PROFILES_INSIDE
100
AcDbCircle
 10
19.5928490458
 20
6.0754438303
 30
0.0
 40
0.0393700787401579
100
AcDbArc
 50
300.0000140737
 51
12.4587635951
  0
ARC
  5
33B
330
1F
100
AcDbEntity
  8
PROFILES_INSIDE
100
AcDbCircle
 10
19.4130134351
 20
5.9716156332
 30
0.0
 40
0.039370086464333
100
AcDbArc
 50
227.5412418324
 51
300.0000140737
  0
ARC
  5
33C
330
1F
100
AcDbEntity
  8
PROFILES_INSIDE
100
AcDbCircle
 10
19.2576036135
 20
5.8017702901
 30
0.0
 40
0.1908464489687371
100
AcDbArc
 50
47.5412418324
 51
235.287382376
  0
ARC
  5
33D
330
1F
100
AcDbEntity
  8
PROFILES_INSIDE
100
AcDbCircle
 10
19.1265044
 20
5.6125280381
 30
0.0
 40
0.0393700581525045
100
AcDbArc
 50
30.0
 51
55.287382376
  0
ARC
  5
33E
330
1F
100
AcDbEntity
  8
PROFILES_INSIDE
100
AcDbCircle
 10
19.3798429047
 20
5.1737328765
 30
0.0
 40
0.0393700787401588
100
AcDbArc
 50
4.7126028241
 51
30.0
  0
ARC
  5
33F
330
1F
100
AcDbEntity
  8
PROFILES_INSIDE
100
AcDbCircle
 10
19.6092811561
 20
5.192646944
 30
0.0
 40
0.1908464566929171
100
AcDbArc
 50
184.7126028241
 51
12.4587635951
  0
ARC
  5
340
330
1F
100
AcDbEntity
  8
PROFILES_INSIDE
100
AcDbCircle
 10
19.834076444
 20
5.2423131473
 30
0.0
 40
0.0393700787401584
100
AcDbArc
 50
120.0000140737
 51
192.4587635951
  0
ARC
  5
341
330
1F
100
AcDbEntity
  8
PROFILES_INSIDE
100
AcDbCircle
 10
20.0139120547
 20
5.3461413444
 30
0.0
 40
0.0393700787401602
100
AcDbArc
 50
47.5412418324
 51
120.0000140737
  0
ARC
  5
342
330
1F
100
AcDbEntity
  8
PROFILES_INSIDE
100
AcDbCircle
 10
16.082900165
 20
3.2702420983
 30
0.0
 40
0.0393700787401592
100
AcDbArc
 50
4.7126028241
 51
30.0
  0
ARC
  5
343
330
1F
100
AcDbEntity
  8
PROFILES_INSIDE
100
AcDbCircle
 10
16.3123384165
 20
3.2891561658
 30
0.0
 40
0.1908464566929146
100
AcDbArc
 50
184.7126028241
 51
12.4587635951
  0
ARC
  5
344
330
1F
100
AcDbEntity
  8
PROFILES_INSIDE
100
AcDbCircle
 10
16.5371337043
 20
3.338822369
 30
0.0
 40
0.0393700787401565
100
AcDbArc
 50
120.0000140737
 51
192.4587635951
  0
ARC
  5
345
330
1F
100
AcDbEntity
  8
PROFILES_INSIDE
100
AcDbCircle
 10
16.7169693151
 20
3.4426505662
 30
0.0
 40
0.0393700787401582
100
AcDbArc
 50
47.5412418324
 51
120.0000140737
  0
ARC
  5
346
330
1F
100
AcDbEntity
  8
PROFILES_INSIDE
100
AcDbCircle
 10
16.8723791367
 20
3.6124959092
 30
0.0
 40
0.1908464566929123
100
AcDbArc
 50
227.5412418324
 51
55.2874046152
  0
ARC
  5
347
330
1F
100
AcDbEntity
  8
PROFILES_INSIDE
100
AcDbCircle
 10
17.0034783007
 20
3.8017382469
 30
0.0
 40
0.0393700787401579
100
AcDbArc
 50
210.0
 51
235.2874046152
  0
ARC
  5
348
330
1F
100
AcDbEntity
  8
PROFILES_INSIDE
100
AcDbCircle
 10
16.7501402765
 20
4.2405334575
 30
0.0
 40
0.0393705192937262
100
AcDbArc
 50
184.7126274202
 51
210.0
  0
ARC
  5
349
330
1F
100
AcDbEntity
  8
PROFILES_INSIDE
100
AcDbCircle
 10
16.5207015941
 20
4.2216192554
 30
0.0
 40
0.1908464566929151
100
AcDbArc
 50
4.7126274202
 51
192.4587635951
  0
ARC
  5
34A
330
1F
100
AcDbEntity
  8
PROFILES_INSIDE
100
AcDbCircle
 10
16.2959063062
 20
4.1719530521
 30
0.0
 40
0.0393700787401586
100
AcDbArc
 50
300.0000140737
 51
12.4587635951
  0
ARC
  5
34B
330
1F
100
AcDbEntity
  8
PROFILES_INSIDE
100
AcDbCircle
 10
16.1160706955
 20
4.0681248549
 30
0.0
 40
0.0393700802849929
100
AcDbArc
 50
227.5412418324
 51
300.0000140737
  0
ARC
  5
34C
330
1F
100
AcDbEntity
  8
PROFILES_INSIDE
100
AcDbCircle
 10
15.9606608739
 20
3.8982795119
 30
0.0
 40
0.1908464551480771
100
AcDbArc
 50
47.5412418324
 51
235.287382376
  0
ARC
  5
34D
330
1F
100
AcDbEntity
  8
PROFILES_INSIDE
100
AcDbCircle
 10
15.8295616604
 20
3.7090372598
 30
0.0
 40
0.0393700612421758
100
AcDbArc
 50
30.0
 51
55.287382376
  0
ARC
  5
34E
330
1F
100
AcDbEntity
  8
POCKETS
100
AcDbCircle
 10
15.3620059746
 20
12.7560063924
 30
0.0
 40
0.1908464566929144
100
AcDbArc
 50
347.5412391186
 51
175.2874008956
  0
ARC
  5
34F
330
1F
100
AcDbEntity
  8
POCKETS
100
AcDbCircle
 10
15.1325677219
 20
12.774920445
 30
0.0
 40
0.0393700787401586
100
AcDbArc
 50
330.0
 51
355.2874008956
  0
ARC
  5
350
330
1F
100
AcDbEntity
  8
POCKETS
100
AcDbCircle
 10
14.8725363533
 20
12.324532903
 30
0.0
 40
0.0393700787401586
100
AcDbArc
 50
304.7125991044
 51
330.0
  0
ARC
  5
351
330
1F
100
AcDbEntity
  8
POCKETS
100
AcDbCircle
 10
15.0036355297
 20
12.1352905739
 30
0.0
 40
0.1908464566929152
100
AcDbArc
 50
124.7125991044
 51
312.4587608814
  0
ARC
  5
352
330
1F
100
AcDbEntity
  8
POCKETS
100
AcDbCircle
 10
15.1590453593
 20
11.9654452382
 30
0.0
 40
0.0393700787401586
100
AcDbArc
 50
60.0
 51
132.4587608814
  0
ARC
  5
353
330
1F
100
AcDbEntity
  8
POCKETS
100
AcDbCircle
 10
15.1590453593
 20
4.3893397634
 30
0.0
 40
0.0393700787401567
100
AcDbArc
 50
227.5412391186
 51
300.0
  0
ARC
  5
354
330
1F
100
AcDbEntity
  8
POCKETS
100
AcDbCircle
 10
15.0036355297
 20
4.2194944278
 30
0.0
 40
0.1908464566929143
100
AcDbArc
 50
47.5412391186
 51
235.2874008956
  0
ARC
  5
355
330
1F
100
AcDbEntity
  8
POCKETS
100
AcDbCircle
 10
14.8725363533
 20
4.0302520986
 30
0.0
 40
0.0393700787401573
100
AcDbArc
 50
30.0
 51
55.2874008956
  0
ARC
  5
356
330
1F
100
AcDbEntity
  8
PROFILES_OUTSIDE
100
AcDbCircle
 10
10.4688326825
 20
5.6417236334
 30
0.0
 40
1.5748031496063
100
AcDbArc
 50
180.0
 51
240.0
  0
ARC
  5
357
330
1F
100
AcDbEntity
  8
PROFILES_OUTSIDE
100
AcDbCircle
 10
10.4688326825
 20
10.7130613682
 30
0.0
 40
1.5748031496063
100
AcDbArc
 50
120.0
 51
180.0
  0
ARC
  5
358
330
1F
100
AcDbEntity
  8
POCKETS
100
AcDbCircle
 10
15.1325677219
 20
3.5798645566
 30
0.0
 40
0.0393700787401593
100
AcDbArc
 50
4.7125991044
 51
30.0
  0
ARC
  5
359
330
1F
100
AcDbEntity
  8
POCKETS
100
AcDbCircle
 10
15.3620059746
 20
3.5987786092
 30
0.0
 40
0.1908464566929143
100
AcDbArc
 50
184.7125991044
 51
12.4587608814
  0
ARC
  5
35A
330
1F
100
AcDbEntity
  8
POCKETS
100
AcDbCircle
 10
15.5868012648
 20
3.6484448018
 30
0.0
 40
0.0393700787401566
100
AcDbArc
 50
120.0
 51
192.4587608814
  0
ARC
  5
35B
330
1F
100
AcDbEntity
  8
POCKETS
100
AcDbCircle
 10
15.5868012648
 20
12.7063401998
 30
0.0
 40
0.0393700787401601
100
AcDbArc
 50
167.5412391186
 51
240.0
  0
ARC
  5
35C
330
1F
100
AcDbEntity
  8
PROFILES_OUTSIDE
100
AcDbCircle
 10
14.860739992
 20
13.2487302356
 30
0.0
 40
1.5748031496063
100
AcDbArc
 50
60.0
 51
120.0
  0
ARC
  5
35D
330
1F
100
AcDbEntity
  8
PROFILES_OUTSIDE
100
AcDbCircle
 10
19.2526473015
 20
10.7130613682
 30
0.0
 40
1.574803149606302
100
AcDbArc
 50
0.0
 51
60.0
  0
ARC
  5
35E
330
1F
100
AcDbEntity
  8
PROFILES_OUTSIDE
100
AcDbCircle
 10
19.2526473015
 20
5.6417236334
 30
0.0
 40
1.574803149606299
100
AcDbArc
 50
300.0
 51
0.0
  0
ARC
  5
35F
330
1F
100
AcDbEntity
  8
PROFILES_OUTSIDE
100
AcDbCircle
 10
14.860739992
 20
3.106054766
 30
0.0
 40
1.5748031496063
100
AcDbArc
 50
240.0
 51
300.0
  0
ARC
  5
360
330
1F
100
AcDbEntity
  8
PROFILES_OUTSIDE
100
AcDbCircle
 10
37.7325605599
 20
6.5373110651
 30
0.0
 40
0.0393700787401574
100
AcDbArc
 50
64.7125991044
 51
90.0
  0
ARC
  5
361
330
1F
100
AcDbEntity
  8
PROFILES_OUTSIDE
100
AcDbCircle
 10
37.8308996362
 20
6.7454674469
 30
0.0
 40
0.1908464566929162
100
AcDbArc
 50
244.7125991044
 51
72.4587608814
  0
ARC
  5
362
330
1F
100
AcDbEntity
  8
PROFILES_OUTSIDE
100
AcDbCircle
 10
37.9002850968
 20
6.9649789751
 30
0.0
 40
0.0393700787401556
100
AcDbArc
 50
180.0
 51
252.4587608814
  0
ARC
  5
363
330
1F
100
AcDbEntity
  8
PROFILES_OUTSIDE
100
AcDbCircle
 10
39.744871711
 20
6.8780394116
 30
0.0
 40
0.1908464566929133
100
AcDbArc
 50
0.0
 51
90.0
  0
ARC
  5
364
330
1F
100
AcDbEntity
  8
PROFILES_OUTSIDE
100
AcDbCircle
 10
40.1265646244
 20
5.269004877
 30
0.0
 40
0.1908464566929133
100
AcDbArc
 50
180.0
 51
270.0
  0
ARC
  5
365
330
1F
100
AcDbEntity
  8
PROFILES_OUTSIDE
100
AcDbCircle
 10
40.5165252543
 20
5.269004877
 30
0.0
 40
0.1908464566929169
100
AcDbArc
 50
270.0
 51
0.0
  0
ARC
  5
366
330
1F
100
AcDbEntity
  8
PROFILES_OUTSIDE
100
AcDbCircle
 10
40.8982181677
 20
6.8780394116
 30
0.0
 40
0.1908464566929133
100
AcDbArc
 50
90.0
 51
180.0
  0
ARC
  5
367
330
1F
100
AcDbEntity
  8
PROFILES_OUTSIDE
100
AcDbCircle
 10
42.7428047819
 20
6.9649789751
 30
0.0
 40
0.0393700787401575
100
AcDbArc
 50
287.5412391186
 51
0.0
  0
ARC
  5
368
330
1F
100
AcDbEntity
  8
PROFILES_OUTSIDE
100
AcDbCircle
 10
42.8121902424
 20
6.7454674469
 30
0.0
 40
0.1908464566929158
100
AcDbArc
 50
107.5412391186
 51
295.2874008956
  0
ARC
  5
369
330
1F
100
AcDbEntity
  8
PROFILES_OUTSIDE
100
AcDbCircle
 10
42.9105293188
 20
6.5373110651
 30
0.0
 40
0.0393700787401574
100
AcDbArc
 50
90.0
 51
115.2874008956
  0
ARC
  5
36A
330
1F
100
AcDbEntity
  8
PROFILES_OUTSIDE
100
AcDbCircle
 10
43.7270567504
 20
6.7833740573
 30
0.0
 40
0.0393700787401574
100
AcDbArc
 50
0.0
 51
90.0
  0
ARC
  5
36B
330
1F
100
AcDbEntity
  8
PROFILES_OUTSIDE
100
AcDbCircle
 10
43.5302063567
 20
6.3207756321
 30
0.0
 40
0.2362204724409445
100
AcDbArc
 50
270.0
 51
0.0
  0
ARC
  5
36C
330
1F
100
AcDbEntity
  8
PROFILES_OUTSIDE
100
AcDbCircle
 10
41.4435921834
 20
5.8483346872
 30
0.0
 40
0.2362204724409454
100
AcDbArc
 50
90.0
 51
180.0
  0
ARC
  5
36D
330
1F
100
AcDbEntity
  8
PROFILES_OUTSIDE
100
AcDbCircle
 10
40.707371711
 20
5.0781584203
 30
0.0
 40
0.5
100
AcDbArc
 50
300.0
 51
0.0
  0
ARC
  5
36E
330
1F
100
AcDbEntity
  8
PROFILES_OUTSIDE
100
AcDbCircle
 10
41.207371711
 20
4.2121330166
 30
0.0
 40
0.5000000000000022
100
AcDbArc
 50
120.0
 51
180.0
  0
ARC
  5
36F
330
1F
100
AcDbEntity
  8
PROFILES_OUTSIDE
100
AcDbCircle
 10
41.207371711
 20
4.1443028329
 30
0.0
 40
0.5000000000000022
100
AcDbArc
 50
180.0
 51
240.0
  0
ARC
  5
370
330
1F
100
AcDbEntity
  8
PROFILES_OUTSIDE
100
AcDbCircle
 10
40.707371711
 20
3.2782774291
 30
0.0
 40
0.5
100
AcDbArc
 50
0.0
 51
60.0
  0
ARC
  5
371
330
1F
100
AcDbEntity
  8
PROFILES_OUTSIDE
100
AcDbCircle
 10
41.4435921834
 20
2.5081011622
 30
0.0
 40
0.2362204724409471
100
AcDbArc
 50
180.0
 51
270.0
  0
ARC
  5
372
330
1F
100
AcDbEntity
  8
PROFILES_OUTSIDE
100
AcDbCircle
 10
43.5302063567
 20
2.0356602173
 30
0.0
 40
0.2362204724409454
100
AcDbArc
 50
0.0
 51
90.0
  0
ARC
  5
373
330
1F
100
AcDbEntity
  8
PROFILES_OUTSIDE
100
AcDbCircle
 10
43.7270567504
 20
1.5730617922
 30
0.0
 40
0.0393700787401574
100
AcDbArc
 50
270.0
 51
0.0
  0
ARC
  5
374
330
1F
100
AcDbEntity
  8
PROFILES_OUTSIDE
100
AcDbCircle
 10
42.9105293188
 20
1.8191247843
 30
0.0
 40
0.0393700787401574
100
AcDbArc
 50
244.7125991044
 51
270.0
  0
ARC
  5
375
330
1F
100
AcDbEntity
  8
PROFILES_OUTSIDE
100
AcDbCircle
 10
42.8121902424
 20
1.6109684026
 30
0.0
 40
0.1908464566929158
100
AcDbArc
 50
64.7125991044
 51
252.4587608814
  0
ARC
  5
376
330
1F
100
AcDbEntity
  8
PROFILES_OUTSIDE
100
AcDbCircle
 10
42.7428047819
 20
1.3914568743
 30
0.0
 40
0.0393700787401551
100
AcDbArc
 50
0.0
 51
72.4587608814
  0
ARC
  5
377
330
1F
100
AcDbEntity
  8
PROFILES_OUTSIDE
100
AcDbCircle
 10
40.8982181677
 20
1.4783964378
 30
0.0
 40
0.1908464566929136
100
AcDbArc
 50
180.0
 51
270.0
  0
ARC
  5
378
330
1F
100
AcDbEntity
  8
PROFILES_OUTSIDE
100
AcDbCircle
 10
40.5165252543
 20
3.0874309724
 30
0.0
 40
0.1908464566929169
100
AcDbArc
 50
0.0
 51
90.0
  0
ARC
  5
379
330
1F
100
AcDbEntity
  8
PROFILES_OUTSIDE
100
AcDbCircle
 10
40.1265646244
 20
3.0874309724
 30
0.0
 40
0.1908464566929138
100
AcDbArc
 50
90.0
 51
180.0
  0
ARC
  5
37A
330
1F
100
AcDbEntity
  8
PROFILES_OUTSIDE
100
AcDbCircle
 10
39.744871711
 20
1.4783964378
 30
0.0
 40
0.1908464566929136
100
AcDbArc
 50
270.0
 51
0.0
  0
ARC
  5
37B
330
1F
100
AcDbEntity
  8
PROFILES_OUTSIDE
100
AcDbCircle
 10
37.9002850968
 20
1.3914568743
 30
0.0
 40
0.0393700787401594
100
AcDbArc
 50
107.5412391186
 51
180.0
  0
ARC
  5
37C
330
1F
100
AcDbEntity
  8
PROFILES_OUTSIDE
100
AcDbCircle
 10
37.8308996362
 20
1.6109684026
 30
0.0
 40
0.1908464566929128
100
AcDbArc
 50
287.5412391186
 51
115.2874008956
  0
ARC
  5
37D
330
1F
100
AcDbEntity
  8
PROFILES_OUTSIDE
100
AcDbCircle
 10
37.7325605599
 20
1.8191247843
 30
0.0
 40
0.0393700787401574
100
AcDbArc
 50
270.0
 51
295.2874008956
  0
ARC
  5
37E
330
1F
100
AcDbEntity
  8
PROFILES_OUTSIDE
100
AcDbCircle
 10
36.9160331283
 20
1.5730617922
 30
0.0
 40
0.0393700787401627
100
AcDbArc
 50
180.0
 51
270.0
  0
ARC
  5
37F
330
1F
100
AcDbEntity
  8
PROFILES_OUTSIDE
100
AcDbCircle
 10
37.112883522
 20
2.0356602173
 30
0.0
 40
0.236220472440948
100
AcDbArc
 50
90.0
 51
180.0
  0
ARC
  5
380
330
1F
100
AcDbEntity
  8
PROFILES_OUTSIDE
100
AcDbCircle
 10
39.1994976952
 20
2.5081011622
 30
0.0
 40
0.236220472440948
100
AcDbArc
 50
270.0
 51
0.0
  0
ARC
  5
381
330
1F
100
AcDbEntity
  8
PROFILES_OUTSIDE
100
AcDbCircle
 10
39.9357181677
 20
3.2782774291
 30
0.0
 40
0.5000000000000007
100
AcDbArc
 50
120.0
 51
180.0
  0
ARC
  5
382
330
1F
100
AcDbEntity
  8
PROFILES_OUTSIDE
100
AcDbCircle
 10
39.4357181677
 20
4.1443028329
 30
0.0
 40
0.5000000000000013
100
AcDbArc
 50
300.0
 51
0.0
  0
ARC
  5
383
330
1F
100
AcDbEntity
  8
PROFILES_OUTSIDE
100
AcDbCircle
 10
39.4357181677
 20
4.2121330166
 30
0.0
 40
0.4999999999999952
100
AcDbArc
 50
0.0
 51
60.0
  0
ARC
  5
384
330
1F
100
AcDbEntity
  8
PROFILES_OUTSIDE
100
AcDbCircle
 10
39.9357181677
 20
5.0781584203
 30
0.0
 40
0.500000000000001
100
AcDbArc
 50
180.0
 51
240.0
  0
ARC
  5
385
330
1F
100
AcDbEntity
  8
PROFILES_OUTSIDE
100
AcDbCircle
 10
39.1994976952
 20
5.8483346872
 30
0.0
 40
0.236220472440948
100
AcDbArc
 50
0.0
 51
90.0
  0
ARC
  5
386
330
1F
100
AcDbEntity
  8
PROFILES_OUTSIDE
100
AcDbCircle
 10
37.112883522
 20
6.3207756321
 30
0.0
 40
0.236220472440948
100
AcDbArc
 50
180.0
 51
270.0
  0
ARC
  5
387
330
1F
100
AcDbEntity
  8
PROFILES_OUTSIDE
100
AcDbCircle
 10
36.9160331283
 20
6.7833740573
 30
0.0
 40
0.0393700787401627
100
AcDbArc
 50
90.0
 51
180.0
  0
ARC
  5
388
330
1F
100
AcDbEntity
  8
PROFILES_OUTSIDE
100
AcDbCircle
 10
42.9105293188
 20
9.1692008289
 30
0.0
 40
0.0393700787401574
100
AcDbArc
 50
244.7125991044
 51
270.0
  0
ARC
  5
389
330
1F
100
AcDbEntity
  8
PROFILES_OUTSIDE
100
AcDbCircle
 10
42.8121902424
 20
8.9610444472
 30
0.0
 40
0.1908464566929158
100
AcDbArc
 50
64.7125991044
 51
252.4587608814
  0
ARC
  5
38A
330
1F
100
AcDbEntity
  8
PROFILES_OUTSIDE
100
AcDbCircle
 10
42.7428047819
 20
8.7415329189
 30
0.0
 40
0.0393700787401558
100
AcDbArc
 50
0.0
 51
72.4587608814
  0
ARC
  5
38B
330
1F
100
AcDbEntity
  8
PROFILES_OUTSIDE
100
AcDbCircle
 10
40.8982181677
 20
8.8284724825
 30
0.0
 40
0.1908464566929169
100
AcDbArc
 50
180.0
 51
270.0
  0
ARC
  5
38C
330
1F
100
AcDbEntity
  8
PROFILES_OUTSIDE
100
AcDbCircle
 10
40.5165252543
 20
10.437507017
 30
0.0
 40
0.1908464566929116
100
AcDbArc
 50
0.0
 51
90.0
  0
ARC
  5
38D
330
1F
100
AcDbEntity
  8
PROFILES_OUTSIDE
100
AcDbCircle
 10
40.1265646244
 20
10.437507017
 30
0.0
 40
0.1908464566929169
100
AcDbArc
 50
90.0
 51
180.0
  0
ARC
  5
38E
330
1F
100
AcDbEntity
  8
PROFILES_OUTSIDE
100
AcDbCircle
 10
39.744871711
 20
8.8284724825
 30
0.0
 40
0.1908464566929133
100
AcDbArc
 50
270.0
 51
0.0
  0
ARC
  5
38F
330
1F
100
AcDbEntity
  8
PROFILES_OUTSIDE
100
AcDbCircle
 10
37.9002850968
 20
8.7415329189
 30
0.0
 40
0.0393700787401596
100
AcDbArc
 50
107.5412391186
 51
180.0
  0
ARC
  5
390
330
1F
100
AcDbEntity
  8
PROFILES_OUTSIDE
100
AcDbCircle
 10
37.8308996362
 20
8.9610444472
 30
0.0
 40
0.1908464566929128
100
AcDbArc
 50
287.5412391186
 51
115.2874008956
  0
ARC
  5
391
330
1F
100
AcDbEntity
  8
PROFILES_OUTSIDE
100
AcDbCircle
 10
37.7325605599
 20
9.1692008289
 30
0.0
 40
0.0393700787401574
100
AcDbArc
 50
270.0
 51
295.2874008956
  0
ARC
  5
392
330
1F
100
AcDbEntity
  8
PROFILES_OUTSIDE
100
AcDbCircle
 10
36.9160331283
 20
8.9231378368
 30
0.0
 40
0.0393700787401574
100
AcDbArc
 50
180.0
 51
270.0
  0
ARC
  5
393
330
1F
100
AcDbEntity
  8
PROFILES_OUTSIDE
100
AcDbCircle
 10
37.112883522
 20
9.385736262
 30
0.0
 40
0.2362204724409445
100
AcDbArc
 50
90.0
 51
180.0
  0
ARC
  5
394
330
1F
100
AcDbEntity
  8
PROFILES_OUTSIDE
100
AcDbCircle
 10
39.1994976952
 20
9.8581772069
 30
0.0
 40
0.2362204724409462
100
AcDbArc
 50
270.0
 51
0.0
  0
ARC
  5
395
330
1F
100
AcDbEntity
  8
PROFILES_OUTSIDE
100
AcDbCircle
 10
39.9357181677
 20
10.6283534737
 30
0.0
 40
0.4999999999999974
100
AcDbArc
 50
120.0
 51
180.0
  0
ARC
  5
396
330
1F
100
AcDbEntity
  8
PROFILES_OUTSIDE
100
AcDbCircle
 10
39.4357181677
 20
11.4943788775
 30
0.0
 40
0.4999999999999995
100
AcDbArc
 50
300.0
 51
0.0
  0
ARC
  5
397
330
1F
100
AcDbEntity
  8
PROFILES_OUTSIDE
100
AcDbCircle
 10
39.4357181677
 20
11.5622090612
 30
0.0
 40
0.4999999999999979
100
AcDbArc
 50
0.0
 51
60.0
  0
ARC
  5
398
330
1F
100
AcDbEntity
  8
PROFILES_OUTSIDE
100
AcDbCircle
 10
39.9357181677
 20
12.428234465
 30
0.0
 40
0.4999999999999959
100
AcDbArc
 50
180.0
 51
240.0
  0
ARC
  5
399
330
1F
100
AcDbEntity
  8
PROFILES_OUTSIDE
100
AcDbCircle
 10
39.1994976952
 20
13.1984107318
 30
0.0
 40
0.236220472440948
100
AcDbArc
 50
0.0
 51
90.0
  0
ARC
  5
39A
330
1F
100
AcDbEntity
  8
PROFILES_OUTSIDE
100
AcDbCircle
 10
37.112883522
 20
13.6708516767
 30
0.0
 40
0.2362204724409462
100
AcDbArc
 50
180.0
 51
270.0
  0
ARC
  5
39B
330
1F
100
AcDbEntity
  8
PROFILES_OUTSIDE
100
AcDbCircle
 10
36.9160331283
 20
14.1334501019
 30
0.0
 40
0.0393700787401574
100
AcDbArc
 50
90.0
 51
180.0
  0
ARC
  5
39C
330
1F
100
AcDbEntity
  8
PROFILES_OUTSIDE
100
AcDbCircle
 10
37.7325605599
 20
13.8873871098
 30
0.0
 40
0.0393700787401596
100
AcDbArc
 50
64.7125991044
 51
90.0
  0
ARC
  5
39D
330
1F
100
AcDbEntity
  8
PROFILES_OUTSIDE
100
AcDbCircle
 10
37.8308996362
 20
14.0955434915
 30
0.0
 40
0.1908464566929128
100
AcDbArc
 50
244.7125991044
 51
72.4587608814
  0
ARC
  5
39E
330
1F
100
AcDbEntity
  8
PROFILES_OUTSIDE
100
AcDbCircle
 10
37.9002850968
 20
14.3150550198
 30
0.0
 40
0.0393700787401562
100
AcDbArc
 50
180.0
 51
252.4587608814
  0
ARC
  5
39F
330
1F
100
AcDbEntity
  8
PROFILES_OUTSIDE
100
AcDbCircle
 10
39.744871711
 20
14.2281154563
 30
0.0
 40
0.1908464566929133
100
AcDbArc
 50
0.0
 51
90.0
  0
ARC
  5
3A0
330
1F
100
AcDbEntity
  8
PROFILES_OUTSIDE
100
AcDbCircle
 10
40.1265646244
 20
12.6190809217
 30
0.0
 40
0.1908464566929169
100
AcDbArc
 50
180.0
 51
270.0
  0
ARC
  5
3A1
330
1F
100
AcDbEntity
  8
PROFILES_OUTSIDE
100
AcDbCircle
 10
40.5165252543
 20
12.6190809217
 30
0.0
 40
0.1908464566929133
100
AcDbArc
 50
270.0
 51
0.0
  0
ARC
  5
3A2
330
1F
100
AcDbEntity
  8
PROFILES_OUTSIDE
100
AcDbCircle
 10
40.8982181677
 20
14.2281154563
 30
0.0
 40
0.1908464566929133
100
AcDbArc
 50
90.0
 51
180.0
  0
ARC
  5
3A3
330
1F
100
AcDbEntity
  8
PROFILES_OUTSIDE
100
AcDbCircle
 10
42.7428047819
 20
14.3150550198
 30
0.0
 40
0.0393700787401541
100
AcDbArc
 50
287.5412391186
 51
0.0
  0
ARC
  5
3A4
330
1F
100
AcDbEntity
  8
PROFILES_OUTSIDE
100
AcDbCircle
 10
42.8121902424
 20
14.0955434915
 30
0.0
 40
0.1908464566929145
100
AcDbArc
 50
107.5412391186
 51
295.2874008956
  0
ARC
  5
3A5
330
1F
100
AcDbEntity
  8
PROFILES_OUTSIDE
100
AcDbCircle
 10
42.9105293188
 20
13.8873871098
 30
0.0
 40
0.0393700787401594
100
AcDbArc
 50
90.0
 51
115.2874008956
  0
ARC
  5
3A6
330
1F
100
AcDbEntity
  8
PROFILES_OUTSIDE
100
AcDbCircle
 10
43.7270567504
 20
14.1334501019
 30
0.0
 40
0.0393700787401574
100
AcDbArc
 50
0.0
 51
90.0
  0
ARC
  5
3A7
330
1F
100
AcDbEntity
  8
PROFILES_OUTSIDE
100
AcDbCircle
 10
43.5302063567
 20
13.6708516767
 30
0.0
 40
0.2362204724409445
100
AcDbArc
 50
270.0
 51
0.0
  0
ARC
  5
3A8
330
1F
100
AcDbEntity
  8
PROFILES_OUTSIDE
100
AcDbCircle
 10
41.4435921834
 20
13.1984107318
 30
0.0
 40
0.2362204724409462
100
AcDbArc
 50
90.0
 51
180.0
  0
ARC
  5
3A9
330
1F
100
AcDbEntity
  8
PROFILES_OUTSIDE
100
AcDbCircle
 10
40.707371711
 20
12.428234465
 30
0.0
 40
0.5000000000000071
100
AcDbArc
 50
300.0
 51
0.0
  0
ARC
  5
3AA
330
1F
100
AcDbEntity
  8
PROFILES_OUTSIDE
100
AcDbCircle
 10
41.207371711
 20
11.5622090612
 30
0.0
 40
0.5000000000000006
100
AcDbArc
 50
120.0
 51
180.0
  0
ARC
  5
3AB
330
1F
100
AcDbEntity
  8
PROFILES_OUTSIDE
100
AcDbCircle
 10
41.207371711
 20
11.4943788775
 30
0.0
 40
0.5
100
AcDbArc
 50
180.0
 51
240.0
  0
ARC
  5
3AC
330
1F
100
AcDbEntity
  8
PROFILES_OUTSIDE
100
AcDbCircle
 10
40.707371711
 20
10.6283534737
 30
0.0
 40
0.5000000000000014
100
AcDbArc
 50
0.0
 51
60.0
  0
ARC
  5
3AD
330
1F
100
AcDbEntity
  8
PROFILES_OUTSIDE
100
AcDbCircle
 10
41.4435921834
 20
9.8581772069
 30
0.0
 40
0.2362204724409445
100
AcDbArc
 50
180.0
 51
270.0
  0
ARC
  5
3AE
330
1F
100
AcDbEntity
  8
PROFILES_OUTSIDE
100
AcDbCircle
 10
43.5302063567
 20
9.385736262
 30
0.0
 40
0.2362204724409445
100
AcDbArc
 50
0.0
 51
90.0
  0
ARC
  5
3AF
330
1F
100
AcDbEntity
  8
PROFILES_OUTSIDE
100
AcDbCircle
 10
43.7270567504
 20
8.9231378368
 30
0.0
 40
0.0393700787401574
100
AcDbArc
 50
270.0
 51
0.0
  0
ENDSEC
  0
SECTION
  2
OBJECTS
  0
DICTIONARY
  5
C
330
0
100
AcDbDictionary
  3
ACAD_GROUP
350
D
  3
ACAD_MLINESTYLE
350
17
  3
ACAD_SCALELIST
350
47
  0
DICTIONARY
  5
D
102
{ACAD_REACTORS
330
C
102
}
330
C
100
AcDbDictionary
  0
DICTIONARY
  5
17
102
{ACAD_REACTORS
330
C
102
}
330
C
100
AcDbDictionary
  3
STANDARD
350
18
  0
DICTIONARY
  5
47
102
{ACAD_REACTORS
330
C
102
}
330
C
100
AcDbDictionary
  0
MLINESTYLE
  5
18
102
{ACAD_REACTORS
330
17
102
}
330
17
100
AcDbMlineStyle
  2
Standard
 70
     0
  3

 62
   256
 51
90.0
 52
90.0
 71
     2
 49
0.5
 62
   256
  6
BYLAYER
 49
-0.5
 62
   256
  6
BYLAYER
  0
ENDSEC
  0
EOF
